<?xml version="1.0" standalone="no"?>
<!DOCTYPE svg PUBLIC "-//W3C//DTD SVG 1.1//EN" "http://www.w3.org/Graphics/SVG/1.1/DTD/svg11.dtd" >
<svg>
<metadata>
Created by FontForge 20090622 at Tue Apr  7 18:55:42 2020
 By deploy user
Brillion &#194;&#169; Subectype Studio. 2019. All Rights Reserved
</metadata>
<defs>
<font id="Brillion" horiz-adv-x="1515" >
  <font-face 
    font-family="Brillion"
    font-weight="400"
    font-stretch="normal"
    units-per-em="2048"
    panose-1="2 0 6 0 0 0 0 0 0 0"
    ascent="1638"
    descent="-410"
    x-height="648"
    cap-height="1740"
    bbox="-350.105 -1129.76 2677.26 2314"
    underline-thickness="150"
    underline-position="-142"
    unicode-range="U+001D-U+E08E"
  />
<missing-glyph horiz-adv-x="0" 
 />
    <glyph glyph-name="on" unicode="on" horiz-adv-x="1758" 
d="M1747 452q9 14 25 12q14 -1 24 -13q10 -10 4 -24q-78 -146 -166 -238t-192 -95q-69 3 -109 44q-39 42 -58 101q-18 53 -31 118q-11 72 -34 112q-21 38 -73 -3q-30 -25 -54 -100q-25 -75 -48 -165q-22 -86 -46 -127q-25 -37 -73 -52q-52 -15 -92 2q-42 18 -63 55
q-22 40 -23 113q-1 72 8 149q13 87 13 176q-2 74 -34 111q-35 38 -102 22q-44 -10 -73 -45q-27 -37 -13 -99q34 -118 18 -237q-15 -122 -83 -213t-192 -106q-135 -12 -212 44q-77 57 -99 154q-23 101 -1 210q22 112 81 213q30 48 80 36q50 -13 85 -57t14 -88
q-61 -70 -87 -166q-24 -98 -4 -171q20 -75 93 -83q76 0 124 68q49 70 62 165q15 96 -11 182q-25 85 -96 120q-88 42 -94 105t43 97t130 -8q75 -42 149 -33q72 9 137 33q66 23 124 22q62 -2 99 -53q37 -50 37 -159q-2 -115 -17 -206q-11 -66 -16 -121q-3 -49 12 -61
q19 -2 34 41q16 41 34 110q23 85 47 152q26 77 68 139q30 39 88 57t113 -4q56 -22 82 -104q25 -100 36 -185q8 -75 26 -129q17 -50 58 -57q50 -3 98 42q51 46 89 102t59 91q0 2 2 4z" />
    <glyph glyph-name="il" unicode="il" horiz-adv-x="879" 
d="M604 1553q9 69 68 81q60 10 110 -22q51 -33 37 -98q-116 -408 -122 -801q-6 -395 57 -813q4 -25 0 -46q-4 -19 -32 -30q-24 -10 -55 -11q-34 -2 -57 8q-25 9 -30 35q-13 125 -19 250q-7 128 -8 231q-3 115 -24 117q-21 0 -56 -81l-80 -185q-48 -105 -98 -158
q-51 -56 -120 -53q-67 1 -108 56q-39 52 -56 126q-17 69 -22 147q-4 73 5 134q12 49 64 64q51 16 95 -1q43 -16 25 -63q-10 -26 -15 -99t9 -135q12 -62 45 -69q60 0 118 103q58 101 118 304q61 199 88 422q27 218 42 368q15 147 21 219zM92 591q-26 15 -41 68
q-14 52 -19 110q-4 55 2 85q18 52 66 64q51 12 93 -8q44 -21 45 -65q-2 -23 -18 -66q-16 -38 -42 -89q-26 -49 -48 -75q-24 -30 -38 -24z" />
    <glyph glyph-name="li" unicode="li" horiz-adv-x="891" 
d="M690 259q-6 -150 -3 -231t9 -134q7 -52 -8 -72q-15 -21 -53 -23q-38 -3 -70 16q-31 18 -33 66q-1 32 -1 123q0 65 5 162q3 73 -14 96q-16 23 -51 -64q-2 -6 -5 -13q-42 -109 -76 -179q-36 -79 -85 -129q-48 -52 -113 -47q-99 15 -141 167q-44 153 -47 381q-4 225 17 467
q25 260 44 399q21 160 48 267q17 50 73 53q55 3 104 -33q48 -37 32 -104q-39 -93 -67 -221q-30 -131 -54 -335q-25 -213 -35 -401q-10 -198 9 -328t78 -141q43 1 91 86q49 89 76 196q31 113 55 165q24 55 78 62q53 8 94 -7q40 -13 45 -54q4 -37 -2 -190zM557 932
q18 57 71 71q52 13 99 -9t49 -72q-1 -23 -20 -73q-17 -44 -44 -99q-28 -53 -52 -84q-26 -32 -41 -26q-28 17 -43 76q-16 58 -21 122q-4 61 2 94z" />
    <glyph glyph-name="Br" unicode="Br" horiz-adv-x="2617" 
d="M1357 1108q186 4 268 -63q83 -68 84 -184q2 -118 -52 -256q-91 -235 -280 -455q-190 -221 -433 -356q-245 -137 -503 -122q-206 20 -303 106q-100 89 -119 217q-19 129 15 273q32 141 95 278q63 135 124 228q123 180 207 270l35 42q29 36 58 102q29 69 53 138
q33 94 73 182q41 90 96 156q57 66 135 82q146 25 235 -49q90 -73 120 -194q31 -119 2 -240l-6 -18q-37 -97 -23 -122q15 -23 119 -15zM919 1558q-40 -43 -84 -146q-42 -101 -76 -223q-32 -118 -43 -215q-9 -94 19 -121q36 -25 110 44q72 65 146 191q72 125 102 265
q29 167 -25 230q-54 64 -149 -25zM579 -152q25 5 36 12.5t10 18.5q-3 24 -25 53q-14 20 -26 48q-81 233 -81 472q0 231 28 453q6 79 -39 46q-46 -31 -115 -138q-72 -113 -131 -252q-63 -145 -89 -291q-27 -146 11 -260q39 -112 172 -154q96 -32 249 -8zM1498 711
q51 175 -18 258q-69 81 -243 16q-71 -30 -118 -84q-49 -59 -85 -117q-43 -72 -105 -140q-39 -41 -76 -55q-33 -13 -92 -19q-44 -9 -65 -110q-21 -100 -18 -228q3 -126 32 -219q28 -90 84 -79q137 42 280 166q141 121 258 286q116 167 166 325zM1431 -115q77 20 200 173
q124 155 177 274q55 118 66 209q12 90 -27 129q-30 27 -37 70q-7 41 14 79q20 36 75 45q75 11 176 0q100 -9 182 -56q80 -46 97 -148q4 -43 -5 -103q-7 -48 -23 -121q-24 -99 -30 -182t43 -111q35 -16 77 18q43 34 82 91q38 54 70 111q32 58 41 78q15 26 33 26q19 1 30 -16
t-1 -43l-11 -21q-31 -63 -67 -128q-44 -79 -94 -145q-53 -70 -114 -111t-129 -27q-87 24 -114 96q-26 75 -16 168t30 189q15 70 20 117q8 53 0 86q-19 67 -62 84q-42 16 -76 0t-31 -48q23 -133 -58 -357q-81 -225 -199 -397q-116 -172 -178 -187q-60 -15 -108 32
q-47 46 -58 81t25 45z" />
    <glyph glyph-name=".notdef" horiz-adv-x="0" 
 />
    <glyph glyph-name=".notdef" horiz-adv-x="0" 
 />
    <glyph glyph-name=".null" horiz-adv-x="0" 
 />
    <glyph glyph-name="nonmarkingreturn" horiz-adv-x="682" 
 />
    <glyph glyph-name="space" unicode=" " horiz-adv-x="800" 
 />
    <glyph glyph-name="space" unicode="&#xa0;" horiz-adv-x="800" 
 />
    <glyph glyph-name="exclam" unicode="!" horiz-adv-x="424" 
 />
    <glyph glyph-name="quotedbl" unicode="&#x22;" horiz-adv-x="663" 
 />
    <glyph glyph-name="numbersign" unicode="#" horiz-adv-x="1625" 
 />
    <glyph glyph-name="dollar" unicode="$" horiz-adv-x="1321" 
 />
    <glyph glyph-name="percent" unicode="%" horiz-adv-x="1549" 
 />
    <glyph glyph-name="ampersand" unicode="&#x26;" horiz-adv-x="1212" 
 />
    <glyph glyph-name="quotesingle" unicode="'" horiz-adv-x="462" 
 />
    <glyph glyph-name="parenleft" unicode="(" horiz-adv-x="569" 
 />
    <glyph glyph-name="parenright" unicode=")" horiz-adv-x="709" 
 />
    <glyph glyph-name="asterisk" unicode="*" horiz-adv-x="332" 
 />
    <glyph glyph-name="plus" unicode="+" horiz-adv-x="899" 
 />
    <glyph glyph-name="comma" unicode="," horiz-adv-x="330" 
 />
    <glyph glyph-name="hyphenminus" unicode="-" horiz-adv-x="982" 
 />
    <glyph glyph-name="hyphenminus" unicode="&#xad;" horiz-adv-x="982" 
 />
    <glyph glyph-name="period" unicode="." horiz-adv-x="406" 
 />
    <glyph glyph-name="slash" unicode="/" horiz-adv-x="758" 
 />
    <glyph glyph-name="zero" unicode="0" horiz-adv-x="968" 
 />
    <glyph glyph-name="one" unicode="1" horiz-adv-x="389" 
 />
    <glyph glyph-name="two" unicode="2" horiz-adv-x="1118" 
 />
    <glyph glyph-name="three" unicode="3" horiz-adv-x="921" 
 />
    <glyph glyph-name="four" unicode="4" horiz-adv-x="1031" 
 />
    <glyph glyph-name="five" unicode="5" horiz-adv-x="1053" 
 />
    <glyph glyph-name="six" unicode="6" horiz-adv-x="852" 
 />
    <glyph glyph-name="seven" unicode="7" horiz-adv-x="934" 
 />
    <glyph glyph-name="eight" unicode="8" horiz-adv-x="977" 
 />
    <glyph glyph-name="nine" unicode="9" horiz-adv-x="944" 
 />
    <glyph glyph-name="colon" unicode=":" horiz-adv-x="600" 
 />
    <glyph glyph-name="semicolon" unicode=";" horiz-adv-x="523" 
 />
    <glyph glyph-name="less" unicode="&#x3c;" horiz-adv-x="1174" 
 />
    <glyph glyph-name="equal" unicode="=" horiz-adv-x="970" 
 />
    <glyph glyph-name="greater" unicode="&#x3e;" horiz-adv-x="1123" 
 />
    <glyph glyph-name="question" unicode="?" horiz-adv-x="1030" 
 />
    <glyph glyph-name="at" unicode="@" horiz-adv-x="1831" 
 />
    <glyph glyph-name="A" unicode="A" horiz-adv-x="1290" 
d="M1186 1055q-59 -6 -77 -36q-9 -17 -15 -51q-4 -23 -10 -71q-1 -11 -2.5 -30.5t-2.5 -26.5q-15 -212 -8 -494q8 -289 58 -497q9 -56 -38 -85q-46 -30 -102 -22q-54 7 -68 66q-24 204 -24 403q-1 199 6 403q4 131 5 200v10q1 8 1.5 30t0.5 33q0 28 -2 74q-3 37 -10 47
q-22 24 -74 19q-52 -6 -102 -24t-77 -32q-52 -32 -78 -79q-27 -48 -42 -107q-46 -156 -66 -355q-21 -196 25 -353q12 -42 -22 -65q-35 -25 -77 -26q-43 -1 -61 21q-25 47 -38 126q-13 88 -13 160q-2 39 -16 56q-17 19 -42 34q-27 17 -67 52q-62 58 -83 150q-21 91 38 203
q59 111 238 224q40 23 41 23q26 15 52 32q17 14 30 34q20 35 34 63q3 4 8 14.5l8 16.5l16 33l85 162q54 98 107 171q56 79 111 113q49 27 107 25q60 -2 104 -34q45 -32 59 -100q2 -34 2 -83q0 -69 3 -138t13 -89q18 -24 70 -25t66 -26q14 -23 0 -83q-14 -59 -71 -66z
M341 762q11 43 -2 47q-13 5 -35 -13q-22 -17 -47 -43q-21 -22 -34 -42q-40 -62 -37 -138q5 -76 62 -135q10 -9 16 -4q5 5 8 15l2.5 12t1.5 9q0 6 1 9q24 125 64 283zM901 1233q10 24 18 77q7 51 4 105q-3 51 -23 65q-15 3 -35 -15q-20 -17 -39 -41t-26 -35l-24 -40
q-7 -12 -37 -67q-18 -38 -27 -67q-8 -30 4 -39q24 -5 62 1q39 6 75 20q36 15 48 36z" />
    <glyph glyph-name="B" unicode="B" horiz-adv-x="1814" 
d="M1357 1108q186 4 268 -63q83 -68 84 -184q2 -118 -52 -256q-91 -235 -280 -455q-190 -221 -433 -356q-245 -137 -503 -122q-206 20 -303 106q-100 89 -119 217q-19 129 15 273q32 141 95 278q63 135 124 228q123 180 207 270l35 42q29 36 58 102q29 69 53 138
q33 94 73 182q41 90 96 156q57 66 135 82q146 25 235 -49q90 -73 120 -194q31 -119 2 -240l-6 -18q-37 -97 -23 -122q15 -23 119 -15zM919 1558q-40 -43 -84 -146q-42 -101 -76 -223q-32 -118 -43 -215q-9 -94 19 -121q36 -25 110 44q72 65 146 191q72 125 102 265
q29 167 -25 230q-54 64 -149 -25zM579 -152q25 5 36 12.5t10 18.5q-3 24 -25 53q-14 20 -26 48q-81 233 -81 472q0 231 28 453q6 79 -39 46q-46 -31 -115 -138q-72 -113 -131 -252q-63 -145 -89 -291q-27 -146 11 -260q39 -112 172 -154q96 -32 249 -8zM1498 711
q51 175 -18 258q-69 81 -243 16q-71 -30 -118 -84q-49 -59 -85 -117q-43 -72 -105 -140q-39 -41 -76 -55q-33 -13 -92 -19q-44 -9 -65 -110q-21 -100 -18 -228q3 -126 32 -219q28 -90 84 -79q137 42 280 166q141 121 258 286q116 167 166 325z" />
    <glyph glyph-name="C" unicode="C" horiz-adv-x="1069" 
d="M1070 435q16 18 37 18q23 0 34 -15q12 -16 -6 -47q-39 -60 -136 -165q-92 -100 -209 -208q-112 -103 -187 -147q-141 -76 -277 -63q-135 12 -214 97q-85 101 -98 322q-15 220 23 486q37 262 107 494q71 229 155 346q70 82 185 103q115 19 217 0q100 -18 131 -52
q53 -84 49 -256q-3 -170 -32 -352q-27 -172 -50 -275q-11 -39 -46 -48q-37 -9 -69 4t-35 41q4 54 17 140q18 117 30 258q10 140 -9 246q-21 105 -101 122q-60 5 -125 -101q-64 -106 -121 -278t-93 -368q-35 -191 -38 -374q-3 -175 41 -292q44 -116 146 -127q101 -3 226 74
q123 76 246 193q125 122 202 224z" />
    <glyph glyph-name="D" unicode="D" horiz-adv-x="1667" 
d="M24 1096q62 170 199 297q141 128 320 200q181 73 369 84q187 12 347 -50q159 -60 254 -203q96 -142 91 -376q-13 -244 -154 -512q-140 -270 -342 -500q-204 -232 -402 -362q-45 -26 -78 -11q-34 16 -43 49q-10 32 16 60l73 64q66 58 86 78q24 26 17 36q-6 10 -36 24
q-3 1 -17 8q-37 20 -43 51q-6 30 -1 69q27 230 -9 373q-34 141 -109 222q-74 79 -165 118q-88 38 -177 61q-76 21 -124 43q-54 23 -75 63t3 114zM998 171q126 150 235 351q108 196 154 406q45 208 -17 387q-46 126 -158 202q-133 87 -292 82q-160 -5 -308 -75
q-149 -72 -252 -184q-104 -115 -125 -243q-11 -75 42 -116q51 -41 147 -82q67 -28 165 -82q72 -39 102 14q31 55 35 154q6 101 3 205q-4 112 3 176q11 42 66 58q57 17 107 1q52 -16 49 -78l-9 -82q-22 -188 -43 -413q-19 -213 -20 -413v-5v-22.5v-35.5v-38q1 -59 8 -127
q6 -62 22 -76q25 -18 46 -3q18 11 37 36z" />
    <glyph glyph-name="E" unicode="E" horiz-adv-x="1445" 
d="M1409 1671q60 -12 65 -69q5 -58 -25 -108q-29 -52 -68 -46q-263 65 -512 36q-247 -28 -511 -140q-54 -19 -84 14q-32 33 -21 81q9 48 77 75q261 88 552 135q289 46 527 22zM1159 424q9 24 45 29q37 4 66 -14q30 -20 20 -51q-2 -7 -7.5 -21.5t-6.5 -17.5
q-45 -150 -117 -282q-73 -138 -174 -210q-98 -71 -237 -35q-81 30 -123 128q-41 99 -56 215q-15 105 -20 203q-5 72 -10 88q-20 37 -85 1q-65 -34 -135 -113q-69 -78 -99 -166q-30 -89 22 -159q33 -43 8 -59q-26 -17 -79 -6q-53 12 -101 51q-49 41 -59 109q-12 67 46 167
q64 99 157 167q91 66 179 117q42 23 90 56q37 24 48 47q10 28 19 175q10 142 25 276q14 141 48 237q21 42 83 36t106 -50q45 -44 14 -114q-37 -92 -65 -232q-28 -148 -28 -241q3 -38 46 -42q40 -4 102 2q76 11 135 -1q43 -13 46 -46q4 -31 -41 -45q-27 -5 -72 -7
q-48 0 -105 -11q-54 -9 -96 -45q-18 -21 -20 -119q-2 -100 16 -213q18 -119 56 -199q37 -81 99 -73q59 17 109 92q51 77 88 175q39 99 63 201z" />
    <glyph glyph-name="F" unicode="F" horiz-adv-x="1332" 
d="M1307 1652q33 -8 30 -42q-3 -35 -36 -83q-31 -49 -67 -64q-34 -16 -85 11q-130 64 -366 12q-234 -51 -324 -98q-57 -28 -48 -49q11 -21 66 -54q17 -10 58 -38q62 -45 92 -26q30 20 44 122q24 43 80 58q57 15 95 -7q38 -21 35 -90q-44 -241 -54 -374q-10 -146 27 -158
q39 -12 128 12q39 10 107 22q48 11 67 -17t23 -61q5 -33 -29 -44q-28 -9 -91 -26q-69 -16 -133 -39q-64 -24 -87 -60q-20 -40 -26 -146q-6 -107 -9 -256q-3 -156 1 -245q2 -82 2 -93q-3 -66 -48 -81q-44 -14 -97 11q-52 24 -54 75q3 20 6 64q7 63 17 250q9 162 7 259
q-2 89 -23 108q-17 8 -40 -2q-25 -11 -49 -28q-33 -20 -51 -28q-32 -8 -60 23q-29 30 -35 61t17 49q50 33 108 58q44 18 81 41q34 22 44 53q20 131 2 230q-18 100 -89 171q-69 69 -199 89q-49 4 -86 -6q-35 -10 -69 -26q-36 -17 -67 -23q-34 -5 -68 19q-54 41 -36 83
q18 43 71 79q54 39 100 63q14 8 20 12q174 103 526 194q350 89 572 35z" />
    <glyph glyph-name="G" unicode="G" horiz-adv-x="1274" 
d="M915 1585q92 -47 131 -141q39 -95 45 -205q6 -116 2 -207v-22q-6 -29 -54 -40q-48 -9 -98 0q-51 9 -45 74q18 100 10 216q-9 114 -48 183t-110 69q-114 -9 -209 -152q-97 -145 -168 -356q-74 -218 -113 -428q-41 -209 -44 -366q-3 -152 41 -173q47 -12 109 41
q59 48 129 137q69 90 116 163q50 74 75 116q34 61 21 82q-16 22 -75 -11q-29 -16 -76 -53q-42 -33 -54 -70q-13 -48 -50 -46q-35 0 -65 35q-29 33 -21 87q8 53 82 111q121 86 248 112q129 27 227 -8q97 -36 116 -139q6 -50 -2 -111q-7 -63 -21 -143q-24 -127 -20 -260
q4 -134 41 -259q15 -53 -25 -71q-40 -17 -94 -17t-78 66q-27 130 -24 257q5 144 15 223q7 77 7 105q1 39 -11 45q-12 2 -25 -11q-16 -18 -25 -34q-16 -25 -20 -35q-2 -4 -6 -10q-64 -114 -146 -230q-83 -117 -174 -204q-61 -53 -146 -56q-84 -4 -159 31q-73 36 -92 102
q-33 130 -12 365q21 233 87 495q64 259 167 464q105 206 234 274q88 44 199 47q109 3 208 -42z" />
    <glyph glyph-name="H" unicode="H" horiz-adv-x="1397" 
d="M1132 1624q26 52 93 58q67 7 113 -22q45 -30 20 -90q-88 -181 -155 -460q-66 -280 -81 -560q-13 -278 35 -493q48 -213 170 -302q38 -31 19 -76q-19 -46 -59 -64q-39 -19 -77 -1q-94 55 -148 172q-54 112 -80 258q-25 146 -26 263q-2 131 1 213q-2 127 -73 145t-258 -34
q-68 -19 -88 -86q-19 -64 -22 -207q-3 -141 21 -210q17 -66 25 -118q10 -62 1 -119q-13 -58 -52 -88q-40 -29 -86 -25q-47 6 -83 57q-16 25 -19 96q-2 57 1 174q1 64 -34 110q-37 46 -90 77q-51 31 -109 57q-79 35 -117 69q-38 35 13 88q48 51 240 141q83 42 102 85
q20 41 22 123q2 22 2 34q2 31 22 301q13 163 27 238q17 39 66 51q51 13 93 0q44 -14 38 -56q-18 -109 -30 -255q-18 -200 -22 -260q0 -4 -0.5 -11.5t-1.5 -11.5q-3 -61 15 -96q18 -34 130 -6q49 11 157 31q55 9 92 47q36 38 93 334q55 289 100 429zM290 387q33 -11 41 15
q7 22 5 70q0 10 -2 32q0 14 -18 21q-17 6 -40 -9q-22 -14 -42 -30q-19 -16 -26 -25q-15 -19 0 -34t40 -25q23 -10 41 -15h1z" />
    <glyph glyph-name="I" unicode="I" horiz-adv-x="868" 
d="M717 164q8 -2 31 -12q18 -10 22 -20q6 -11 -14 -23q-79 -40 -127 -71q-43 -28 -65 -54q-26 -31 -52 -72q-28 -45 -87 -123q-28 -40 -65 -52q-38 -12 -102 6q-66 23 -59 72q6 49 46 101q39 52 69 84l8 8q32 38 35 78q4 37 -9 91q-55 245 -58 629q-3 380 54 611
q23 62 88 75q66 12 119 -19q53 -30 35 -100q-62 -214 -89 -541q-27 -326 -10 -560q6 -77 31 -93q26 -15 70 -8q49 10 129 -7zM795 1634q1 -34 -9 -51q-10 -16 -37 -13q-25 4 -46 10q-49 14 -133 22q-80 6 -183 -29q-79 -32 -131 -81q-46 -44 -80 -90q-35 -50 -64 -63
q-36 -12 -63 17t-38 72q-12 40 3 71q66 107 201 176q133 68 278 65q146 -5 223 -37q79 -33 79 -69z" />
    <glyph glyph-name="J" unicode="J" horiz-adv-x="1245" 
d="M541 1764q125 71 265 74q141 3 246 -59q106 -61 130 -186q33 -247 -17 -514q-49 -265 -155 -520q-104 -249 -255 -481q-149 -230 -276 -316q-99 -63 -210 -54q-110 7 -172 92q-62 83 27 328q35 108 87 205q58 112 109 196q18 32 28 48q24 45 3 61q-20 16 -65 25
q-26 6 -59 17q-141 57 -185 186q-42 128 5 294q46 163 173 324q125 160 321 280zM942 940q12 70 -42 48q-53 -20 -141 -97q-83 -75 -168 -170q-83 -95 -126 -168q-173 -298 -242 -506q-69 -210 45 -211q88 6 233 191q145 182 265 416q118 232 176 497zM981 1257
q21 72 12 173q-9 103 -58 180t-150 79q-91 -6 -199 -90q-107 -82 -206 -213q-95 -125 -154 -265q-57 -141 -42 -250q14 -111 127 -164q69 -24 138 23q71 49 143 123q12 13 80 75q31 28 86 73q84 68 139 126q59 59 84 130z" />
    <glyph glyph-name="K" unicode="K" horiz-adv-x="1112" 
d="M1105 452q21 32 45 32q25 0 34 -21q11 -23 -10 -54q-135 -211 -335 -267q-200 -55 -329 -31q-133 23 -213 76q-54 26 -72 22q-19 -6 -19 -66q0 -30 9 -84q16 -94 21 -120q12 -67 24 -101q18 -54 -20 -77q-39 -23 -86 -16q-49 7 -67 43q-56 156 -71 495q-16 342 0 714
q16 371 60 616q17 72 77 77q62 5 115 -11q56 -17 30 -122q-25 -120 -47 -307q-22 -189 -36 -323q-2 -14 -2 -19q-12 -110 2 -146t44 -16q31 18 69 65l74 97l14 19l12 16q99 134 212 320q118 193 186 345q21 36 74 24t94 -50t23 -78q-114 -194 -282 -423q-179 -240 -310 -394
q-101 -127 -85 -221t108 -150q93 -57 219 -64q127 -9 247 39t191 161z" />
    <glyph glyph-name="L" unicode="L" horiz-adv-x="985" 
d="M968 441q15 32 43 34q27 3 42 -17q17 -20 0 -54q-23 -43 -28 -54q-59 -114 -129 -233q-73 -125 -159 -227q-88 -105 -190 -158q-101 -54 -220 -28q-178 50 -251 219q-75 173 -75 407q-1 237 42 489q43 247 101 464q62 224 101 333q17 43 71 60q54 15 110 5q56 -12 86 -49
q29 -37 -1 -99q-40 -74 -100 -242q-58 -162 -111 -371q-53 -210 -77 -416q-25 -207 2 -377q27 -169 128 -252q79 -56 174 -2q95 55 186 167t160 226q70 119 95 175z" />
    <glyph glyph-name="M" unicode="M" 
d="M1239 1387q-14 -142 -21 -344q-8 -214 2 -419q10 -214 53 -398q44 -182 131 -280q24 -34 -10 -80t-92 -67q-57 -20 -96 25q-67 94 -95 247q-29 148 -38 336q-7 171 -7 359q2 257 -18 419q-11 56 -50 -21q-38 -75 -90 -221l-103 -295q-43 -132 -75 -219q-32 -77 -89 -106
q-58 -30 -114 -11t-85 90q-23 73 -31 210q-6 113 -8 287q-2 132 -6 244t-21 178q-16 66 -51 57q-26 -13 -58 -132q-30 -120 -54 -297q-23 -174 -28 -366q-5 -190 22 -337q27 -150 96 -211q38 -35 23 -82q-17 -48 -63 -79q-47 -31 -101 -22t-92 87q-64 152 -67 382
q-3 232 33 487q34 249 86 475q54 223 97 345q29 74 92 95q64 21 125 -1q60 -20 86 -76q13 -36 16 -164q2 -85 2 -294q0 -111 2 -311q3 -146 14 -249q12 -98 38 -98q31 9 79 116q49 109 99 265q49 146 97 312q45 155 72 258q20 65 68 80q50 14 103 -8q54 -22 93 -67
q37 -44 34 -99z" />
    <glyph glyph-name="N" unicode="N" horiz-adv-x="1465" 
d="M913 1590q-33 47 -14 99q18 51 68 83q51 30 107 15q58 -17 98 -105q41 -101 51 -338q11 -237 0 -524q-10 -286 -36 -536q-25 -249 -57 -374q-26 -84 -84 -117t-121 -12q-62 21 -98 99q-48 118 -149 452l-111 352q-56 178 -114 334q-60 160 -105 244q-48 90 -82 81
q-27 -13 -48 -144q-22 -130 -30 -326q-8 -205 5 -401q13 -203 56 -369q43 -163 123 -232q44 -38 32 -90q-12 -51 -59 -86q-48 -34 -106 -24q-59 11 -106 95q-82 166 -107 419q-26 262 -13 534q14 290 47 520q33 240 69 379q24 81 89 104q64 24 132 -1q69 -24 100 -84
q15 -31 51 -159l87 -309l147 -514q71 -247 142 -448q66 -183 98 -186q34 13 55 215q22 216 21 481q0 275 -32 525q-33 247 -106 348z" />
    <glyph glyph-name="O" unicode="O" 
d="M763 1687q192 13 319 -111q126 -121 191 -332q65 -210 68 -451q0 -315 -97 -594q-97 -274 -231 -379q-137 -98 -270 -98q-132 -1 -238 91q-103 90 -150 271q-44 175 -47 354q0 120 1 157q2 61 -1 83q-3 27 -19 36q-13 9 -52 19q-8 2 -27.5 8t-27.5 8q-110 35 -146 98
q-36 64 -6 173q47 164 151 310q103 143 254 242q149 97 328 115zM1099 708q1 221 -41 427q-42 204 -135 327q-94 123 -244 105q-76 -13 -146 -67q-68 -52 -126 -122q-57 -71 -91 -133q-78 -146 -84 -245t22 -145t54 -29q11 11 14 40q4 40 4 57q0 5 0.5 12t0.5 10
q3 75 20 138q21 55 84 68q64 13 119 -9t52 -77q-31 -195 -55 -408q-23 -201 -18 -374q4 -171 53 -289q48 -117 157 -153q96 -24 177 96q80 121 130 328q50 203 53 443z" />
    <glyph glyph-name="P" unicode="P" horiz-adv-x="1448" 
d="M1035 1675q187 -38 269 -147q84 -111 85 -255q3 -144 -53 -291q-47 -127 -141 -257q-92 -124 -216 -212q-125 -88 -276 -113q-41 -6 -52 -20q-11 -15 -10 -51q-3 -120 4 -268q7 -150 26 -266q7 -61 -41 -81q-49 -20 -101 -2q-54 18 -63 70q-7 84 -3 172q0 9 0.5 27.5
t1.5 27.5v10q2 80 -2 107q-3 35 -22 48q-16 14 -62 31q-11 4 -59 25q-155 71 -227 197q-72 123 -83 275q-9 151 25 293q55 230 202 400q145 166 352 243q206 76 446 37zM690 534q82 -2 175 78q91 78 172 206t123 268q44 142 26 262q-16 120 -117 188q-146 86 -329 36
q-182 -49 -338 -214q-154 -165 -213 -423q-23 -102 -18 -233q3 -129 52 -246q50 -115 163 -167q34 -13 50 -7q15 6 18 25q3 22 2 43q0 13 1 19q11 437 -10 866q2 69 56 90q55 22 110 -3q56 -26 58 -101q-3 -100 -13 -227q-20 -193 -11 -415q1 -23 9 -34q9 -11 34 -11z" />
    <glyph glyph-name="Q" unicode="Q" horiz-adv-x="1448" 
d="M1141 -2q-26 -44 -40 -65q-10 -17 -13 -31q-4 -16 5 -34q12 -16 19 -23q35 -32 72 -56q4 -2 7 -4q6 -5 19 -13t16 -10q38 -31 22 -82q-15 -53 -61 -90t-99 -16q-43 20 -77 51q-31 28 -64 66q-2 2 -6.5 7.5t-7.5 8.5q-28 31 -47 36q-18 3 -51 -6q-1 0 -6 -1.5t-8 -2.5
q-63 -16 -123 -10q-112 12 -192 83t-123 178q-19 44 -32 100q-44 175 -47 354q0 120 1 157q2 61 -1 83q-3 27 -18 36q-16 10 -52 19l-25.5 7.5t-29.5 8.5q-106 34 -143 98q-36 64 -6 173q44 162 149 310q103 145 251 242q146 97 323 115q189 13 315 -111q126 -123 189 -332
q64 -212 67 -451q2 -201 -44 -410q-46 -207 -139 -385zM1085 708q1 221 -41 427q-40 202 -133 327q-93 123 -241 105q-76 -14 -144 -67q-67 -51 -124 -122q-54 -67 -90 -133q-77 -144 -83 -245q-7 -96 21 -145q28 -46 54 -29q11 11 14 40q2 19 4 57q0 16 1 22q1 66 19 138
q21 54 83 68q64 14 118 -9q56 -23 51 -77q-32 -205 -54 -408q-23 -201 -18 -374q4 -169 52 -289q48 -117 155 -153q8 -2 29 -4q19 -1 34 3q16 5 17 21q1 13 -8 32q-6 12 -18 32q-4 8 -6 11q-23 41 -55 111q-29 66 -34 117q2 32 27 53q27 23 57 27q32 3 46 -20
q47 -90 100 -168q9 -10 20 -15q10 -4 22 8q7 9 11 19q6 12 9 21q54 148 79 304q24 155 26 315z" />
    <glyph glyph-name="R" unicode="R" horiz-adv-x="1537" 
d="M1017 1680q159 -6 273 -69q116 -65 165 -178q51 -114 15 -271q-45 -167 -150 -323q-106 -157 -240 -290q-131 -131 -251 -223q-34 -29 -22 -39q14 -13 66 -27q54 -15 171 -54q109 -35 238 -105q120 -67 146 -129q24 -64 1 -114q-22 -52 -65 -70q-42 -18 -55 14
q-12 46 -69 112q-58 67 -225 146q-170 81 -374 96q-19 0 -38 -4q-20 -4 -26 -25q-5 -38 4 -94q8 -52 22 -98q25 -68 58 -95q35 -27 63 -36q20 -8 29 -16q11 -7 13 -24q0 -20 -39 -31q-41 -10 -95 2q-57 12 -109 55q-53 44 -80 131q-41 146 -47 369q-6 221 14 440
q19 209 58 323q27 58 97 71q71 15 124 -17q52 -34 22 -117q-52 -125 -94 -287q-41 -156 -43 -297q2 -44 22 -49t45 10q29 17 42 29q144 106 270 243q125 135 215 291q76 136 99 267q22 128 -29 225q-50 95 -194 131q-127 28 -270 -10q-138 -36 -269 -124q-125 -87 -210 -206
q-83 -118 -97 -253q-14 -134 72 -266q23 -33 48 -60q16 -16 21 -26t-10 -13q-56 -6 -117 39q-64 47 -99 92q-114 148 -73 315q41 168 188 314q148 148 356 238q209 90 433 87z" />
    <glyph glyph-name="S" unicode="S" horiz-adv-x="1148" 
d="M803 663q135 -60 167 -157q32 -98 -7 -207q-39 -111 -117 -213q-75 -98 -164 -173q-156 -129 -266 -169q-111 -40 -181 -21q-70 18 -104 70q-33 52 -32 106q1 69 40 145q40 76 90 136q58 69 95 104q32 27 63 24q34 -3 47 -27q15 -24 -10 -59q-39 -48 -82 -121
q-44 -73 -41 -134q11 -50 81 -38q70 10 172 105q102 94 166 211q65 117 57 200q-9 84 -109 135q-75 33 -192 57q-105 24 -201 55q-101 33 -173 93q-73 60 -88 162q-10 101 38 238q50 136 151 273q100 136 188 228q87 91 141 94q56 4 99 -90q44 -94 -52 -166
q-93 -68 -203 -199q-107 -128 -134 -234q-26 -108 8 -184q34 -60 108 -92q66 -30 182 -63q113 -30 263 -89z" />
    <glyph glyph-name="T" unicode="T" horiz-adv-x="1094" 
d="M1537 1642q46 -25 43 -63q-1 -38 -35 -75q-32 -35 -79 -49q-45 -13 -87 16q-95 83 -230 99q-137 16 -249 -3q-115 -20 -232 -58q-122 -39 -209 -82q-57 -26 -48 -48q11 -21 66 -52l58 -38q62 -44 92 -26t44 118q24 40 80 55q58 14 105 -8q48 -21 46 -88
q-55 -304 -67 -743q-13 -413 -8 -752q-3 -65 -57 -78q-53 -13 -108 11q-53 26 -53 74q0 10 1 15q22 257 37 627q14 359 -15 518q-21 97 -90 166q-71 70 -198 89q-51 5 -86 -5q-38 -10 -69 -24q-32 -15 -67 -22q-34 -5 -68 19q-54 41 -36 81q20 41 71 75q54 37 100 60
q14 8 20 11q176 100 413 171q240 72 477 81q241 10 438 -72z" />
    <glyph glyph-name="U" unicode="U" horiz-adv-x="1313" 
d="M859 1378q3 70 44 91q39 21 117 6q77 -17 71 -93q-1 -13 -5 -45.5t-6 -51.5q-27 -233 -40 -318q-14 -104 -14 -480q0 -385 62 -686q7 -53 -35 -83q-45 -29 -98 -22t-77 63q-8 26 -12 149l-9 260q-1 20 -2.5 81t-2.5 86q-3 54 -5 54q-22 -139 -81 -292q-61 -154 -152 -258
q-92 -105 -214 -110q-159 6 -247 154q-87 148 -120 380q-33 233 -30 491q3 264 25 488q22 236 43 368q19 70 81 72q61 3 119 -23q58 -25 45 -94q-44 -175 -70 -385q-28 -229 -34 -447q-6 -232 13 -422q19 -192 71 -312q51 -117 140 -115q119 12 200 168q81 155 131 397
q50 235 71 506q21 284 21 423z" />
    <glyph glyph-name="V" unicode="V" horiz-adv-x="1372" 
d="M956 1687q-3 64 37 99q40 36 93 37q53 3 94 -29q40 -33 40 -103q-8 -162 -48 -406q-44 -256 -110 -517q-69 -272 -156 -510q-88 -240 -188 -387q-100 -146 -205 -145q-112 12 -199 149q-88 139 -149 348q-62 207 -100 446q-37 219 -51 441q-13 203 -1 335q11 47 56 65
q47 17 100 8q53 -7 90 -38q35 -30 28 -76q-32 -148 -35 -350q-1 -193 20 -402q22 -206 63 -378q38 -168 91 -278q51 -104 108 -101q57 12 133 207q75 187 149 483q72 287 114 586q41 299 26 516z" />
    <glyph glyph-name="W" unicode="W" horiz-adv-x="1524" 
d="M1318 1800q44 48 101 26q57 -24 90 -76t4 -88q-97 -104 -154 -293q-57 -188 -93 -491t-42 -515q-6 -213 -3 -366q-2 -61 -45 -109q-45 -49 -106 -73q-63 -23 -112 -6q-52 16 -67 89l-53 273q-32 157 -72 319q-38 154 -78 267q-39 108 -71 117q-13 1 -24.5 -23t-22.5 -74
q-18 -92 -34 -250q-15 -155 -27 -313q-16 -200 -26 -290q-12 -123 -28 -165q-29 -59 -95 -83q-66 -23 -128 2q-64 24 -89 106q-37 136 -73 365q-37 232 -53 486q-16 256 5 498q21 239 97 403q43 84 101 93q56 11 102 -26q47 -36 60 -88t-29 -90q-77 -68 -114 -231
q-38 -158 -47 -370q-9 -207 3 -403q12 -191 35 -328q24 -132 50 -146q18 -5 32.5 10t24.5 51q20 70 34 196q10 94 23 268q11 152 29 316q16 147 47 231q35 78 94 97t117 -14q57 -35 83 -119q26 -92 63 -242l84 -326q43 -161 78 -247q35 -84 50 -23q32 177 48 460
q10 170 43 476q32 284 73 450q40 167 115 269z" />
    <glyph glyph-name="X" unicode="X" horiz-adv-x="1617" 
d="M1617 441q13 29 40 31t45 -18q18 -19 6 -52q-148 -296 -312 -496q-165 -200 -380 -172q-216 27 -449 307q-11 14 -23 24q-15 13 -29 10q-18 -6 -33 -27q-12 -14 -25 -36l-1 -2q-3 -4 -4 -8l-1 -2q-1 -2 -2 -2l-346 -582q-26 -40 -62 -35q-35 3 -70 32q-31 27 -52 62
q-18 33 -9 52l355 507l54 79l64 92q28 38 34 80v14q0 7 -2 17q-4 23 -14 55q-1 3 -3 9.5t-3 9.5t-3 11q-2 4 -4 12q-83 286 -85 605q-2 320 55 610l1 2q11 44 67 65q55 22 123 20q67 -2 107 -31q41 -29 20 -87q-94 -240 -127 -505q-33 -264 16 -519q6 -34 19 -44t40 19
l30 39q4 6 10 14q242 334 419 544q180 213 240 260q43 27 96 -15q54 -43 73 -106q21 -65 -31 -105q-445 -367 -771 -808q-34 -46 -24 -101q9 -32 27 -66q27 -46 38 -61q56 -87 131 -151q73 -65 172 -100q184 -36 334 146q150 184 249 403z" />
    <glyph glyph-name="Y" unicode="Y" horiz-adv-x="1304" 
d="M821 1614q-2 117 47 166q49 51 108 34q58 -16 85 -97q39 -135 59 -389q19 -245 7 -547q-12 -298 -69 -580t-168 -486q-113 -204 -291 -265q-74 -14 -115 43q-41 56 -41 122q2 65 53 77q149 24 244 167q94 140 144 346q49 202 66 412q15 204 7 366q-9 159 -31 207
q-21 44 -44 -42q-2 -11 -5 -23q-26 -132 -70 -312q-49 -198 -116 -384q-68 -194 -164 -334q-95 -138 -214 -156q-121 -9 -182 89q-62 96 -82 262q-19 165 -9 352q9 188 33 358q26 185 47 280q22 84 85 93q62 8 111 -34t29 -107q-30 -82 -60 -220q-32 -139 -51 -295
q-21 -154 -19 -292q2 -139 35 -210q34 -75 113 -49q85 38 167 220q82 181 150 425q66 237 106 464q38 217 35 339z" />
    <glyph glyph-name="Z" unicode="Z" horiz-adv-x="1435" 
d="M1308 -89q19 -34 9 -70t-47 -51q-21 -6 -65 0q-45 6 -90 15q-39 9 -330 -5q-290 -12 -502 -51q-147 -21 -215 32q-69 54 -61 129q6 76 83 124q272 156 475 355q203 200 333 403q130 204 179 371q50 168 13 260q-36 93 -165 71q-234 -46 -405 -217q-83 -86 -142 -198
q-57 -108 -74 -232q-4 -32 -4 -66q2 -43 6 -66q2 -11 3 -24q5 -25 7 -51q-2 -28 -26 -43q-52 -30 -91 8q-38 37 -64 99q-22 56 -32 100q-21 148 41 287q62 142 170 259q107 118 223 193q115 78 255 120q136 41 262 5q123 -36 194 -191q63 -157 24 -331q-37 -170 -137 -343
q-102 -172 -223 -318q-125 -151 -230 -256q-103 -103 -161 -156l-27 -26q-67 -69 17 -75q79 -7 249 10q258 22 370 7q41 -4 98 -23q52 -16 80 -55z" />
    <glyph glyph-name="a" unicode="a" horiz-adv-x="897" 
d="M899 444q9 20 30 25t36 -9t9 -46q-23 -66 -83 -191q-57 -119 -129 -213t-144 -96q-76 4 -112 46q-35 39 -47 99q-12 65 -13 115q-3 56 -12 92t-41 33q-24 -5 -46 -36q-23 -30 -48 -75q-44 -79 -98 -137q-57 -61 -141 -48q-77 21 -106 99q-27 78 -12 182q15 105 66 199
q52 98 130 151q79 55 179 37q62 -16 80 -55q17 -39 18 -78q2 -36 12 -52q16 -14 52 -23q44 -10 80 -32q39 -22 48 -78q0 -12 -1 -24q-1 -24 -1 -95q2 -59 12 -107q12 -48 41 -54q33 0 77 56q46 58 90 142q46 92 74 173zM333 439q15 55 -11 78q-27 25 -70 7
q-64 -32 -104 -117q-39 -87 -43 -157q-6 -72 29 -75q37 7 81 65q42 57 78 119q35 66 40 80z" />
    <glyph glyph-name="b" unicode="b" horiz-adv-x="842" 
d="M523 769q64 7 129 -32q64 -39 78 -121q14 -130 -42 -252q-53 -120 -155 -195q-99 -72 -221 -57q-24 6 -38 21q-12 17 -9 32q3 16 25 20q73 12 133 80q61 69 99 156q37 87 42 155q3 69 -37 79q-57 8 -130 -91q-76 -104 -133 -271q-58 -173 -69 -381v-15q1 -21 -3 -36
q-4 -16 -25 -25q-24 -9 -50 -10q-30 -2 -52 7q-24 10 -28 36q-32 251 -41 575q-9 309 14 616q24 306 85 528q16 48 68 51q52 2 91 -32q40 -34 26 -99q-36 -113 -84 -383q-48 -275 -52 -640q0 -74 13 -81q12 -6 53 67q31 56 79 122q50 67 108 115q59 50 126 61z" />
    <glyph glyph-name="c" unicode="c" horiz-adv-x="617" 
d="M605 459q15 11 39 10q26 0 42 -14q15 -14 -6 -41q-68 -84 -151 -170q-87 -90 -198 -157q-84 -46 -165 -65q-84 -20 -147 0q-64 20 -82 92q-16 85 16 209q33 122 95 229q63 107 135 151q67 33 114 10q48 -25 55 -66q9 -41 -38 -62q-37 -13 -88 -57q-51 -45 -88 -113
q-38 -69 -38 -160q1 -56 55 -82q54 -27 159 29q81 48 139 102q64 60 110 111z" />
    <glyph glyph-name="d" unicode="d" horiz-adv-x="827" 
d="M510 1525q-17 71 25 88q41 18 96 18q54 1 65 -43q-44 -593 -46 -1051q0 -470 4 -623q-5 -30 -43 -42q-35 -13 -84 3q-46 16 -52 72q20 406 22 535q2 164 -11 167q-12 5 -29 -64q-26 -82 -87 -239l-43 -104q-27 -66 -66 -126q-36 -58 -73 -82q-51 -28 -113 -17
q-61 12 -92 56q-62 102 -36 247q25 144 120 269q95 124 240 161q84 22 123 115t57 212q18 113 23 448zM129 176q31 4 83 86q54 89 91 184q41 103 38 158q-3 57 -79 9q-86 -63 -132 -163q-45 -97 -48 -183q-1 -82 47 -91z" />
    <glyph glyph-name="e" unicode="e" horiz-adv-x="646" 
d="M647 473q14 19 36 19q21 0 35 -15q12 -15 -4 -40q-48 -72 -131 -166q-84 -95 -194 -173q-111 -79 -233 -100q-139 -15 -185 78q-46 92 -19 231q27 138 107 257q80 118 194 154q55 14 102 -3q46 -16 62 -64q15 -47 -21 -125q-44 -88 -115 -159q-68 -68 -135 -104
q-27 -17 -36 -46q-8 -30 7 -54q15 -26 58 -29q88 -2 180 55q94 59 170 136q79 82 122 148zM282 585q-27 1 -65 -40q-38 -42 -58 -86q-21 -47 -4 -61q13 -6 40 20q30 30 53 64q27 39 39 69q12 31 -5 34z" />
    <glyph glyph-name="f" unicode="f" horiz-adv-x="590" 
d="M593 468q11 11 28 8q18 -5 25 -19q9 -15 -6 -37q-73 -89 -138 -130q-61 -39 -111 -58q-39 -15 -68 -37q-25 -19 -30 -62q-4 -41 17 -127q28 -116 35 -268q6 -158 -17 -287q-24 -132 -86 -182q-52 -39 -120 -24q-66 13 -101 106q-39 144 -45 458q-4 315 15 624
q21 312 58 437q27 70 83 82q58 12 100 -14q44 -26 29 -72q-38 -103 -60 -226q-26 -137 -35 -235q-5 -84 68 -101q72 -18 175 25q103 44 184 139zM171 -578q32 8 44 109q13 97 10 232q-1 127 -17 230q-15 98 -38 101q-17 -7 -26 -111q-9 -103 -9 -230q0 -126 9 -228t27 -103z
" />
    <glyph glyph-name="g" unicode="g" horiz-adv-x="850" 
d="M362 711q64 55 144 40q78 -15 104 -72q41 -108 50 -296q8 -193 -14 -402q-23 -220 -73 -419q-49 -199 -127 -348q-76 -144 -177 -188q-92 -33 -175 23q-81 55 -98 168q-12 167 70 361q83 194 203 370q117 173 222 290q25 36 22 109q-2 77 -22 137q-10 32 -22 46t-27 12
q-31 -11 -55 -68q-23 -56 -48 -137q-26 -84 -62 -173q-33 -83 -88 -139q-52 -53 -131 -46q-85 15 -115 94q-29 80 -11 184q18 107 71 196q54 92 133 132q62 28 87 34q33 11 57 25q29 17 82 67zM59 154q35 -19 75 31q40 54 66 128q29 78 32 137q2 29 -5 44t-23 14
q-40 -10 -88 -86q-47 -74 -70 -156t13 -112zM115 -759q33 -100 97 -51q66 49 134 187q71 143 116 311q46 169 44 320q-10 40 -59 1q-49 -41 -114 -132q-65 -93 -123 -210q-57 -115 -88 -231q-29 -114 -7 -195z" />
    <glyph glyph-name="h" unicode="h" horiz-adv-x="922" 
d="M905 461q30 26 49 18q19 -9 22 -31t-15 -39q-167 -142 -268 -190t-152 -32q-51 17 -72 66q-20 46 -29 101q-9 47 -21 70q-12 24 -42 6q-58 -41 -97 -131q-38 -88 -58 -195q-19 -104 -16 -192v-8q1 -20 -2 -40q-4 -17 -28 -28q-26 -9 -53 -10q-31 -2 -55 7q-25 11 -29 36
q-51 394 -37 872q15 480 98 847q15 48 69 51q53 3 97 -32t28 -99q-21 -68 -62 -281q-39 -209 -65 -462q-27 -263 -17 -509q0 -21 5 -19q2 1 5 5q6 10 26 60q20 55 57 133q18 38 54 86q35 46 79 76q46 31 93 25q65 -14 90 -67q25 -52 36 -115q13 -66 35 -101q22 -38 85 -17
q64 23 190 139z" />
    <glyph glyph-name="i" unicode="i" horiz-adv-x="523" 
d="M112 602q-26 15 -41 69q-15 58 -19 110q-4 55 2 84q18 51 66 65q50 12 93 -9q43 -19 45 -65q-1 -21 -18 -65q-23 -55 -42 -90q-24 -45 -48 -75t-38 -24zM523 458q9 18 29 15q20 -2 29 -17q8 -14 -4 -40q-51 -134 -138 -255q-88 -127 -171 -160q-82 -33 -168 3
q-71 35 -98 112q-28 76 -27 166q0 88 14 164q12 50 62 68q51 17 95 2q44 -17 38 -66q-1 -4 -2.5 -12.5t-2.5 -12.5q-13 -57 -20 -120q-9 -65 5 -121q13 -53 68 -70q53 -9 137 87q83 96 154 257z" />
    <glyph glyph-name="j" unicode="j" horiz-adv-x="366" 
d="M5 439q-8 36 29 71q36 36 97 27q61 -11 71 -84q10 -70 19 -336q9 -258 -20 -530q-29 -268 -108 -449q-81 -182 -160 -231q-79 -50 -158 -32t-102 123q-24 103 19 264q43 163 115 323q42 105 130 242q90 143 94 245q4 176 -5 258q-11 80 -21 109zM-182 -985q50 11 91 89
q42 80 75 193q31 110 49 221q16 106 13 176q-3 68 -32 56q-35 -20 -84 -109q-51 -94 -96 -212q-43 -114 -61 -204q-20 -98 -11 -155q9 -58 56 -55zM88 633q-25 12 -51 58q-27 47 -45 100q-19 51 -19 80q5 53 47 73q43 20 88 11q45 -11 57 -51q5 -30 -7 -90q-11 -65 -31 -115
q-19 -53 -39 -66z" />
    <glyph glyph-name="k" unicode="k" horiz-adv-x="702" 
d="M687 453q18 25 37 21q20 -3 29 -23t-6 -44q-90 -120 -185 -184q-97 -63 -177 -79q-84 -18 -139 -15q-57 3 -70 -4q-14 -6 -12 -49q1 -30 7 -84q3 -24 13 -86q7 -36 11 -76q-2 -33 -38 -53q-37 -18 -76 -12q-38 6 -46 49q-49 415 -34 900q15 478 95 871q15 51 67 54
t93 -34q42 -37 28 -105q-126 -463 -137 -949q0 -29 9 -31q8 -1 21 12q8 9 22 29q31 48 88 111q59 65 87 68t60 -26q31 -29 37 -64q6 -33 -22 -52q-34 -17 -86 -57q-51 -39 -98 -96q-42 -54 -47 -117q3 -68 70 -81q66 -13 138 10q71 22 147 80q74 56 114 116z" />
    <glyph glyph-name="l" unicode="l" horiz-adv-x="364" 
d="M107 1588q17 48 72 51t102 -32q45 -35 30 -99q-126 -411 -141 -799t48 -806q4 -25 0 -45q-5 -20 -32 -31q-26 -9 -55 -10q-29 -3 -57 7q-26 11 -30 36q-54 399 -39 876t102 852z" />
    <glyph glyph-name="m" unicode="m" horiz-adv-x="1274" 
d="M1272 468q10 14 23 13q13 0 19 -12q7 -11 -4 -31q-39 -61 -97 -124q-65 -69 -134 -114q-71 -46 -136 -38q-75 16 -111 51q-37 37 -51 66q-11 17 -17 24q-8 9 -17 6q-18 -6 -31 -31q-12 -21 -27 -58q-20 -54 -49 -96q-28 -43 -80 -46q-50 3 -75 43q-25 39 -36 97
q-11 57 -15 112q-6 58 -13 83q-8 26 -30 14q-23 -11 -55 -107q-31 -94 -57 -194q-23 -111 -45 -183q-25 -60 -80 -68q-54 -7 -80 17q-38 34 -58 148q-20 117 -23 234q-2 120 9 173q15 43 60 56q47 16 89 -2q43 -16 35 -71l-6 -50q-5 -48 -8 -89q-2 -53 1 -85q3 -38 17 -41
q19 -2 37 50q18 51 39 129q19 73 52 173q30 87 70 142q29 35 81 38q50 3 93 -26t44 -88q-1 -10 -1.5 -32.5t-0.5 -34.5q-2 -38 -4 -118q-2 -63 4 -102q2 -21 7 -31t12 -9q13 4 25 27q14 28 26 56q15 40 39 83q23 39 52 51q65 15 106 -12q40 -28 58 -78q15 -34 30 -58
q17 -26 45 -35q53 -12 108 22t100 82q45 50 60 74z" />
    <glyph glyph-name="n" unicode="n" horiz-adv-x="1014" 
d="M1005 456q13 18 31 22q18 3 28 -6q9 -9 -1 -31q-88 -158 -198 -241q-113 -86 -216 -65q-86 22 -122 90t-51 133q-14 52 -28 76q-14 26 -46 8q-36 -26 -65 -113q-26 -80 -52 -188q-20 -85 -46 -166q-26 -60 -82 -68q-57 -7 -84 18q-40 32 -61 139q-20 110 -23 219
q-3 108 10 164q14 42 61 56q49 15 93 -2q45 -16 37 -71l-8 -48l-9 -84q-4 -44 -1 -82q3 -35 16 -39q10 -1 19 9.5t17 31.5q14 36 34 107q19 70 48 149q27 76 69 132q30 36 85 48q56 12 104 -11q49 -22 64 -93q9 -50 15 -88q12 -95 32 -153q21 -56 73 -65q49 -4 103 37
q52 42 94 94q42 53 60 81z" />
    <glyph glyph-name="o" unicode="o" horiz-adv-x="619" 
d="M242 720q123 0 181 -79q59 -79 66 -195q6 -115 -28 -219q-37 -105 -100 -154q-59 -41 -132 -49q-74 -8 -135 23q-63 30 -96 104q-27 68 -24 125q2 59 10 98q5 23 7 47q1 18 -7 30q-9 9 -15 13q-16 12 -31 35q-12 23 2 59q32 66 124 112q89 45 178 50zM324 402
q0 100 -38 164q-38 62 -89 69t-98 -53q-15 -22 -12 -39q5 -17 17 -25q16 -13 26 -17q2 -1 11 -7q24 -20 21 -68q-3 -51 -13 -97q-6 -31 -9 -54q-8 -128 37 -140q44 -13 93 61q49 73 54 206z" />
    <glyph glyph-name="p" unicode="p" horiz-adv-x="904" 
d="M517 702q66 6 127 -29q64 -35 77 -131q14 -97 -34 -248q-48 -152 -149 -241q-100 -88 -220 -75q-25 4 -38 19q-12 14 -9 28q3 13 24 18q71 10 135 89q62 79 89 178q27 101 23 167q-5 68 -56 77q-53 11 -128 -89q-76 -99 -130 -294q-32 -126 -36 -268q-5 -157 -1 -283
q3 -238 0 -354v-14q0 -20 -4 -33t-24 -22q-23 -8 -56 -9q-36 -2 -59 7q-23 7 -29 32q18 433 13 776q-4 329 -41 634q-1 42 45 60q44 18 97 4q50 -13 52 -65q-2 -36 -4 -56q-6 -66 -6 -134q-1 -66 9 -67q11 -2 44 56q27 49 72 109q41 58 97 104q54 45 120 54z" />
    <glyph glyph-name="q" unicode="q" horiz-adv-x="847" 
d="M446 495q13 -15 52 -24q44 -11 80 -35q39 -23 47 -85q12 -156 5 -358q-6 -208 -18 -416q-10 -190 -15 -341q-4 -41 -52 -55q-48 -12 -94 6q-45 18 -44 67q0 2 1.5 14t3.5 23l23 180q13 119 27 261q13 159 16 272q3 129 -12 211q-14 81 -54 78q-25 -7 -46 -39
q-22 -33 -48 -81q-40 -79 -104 -159q-2 -2 -2 -3q-66 -81 -144 -63q-80 17 -104 108q-25 91 -7 212q20 122 70 224q51 104 130 164q81 60 179 39q62 -16 79 -59q18 -42 18 -85q1 -36 13 -56zM352 445q15 59 -12 84q-26 26 -70 8q-66 -38 -110 -133q-46 -99 -59 -187
q-12 -91 27 -98t94 75q58 86 89 157q27 57 41 94z" />
    <glyph glyph-name="glyph79" unicode="r" horiz-adv-x="594" 
d="M496 616q9 -75 4 -102q-6 -27 -31 -31q-103 -22 -188 -103q-71 -89 -101 -192q-30 -106 -11 -247q6 -32 -24 -46t-74 -14q-46 1 -58 31q-7 24 -12 156q-5 110 -5 241q0 114 8 143q10 40 42 54q34 15 73 14q42 0 51 -19q3 -9 3 -24t1 -21q3 -9 10 -9q12 3 47 47
q37 50 100 108q64 60 110 75q23 7 37 -8.5t18 -52.5z" />
    <glyph glyph-name="s" unicode="s" horiz-adv-x="613" 
d="M190 399q2 -37 37 -73q37 -37 85 -72q59 -45 99 -86q43 -44 43 -97q-12 -83 -84 -131q-70 -48 -152 -45q-48 3 -94 22q-48 17 -77 56q-5 6 -7 11q-4 8 -5 13q-7 21 4 39q12 16 37 15q5 -1 15.5 -2.5t15.5 -2.5q20 -4 31 -6q24 -2 48 0q36 2 63 18q29 18 30 56
q-3 34 -36 60q-31 23 -67 41q-8 3 -13 7q-58 28 -104 67q-49 40 -58 106q-2 94 64 216q64 120 135 173q63 36 116 -2q54 -39 69 -96q17 -58 -31 -80q-46 -16 -102 -71q-54 -53 -62 -136z" />
    <glyph glyph-name="t" unicode="t" horiz-adv-x="348" 
d="M770 1133q95 7 98 -27q2 -34 -22 -72q-19 -27 -49 -34q-32 -6 -83 -5q-42 2 -277 4q-223 1 -244 -54q-20 -54 -31 -280q-10 -219 -7 -388q5 -170 16 -290q12 -129 18 -165q5 -47 -34 -65q-38 -18 -80 -12t-50 34q-39 526 -22 833q16 304 0 337q-15 33 -100 30
q-78 -3 -157 -11q-44 -6 -62 14q-31 32 -34 72q-2 40 34 53q273 3 306 14q35 10 44 53q8 35 31 218q10 75 33 196q15 48 58 51q41 3 85 -32q43 -35 28 -99q-44 -144 -61 -258q-15 -110 13 -117q25 -7 262 -5q200 3 287 5z" />
    <glyph glyph-name="u" unicode="u" horiz-adv-x="975" 
d="M973 456q13 18 31 22q18 3 28 -6q10 -8 -1 -31q-88 -158 -198 -241q-113 -86 -216 -65q-63 13 -99 59q-35 43 -46 98q-10 51 -10 70v10q-1 0 -1 -2l-11 -42q-14 -59 -35 -125q-22 -73 -62 -137q-38 -63 -100 -89q-54 -21 -120 -6q-65 13 -103 87q-37 95 -41 209
q-3 122 12 180q14 43 66 56q54 15 98 -2q45 -16 37 -71q0 -2 -1 -3q-6 -25 -18 -98q-11 -65 -6 -135q7 -44 31 -59q23 -15 49 -6q51 20 86 84q33 64 54 146q21 83 36 159q12 68 28 123q15 38 66 43q51 4 94 -24q44 -30 38 -95q-13 -77 -14 -145q-3 -71 12 -119t59 -57
q49 -4 103 37q56 45 94 94q42 53 60 81z" />
    <glyph glyph-name="v" unicode="v" horiz-adv-x="699" 
d="M426 753q5 20 34 21q31 2 58 -9q29 -10 54 -29q24 -20 20 -42q0 -1 -2.5 -10.5t-4.5 -14.5q-33 -132 -93 -327q-57 -192 -121 -290q-53 -62 -147 -50t-139 88q-31 61 -58 177q-27 117 -20 179q9 31 55 42q47 9 90 -4q44 -14 45 -51q-5 -114 12 -204q15 -92 43 -93
q39 9 72 121q34 116 59 251q23 124 37 212q3 24 6 33z" />
    <glyph glyph-name="w" unicode="w" horiz-adv-x="1104" 
d="M779 735q-6 29 20 38q25 10 67 3q42 -6 69 -30q28 -22 26 -61q1 -70 -14 -195q-15 -119 -50 -212q-36 -92 -93 -146t-139 -60q-104 -2 -170 67q-67 67 -88 185l-15 -53q-19 -73 -46 -135q-27 -66 -77 -101q-52 -35 -138 -14q-73 22 -106 107q-34 85 -35 181q-3 94 16 155
q12 31 47 41q32 11 75 8q39 -3 66 -17q26 -15 17 -37q-24 -57 -29 -129q-6 -71 5 -131q11 -57 35 -68q43 -12 70 40q27 54 40 134q15 82 24 164l6 49q7 33 53 39q41 7 94 -9q48 -16 68 -52q8 -21 10 -86t13 -114q11 -50 32 -85q20 -35 52 -29q32 8 60 61q29 56 42 146
q14 90 9 195q-3 100 -16 151z" />
    <glyph glyph-name="x" unicode="x" horiz-adv-x="794" 
d="M794 443q8 20 26 23t31 -7q14 -11 8 -32q-22 -84 -82 -176q-59 -94 -142 -165q-81 -71 -181 -94q-99 -21 -200 38l-23 15q-16 13 -24 13q-11 0 -24 -18q-31 -44 -49 -81q-11 -23 -24 -61q-9 -33 -25 -54q-17 -17 -49 -8q-30 8 -57 35q-25 26 -20 55q9 39 35 82
q26 44 57 87l28 42q18 28 10 60q-7 29 -31 78q-27 54 -53 132q-12 50 32 79q45 28 95 21q50 -6 56 -61q3 -49 11.5 -72t23.5 -21q30 3 71 62q42 61 80 125l44 71q19 30 31 37q28 13 67 -2q38 -15 54 -51q15 -35 -27 -80q-40 -42 -82 -100l-88 -122l-14.5 -21t-14.5 -20
q-47 -71 -6 -107q39 -37 125 -25t178 88q93 78 153 235z" />
    <glyph glyph-name="y" unicode="y" horiz-adv-x="821" 
d="M379 648q24 53 76 68q50 16 98 1q47 -15 59 -54q33 -143 30 -352q-2 -217 -36 -440q-32 -220 -127 -411q-95 -186 -172 -231q-78 -45 -147 -7t-84 115q-11 99 49 247q59 147 125 250l88 125q56 77 98 145q40 69 44 123q4 73 0 148q-3 72 -31 109q-23 24 -46 -35
q-22 -58 -46 -158q-27 -109 -58 -197q-33 -96 -76 -128q-75 -46 -144 -24q-71 21 -98 123q-20 85 -11 195q11 111 42 181q26 53 72 63q46 9 78 -11q33 -21 19 -60q-17 -44 -36 -113q-19 -77 -22 -142q-2 -70 28 -102q41 -32 78 47q39 82 70 200q34 127 54 221q18 82 26 104z
M208 -668q47 23 107 128q61 103 96 202q34 100 43 168q9 71 -20 76q-29 0 -74 -56q-44 -56 -91 -142q-46 -89 -79 -194q-33 -103 -24 -149q9 -45 42 -33z" />
    <glyph glyph-name="z" unicode="z" horiz-adv-x="778" 
d="M427 482q-11 -26 4 -40q16 -14 44 -27q33 -15 67 -43t49 -81q17 -55 -4 -150q-22 -100 -95 -212q-69 -109 -173 -193q-105 -84 -218 -100q-55 -3 -89 37q-33 41 -29 81q4 41 59 43q109 0 197 66q90 67 149 157q59 93 77 166q14 70 -8 109q-21 41 -60 41t-78 -56
q-15 -26 -42 -66t-57 -78q-69 -75 -143 -78q-72 -4 -93 50q-21 53 68 148q52 49 95 77q34 22 48 39q22 35 61 113q34 69 58 146q24 74 10 122q-22 30 -59 19q-37 -12 -68 -65q-33 -56 -37 -129q-6 -75 -34 -94q-26 -19 -84 -28q-57 -9 -46 104q11 112 60 182q50 72 142 108
q94 36 200 -7q72 -33 86 -95q15 -61 -6 -133q-20 -73 -51 -133z" />
    <glyph glyph-name="Agrave" unicode="&#xc0;" horiz-adv-x="1290" 
d="M1186 1055q-59 -6 -77 -36q-9 -17 -15 -51q-4 -23 -10 -71q-1 -11 -2.5 -30.5t-2.5 -26.5q-15 -212 -8 -494q8 -289 58 -497q9 -56 -38 -85q-46 -30 -102 -22q-54 7 -68 66q-24 204 -24 403q-1 199 6 403q4 131 5 200v10q1 8 1.5 30t0.5 33q0 28 -2 74q-3 37 -10 47
q-22 24 -74 19q-52 -6 -102 -24t-77 -32q-52 -32 -78 -79q-27 -48 -42 -107q-46 -156 -66 -355q-21 -196 25 -353q12 -42 -22 -65q-35 -25 -77 -26q-43 -1 -61 21q-25 47 -38 126q-13 88 -13 160q-2 39 -16 56q-17 19 -42 34q-27 17 -67 52q-62 58 -83 150q-21 91 38 203
q59 111 238 224q40 23 41 23q26 15 52 32q17 14 30 34q20 35 34 63q3 4 8 14.5l8 16.5l16 33l85 162q54 98 107 171q56 79 111 113q49 27 107 25q60 -2 104 -34q45 -32 59 -100q2 -34 2 -83q0 -69 3 -138t13 -89q18 -24 70 -25t66 -26q14 -23 0 -83q-14 -59 -71 -66z
M341 762q11 43 -2 47q-13 5 -35 -13q-22 -17 -47 -43q-21 -22 -34 -42q-40 -62 -37 -138q5 -76 62 -135q10 -9 16 -4q5 5 8 15l2.5 12t1.5 9q0 6 1 9q24 125 64 283zM901 1233q10 24 18 77q7 51 4 105q-3 51 -23 65q-15 3 -35 -15q-20 -17 -39 -41t-26 -35l-24 -40
q-7 -12 -37 -67q-18 -38 -27 -67q-8 -30 4 -39q24 -5 62 1q39 6 75 20q36 15 48 36zM954 1970q16 -56 4 -103l-2 -9q-12 -39 -47 -53q-14 -5 -24 -2q-1 1 -5 3t-7 4q-8 7 -17 24q-65 141 -173 228q-38 34 -22 91q21 54 72 65q21 1 40 -3l4 -1q24 -12 44 -32q65 -63 108 -151
q13 -28 20 -47q1 -1 1 -5q0 -2 2 -5t2 -4z" />
    <glyph glyph-name="Aacute" unicode="&#xc1;" horiz-adv-x="1290" 
d="M1186 1055q-59 -6 -77 -36q-9 -17 -15 -51q-4 -23 -10 -71q-1 -11 -2.5 -30.5t-2.5 -26.5q-15 -212 -8 -494q8 -289 58 -497q9 -56 -38 -85q-46 -30 -102 -22q-54 7 -68 66q-24 204 -24 403q-1 199 6 403q4 131 5 200v10q1 8 1.5 30t0.5 33q0 28 -2 74q-3 37 -10 47
q-22 24 -74 19q-52 -6 -102 -24t-77 -32q-52 -32 -78 -79q-27 -48 -42 -107q-46 -156 -66 -355q-21 -196 25 -353q12 -42 -22 -65q-35 -25 -77 -26q-43 -1 -61 21q-25 47 -38 126q-13 88 -13 160q-2 39 -16 56q-17 19 -42 34q-27 17 -67 52q-62 58 -83 150q-21 91 38 203
q59 111 238 224q40 23 41 23q26 15 52 32q17 14 30 34q20 35 34 63q3 4 8 14.5l8 16.5l16 33l85 162q54 98 107 171q56 79 111 113q49 27 107 25q60 -2 104 -34q45 -32 59 -100q2 -34 2 -83q0 -69 3 -138t13 -89q18 -24 70 -25t66 -26q14 -23 0 -83q-14 -59 -71 -66z
M341 762q11 43 -2 47q-13 5 -35 -13q-22 -17 -47 -43q-21 -22 -34 -42q-40 -62 -37 -138q5 -76 62 -135q10 -9 16 -4q5 5 8 15l2.5 12t1.5 9q0 6 1 9q24 125 64 283zM901 1233q10 24 18 77q7 51 4 105q-3 51 -23 65q-15 3 -35 -15q-20 -17 -39 -41t-26 -35l-24 -40
q-7 -12 -37 -67q-18 -38 -27 -67q-8 -30 4 -39q24 -5 62 1q39 6 75 20q36 15 48 36zM797 2007q2 1 4 5q4 4 6 7q2 2 34 42q68 73 154 122q28 14 55 17h5q20 0 41 -9q49 -26 53 -87q0 -63 -50 -85q-139 -58 -244 -179q-15 -16 -25 -19q-3 -3 -7 -3q-2 -1 -6 -1q-12 0 -24 9
q-32 24 -32 69v8q3 50 36 104z" />
    <glyph glyph-name="Acircumflex" unicode="&#xc2;" horiz-adv-x="1290" 
d="M1186 1055q-59 -6 -77 -36q-9 -17 -15 -51q-4 -23 -10 -71q-1 -11 -2.5 -30.5t-2.5 -26.5q-15 -212 -8 -494q8 -289 58 -497q9 -56 -38 -85q-46 -30 -102 -22q-54 7 -68 66q-24 204 -24 403q-1 199 6 403q4 131 5 200v10q1 8 1.5 30t0.5 33q0 28 -2 74q-3 37 -10 47
q-22 24 -74 19q-52 -6 -102 -24t-77 -32q-52 -32 -78 -79q-27 -48 -42 -107q-46 -156 -66 -355q-21 -196 25 -353q12 -42 -22 -65q-35 -25 -77 -26q-43 -1 -61 21q-25 47 -38 126q-13 88 -13 160q-2 39 -16 56q-17 19 -42 34q-27 17 -67 52q-62 58 -83 150q-21 91 38 203
q59 111 238 224q40 23 41 23q26 15 52 32q17 14 30 34q20 35 34 63q3 4 8 14.5l8 16.5l16 33l85 162q54 98 107 171q56 79 111 113q49 27 107 25q60 -2 104 -34q45 -32 59 -100q2 -34 2 -83q0 -69 3 -138t13 -89q18 -24 70 -25t66 -26q14 -23 0 -83q-14 -59 -71 -66z
M341 762q11 43 -2 47q-13 5 -35 -13q-22 -17 -47 -43q-21 -22 -34 -42q-40 -62 -37 -138q5 -76 62 -135q10 -9 16 -4q5 5 8 15l2.5 12t1.5 9q0 6 1 9q24 125 64 283zM901 1233q10 24 18 77q7 51 4 105q-3 51 -23 65q-15 3 -35 -15q-20 -17 -39 -41t-26 -35l-24 -40
q-7 -12 -37 -67q-18 -38 -27 -67q-8 -30 4 -39q24 -5 62 1q39 6 75 20q36 15 48 36zM939 2247q57 -15 107 -104q51 -90 79 -187q25 -87 25 -134v-7v-5q-6 -34 -35 -49q-18 -9 -36 -9q-9 0 -29 6q-18 4 -21 36q-9 178 -49 236q-20 29 -41 29q-20 0 -50 -43q-30 -45 -39 -222
q-3 -31 -30 -38q-8 -4 -20 -4q-18 0 -41 12q-23 11 -29 46q-1 5 -1 13q0 49 28 140q28 95 76 180q50 89 106 104z" />
    <glyph glyph-name="Atilde" unicode="&#xc3;" horiz-adv-x="1290" 
d="M1186 1055q-59 -6 -77 -36q-9 -17 -15 -51q-4 -23 -10 -71q-1 -11 -2.5 -30.5t-2.5 -26.5q-15 -212 -8 -494q8 -289 58 -497q9 -56 -38 -85q-46 -30 -102 -22q-54 7 -68 66q-24 204 -24 403q-1 199 6 403q4 131 5 200v10q1 8 1.5 30t0.5 33q0 28 -2 74q-3 37 -10 47
q-22 24 -74 19q-52 -6 -102 -24t-77 -32q-52 -32 -78 -79q-27 -48 -42 -107q-46 -156 -66 -355q-21 -196 25 -353q12 -42 -22 -65q-35 -25 -77 -26q-43 -1 -61 21q-25 47 -38 126q-13 88 -13 160q-2 39 -16 56q-17 19 -42 34q-27 17 -67 52q-62 58 -83 150q-21 91 38 203
q59 111 238 224q40 23 41 23q26 15 52 32q17 14 30 34q20 35 34 63q3 4 8 14.5l8 16.5l16 33l85 162q54 98 107 171q56 79 111 113q49 27 107 25q60 -2 104 -34q45 -32 59 -100q2 -34 2 -83q0 -69 3 -138t13 -89q18 -24 70 -25t66 -26q14 -23 0 -83q-14 -59 -71 -66z
M341 762q11 43 -2 47q-13 5 -35 -13q-22 -17 -47 -43q-21 -22 -34 -42q-40 -62 -37 -138q5 -76 62 -135q10 -9 16 -4q5 5 8 15l2.5 12t1.5 9q0 6 1 9q24 125 64 283zM901 1233q10 24 18 77q7 51 4 105q-3 51 -23 65q-15 3 -35 -15q-20 -17 -39 -41t-26 -35l-24 -40
q-7 -12 -37 -67q-18 -38 -27 -67q-8 -30 4 -39q24 -5 62 1q39 6 75 20q36 15 48 36zM1138 1974q43 -72 46 -100q4 -25 4 -40q0 -29 -12 -44q-14 -22 -36 -22h-1q-22 0 -36 23q-17 34 -28 60q-21 53 -51 53q-14 0 -29 -12q-48 -34 -79 -75q-16 -20 -39 -43q-21 -21 -51 -39
q-22 -11 -46 -11q-18 0 -38 6q-49 12 -84 61q-41 57 -54 121q-1 2 -1 5q-2 18 -2 24q0 34 12 56q15 28 37 28h4q25 -3 46 -55q7 -23 28 -52q21 -28 38 -34q20 -5 24 -5q23 0 52 29l5 5q1 1 3 3.5t3 3.5q41 47 90 91q48 39 96 39h2q49 -1 97 -76z" />
    <glyph glyph-name="Adieresis" unicode="&#xc4;" horiz-adv-x="1290" 
d="M1186 1055q-59 -6 -77 -36q-9 -17 -15 -51q-4 -23 -10 -71q-1 -11 -2.5 -30.5t-2.5 -26.5q-15 -212 -8 -494q8 -289 58 -497q9 -56 -38 -85q-46 -30 -102 -22q-54 7 -68 66q-24 204 -24 403q-1 199 6 403q4 131 5 200v10q1 8 1.5 30t0.5 33q0 28 -2 74q-3 37 -10 47
q-22 24 -74 19q-52 -6 -102 -24t-77 -32q-52 -32 -78 -79q-27 -48 -42 -107q-46 -156 -66 -355q-21 -196 25 -353q12 -42 -22 -65q-35 -25 -77 -26q-43 -1 -61 21q-25 47 -38 126q-13 88 -13 160q-2 39 -16 56q-17 19 -42 34q-27 17 -67 52q-62 58 -83 150q-21 91 38 203
q59 111 238 224q40 23 41 23q26 15 52 32q17 14 30 34q20 35 34 63q3 4 8 14.5l8 16.5l16 33l85 162q54 98 107 171q56 79 111 113q49 27 107 25q60 -2 104 -34q45 -32 59 -100q2 -34 2 -83q0 -69 3 -138t13 -89q18 -24 70 -25t66 -26q14 -23 0 -83q-14 -59 -71 -66z
M341 762q11 43 -2 47q-13 5 -35 -13q-22 -17 -47 -43q-21 -22 -34 -42q-40 -62 -37 -138q5 -76 62 -135q10 -9 16 -4q5 5 8 15l2.5 12t1.5 9q0 6 1 9q24 125 64 283zM901 1233q10 24 18 77q7 51 4 105q-3 51 -23 65q-15 3 -35 -15q-20 -17 -39 -41t-26 -35l-24 -40
q-7 -12 -37 -67q-18 -38 -27 -67q-8 -30 4 -39q24 -5 62 1q39 6 75 20q36 15 48 36zM642 2002q10 48 39 81q1 1 3 2.5t3 2.5q2 1 4 3t4 3q3 3 5 3l6 2l1 1h2q18 6 37 6q30 0 59 -13q29 -14 47 -29q23 -20 30 -46q2 -6 2 -11v-12q0 -29 -12 -65q-10 -36 -27 -73l-2 -2
q0 -1 -2 -3q-3 -11 -12 -25q-13 -33 -42 -53q-16 -6 -35 -6q-18 0 -36 6q-63 18 -90 78q-3 13 -3 32q0 21 7 53q4 35 12 63v2zM1045 2002q11 48 39 81q1 1 3 2.5t3 2.5t4 3q2 2 4 3q2 3 5 3l5 2l1 1h2q20 6 38 6q31 0 58 -13q28 -14 48 -29q21 -18 30 -46q2 -6 2 -11v-12
q0 -30 -13 -65q-9 -32 -26 -73l-2 -2q0 -1 -2 -3q-4 -10 -12 -25q-13 -33 -42 -53q-16 -6 -36 -6q-18 0 -35 6q-65 18 -90 78q-4 12 -4 28q0 17 8 55q4 34 12 65v2z" />
    <glyph glyph-name="Aring" unicode="&#xc5;" horiz-adv-x="1290" 
d="M1186 1055q-59 -6 -77 -36q-9 -17 -15 -51q-4 -23 -10 -71q-1 -11 -2.5 -30.5t-2.5 -26.5q-15 -212 -8 -494q8 -289 58 -497q9 -56 -38 -85q-46 -30 -102 -22q-54 7 -68 66q-24 204 -24 403q-1 199 6 403q4 131 5 200v10q1 8 1.5 30t0.5 33q0 28 -2 74q-3 37 -10 47
q-22 24 -74 19q-52 -6 -102 -24t-77 -32q-52 -32 -78 -79q-27 -48 -42 -107q-46 -156 -66 -355q-21 -196 25 -353q12 -42 -22 -65q-35 -25 -77 -26q-43 -1 -61 21q-25 47 -38 126q-13 88 -13 160q-2 39 -16 56q-17 19 -42 34q-27 17 -67 52q-62 58 -83 150q-21 91 38 203
q59 111 238 224q40 23 41 23q26 15 52 32q17 14 30 34q20 35 34 63q3 4 8 14.5l8 16.5l16 33l85 162q54 98 107 171q56 79 111 113q49 27 107 25q60 -2 104 -34q45 -32 59 -100q2 -34 2 -83q0 -69 3 -138t13 -89q18 -24 70 -25t66 -26q14 -23 0 -83q-14 -59 -71 -66z
M341 762q11 43 -2 47q-13 5 -35 -13q-22 -17 -47 -43q-21 -22 -34 -42q-40 -62 -37 -138q5 -76 62 -135q10 -9 16 -4q5 5 8 15l2.5 12t1.5 9q0 6 1 9q24 125 64 283zM901 1233q10 24 18 77q7 51 4 105q-3 51 -23 65q-15 3 -35 -15q-20 -17 -39 -41t-26 -35l-24 -40
q-7 -12 -37 -67q-18 -38 -27 -67q-8 -30 4 -39q24 -5 62 1q39 6 75 20q36 15 48 36zM765 2079q34 50 107 70q72 20 146 3q73 -16 112 -74q27 -49 21 -112q-6 -60 -40 -118q-35 -55 -90 -80q-69 -29 -150 -15q-79 18 -113 76t-30 127q3 67 37 123zM918 1814q41 0 69 41
q29 42 36 98q9 55 -11 101q-19 44 -74 50q-43 1 -67 -41t-27 -98q-4 -56 14 -101q18 -46 60 -50z" />
    <glyph glyph-name="AE" unicode="&#xc6;" horiz-adv-x="1686" 
d="M432 712q172 -9 246 20q77 30 101 109q24 81 33 221q1 11 4 34.5t4 33.5q10 71 16 163q5 85 -13 130q-18 47 -76 11q-46 -31 -109 -112q-58 -73 -124 -181q-64 -105 -101 -199q-41 -97 -41 -161q0 -65 60 -69zM322 527q-44 -53 -59 -154q-11 -77 -14 -114q-3 -39 -1 -63
q3 -21 8 -29q6 -10 11 -12q6 -3 9 -9q4 -6 4 -20q0 -16 -21 -40q-19 -24 -48 -30q-93 -15 -121 33q-28 47 -20 128q9 78 29 160q15 67 20 107q1 30 -15 42q-17 13 -41 20q-24 8 -43 20q-20 14 -20 46q0 33 20 45q17 10 49 17q30 6 63 23q31 18 50 63q78 213 223 458
q143 238 320 400q63 56 111 54q44 -1 99 -28q42 -20 103 -37q57 -16 148 -11q151 12 308 14q143 0 215 -20q40 -15 50 -46q11 -33 1 -59q-10 -28 -35 -30q-36 0 -106 7q-44 6 -137 11q-84 3 -184 -4q-148 -12 -215 -63q-69 -49 -90 -125q-23 -79 -29 -165q-20 -168 -3 -240
q16 -71 71 -86q54 -14 146 -6q85 6 205 -3q51 -8 72 -43q21 -38 11 -71q-12 -33 -56 -32q-79 7 -166 8q-90 1 -172 -16q-79 -18 -102 -68q-6 -16 -18 -94q-12 -88 -20 -174q-9 -97 -6 -177q2 -80 23 -103q49 -40 151 -28q99 13 218 44q135 36 235 42q50 -2 77 -33
q27 -32 26 -63q0 -32 -32 -35q-127 -6 -310 -40q-188 -37 -294 -75q-45 -20 -92 -53q-63 -45 -122 -63q-58 -19 -94 49q-11 25 -8 45q4 19 17 41q15 25 30 74q15 48 18 136q0 24 3 87l5 159q2 58 2 158q0 68 -5 88q-15 29 -78 37q-62 6 -145 -2q-82 -9 -146 -24
q-68 -15 -83 -28z" />
    <glyph glyph-name="Ccedilla" unicode="&#xc7;" horiz-adv-x="1069" 
d="M425 -190q-52 -6 -99 -2q-136 13 -214 97q-85 101 -98 323q-14 226 23 485q38 265 108 494q71 230 154 346q71 84 186 103t217 0q102 -20 130 -52q53 -84 49 -256q-5 -181 -32 -352q-27 -172 -50 -275q-10 -39 -46 -48q-37 -9 -69 4q-34 14 -35 41q1 42 17 140
q18 117 30 258q10 140 -9 246q-21 105 -101 122q-59 4 -124 -101q-66 -110 -122 -278q-57 -174 -93 -368q-37 -199 -38 -373q-3 -176 41 -293q44 -116 146 -127q101 -3 227 75q126 77 245 192q125 122 202 224q15 16 38 18q22 0 34 -15q10 -16 -7 -47q-35 -55 -135 -164
q-102 -110 -210 -209q-112 -103 -187 -147q-38 -20 -83 -37q1 -8 1 -28v-28q1 -15 15 -26q12 -10 30 -21l26 -18l4 -2q15 -11 19 -26q16 -41 16 -77q0 -59 -42 -98q-36 -33 -87 -33q-36 0 -87 20q-19 12 -40 34q-9 10 -16 26q-6 12 -6 19q0 12 7 20q11 11 24 11q4 0 10 -2
q1 -1 4 -1q21 -4 39 -15l5 -3q3 -1 13.5 -4t15.5 -4q7 -1 13 -1q18 0 32 6q14 9 14 33q-2 32 -16 46q-15 12 -34 18q-20 7 -31 16q-14 10 -22 33q-4 13 -4 42q0 15 2 39z" />
    <glyph glyph-name="Egrave" unicode="&#xc8;" horiz-adv-x="1445" 
d="M1409 1671q60 -12 65 -69q5 -58 -25 -108q-29 -52 -68 -46q-263 65 -512 36q-247 -28 -511 -140q-54 -19 -84 14q-32 33 -21 81q9 48 77 75q261 88 552 135q289 46 527 22zM1159 424q9 24 45 29q37 4 66 -14q30 -20 20 -51q-2 -7 -7.5 -21.5t-6.5 -17.5
q-45 -150 -117 -282q-73 -138 -174 -210q-98 -71 -237 -35q-81 30 -123 128q-41 99 -56 215q-15 105 -20 203q-5 72 -10 88q-20 37 -85 1q-65 -34 -135 -113q-69 -78 -99 -166q-30 -89 22 -159q33 -43 8 -59q-26 -17 -79 -6q-53 12 -101 51q-49 41 -59 109q-12 67 46 167
q64 99 157 167q91 66 179 117q42 23 90 56q37 24 48 47q10 28 19 175q10 142 25 276q14 141 48 237q21 42 83 36t106 -50q45 -44 14 -114q-37 -92 -65 -232q-28 -148 -28 -241q3 -38 46 -42q40 -4 102 2q76 11 135 -1q43 -13 46 -46q4 -31 -41 -45q-27 -5 -72 -7
q-48 0 -105 -11q-54 -9 -96 -45q-18 -21 -20 -119q-2 -100 16 -213q18 -119 56 -199q37 -81 99 -73q59 17 109 92q51 77 88 175q39 99 63 201zM835 1865q16 -56 4 -103l-2 -9q-12 -40 -47 -53q-13 -5 -24 -2q-1 1 -5 3t-7 4q-8 7 -17 24q-63 139 -173 228q-38 34 -22 91
q21 54 72 65q22 2 40 -3l4 -1q24 -12 44 -32q65 -63 108 -151q13 -28 20 -47q1 -1 1 -5q2 -3 4 -9z" />
    <glyph glyph-name="Eacute" unicode="&#xc9;" horiz-adv-x="1445" 
d="M1409 1671q60 -12 65 -69q5 -58 -25 -108q-29 -52 -68 -46q-263 65 -512 36q-247 -28 -511 -140q-54 -19 -84 14q-32 33 -21 81q9 48 77 75q261 88 552 135q289 46 527 22zM1159 424q9 24 45 29q37 4 66 -14q30 -20 20 -51q-2 -7 -7.5 -21.5t-6.5 -17.5
q-45 -150 -117 -282q-73 -138 -174 -210q-98 -71 -237 -35q-81 30 -123 128q-41 99 -56 215q-15 105 -20 203q-5 72 -10 88q-20 37 -85 1q-65 -34 -135 -113q-69 -78 -99 -166q-30 -89 22 -159q33 -43 8 -59q-26 -17 -79 -6q-53 12 -101 51q-49 41 -59 109q-12 67 46 167
q64 99 157 167q91 66 179 117q42 23 90 56q37 24 48 47q10 28 19 175q10 142 25 276q14 141 48 237q21 42 83 36t106 -50q45 -44 14 -114q-37 -92 -65 -232q-28 -148 -28 -241q3 -38 46 -42q40 -4 102 2q76 11 135 -1q43 -13 46 -46q4 -31 -41 -45q-27 -5 -72 -7
q-48 0 -105 -11q-54 -9 -96 -45q-18 -21 -20 -119q-2 -100 16 -213q18 -119 56 -199q37 -81 99 -73q59 17 109 92q51 77 88 175q39 99 63 201zM648 1868q2 1 4 5q2 1 6 7q10 14 35 42q66 73 154 122q28 14 54 17h5q21 0 42 -9q47 -25 53 -87q0 -62 -51 -85
q-137 -57 -244 -179q-15 -16 -24 -19q-4 -3 -8 -3q-2 -1 -6 -1q-12 0 -23 9q-32 23 -32 69v8q1 49 35 104z" />
    <glyph glyph-name="Ecircumflex" unicode="&#xca;" horiz-adv-x="1445" 
d="M1409 1671q60 -12 65 -69q5 -58 -25 -108q-29 -52 -68 -46q-263 65 -512 36q-247 -28 -511 -140q-54 -19 -84 14q-32 33 -21 81q9 48 77 75q261 88 552 135q289 46 527 22zM1159 424q9 24 45 29q37 4 66 -14q30 -20 20 -51q-2 -7 -7.5 -21.5t-6.5 -17.5
q-45 -150 -117 -282q-73 -138 -174 -210q-98 -71 -237 -35q-81 30 -123 128q-41 99 -56 215q-15 105 -20 203q-5 72 -10 88q-20 37 -85 1q-65 -34 -135 -113q-69 -78 -99 -166q-30 -89 22 -159q33 -43 8 -59q-26 -17 -79 -6q-53 12 -101 51q-49 41 -59 109q-12 67 46 167
q64 99 157 167q91 66 179 117q42 23 90 56q37 24 48 47q10 28 19 175q10 142 25 276q14 141 48 237q21 42 83 36t106 -50q45 -44 14 -114q-37 -92 -65 -232q-28 -148 -28 -241q3 -38 46 -42q40 -4 102 2q76 11 135 -1q43 -13 46 -46q4 -31 -41 -45q-27 -5 -72 -7
q-48 0 -105 -11q-54 -9 -96 -45q-18 -21 -20 -119q-2 -100 16 -213q18 -119 56 -199q37 -81 99 -73q59 17 109 92q51 77 88 175q39 99 63 201zM761 2194q57 -15 107 -104q49 -86 78 -187q26 -90 26 -134q0 -1 -0.5 -3.5t-0.5 -3.5v-5q-6 -34 -34 -49q-18 -9 -36 -9
q-11 0 -30 6q-18 5 -21 36q-9 178 -49 236q-19 29 -40 29t-51 -43q-31 -46 -38 -222q-3 -30 -31 -38q-8 -4 -20 -4q-19 0 -41 12q-23 12 -29 46q-1 5 -1 13q0 49 28 140q28 95 76 180q50 89 107 104z" />
    <glyph glyph-name="Edieresis" unicode="&#xcb;" horiz-adv-x="1445" 
d="M1409 1671q60 -12 65 -69q5 -58 -25 -108q-29 -52 -68 -46q-263 65 -512 36q-247 -28 -511 -140q-54 -19 -84 14q-32 33 -21 81q9 48 77 75q261 88 552 135q289 46 527 22zM1159 424q9 24 45 29q37 4 66 -14q30 -20 20 -51q-2 -7 -7.5 -21.5t-6.5 -17.5
q-45 -150 -117 -282q-73 -138 -174 -210q-98 -71 -237 -35q-81 30 -123 128q-41 99 -56 215q-15 105 -20 203q-5 72 -10 88q-20 37 -85 1q-65 -34 -135 -113q-69 -78 -99 -166q-30 -89 22 -159q33 -43 8 -59q-26 -17 -79 -6q-53 12 -101 51q-49 41 -59 109q-12 67 46 167
q64 99 157 167q91 66 179 117q42 23 90 56q37 24 48 47q10 28 19 175q10 142 25 276q14 141 48 237q21 42 83 36t106 -50q45 -44 14 -114q-37 -92 -65 -232q-28 -148 -28 -241q3 -38 46 -42q40 -4 102 2q76 11 135 -1q43 -13 46 -46q4 -31 -41 -45q-27 -5 -72 -7
q-48 0 -105 -11q-54 -9 -96 -45q-18 -21 -20 -119q-2 -100 16 -213q18 -119 56 -199q37 -81 99 -73q59 17 109 92q51 77 88 175q39 99 63 201zM479 1988q11 44 36 74l5 5l4 2q0 1 2 2l2 1q2 1 4 3l6 2q1 0 2 1q18 5 34 5q27 0 54 -12q25 -11 43 -26q19 -16 28 -42
q1 -3 1 -11v-10q0 -26 -11 -59q-10 -38 -25 -67l-2 -2v-2q-4 -10 -12 -23q-12 -31 -39 -49q-15 -5 -31 -5q-15 0 -33 5q-58 16 -82 72q-3 10 -3 29q0 17 6 48q4 26 11 57v2zM847 1988q9 46 35 74q2 1 6 5q2 2 3 2q1 1 4 3q1 1 4 3l6 2q1 0 3 1q18 5 33 5q27 0 54 -12
q24 -12 43 -26q20 -17 27 -42q2 -6 2 -11v-10q0 -27 -12 -59q-9 -34 -23 -67l-2 -2q0 -2 -2 -2q-5 -14 -11 -23q-12 -30 -38 -49q-18 -5 -33 -5t-32 5q-58 16 -82 72q-4 14 -4 25q0 15 8 50q6 40 11 59v2z" />
    <glyph glyph-name="Igrave" unicode="&#xcc;" horiz-adv-x="868" 
d="M717 164q8 -2 31 -12q18 -10 22 -20q6 -11 -14 -23q-79 -40 -127 -71q-43 -28 -65 -54q-26 -31 -52 -72q-28 -45 -87 -123q-28 -40 -65 -52q-38 -12 -102 6q-66 23 -59 72q6 49 46 101q39 52 69 84l8 8q32 38 35 78q4 37 -9 91q-55 245 -58 629q-3 380 54 611
q23 62 88 75q66 12 119 -19q53 -30 35 -100q-62 -214 -89 -541q-27 -326 -10 -560q6 -77 31 -93q26 -15 70 -8q49 10 129 -7zM795 1634q1 -34 -9 -51q-10 -16 -37 -13q-25 4 -46 10q-49 14 -133 22q-80 6 -183 -29q-79 -32 -131 -81q-46 -44 -80 -90q-35 -50 -64 -63
q-36 -12 -63 17t-38 72q-12 40 3 71q66 107 201 176q133 68 278 65q146 -5 223 -37q79 -33 79 -69zM517 2038q16 -56 4 -103l-2 -9q-12 -39 -47 -53q-14 -5 -24 -2q-1 1 -5 3t-7 4q-8 7 -17 24q-65 141 -173 228q-38 34 -22 91q21 54 72 65q21 1 40 -3l4 -1q24 -12 44 -32
q65 -63 108 -151q13 -28 20 -47q1 -1 1 -5q1 -2 2 -5t2 -4z" />
    <glyph glyph-name="Iacute" unicode="&#xcd;" horiz-adv-x="868" 
d="M717 164q8 -2 31 -12q18 -10 22 -20q6 -11 -14 -23q-79 -40 -127 -71q-43 -28 -65 -54q-26 -31 -52 -72q-28 -45 -87 -123q-28 -40 -65 -52q-38 -12 -102 6q-66 23 -59 72q6 49 46 101q39 52 69 84l8 8q32 38 35 78q4 37 -9 91q-55 245 -58 629q-3 380 54 611
q23 62 88 75q66 12 119 -19q53 -30 35 -100q-62 -214 -89 -541q-27 -326 -10 -560q6 -77 31 -93q26 -15 70 -8q49 10 129 -7zM795 1634q1 -34 -9 -51q-10 -16 -37 -13q-25 4 -46 10q-49 14 -133 22q-80 6 -183 -29q-79 -32 -131 -81q-46 -44 -80 -90q-35 -50 -64 -63
q-36 -12 -63 17t-38 72q-12 40 3 71q66 107 201 176q133 68 278 65q146 -5 223 -37q79 -33 79 -69zM382 2022q2 1 4 5l2 3l4 4l34 42q68 73 154 122q28 14 55 17h4q21 0 42 -9q49 -26 53 -87q0 -62 -50 -85q-139 -58 -244 -179q-15 -16 -25 -19q-3 -3 -7 -3q-3 -1 -6 -1
q-12 0 -24 9q-32 24 -32 69v8q3 50 36 104z" />
    <glyph glyph-name="Icircumflex" unicode="&#xce;" horiz-adv-x="868" 
d="M717 164q8 -2 31 -12q18 -10 22 -20q6 -11 -14 -23q-79 -40 -127 -71q-43 -28 -65 -54q-26 -31 -52 -72q-28 -45 -87 -123q-28 -40 -65 -52q-38 -12 -102 6q-66 23 -59 72q6 49 46 101q39 52 69 84l8 8q32 38 35 78q4 37 -9 91q-55 245 -58 629q-3 380 54 611
q23 62 88 75q66 12 119 -19q53 -30 35 -100q-62 -214 -89 -541q-27 -326 -10 -560q6 -77 31 -93q26 -15 70 -8q49 10 129 -7zM795 1634q1 -34 -9 -51q-10 -16 -37 -13q-25 4 -46 10q-49 14 -133 22q-80 6 -183 -29q-79 -32 -131 -81q-46 -44 -80 -90q-35 -50 -64 -63
q-36 -12 -63 17t-38 72q-12 40 3 71q66 107 201 176q133 68 278 65q146 -5 223 -37q79 -33 79 -69zM460 2314q57 -15 107 -104q51 -90 79 -187q25 -87 25 -134v-7v-5q-6 -34 -35 -49q-18 -9 -36 -9q-10 0 -29 6q-19 5 -22 36q-8 178 -48 236q-20 29 -41 29q-20 0 -50 -43
q-30 -45 -39 -222q-3 -31 -30 -38q-8 -4 -20 -4q-19 0 -41 12q-23 11 -29 46q-1 5 -1 13q0 49 28 140q28 95 76 180q50 89 106 104z" />
    <glyph glyph-name="Idieresis" unicode="&#xcf;" horiz-adv-x="868" 
d="M717 164q8 -2 31 -12q18 -10 22 -20q6 -11 -14 -23q-79 -40 -127 -71q-43 -28 -65 -54q-26 -31 -52 -72q-28 -45 -87 -123q-28 -40 -65 -52q-38 -12 -102 6q-66 23 -59 72q6 49 46 101q39 52 69 84l8 8q32 38 35 78q4 37 -9 91q-55 245 -58 629q-3 380 54 611
q23 62 88 75q66 12 119 -19q53 -30 35 -100q-62 -214 -89 -541q-27 -326 -10 -560q6 -77 31 -93q26 -15 70 -8q49 10 129 -7zM795 1634q1 -34 -9 -51q-10 -16 -37 -13q-25 4 -46 10q-49 14 -133 22q-80 6 -183 -29q-79 -32 -131 -81q-46 -44 -80 -90q-35 -50 -64 -63
q-36 -12 -63 17t-38 72q-12 40 3 71q66 107 201 176q133 68 278 65q146 -5 223 -37q79 -33 79 -69zM152 2107q10 48 39 81q1 1 3 2.5t3 2.5q2 1 4 3t4 3q3 3 5 3l6 2h1q1 1 2 1q18 6 37 6q30 0 59 -13q29 -14 47 -29q21 -18 30 -46q2 -6 2 -11v-12q0 -30 -13 -65
q-8 -34 -26 -73l-2 -2q0 -1 -2 -3q-3 -11 -12 -25q-13 -33 -42 -53q-17 -6 -36 -6q-17 0 -35 6q-63 18 -90 78q-4 18 -4 32q0 16 8 53q4 34 12 63v2zM554 2107q12 49 40 81q1 1 3 2.5t3 2.5q0 1 2 2l2 1q2 2 4 3q2 3 5 3l5 2h1q1 1 2 1q18 6 38 6q31 0 58 -13q28 -14 48 -29
q21 -18 30 -46q1 -2 1.5 -5.5t0.5 -5.5v-12q0 -30 -13 -65q-9 -32 -26 -73l-2 -2l-1 -1q-1 -1 -1 -2q-4 -10 -12 -25q-13 -33 -42 -53q-16 -6 -36 -6q-18 0 -35 6q-65 18 -90 78q-4 12 -4 28q0 13 7 55q5 30 12 65v2z" />
    <glyph glyph-name="Eth" unicode="&#xd0;" horiz-adv-x="1667" 
d="M882 454v-20q-2 -32 0 -96q2 -76 8 -126q6 -61 22 -77q25 -18 46 -3q20 13 37 36l3 3q125 148 236 351q108 200 153 407q45 206 -17 386q-47 128 -158 202q-133 87 -292 82q-160 -5 -308 -75q-147 -70 -252 -184q-102 -111 -125 -243q-11 -75 42 -116q51 -41 147 -82
q65 -28 165 -82q72 -39 102 14q30 52 36 154q5 108 2 205q-4 112 3 176q11 42 66 58q57 17 108 1q51 -17 48 -78l-9 -82q-24 -207 -42 -412q-13 -134 -17 -251q74 -4 110 -7q52 -5 102 -24q50 -21 60 -73q3 -55 -36 -61q-40 -6 -98 6q-47 9 -81 10q-19 1 -61 1zM626 602
q-28 58 -64 95q-73 79 -165 118q-88 38 -177 61q-67 18 -124 43q-53 22 -75 64q-21 40 3 113q62 171 200 297q138 128 319 201q181 74 369 84q188 11 347 -51q161 -62 254 -203q95 -144 91 -376q-13 -243 -153 -512q-142 -271 -343 -500q-204 -232 -402 -362
q-45 -26 -78 -11t-43 49q-10 32 16 60l73 64q67 59 86 79q24 24 17 35q-7 10 -36 24q-5 2 -17 8q-37 19 -43 51q-6 30 -1 69q24 205 -2 343l-71 -6q-197 -18 -353 -71q-50 -10 -51 57q-2 68 26 98q26 31 84 43q53 11 178 25q45 5 135 11z" />
    <glyph glyph-name="Ntilde" unicode="&#xd1;" horiz-adv-x="1465" 
d="M913 1590q-33 47 -14 99q18 51 68 83q51 30 107 15q58 -17 98 -105q41 -101 51 -338q11 -237 0 -524q-10 -286 -36 -536q-25 -249 -57 -374q-26 -84 -84 -117t-121 -12q-62 21 -98 99q-48 118 -149 452l-111 352q-56 178 -114 334q-60 160 -105 244q-48 90 -82 81
q-27 -13 -48 -144q-22 -130 -30 -326q-8 -205 5 -401q13 -203 56 -369q43 -163 123 -232q44 -38 32 -90q-12 -51 -59 -86q-48 -34 -106 -24q-59 11 -106 95q-82 166 -107 419q-26 262 -13 534q14 290 47 520q33 240 69 379q24 81 89 104q64 24 132 -1q69 -24 100 -84
q15 -31 51 -159l87 -309l147 -514q71 -247 142 -448q66 -183 98 -186q34 13 55 215q22 216 21 481q0 275 -32 525q-33 247 -106 348zM885 2030q41 -69 46 -100q4 -25 4 -40q0 -29 -12 -44q-16 -22 -36 -22h-1q-22 0 -36 23q-10 18 -28 60q-21 53 -51 53q-14 0 -29 -12
q-48 -34 -79 -75q-16 -20 -39 -43q-21 -21 -51 -39q-22 -11 -47 -11q-18 0 -37 6q-48 12 -85 61q-39 54 -54 121v5q-2 18 -2 24q0 33 12 56q13 28 37 28h4q25 -3 46 -55q7 -23 28 -52q21 -28 38 -34q20 -5 24 -5q23 0 52 29q3 3 4 5q1 1 3 3.5t3 3.5q38 43 91 91
q46 39 96 39h2q49 -1 97 -76z" />
    <glyph glyph-name="Ograve" unicode="&#xd2;" 
d="M763 1687q192 13 319 -111q126 -121 191 -332q65 -210 68 -451q0 -315 -97 -594q-97 -274 -231 -379q-137 -98 -270 -98q-132 -1 -238 91q-103 90 -150 271q-44 175 -47 354q0 120 1 157q2 61 -1 83q-3 27 -19 36q-13 9 -52 19q-8 2 -27.5 8t-27.5 8q-110 35 -146 98
q-36 64 -6 173q47 164 151 310q103 143 254 242q149 97 328 115zM1099 708q1 221 -41 427q-42 204 -135 327q-94 123 -244 105q-76 -13 -146 -67q-68 -52 -126 -122q-57 -71 -91 -133q-78 -146 -84 -245t22 -145t54 -29q11 11 14 40q4 40 4 57q0 5 0.5 12t0.5 10
q3 75 20 138q21 55 84 68q64 13 119 -9t52 -77q-31 -195 -55 -408q-23 -201 -18 -374q4 -171 53 -289q48 -117 157 -153q96 -24 177 96q80 121 130 328q50 203 53 443zM780 1966q16 -56 4 -103l-2 -9q-12 -39 -47 -53q-14 -5 -24 -2q-1 1 -5 3t-7 4q-8 7 -17 24
q-65 141 -173 228q-38 34 -22 91q21 54 72 65q21 1 40 -3l4 -1q24 -12 44 -32q65 -63 108 -151q13 -28 20 -47q1 -1 1 -5q0 -2 2 -5t2 -4z" />
    <glyph glyph-name="Oacute" unicode="&#xd3;" 
d="M763 1687q192 13 319 -111q126 -121 191 -332q65 -210 68 -451q0 -315 -97 -594q-97 -274 -231 -379q-137 -98 -270 -98q-132 -1 -238 91q-103 90 -150 271q-44 175 -47 354q0 120 1 157q2 61 -1 83q-3 27 -19 36q-13 9 -52 19q-8 2 -27.5 8t-27.5 8q-110 35 -146 98
q-36 64 -6 173q47 164 151 310q103 143 254 242q149 97 328 115zM1099 708q1 221 -41 427q-42 204 -135 327q-94 123 -244 105q-76 -13 -146 -67q-68 -52 -126 -122q-57 -71 -91 -133q-78 -146 -84 -245t22 -145t54 -29q11 11 14 40q4 40 4 57q0 5 0.5 12t0.5 10
q3 75 20 138q21 55 84 68q64 13 119 -9t52 -77q-31 -195 -55 -408q-23 -201 -18 -374q4 -171 53 -289q48 -117 157 -153q96 -24 177 96q80 121 130 328q50 203 53 443zM585 1958q2 1 4 5l2 3l4 4l34 42q68 73 154 122q28 14 55 17h4q21 0 42 -9q49 -26 53 -87q0 -62 -50 -85
q-139 -58 -244 -179q-15 -16 -25 -19q-3 -3 -7 -3q-3 -1 -6 -1q-12 0 -24 9q-32 24 -32 69v8q3 50 36 104z" />
    <glyph glyph-name="Ocircumflex" unicode="&#xd4;" 
d="M763 1687q192 13 319 -111q126 -121 191 -332q65 -210 68 -451q0 -315 -97 -594q-97 -274 -231 -379q-137 -98 -270 -98q-132 -1 -238 91q-103 90 -150 271q-44 175 -47 354q0 120 1 157q2 61 -1 83q-3 27 -19 36q-13 9 -52 19q-8 2 -27.5 8t-27.5 8q-110 35 -146 98
q-36 64 -6 173q47 164 151 310q103 143 254 242q149 97 328 115zM1099 708q1 221 -41 427q-42 204 -135 327q-94 123 -244 105q-76 -13 -146 -67q-68 -52 -126 -122q-57 -71 -91 -133q-78 -146 -84 -245t22 -145t54 -29q11 11 14 40q4 40 4 57q0 5 0.5 12t0.5 10
q3 75 20 138q21 55 84 68q64 13 119 -9t52 -77q-31 -195 -55 -408q-23 -201 -18 -374q4 -171 53 -289q48 -117 157 -153q96 -24 177 96q80 121 130 328q50 203 53 443zM757 2250q57 -15 107 -104q51 -90 79 -187q25 -87 25 -134v-7v-5q-6 -34 -35 -49q-18 -9 -36 -9
q-9 0 -29 6q-19 5 -22 36q-8 178 -48 236q-20 29 -41 29q-20 0 -50 -43q-30 -45 -39 -222q-3 -31 -30 -38q-8 -4 -20 -4q-18 0 -41 12q-23 11 -29 46q-1 5 -1 13q0 49 28 140q28 95 76 180q50 89 106 104z" />
    <glyph glyph-name="Otilde" unicode="&#xd5;" 
d="M763 1687q192 13 319 -111q126 -121 191 -332q65 -210 68 -451q0 -315 -97 -594q-97 -274 -231 -379q-137 -98 -270 -98q-132 -1 -238 91q-103 90 -150 271q-44 175 -47 354q0 120 1 157q2 61 -1 83q-3 27 -19 36q-13 9 -52 19q-8 2 -27.5 8t-27.5 8q-110 35 -146 98
q-36 64 -6 173q47 164 151 310q103 143 254 242q149 97 328 115zM1099 708q1 221 -41 427q-42 204 -135 327q-94 123 -244 105q-76 -13 -146 -67q-68 -52 -126 -122q-57 -71 -91 -133q-78 -146 -84 -245t22 -145t54 -29q11 11 14 40q4 40 4 57q0 5 0.5 12t0.5 10
q3 75 20 138q21 55 84 68q64 13 119 -9t52 -77q-31 -195 -55 -408q-23 -201 -18 -374q4 -171 53 -289q48 -117 157 -153q96 -24 177 96q80 121 130 328q50 203 53 443zM937 1982q43 -72 46 -100q4 -25 4 -40q0 -29 -12 -44q-14 -22 -36 -22h-1q-22 0 -36 23q-17 34 -28 60
q-21 53 -51 53q-14 0 -29 -12q-48 -34 -79 -75q-16 -20 -39 -43q-21 -21 -51 -39q-22 -11 -47 -11q-18 0 -37 6q-49 12 -84 61q-40 53 -55 121v5q-2 18 -2 24q0 33 12 56q15 28 37 28h4q25 -3 46 -55q7 -23 28 -52q21 -28 38 -34q20 -5 24 -5q23 0 52 29l5 5q2 5 6 7
q41 47 90 91q46 39 96 39h2q49 -1 97 -76z" />
    <glyph glyph-name="Odieresis" unicode="&#xd6;" 
d="M763 1687q192 13 319 -111q126 -121 191 -332q65 -210 68 -451q0 -315 -97 -594q-97 -274 -231 -379q-137 -98 -270 -98q-132 -1 -238 91q-103 90 -150 271q-44 175 -47 354q0 120 1 157q2 61 -1 83q-3 27 -19 36q-13 9 -52 19q-8 2 -27.5 8t-27.5 8q-110 35 -146 98
q-36 64 -6 173q47 164 151 310q103 143 254 242q149 97 328 115zM1099 708q1 221 -41 427q-42 204 -135 327q-94 123 -244 105q-76 -13 -146 -67q-68 -52 -126 -122q-57 -71 -91 -133q-78 -146 -84 -245t22 -145t54 -29q11 11 14 40q4 40 4 57q0 5 0.5 12t0.5 10
q3 75 20 138q21 55 84 68q64 13 119 -9t52 -77q-31 -195 -55 -408q-23 -201 -18 -374q4 -171 53 -289q48 -117 157 -153q96 -24 177 96q80 121 130 328q50 203 53 443zM437 2047q11 48 39 81q1 1 3 2.5t3 2.5q2 1 4 3t4 3q3 3 5 3l6 2h1l2 1q18 6 37 6q30 0 59 -13
q29 -14 47 -29q21 -18 30 -46q2 -6 2 -11v-12q0 -30 -13 -65q-8 -34 -26 -73l-2 -2q0 -1 -2 -3q-3 -11 -12 -25q-13 -33 -42 -53q-16 -6 -36 -6q-17 0 -35 6q-63 18 -90 78q-4 18 -4 32q0 16 8 53q5 34 12 63v2zM839 2047q12 49 40 81q1 1 3 2.5t3 2.5t4 3q2 2 4 3q1 3 5 3
l5 2h1l2 1q18 6 38 6q31 0 58 -13q28 -14 48 -29q21 -18 30 -46q1 -2 1.5 -5.5t0.5 -5.5v-12q0 -30 -13 -65q-9 -32 -26 -73l-2 -2q-1 0 -1 -1t-1 -2q-4 -10 -12 -25q-13 -33 -42 -53q-17 -6 -36 -6t-35 6q-64 18 -90 78q-4 12 -4 28q0 13 7 55q5 30 12 65v2z" />
    <glyph glyph-name="multiply" unicode="&#xd7;" horiz-adv-x="899" 
d="M653 293q4 -6 12 -16q6 -7 11 -16q5 -5 11 -13q19 -27 31 -58t5 -65l-2 -2q-6 -17 -13 -26q-10 -10 -21 -9q-12 2 -25 13q-11 11 -17 18q-2 3 -13 17q-38 49 -69 82l-2 3l-19 18q-12 8 -24 11q-19 3 -41 -13q-17 -13 -38 -33l-9 -10q-10 -10 -15 -14q-10 -9 -30 -23
q-27 -19 -57 -33q-28 -15 -64 -7h-2q-21 8 -28 15q-9 8 -9 17q1 15 15 30q11 11 14 13h1q51 44 83 76l6 6l25 25q2 3 21 25q21 33 -7 58q-59 53 -131 89q-16 7 -27 18q-11 10 -20 29q-10 18 17 50l1 2q35 39 82 28q36 -10 75 -39q32 -23 66 -54q3 -1 6 -6l16 -14
q16 -12 37 -10q10 3 22 15q12 15 16 23q12 17 27 45q16 30 21 43q6 17 19 31q7 8 25 18t52 -15q19 -18 28 -38q8 -19 5 -46q-8 -31 -33 -69l-1 -2q-18 -27 -44 -61l-8 -9q-10 -10 -18 -23q-7 -10 -7 -25q3 -18 13 -35q14 -16 24 -26q5 -5 7 -8z" />
    <glyph glyph-name="Oslash" unicode="&#xd8;" 
d="M640 -98q40 -41 99 -61q96 -24 177 97q82 121 131 327q49 205 52 443q1 221 -41 427q-10 49 -24 96l-2 -6l-98 -305l-11 -35l-182 -607q-58 -203 -101 -376zM931 1450l-8 12q-94 123 -244 105q-74 -13 -145 -67q-69 -52 -126 -122q-59 -73 -92 -133q-78 -146 -84 -244
q-7 -98 22 -146q28 -46 54 -29q11 11 14 40q2 19 4 57q0 16 1 22q3 68 20 138q20 55 84 68q65 13 120 -9q56 -23 51 -77q-31 -195 -55 -408q-22 -195 -17 -374q1 -94 18 -174l2 10l141 523q92 339 187 643zM485 -168q-88 89 -130 252q-44 175 -47 354q-1 77 1 157
q2 61 -1 83q-3 26 -18 36q-16 10 -53 19q-35 9 -55 16q-110 35 -145 98q-37 64 -7 173q47 166 151 310q103 143 254 242q147 97 328 115q135 9 238 -49q23 57 44 100q37 74 59 91q19 13 30 19q23 11 44 3q37 -22 33 -89l-3 -27q-1 -2 -1 -5q-15 -99 -64 -209l-3 -9
q85 -111 134 -268q64 -207 67 -451q0 -320 -97 -593q-98 -275 -231 -380q-135 -96 -270 -98q-77 0 -140 28l-21 -88q-31 -127 -52 -165q-19 -33 -29 -37q-19 -9 -37 38l-2 2q-10 54 -6 127q2 40 5 60q9 73 24 145z" />
    <glyph glyph-name="Ugrave" unicode="&#xd9;" horiz-adv-x="1313" 
d="M859 1378q3 70 44 91q39 21 117 6q77 -17 71 -93q-1 -13 -5 -45.5t-6 -51.5q-27 -233 -40 -318q-14 -104 -14 -480q0 -385 62 -686q7 -53 -35 -83q-45 -29 -98 -22t-77 63q-8 26 -12 149l-9 260q-1 20 -2.5 81t-2.5 86q-3 54 -5 54q-22 -139 -81 -292q-61 -154 -152 -258
q-92 -105 -214 -110q-159 6 -247 154q-87 148 -120 380q-33 233 -30 491q3 264 25 488q22 236 43 368q19 70 81 72q61 3 119 -23q58 -25 45 -94q-44 -175 -70 -385q-28 -229 -34 -447q-6 -232 13 -422q19 -192 71 -312q51 -117 140 -115q119 12 200 168q81 155 131 397
q50 235 71 506q21 284 21 423zM715 1876q16 -56 4 -103l-2 -9q-12 -40 -47 -53q-13 -5 -24 -2q-1 1 -5 3t-7 4q-8 7 -17 24q-63 139 -173 228q-38 34 -22 91q21 54 72 65q22 2 40 -3l4 -1q24 -12 44 -32q65 -63 108 -151q13 -28 20 -47q1 -1 1 -5q2 -3 4 -9z" />
    <glyph glyph-name="Uacute" unicode="&#xda;" horiz-adv-x="1313" 
d="M859 1378q3 70 44 91q39 21 117 6q77 -17 71 -93q-1 -13 -5 -45.5t-6 -51.5q-27 -233 -40 -318q-14 -104 -14 -480q0 -385 62 -686q7 -53 -35 -83q-45 -29 -98 -22t-77 63q-8 26 -12 149l-9 260q-1 20 -2.5 81t-2.5 86q-3 54 -5 54q-22 -139 -81 -292q-61 -154 -152 -258
q-92 -105 -214 -110q-159 6 -247 154q-87 148 -120 380q-33 233 -30 491q3 264 25 488q22 236 43 368q19 70 81 72q61 3 119 -23q58 -25 45 -94q-44 -175 -70 -385q-28 -229 -34 -447q-6 -232 13 -422q19 -192 71 -312q51 -117 140 -115q119 12 200 168q81 155 131 397
q50 235 71 506q21 284 21 423zM543 1879q2 1 4 5q2 1 6 7q11 14 35 42q69 75 154 122q28 14 54 17h5q21 0 42 -9q47 -25 53 -87q0 -62 -51 -85q-137 -57 -244 -179q-15 -16 -24 -19q-4 -3 -8 -3q-2 -1 -6 -1q-13 0 -23 9q-32 23 -32 69v8q1 49 35 104z" />
    <glyph glyph-name="Ucircumflex" unicode="&#xdb;" horiz-adv-x="1313" 
d="M859 1378q3 70 44 91q39 21 117 6q77 -17 71 -93q-1 -13 -5 -45.5t-6 -51.5q-27 -233 -40 -318q-14 -104 -14 -480q0 -385 62 -686q7 -53 -35 -83q-45 -29 -98 -22t-77 63q-8 26 -12 149l-9 260q-1 20 -2.5 81t-2.5 86q-3 54 -5 54q-22 -139 -81 -292q-61 -154 -152 -258
q-92 -105 -214 -110q-159 6 -247 154q-87 148 -120 380q-33 233 -30 491q3 264 25 488q22 236 43 368q19 70 81 72q61 3 119 -23q58 -25 45 -94q-44 -175 -70 -385q-28 -229 -34 -447q-6 -232 13 -422q19 -192 71 -312q51 -117 140 -115q119 12 200 168q81 155 131 397
q50 235 71 506q21 284 21 423zM641 2179q57 -15 107 -104q49 -86 78 -187q26 -90 26 -134q0 -5 -1 -7v-5q-6 -34 -34 -49q-18 -9 -36 -9q-11 0 -29 6q-19 4 -22 36q-9 178 -49 236q-19 29 -40 29q-22 0 -50 -43q-30 -43 -39 -222q-3 -31 -30 -38q-9 -4 -21 -4q-17 0 -41 12
q-23 12 -29 46q0 3 -0.5 7t-0.5 6q0 44 28 140q26 89 76 180q50 89 107 104z" />
    <glyph glyph-name="Udieresis" unicode="&#xdc;" horiz-adv-x="1313" 
d="M859 1378q3 70 44 91q39 21 117 6q77 -17 71 -93q-1 -13 -5 -45.5t-6 -51.5q-27 -233 -40 -318q-14 -104 -14 -480q0 -385 62 -686q7 -53 -35 -83q-45 -29 -98 -22t-77 63q-8 26 -12 149l-9 260q-1 20 -2.5 81t-2.5 86q-3 54 -5 54q-22 -139 -81 -292q-61 -154 -152 -258
q-92 -105 -214 -110q-159 6 -247 154q-87 148 -120 380q-33 233 -30 491q3 264 25 488q22 236 43 368q19 70 81 72q61 3 119 -23q58 -25 45 -94q-44 -175 -70 -385q-28 -229 -34 -447q-6 -232 13 -422q19 -192 71 -312q51 -117 140 -115q119 12 200 168q81 155 131 397
q50 235 71 506q21 284 21 423zM362 1991q10 48 39 81q1 1 3.5 2.5t3.5 2.5q2 2 4 3l3 3q3 3 6 3l5 2h1q1 1 2 1q18 6 37 6q30 0 59 -13q26 -12 48 -29q21 -18 30 -46q1 -3 1 -11q0 -3 0.5 -6.5t0.5 -5.5q0 -26 -13 -65q-10 -36 -27 -73l-2 -2l-1 -1v-2q-4 -10 -12 -25
q-13 -34 -43 -53q-16 -6 -35 -6q-18 0 -36 6q-63 18 -90 78q-3 13 -3 32q0 21 7 53q6 34 12 63v2zM765 1991q11 48 39 81q1 1 3 2.5t3 2.5q2 1 4 3t4 3q3 3 5 3l6 2h1l2 1q18 6 37 6q30 0 59 -13q25 -12 47 -29q23 -18 30 -46q2 -6 2 -11v-12q0 -29 -12 -65q-10 -36 -27 -73
l-2 -2q0 -1 -2 -3q-3 -11 -12 -25q-13 -33 -42 -53q-17 -6 -35 -6q-19 0 -36 6q-63 18 -90 78q-3 13 -3 28q0 21 7 55q4 34 12 65v2z" />
    <glyph glyph-name="Yacute" unicode="&#xdd;" horiz-adv-x="1304" 
d="M821 1614q-2 117 47 166q49 51 108 34q58 -16 85 -97q39 -135 59 -389q19 -245 7 -547q-12 -298 -69 -580t-168 -486q-113 -204 -291 -265q-74 -14 -115 43q-41 56 -41 122q2 65 53 77q149 24 244 167q94 140 144 346q49 202 66 412q15 204 7 366q-9 159 -31 207
q-21 44 -44 -42q-2 -11 -5 -23q-26 -132 -70 -312q-49 -198 -116 -384q-68 -194 -164 -334q-95 -138 -214 -156q-121 -9 -182 89q-62 96 -82 262q-19 165 -9 352q9 188 33 358q26 185 47 280q22 84 85 93q62 8 111 -34t29 -107q-30 -82 -60 -220q-32 -139 -51 -295
q-21 -154 -19 -292q2 -139 35 -210q34 -75 113 -49q85 38 167 220q82 181 150 425q66 237 106 464q38 217 35 339zM329 1891q1 1 3 5q2 1 6 7q11 14 35 42q69 75 154 122q28 14 54 17h5q21 0 42 -9q49 -26 53 -87q0 -62 -51 -85q-137 -57 -244 -179q-15 -16 -24 -19
q-4 -3 -8 -3q-2 -1 -6 -1q-12 0 -23 9q-32 24 -32 69v8q3 52 36 104z" />
    <glyph glyph-name="Thorn" unicode="&#xde;" horiz-adv-x="1097" 
d="M665 1027q-48 11 -123 17q-81 6 -147 -8q-71 -15 -95 -69q-55 -159 -65 -411q-10 -253 3 -473q12 -221 27 -279q12 -60 -20 -80q-34 -20 -76 0q-44 21 -67 87q-38 163 -41 527q-3 379 20 734q24 369 66 540q16 50 64 59q47 9 86 -19q41 -27 36 -87q-10 -66 -25 -119
q-19 -65 -22 -122q-4 -55 35 -88q40 -33 148 -38q276 -12 407 -91q132 -80 145 -192q15 -112 -61 -223q-74 -109 -214 -184q-138 -74 -312 -75q-60 1 -93 21q-34 20 -38 45q-5 26 20 45q25 20 80 20q129 0 227 40q101 41 159 101q60 61 70 126q12 65 -35 119q-47 53 -159 77
z" />
    <glyph glyph-name="germandbls" unicode="&#xdf;" horiz-adv-x="1379" 
d="M873 -50q62 35 131 109q67 73 97 155q29 81 -28 141q-62 59 -151 106q-96 50 -176 83q-110 47 -190 93q-84 48 -116 116q-34 87 1 174q36 87 94 170q56 85 94 167q39 87 24 183q-6 24 -45 46q-39 23 -96 15q-56 -7 -115 -75q-109 -164 -154 -394q-43 -227 -34 -473
q9 -242 60 -451q49 -206 128 -334q27 -48 -12 -79q-37 -32 -99 -24t-103 74q-45 81 -78 250q-34 179 -45 385q-13 208 4 439q15 218 70 413q54 191 154 307q101 118 255 121q107 -2 184 -61q79 -62 104 -158q26 -100 -26 -211q-73 -147 -126 -231q-69 -103 -71 -157
q0 -52 108 -106l117 -59q174 -84 297 -162q125 -78 168 -169q43 -94 -24 -220q-65 -127 -273 -314q-123 -105 -210 -99q-86 6 -116 80q-30 75 13 172q23 47 65 70q41 22 77 4q35 -19 43 -96z" />
    <glyph glyph-name="agrave" unicode="&#xe0;" horiz-adv-x="897" 
d="M899 444q9 20 30 25t36 -9t9 -46q-23 -66 -83 -191q-57 -119 -129 -213t-144 -96q-76 4 -112 46q-35 39 -47 99q-12 65 -13 115q-3 56 -12 92t-41 33q-24 -5 -46 -36q-23 -30 -48 -75q-44 -79 -98 -137q-57 -61 -141 -48q-77 21 -106 99q-27 78 -12 182q15 105 66 199
q52 98 130 151q79 55 179 37q62 -16 80 -55q17 -39 18 -78q2 -36 12 -52q16 -14 52 -23q44 -10 80 -32q39 -22 48 -78q0 -12 -1 -24q-1 -24 -1 -95q2 -59 12 -107q12 -48 41 -54q33 0 77 56q46 58 90 142q46 92 74 173zM333 439q15 55 -11 78q-27 25 -70 7
q-64 -32 -104 -117q-39 -87 -43 -157q-6 -72 29 -75q37 7 81 65q42 57 78 119q35 66 40 80zM392 931q15 -59 4 -103l-2 -9q-12 -39 -47 -53q-14 -5 -24 -2q-1 0 -2.5 1t-2.5 2q-6 3 -7 4q-7 5 -17 24q-64 139 -173 228q-40 35 -22 91q21 54 72 65q21 1 40 -3l4 -1
q21 -10 44 -32q64 -64 108 -151q5 -10 12.5 -28t7.5 -19l1 -2v-3q2 -6 4 -9z" />
    <glyph glyph-name="aacute" unicode="&#xe1;" horiz-adv-x="897" 
d="M899 444q9 20 30 25t36 -9t9 -46q-23 -66 -83 -191q-57 -119 -129 -213t-144 -96q-76 4 -112 46q-35 39 -47 99q-12 65 -13 115q-3 56 -12 92t-41 33q-24 -5 -46 -36q-23 -30 -48 -75q-44 -79 -98 -137q-57 -61 -141 -48q-77 21 -106 99q-27 78 -12 182q15 105 66 199
q52 98 130 151q79 55 179 37q62 -16 80 -55q17 -39 18 -78q2 -36 12 -52q16 -14 52 -23q44 -10 80 -32q39 -22 48 -78q0 -12 -1 -24q-1 -24 -1 -95q2 -59 12 -107q12 -48 41 -54q33 0 77 56q46 58 90 142q46 92 74 173zM333 439q15 55 -11 78q-27 25 -70 7
q-64 -32 -104 -117q-39 -87 -43 -157q-6 -72 29 -75q37 7 81 65q42 57 78 119q35 66 40 80zM198 956q3 3 3 5l7 7l34 42q69 75 154 122q28 14 54 17h5q21 0 42 -9q49 -26 53 -87q0 -63 -51 -85q-138 -58 -243 -179q-14 -16 -25 -19q-3 -3 -7 -3q-3 -1 -7 -1q-13 0 -23 9
q-32 24 -32 69v8q3 50 36 104z" />
    <glyph glyph-name="acircumflex" unicode="&#xe2;" horiz-adv-x="897" 
d="M899 444q9 20 30 25t36 -9t9 -46q-23 -66 -83 -191q-57 -119 -129 -213t-144 -96q-76 4 -112 46q-35 39 -47 99q-12 65 -13 115q-3 56 -12 92t-41 33q-24 -5 -46 -36q-23 -30 -48 -75q-44 -79 -98 -137q-57 -61 -141 -48q-77 21 -106 99q-27 78 -12 182q15 105 66 199
q52 98 130 151q79 55 179 37q62 -16 80 -55q17 -39 18 -78q2 -36 12 -52q16 -14 52 -23q44 -10 80 -32q39 -22 48 -78q0 -12 -1 -24q-1 -24 -1 -95q2 -59 12 -107q12 -48 41 -54q33 0 77 56q46 58 90 142q46 92 74 173zM333 439q15 55 -11 78q-27 25 -70 7
q-64 -32 -104 -117q-39 -87 -43 -157q-6 -72 29 -75q37 7 81 65q42 57 78 119q35 66 40 80zM298 1260q57 -15 107 -104q48 -84 79 -187q25 -87 25 -134v-7q-1 -2 -1 -5q-6 -34 -34 -49q-18 -9 -36 -9q-10 0 -29 6q-19 4 -22 36q-7 176 -49 236q-19 29 -40 29q-20 0 -50 -43
q-30 -45 -39 -222q-3 -31 -30 -38q-9 -4 -20 -4q-19 0 -41 12q-24 12 -30 46v13q0 47 27 140q26 91 77 180q50 89 106 104z" />
    <glyph glyph-name="atilde" unicode="&#xe3;" horiz-adv-x="897" 
d="M899 444q9 20 30 25t36 -9t9 -46q-23 -66 -83 -191q-57 -119 -129 -213t-144 -96q-76 4 -112 46q-35 39 -47 99q-12 65 -13 115q-3 56 -12 92t-41 33q-24 -5 -46 -36q-23 -30 -48 -75q-44 -79 -98 -137q-57 -61 -141 -48q-77 21 -106 99q-27 78 -12 182q15 105 66 199
q52 98 130 151q79 55 179 37q62 -16 80 -55q17 -39 18 -78q2 -36 12 -52q16 -14 52 -23q44 -10 80 -32q39 -22 48 -78q0 -12 -1 -24q-1 -24 -1 -95q2 -59 12 -107q12 -48 41 -54q33 0 77 56q46 58 90 142q46 92 74 173zM333 439q15 55 -11 78q-27 25 -70 7
q-64 -32 -104 -117q-39 -87 -43 -157q-6 -72 29 -75q37 7 81 65q42 57 78 119q35 66 40 80zM512 995q42 -70 45 -100q5 -32 5 -40q0 -29 -12 -44q-16 -22 -37 -22h-1q-21 0 -35 23q-7 12 -29 60q-20 53 -50 53q-14 0 -30 -12q-48 -35 -78 -75l-39 -43q-21 -21 -51 -39
q-24 -11 -47 -11q-17 0 -38 6q-47 12 -84 61q-39 54 -54 121v5q-2 18 -2 24q0 32 11 56q15 28 38 28h4q25 -3 46 -55q8 -27 28 -52q19 -28 38 -34q20 -5 24 -5q24 0 51 29q3 2 5 5q1 1 3 3.5t3 3.5q43 49 91 91q47 39 96 39h1q50 -2 98 -76z" />
    <glyph glyph-name="adieresis" unicode="&#xe4;" horiz-adv-x="897" 
d="M899 444q9 20 30 25t36 -9t9 -46q-23 -66 -83 -191q-57 -119 -129 -213t-144 -96q-76 4 -112 46q-35 39 -47 99q-12 65 -13 115q-3 56 -12 92t-41 33q-24 -5 -46 -36q-23 -30 -48 -75q-44 -79 -98 -137q-57 -61 -141 -48q-77 21 -106 99q-27 78 -12 182q15 105 66 199
q52 98 130 151q79 55 179 37q62 -16 80 -55q17 -39 18 -78q2 -36 12 -52q16 -14 52 -23q44 -10 80 -32q39 -22 48 -78q0 -12 -1 -24q-1 -24 -1 -95q2 -59 12 -107q12 -48 41 -54q33 0 77 56q46 58 90 142q46 92 74 173zM333 439q15 55 -11 78q-27 25 -70 7
q-64 -32 -104 -117q-39 -87 -43 -157q-6 -72 29 -75q37 7 81 65q42 57 78 119q35 66 40 80zM34 951q9 40 33 65q1 2 5 4l3 3q1 1 3 2q2 2 4 3l4 1l2 1q17 5 31 5q24 0 47 -10q20 -8 39 -24q17 -15 24 -37q1 -3 1 -9q0 -2 0.5 -5.5t0.5 -4.5q0 -22 -11 -52q-7 -29 -21 -59
q-1 -1 -1 -2l-2 -2q-3 -10 -10 -20q-10 -27 -34 -43q-15 -5 -29 -5q-13 0 -28 5q-52 15 -73 63q-3 11 -3 26q0 14 6 43q5 30 9 50v2zM360 951q9 40 31 65l6 4l3 3q1 0 3 2q1 1 5 3l4 1l1 1h1q17 5 30 5q24 0 48 -10q19 -10 38 -24q18 -15 25 -37q0 -6 1 -9v-10
q0 -25 -10 -52q-6 -21 -22 -59q-1 -1 -1 -2l-2 -2q-1 -4 -4.5 -11l-4.5 -9q-12 -29 -35 -43q-15 -5 -28 -5q-14 0 -29 5q-52 15 -73 63q-2 7 -2 22q0 21 5 45q5 33 10 52v2z" />
    <glyph glyph-name="aring" unicode="&#xe5;" horiz-adv-x="897" 
d="M333 439q16 53 -11 79q-28 24 -70 6q-66 -35 -103 -117q-40 -85 -44 -157q-5 -74 29 -75q38 7 81 66q42 56 78 119q32 59 40 79zM280 696q41 0 70 41q28 40 36 98t-11 101q-20 44 -75 50q-42 1 -66 -41q-23 -41 -28 -98q-4 -56 14 -101q18 -46 60 -50zM373 646
q17 -14 24 -30q17 -39 18 -78q2 -36 12 -52q14 -14 52 -23q39 -9 81 -32q40 -23 47 -78q0 -11 -1 -24q-2 -52 -1 -95q2 -61 13 -107q10 -48 40 -54q32 -2 77 56q44 56 90 143q46 90 74 172q9 20 30 25q19 5 36 -9t9 -46q-23 -66 -83 -191q-56 -116 -129 -212
q-74 -96 -144 -97q-76 4 -112 46q-36 41 -47 100q-12 65 -13 114q-3 56 -12 92t-41 33q-24 -5 -46 -36q-23 -31 -48 -75q-39 -73 -98 -137q-57 -61 -141 -48q-78 21 -105 100q-28 77 -13 182q15 103 66 199q51 95 130 150q17 12 39 22q-38 22 -56 56q-34 57 -30 127
q3 70 36 122q35 52 108 71q72 20 146 3q73 -17 111 -75q28 -49 22 -112q-8 -64 -41 -118q-34 -55 -89 -80q-2 -1 -5.5 -2.5t-5.5 -1.5z" />
    <glyph glyph-name="ae" unicode="&#xe6;" horiz-adv-x="1072" 
d="M700 605q-28 1 -64 -34q-35 -34 -59 -78q-22 -43 -4 -58q12 -7 40 16q25 21 54 58q27 36 38 63q12 28 -5 33zM333 439q16 53 -11 79q-28 24 -70 6q-66 -35 -103 -117q-40 -85 -44 -157q-5 -74 29 -75q38 7 81 66q42 56 78 119q32 59 40 79zM465 653q146 76 206 82
q55 9 102 -11q45 -19 62 -66q15 -47 -21 -119q-45 -84 -115 -145q-68 -59 -135 -89q-27 -14 -35 -41q-9 -28 6 -53q15 -26 58 -33q89 -8 180 40q90 46 170 118q78 72 122 132q14 17 36 16q21 -1 35 -17q12 -17 -4 -39q-42 -59 -131 -149q-85 -85 -194 -152t-233 -78
q-139 -4 -185 90q-30 62 -29 140q-1 -1 -6 -6.5t-7 -9.5q-23 -31 -48 -75q-39 -73 -98 -137q-57 -61 -141 -48q-78 21 -105 100q-28 77 -13 182q15 103 66 199q51 95 130 150t179 37q34 -6 148 -18z" />
    <glyph glyph-name="ccedilla" unicode="&#xe7;" horiz-adv-x="617" 
d="M178 24q-8 -2 -11 -2q-85 -19 -148 0q-64 19 -82 92q-16 86 17 209q31 120 94 229q62 108 135 151q67 33 114 10q47 -24 56 -65q7 -42 -39 -63q-38 -13 -87 -57q-51 -44 -89 -113q-38 -71 -38 -160q1 -56 56 -82q54 -26 158 29q78 47 139 103q53 48 110 110l42 44
q14 11 40 11q26 -2 41 -15q15 -14 -6 -41q-63 -78 -151 -169q-90 -93 -198 -158q-32 -18 -57 -29q1 -9 1 -33v-28q1 -15 15 -26q12 -11 30 -21l26 -18l4 -2q14 -11 20 -26q15 -42 15 -77q0 -59 -42 -98q-36 -33 -87 -33q-36 0 -87 20q-19 12 -40 34q-9 10 -16 26
q-6 12 -6 19q0 12 7 20q11 11 24 11q4 0 10 -2q1 -1 4 -1q21 -5 39 -15l5 -3q3 -1 13.5 -4t15.5 -4q7 -1 13 -1q18 0 32 6q15 9 15 33q-3 32 -17 46q-15 12 -34 18q-20 7 -31 16q-15 12 -22 33q-4 13 -4 42q0 23 1 34z" />
    <glyph glyph-name="egrave" unicode="&#xe8;" horiz-adv-x="646" 
d="M647 473q14 19 36 19q21 0 35 -15q12 -15 -4 -40q-48 -72 -131 -166q-84 -95 -194 -173q-111 -79 -233 -100q-139 -15 -185 78q-46 92 -19 231q27 138 107 257q80 118 194 154q55 14 102 -3q46 -16 62 -64q15 -47 -21 -125q-44 -88 -115 -159q-68 -68 -135 -104
q-27 -17 -36 -46q-8 -30 7 -54q15 -26 58 -29q88 -2 180 55q94 59 170 136q79 82 122 148zM282 585q-27 1 -65 -40q-38 -42 -58 -86q-21 -47 -4 -61q13 -6 40 20q30 30 53 64q27 39 39 69q12 31 -5 34zM404 965q16 -56 4 -103l-2 -9q-12 -39 -47 -53q-14 -5 -24 -2
q-1 1 -5 3t-7 4q-8 7 -17 24q-65 141 -173 228q-38 34 -22 91q21 54 72 65q21 1 40 -3l4 -1q24 -12 44 -32q65 -63 108 -151q13 -28 20 -47q1 -1 1 -5q0 -2 2 -5t2 -4z" />
    <glyph glyph-name="eacute" unicode="&#xe9;" horiz-adv-x="646" 
d="M647 473q14 19 36 19q21 0 35 -15q12 -15 -4 -40q-48 -72 -131 -166q-84 -95 -194 -173q-111 -79 -233 -100q-139 -15 -185 78q-46 92 -19 231q27 138 107 257q80 118 194 154q55 14 102 -3q46 -16 62 -64q15 -47 -21 -125q-44 -88 -115 -159q-68 -68 -135 -104
q-27 -17 -36 -46q-8 -30 7 -54q15 -26 58 -29q88 -2 180 55q94 59 170 136q79 82 122 148zM282 585q-27 1 -65 -40q-38 -42 -58 -86q-21 -47 -4 -61q13 -6 40 20q30 30 53 64q27 39 39 69q12 31 -5 34zM118 947q2 1 4 5l2 2q2 3 4 5l34 42q69 75 154 122q28 14 54 17h5
q21 0 42 -9q49 -26 53 -87q0 -62 -50 -85q-139 -58 -244 -179q-15 -16 -25 -19q-3 -3 -7 -3q-3 -1 -6 -1q-12 0 -24 9q-32 24 -32 69v8q3 50 36 104z" />
    <glyph glyph-name="ecircumflex" unicode="&#xea;" horiz-adv-x="663" 
d="M664 468q15 18 36 15q21 -1 35 -17q12 -16 -4 -38q-47 -64 -131 -149q-81 -82 -194 -152q-109 -66 -233 -78q-139 -4 -185 90q-46 92 -19 224q27 129 107 238q81 108 194 134q55 9 102 -11q45 -19 62 -66q15 -47 -21 -119q-44 -81 -115 -145q-72 -61 -135 -89
q-27 -13 -36 -41q-7 -28 7 -53q15 -26 58 -33q87 -8 180 39q94 49 170 118q76 70 122 133zM299 605q-28 2 -65 -34q-38 -38 -58 -78q-21 -44 -4 -58q12 -7 40 16q28 24 53 57q27 34 39 63t-5 34zM268 1159q56 -10 107 -76q52 -67 79 -138q25 -63 25 -99v-8q-6 -25 -35 -36
q-17 -7 -36 -7q-12 0 -29 4q-19 4 -22 27q-8 131 -48 173q-19 22 -41 22q-20 0 -50 -32q-30 -31 -39 -163q-3 -24 -30 -28q-11 -3 -20 -3q-19 0 -41 9q-25 9 -29 34q-1 3 -1 9q0 37 28 103q27 68 76 133q50 66 106 76z" />
    <glyph glyph-name="edieresis" unicode="&#xeb;" horiz-adv-x="663" 
d="M664 468q15 18 36 15q21 -1 35 -17q12 -16 -4 -38q-47 -64 -131 -149q-81 -82 -194 -152q-109 -66 -233 -78q-139 -4 -185 90q-46 92 -19 224q27 129 107 238q81 108 194 134q55 9 102 -11q45 -19 62 -66q15 -47 -21 -119q-44 -81 -115 -145q-72 -61 -135 -89
q-27 -13 -36 -41q-7 -28 7 -53q15 -26 58 -33q87 -8 180 39q94 49 170 118q76 70 122 133zM299 605q-28 2 -65 -34q-38 -38 -58 -78q-21 -44 -4 -58q12 -7 40 16q28 24 53 57q27 34 39 63t-5 34zM76 947q8 35 28 58q1 1 4 3q2 2 3 2t1 1l2 1q2 2 4 3l4 1q1 0 2 1q12 4 26 4
q21 0 42 -9q19 -7 34 -21q16 -14 21 -33q2 -4 2 -8v-8q0 -21 -9 -46q-8 -29 -19 -53l-1 -1l-2 -2q-2 -6 -8 -18q-11 -25 -30 -38q-11 -4 -26 -4q-14 0 -25 4q-47 14 -64 56q-3 9 -3 23q0 13 6 38q3 20 8 44v2zM363 947q7 32 28 58q1 1 2.5 2t2.5 1l3 2l2 2q1 1 4 3l4 1
q1 0 2 1q11 4 27 4q20 0 41 -9q17 -7 34 -21q15 -14 22 -33q0 -1 0.5 -3.5t0.5 -4.5v-8q0 -21 -9 -46q-8 -29 -19 -53q-1 0 -1 -1l-2 -2q-1 -8 -8 -18q-9 -25 -30 -38q-11 -4 -26 -4q-14 0 -25 4q-45 13 -64 56q-3 9 -3 20t5 39q4 23 9 46v2z" />
    <glyph glyph-name="igrave" unicode="&#xec;" horiz-adv-x="588" 
d="M603 458q12 18 31 17q18 -1 28 -16q10 -16 -5 -43q-33 -54 -100 -150q-59 -84 -133 -158q-75 -75 -155 -107q-83 -33 -169 3q-69 34 -98 112q-29 77 -27 167q0 87 14 163q12 50 63 68q51 17 94 2q44 -17 38 -66q-1 -6 -5 -25q-13 -56 -20 -119q-7 -67 6 -121
q13 -55 67 -71q53 -11 113 33q59 41 115 108q54 65 93 123q42 63 50 80zM252 794q16 -56 4 -103l-2 -9q-12 -40 -47 -53q-13 -5 -24 -2q-1 1 -5 3t-7 4q-8 7 -17 24q-63 139 -173 228q-38 34 -22 91q21 54 72 65q22 2 40 -3l4 -1q24 -12 44 -32q65 -63 108 -151
q13 -28 20 -47q1 -1 1 -5q2 -3 4 -9z" />
    <glyph glyph-name="iacute" unicode="&#xed;" horiz-adv-x="588" 
d="M603 458q12 18 31 17q18 -1 28 -16q10 -16 -5 -43q-33 -54 -100 -150q-59 -84 -133 -158q-75 -75 -155 -107q-83 -33 -169 3q-69 34 -98 112q-29 77 -27 167q0 87 14 163q12 50 63 68q51 17 94 2q44 -17 38 -66q-1 -6 -5 -25q-13 -56 -20 -119q-7 -67 6 -121
q13 -55 67 -71q53 -11 113 33q59 41 115 108q54 65 93 123q42 63 50 80zM-4 801q2 1 4 5q2 1 6 7q10 14 35 42q69 75 154 122q28 14 54 17h5q21 0 42 -9q47 -25 53 -87q0 -62 -51 -85q-137 -57 -244 -179q-15 -16 -24 -19q-4 -3 -8 -3q-2 -1 -6 -1q-12 0 -23 9
q-32 23 -32 69v8q1 49 35 104z" />
    <glyph glyph-name="icircumflex" unicode="&#xee;" horiz-adv-x="588" 
d="M603 458q12 18 31 17q18 -1 28 -16q10 -16 -5 -43q-33 -54 -100 -150q-59 -84 -133 -158q-75 -75 -155 -107q-83 -33 -169 3q-69 34 -98 112q-29 77 -27 167q0 87 14 163q12 50 63 68q51 17 94 2q44 -17 38 -66q-1 -6 -5 -25q-13 -56 -20 -119q-7 -67 6 -121
q13 -55 67 -71q53 -11 113 33q59 41 115 108q54 65 93 123q42 63 50 80zM86 953q57 -11 107 -74q49 -61 78 -132q26 -63 26 -95q0 -3 -1 -4v-4q-6 -25 -34 -35q-18 -6 -36 -6q-13 0 -30 4q-18 5 -21 26q-7 124 -49 167q-20 20 -40 20q-22 0 -50 -30q-32 -32 -39 -157
q-3 -23 -30 -27q-11 -3 -21 -3q-17 0 -41 8q-23 9 -29 33q-1 3 -1 9q0 36 28 99q27 66 76 127q50 63 107 74z" />
    <glyph glyph-name="idieresis" unicode="&#xef;" horiz-adv-x="588" 
d="M603 458q12 18 31 17q18 -1 28 -16q10 -16 -5 -43q-33 -54 -100 -150q-59 -84 -133 -158q-75 -75 -155 -107q-83 -33 -169 3q-69 34 -98 112q-29 77 -27 167q0 87 14 163q12 50 63 68q51 17 94 2q44 -17 38 -66q-1 -6 -5 -25q-13 -56 -20 -119q-7 -67 6 -121
q13 -55 67 -71q53 -11 113 33q59 41 115 108q54 65 93 123q42 63 50 80zM-117 803q7 34 27 58q4 2 5 3l2 2l2 1q1 1 2 1q2 2 4 3l3 1l2 1q12 4 27 4q21 0 42 -9q18 -8 33 -21q16 -13 22 -33q1 -2 1 -8v-8q0 -19 -8 -46q-6 -24 -20 -53l-1 -1q0 -2 -1 -2q-2 -6 -8 -18
q-11 -25 -31 -38q-11 -4 -25 -4t-26 4q-45 13 -64 56q-2 12 -2 23q0 10 5 38q3 25 9 44v2zM170 803q8 35 28 58q1 1 4 3q2 2 3 2t1 1l2 1l3 3l5 1q1 0 2 1q11 4 26 4q21 0 42 -9q15 -7 34 -21q16 -14 21 -33q1 -2 1 -8v-8q0 -23 -8 -46q-5 -19 -19 -53l-2 -1q0 -2 -1 -2
q-3 -9 -9 -18q-9 -25 -30 -38q-11 -4 -25 -4t-25 4q-46 14 -65 56q-2 12 -2 20q0 11 5 39q4 23 9 46v2z" />
    <glyph glyph-name="eth" unicode="&#xf0;" horiz-adv-x="875" 
d="M649 240q-6 44 -35 86q-29 44 -74 62q-46 19 -100 -15q-54 -38 -80 -91q-28 -53 -25 -107t40 -91t116 -37q76 0 124 55t34 138zM691 992q71 23 88 -5q18 -27 -31 -75q-33 -30 -69 -51q-49 -27 -76 -62q-18 -30 -1 -83q16 -54 52 -116q33 -60 72 -121q44 -70 67 -117
q35 -80 39 -157q6 -76 -34 -145q-39 -60 -112 -91q-74 -33 -162 -36q-88 -5 -168 19q-79 24 -132 77q-53 52 -53 134q0 70 31 138q30 67 83 131q52 62 112 105q39 30 39 57q-2 29 -18 44q-18 18 -32 18q-24 0 -60 -24q-28 -19 -76 -56q-38 -30 -71 -53t-61 -29
q-26 -3 -45 15t-16 39q4 22 33 46q28 25 65 50q55 39 95 76q44 40 52 90q2 15 -15 42q-18 30 -39 58q-43 58 -72 119q-10 28 6 52q17 24 55 24q31 -1 63 -32q26 -24 62 -68q28 -35 60 -67q30 -28 62 -33q32 -1 66 15q34 15 69 36q37 22 72 36z" />
    <glyph glyph-name="ntilde" unicode="&#xf1;" horiz-adv-x="1014" 
d="M1005 456q13 18 31 22q18 3 28 -6q9 -9 -1 -31q-88 -158 -198 -241q-113 -86 -216 -65q-86 22 -122 90t-51 133q-14 52 -28 76q-14 26 -46 8q-36 -26 -65 -113q-26 -80 -52 -188q-20 -85 -46 -166q-26 -60 -82 -68q-57 -7 -84 18q-40 32 -61 139q-20 110 -23 219
q-3 108 10 164q14 42 61 56q49 15 93 -2q45 -16 37 -71l-8 -48l-9 -84q-4 -44 -1 -82q3 -35 16 -39q10 -1 19 9.5t17 31.5q14 36 34 107q19 70 48 149q27 76 69 132q30 36 85 48q56 12 104 -11q49 -22 64 -93q9 -50 15 -88q12 -95 32 -153q21 -56 73 -65q49 -4 103 37
q52 42 94 94q42 53 60 81zM535 1017q43 -72 46 -100q4 -25 4 -40q0 -29 -12 -44q-14 -22 -36 -22h-1q-22 0 -36 23q-17 34 -28 60q-21 53 -51 53q-14 0 -29 -12q-48 -34 -79 -75q-16 -20 -39 -43q-21 -21 -51 -39q-22 -11 -47 -11q-18 0 -37 6q-49 12 -84 61q-41 57 -54 121
q-1 2 -1 5q-2 18 -2 24q0 34 12 56q15 28 37 28h4q25 -3 46 -55q7 -23 28 -52q21 -28 38 -34q20 -5 24 -5q23 0 52 29l5 5q1 1 3 3.5t3 3.5q41 47 90 91q48 39 96 39h2q49 -1 97 -76z" />
    <glyph glyph-name="ograve" unicode="&#xf2;" horiz-adv-x="619" 
d="M242 720q123 0 181 -79q59 -79 66 -195q6 -115 -28 -219q-37 -105 -100 -154q-59 -41 -132 -49q-74 -8 -135 23q-63 30 -96 104q-27 68 -24 125q2 59 10 98q5 23 7 47q1 18 -7 30q-9 9 -15 13q-16 12 -31 35q-12 23 2 59q32 66 124 112q89 45 178 50zM324 402
q0 100 -38 164q-38 62 -89 69t-98 -53q-15 -22 -12 -39q5 -17 17 -25q16 -13 26 -17q2 -1 11 -7q24 -20 21 -68q-3 -51 -13 -97q-6 -31 -9 -54q-8 -128 37 -140q44 -13 93 61q49 73 54 206zM301 926q15 -59 4 -103l-2 -9q-12 -39 -47 -53q-14 -5 -24 -2q-1 1 -2.5 2t-2.5 1
q-6 3 -7 4q-8 5 -17 24q-64 139 -173 228q-40 35 -22 91q21 54 72 65q21 1 40 -3l4 -1q21 -10 44 -32q64 -64 108 -151q5 -10 12.5 -28t7.5 -19v-2q1 -2 1 -3q2 -6 4 -9z" />
    <glyph glyph-name="oacute" unicode="&#xf3;" horiz-adv-x="619" 
d="M242 720q123 0 181 -79q59 -79 66 -195q6 -115 -28 -219q-37 -105 -100 -154q-59 -41 -132 -49q-74 -8 -135 23q-63 30 -96 104q-27 68 -24 125q2 59 10 98q5 23 7 47q1 18 -7 30q-9 9 -15 13q-16 12 -31 35q-12 23 2 59q32 66 124 112q89 45 178 50zM324 402
q0 100 -38 164q-38 62 -89 69t-98 -53q-15 -22 -12 -39q5 -17 17 -25q16 -13 26 -17q2 -1 11 -7q24 -20 21 -68q-3 -51 -13 -97q-6 -31 -9 -54q-8 -128 37 -140q44 -13 93 61q49 73 54 206zM51 942q2 1 4 5l2 3l4 4q16 22 34 42q69 75 154 122q28 14 54 17h5q21 0 42 -9
q49 -26 53 -87q0 -62 -50 -85q-139 -58 -244 -179q-15 -16 -25 -19q-3 -3 -7 -3q-3 -1 -6 -1q-12 0 -24 9q-32 24 -32 69v8q3 50 36 104z" />
    <glyph glyph-name="ocircumflex" unicode="&#xf4;" horiz-adv-x="619" 
d="M284 666q122 -12 170 -84q50 -72 42 -168q-8 -97 -55 -178q-46 -83 -117 -118q-65 -29 -137 -27q-73 0 -131 33q-59 31 -83 95q-18 60 -9 106q10 51 23 80q9 27 12 38q3 16 -4 26q-3 4 -12 13q-17 12 -27 31t9 49q39 51 137 80q95 29 182 24zM327 394q12 85 -18 139
q-28 55 -80 66q-51 12 -103 -33q-19 -17 -17 -31q1 -13 13 -23q16 -12 24 -16q2 -2 6 -4t5 -3q20 -19 13 -59q-8 -35 -26 -79q-14 -40 -15 -44q-23 -104 20 -119q42 -15 100 41q57 57 78 165zM221 1084q58 -10 107 -73q51 -61 79 -130q25 -60 25 -94v-5l-1 -3
q-5 -24 -34 -35q-18 -6 -36 -6q-12 0 -29 4q-19 4 -22 25q-8 125 -48 165q-21 21 -41 21t-50 -30q-30 -31 -39 -156q-3 -22 -30 -26q-10 -3 -20 -3q-17 0 -41 8q-25 9 -29 33q-1 3 -1 9q0 34 27 97q30 67 77 126q49 63 106 73z" />
    <glyph glyph-name="otilde" unicode="&#xf5;" horiz-adv-x="619" 
d="M284 666q122 -12 170 -84q50 -72 42 -168q-8 -97 -55 -178q-46 -83 -117 -118q-65 -29 -137 -27q-73 0 -131 33q-59 31 -83 95q-18 60 -9 106q10 51 23 80q9 27 12 38q3 16 -4 26q-3 4 -12 13q-17 12 -27 31t9 49q39 51 137 80q95 29 182 24zM327 394q12 85 -18 139
q-28 55 -80 66q-51 12 -103 -33q-19 -17 -17 -31q1 -13 13 -23q16 -12 24 -16q2 -2 6 -4t5 -3q20 -19 13 -59q-8 -35 -26 -79q-14 -40 -15 -44q-23 -104 20 -119q42 -15 100 41q57 57 78 165zM409 962q35 -59 38 -83q1 -6 2 -14.5l1.5 -12.5t0.5 -7q0 -22 -10 -37
q-12 -18 -31 -18t-31 19q-11 22 -23 50q-18 45 -43 45q-11 0 -24 -10q-41 -28 -66 -63q-15 -18 -33 -36q-19 -19 -43 -33q-17 -9 -39 -9q-13 0 -31 5q-41 11 -71 51q-33 45 -45 101v5q-2 14 -2 20q0 28 10 47q12 23 31 23h3q21 -3 39 -46q6 -19 23 -44q18 -24 32 -28
q13 -4 20 -4q21 0 43 24l4 4q1 1 2.5 3t2.5 3q37 42 76 76q41 33 81 33h1q42 -1 82 -64z" />
    <glyph glyph-name="odieresis" unicode="&#xf6;" horiz-adv-x="619" 
d="M284 666q122 -12 170 -84q50 -72 42 -168q-8 -97 -55 -178q-46 -83 -117 -118q-65 -29 -137 -27q-73 0 -131 33q-59 31 -83 95q-18 60 -9 106q10 51 23 80q9 27 12 38q3 16 -4 26q-3 4 -12 13q-17 12 -27 31t9 49q39 51 137 80q95 29 182 24zM327 394q12 85 -18 139
q-28 55 -80 66q-51 12 -103 -33q-19 -17 -17 -31q1 -13 13 -23q16 -12 24 -16q2 -2 6 -4t5 -3q20 -19 13 -59q-8 -35 -26 -79q-14 -40 -15 -44q-23 -104 20 -119q42 -15 100 41q57 57 78 165zM13 906q6 32 26 55q3 1 4 4l1 1q2 0 2 1l1 1q1 0 2 1l1 1q2 0 2 1l4 1q1 0 2 1
q11 4 26 4q20 0 39 -9q19 -7 33 -20q15 -12 21 -31q0 -5 1 -8v-8q0 -20 -9 -44q-6 -25 -18 -50l-1 -2q-1 -1 -1 -2q-3 -9 -9 -17q-7 -22 -28 -36q-11 -4 -25 -4q-13 0 -24 4q-43 12 -61 53q-3 9 -3 22q0 10 5 37l9 43v1zM287 906q7 31 28 55l4 4l1 1q2 0 2 1l2 2l4 2l3 1
q2 0 2 1q11 4 26 4q21 0 40 -9q15 -7 33 -20q14 -13 20 -31q1 -2 1 -8v-8q0 -23 -8 -44q-7 -24 -18 -50l-2 -2q0 -1 -1 -2q-5 -13 -8 -17q-9 -22 -29 -36q-11 -4 -24 -4q-14 0 -25 4q-43 12 -61 53q-3 9 -3 20q0 10 5 37q2 18 8 45v1z" />
    <glyph glyph-name="divide" unicode="&#xf7;" horiz-adv-x="982" 
d="M198 378q6 44 35 65q45 29 130 30q88 3 172 -7q85 -10 143 -23q30 -5 68 -26q34 -19 51 -62q12 -45 -12 -46q-27 -2 -62 11q-23 8 -53 13q-87 13 -207 12q-123 -3 -208 -34q-35 -16 -49.5 1t-7.5 66z" />
    <glyph glyph-name="oslash" unicode="&#xf8;" horiz-adv-x="619" 
d="M191 189q28 11 58 41q57 55 78 164q9 62 -5 110l-27 -63l-6 -12q-45 -103 -84 -204zM274 578q-21 16 -45 22q-51 11 -103 -34q-19 -17 -17 -31q1 -12 14 -23q9 -9 23 -16q5 -3 11 -7q20 -19 13 -58q-8 -36 -26 -80q-11 -27 -15 -44q-16 -72 -1 -101l53 141q41 109 87 217
zM94 107q-19 6 -38 17q-60 32 -83 95q-18 59 -9 106q9 45 23 80q9 27 12 38q3 16 -4 26q-3 4 -12 13q-16 12 -27 32q-10 20 9 48q40 52 137 81q92 28 182 23q20 -2 30 -4q24 43 32 55q18 26 28 30l14 7q10 3 20 1q18 -7 16 -30q0 -1 -1 -4t-1 -5v-2q-8 -33 -30 -70l-3 -6
q41 -21 65 -56q50 -72 42 -167q-8 -97 -54 -179q-49 -84 -118 -118q-65 -29 -137 -27q-11 0 -31 2l-26 -76q-14 -45 -24 -55q-10 -12 -13 -13q-9 -2 -18 13l-1 1q-4 18 -3 42l3 21q8 40 19 77q0 1 0.5 2t0.5 2z" />
    <glyph glyph-name="ugrave" unicode="&#xf9;" horiz-adv-x="975" 
d="M973 456q13 18 31 22q18 3 28 -6q10 -8 -1 -31q-88 -158 -198 -241q-113 -86 -216 -65q-63 13 -99 59q-35 43 -46 98q-10 51 -10 70v10q-1 0 -1 -2l-11 -42q-14 -59 -35 -125q-22 -73 -62 -137q-38 -63 -100 -89q-54 -21 -120 -6q-65 13 -103 87q-37 95 -41 209
q-3 122 12 180q14 43 66 56q54 15 98 -2q45 -16 37 -71q0 -2 -1 -3q-6 -25 -18 -98q-11 -65 -6 -135q7 -44 31 -59q23 -15 49 -6q51 20 86 84q33 64 54 146q21 83 36 159q12 68 28 123q15 38 66 43q51 4 94 -24q44 -30 38 -95q-13 -77 -14 -145q-3 -71 12 -119t59 -57
q49 -4 103 37q56 45 94 94q42 53 60 81zM333 818q16 -56 4 -103l-2 -9q-12 -39 -47 -53q-14 -5 -24 -2q-1 1 -5 3t-7 4q-8 7 -17 24q-65 141 -173 228q-38 34 -22 91q21 54 72 65q21 1 40 -3l4 -1q24 -12 44 -32q65 -63 108 -151q13 -28 20 -47q1 -1 1 -5q1 -2 2 -5t2 -4z
" />
    <glyph glyph-name="uacute" unicode="&#xfa;" horiz-adv-x="975" 
d="M973 456q13 18 31 22q18 3 28 -6q10 -8 -1 -31q-88 -158 -198 -241q-113 -86 -216 -65q-63 13 -99 59q-35 43 -46 98q-10 51 -10 70v10q-1 0 -1 -2l-11 -42q-14 -59 -35 -125q-22 -73 -62 -137q-38 -63 -100 -89q-54 -21 -120 -6q-65 13 -103 87q-37 95 -41 209
q-3 122 12 180q14 43 66 56q54 15 98 -2q45 -16 37 -71q0 -2 -1 -3q-6 -25 -18 -98q-11 -65 -6 -135q7 -44 31 -59q23 -15 49 -6q51 20 86 84q33 64 54 146q21 83 36 159q12 68 28 123q15 38 66 43q51 4 94 -24q44 -30 38 -95q-13 -77 -14 -145q-3 -71 12 -119t59 -57
q49 -4 103 37q56 45 94 94q42 53 60 81zM156 839q2 1 4 5l2 2q2 3 4 5l34 42q69 75 154 122q28 14 54 17h5q21 0 42 -9q49 -26 53 -87q0 -62 -50 -85q-139 -58 -244 -179q-15 -16 -25 -19q-3 -3 -7 -3q-3 -1 -6 -1q-12 0 -24 9q-32 24 -32 69v8q3 50 36 104z" />
    <glyph glyph-name="ucircumflex" unicode="&#xfb;" horiz-adv-x="975" 
d="M973 456q13 18 31 22q18 3 28 -6q10 -8 -1 -31q-88 -158 -198 -241q-113 -86 -216 -65q-63 13 -99 59q-35 43 -46 98q-10 51 -10 70v10q-1 0 -1 -2l-11 -42q-14 -59 -35 -125q-22 -73 -62 -137q-38 -63 -100 -89q-54 -21 -120 -6q-65 13 -103 87q-37 95 -41 209
q-3 122 12 180q14 43 66 56q54 15 98 -2q45 -16 37 -71q0 -2 -1 -3q-6 -25 -18 -98q-11 -65 -6 -135q7 -44 31 -59q23 -15 49 -6q51 20 86 84q33 64 54 146q21 83 36 159q12 68 28 123q15 38 66 43q51 4 94 -24q44 -30 38 -95q-13 -77 -14 -145q-3 -71 12 -119t59 -57
q49 -4 103 37q56 45 94 94q42 53 60 81zM173 1036q60 5 124 -46q66 -50 113 -114q42 -57 51 -90l1 -5v-4q2 -26 -23 -45q-15 -9 -33 -16q-12 -2 -29 -3q-20 -2 -29 20q-42 126 -92 158q-25 15 -46 10q-20 -6 -39 -44q-21 -41 6 -171q3 -23 -22 -35q-10 -7 -18 -8
q-19 -5 -42 -2q-24 1 -37 25q-2 3 -4 9q-9 35 0 108q7 70 37 150q30 78 82 103z" />
    <glyph glyph-name="udieresis" unicode="&#xfc;" horiz-adv-x="975" 
d="M973 456q13 18 31 22q18 3 28 -6q10 -8 -1 -31q-88 -158 -198 -241q-113 -86 -216 -65q-63 13 -99 59q-35 43 -46 98q-10 51 -10 70v10q-1 0 -1 -2l-11 -42q-14 -59 -35 -125q-22 -73 -62 -137q-38 -63 -100 -89q-54 -21 -120 -6q-65 13 -103 87q-37 95 -41 209
q-3 122 12 180q14 43 66 56q54 15 98 -2q45 -16 37 -71q0 -2 -1 -3q-6 -25 -18 -98q-11 -65 -6 -135q7 -44 31 -59q23 -15 49 -6q51 20 86 84q33 64 54 146q21 83 36 159q12 68 28 123q15 38 66 43q51 4 94 -24q44 -30 38 -95q-13 -77 -14 -145q-3 -71 12 -119t59 -57
q49 -4 103 37q56 45 94 94q42 53 60 81zM73 944q8 35 28 58q2 1 4 3l3 3q1 0 3 2l4 2l4 1q1 0 2 1q12 4 26 4q21 0 42 -9q19 -7 34 -21q14 -11 22 -33q1 -2 1 -8v-8q0 -21 -9 -46q-9 -31 -19 -52l-1 -2l-2 -2q-4 -12 -8 -18q-9 -25 -30 -38q-11 -4 -26 -4q-14 0 -25 4
q-47 14 -64 56q-3 9 -3 23q0 12 6 38q2 18 8 45v1zM360 944q7 33 29 58q1 1 4 3l3 3l2 2l4 2l4 1q2 0 2 1q12 4 27 4q21 0 41 -9q16 -7 35 -21q15 -12 21 -33q1 -2 1 -8q0 -2 0.5 -4.5t0.5 -3.5q0 -18 -10 -46q-5 -22 -18 -52l-2 -2l-1 -2q-3 -9 -9 -18q-9 -25 -30 -38
q-11 -4 -25 -4q-16 0 -25 4q-46 13 -65 56q-2 12 -2 20q0 18 5 39q2 17 8 47v1z" />
    <glyph glyph-name="yacute" unicode="&#xfd;" horiz-adv-x="821" 
d="M379 648q24 53 76 68q50 16 98 1q47 -15 59 -54q33 -143 30 -352q-2 -217 -36 -440q-32 -220 -127 -411q-95 -186 -172 -231q-78 -45 -147 -7t-84 115q-11 99 49 247q59 147 125 250l88 125q56 77 98 145q40 69 44 123q4 73 0 148q-3 72 -31 109q-23 24 -46 -35
q-22 -58 -46 -158q-27 -109 -58 -197q-33 -96 -76 -128q-75 -46 -144 -24q-71 21 -98 123q-20 85 -11 195q11 111 42 181q26 53 72 63q46 9 78 -11q33 -21 19 -60q-17 -44 -36 -113q-19 -77 -22 -142q-2 -70 28 -102q41 -32 78 47q39 82 70 200q34 127 54 221q18 82 26 104z
M208 -668q47 23 107 128q61 103 96 202q34 100 43 168q9 71 -20 76q-29 0 -74 -56q-44 -56 -91 -142q-46 -89 -79 -194q-33 -103 -24 -149q9 -45 42 -33zM149 901q2 1 4 5q2 1 6 7q10 14 35 42q66 73 153 122q30 14 55 17h5q20 0 41 -9q49 -26 53 -87q0 -63 -50 -85
q-137 -57 -244 -179q-15 -16 -25 -19q-3 -3 -7 -3q-2 -1 -6 -1q-13 0 -23 9q-33 24 -33 69v8q3 50 36 104z" />
    <glyph glyph-name="thorn" unicode="&#xfe;" horiz-adv-x="799" 
d="M328 518q-39 -5 -68 -22q-30 -17 -41 -57q-9 -42 -6 -177q1 -126 11 -268q9 -136 22 -173q10 -35 -18 -48q-27 -15 -65 -4q-36 10 -56 48q-34 98 -49 330q-15 235 -9 466q8 234 36 308q14 24 46 27t59 0q48 -6 54 -45q6 -37 -2 -90q-9 -60 1 -103q9 -46 78 -47
q67 3 158 -5q86 -7 161 -44q73 -36 102 -118q18 -81 -56 -150q-75 -70 -179 -109q-101 -40 -180 -35q-42 6 -70 34q-27 27 -27 54q2 27 42 31q74 6 146 39q73 33 108 74q36 39 -5 66q-39 26 -193 18z" />
    <glyph glyph-name="ydieresis" unicode="&#xff;" horiz-adv-x="785" 
d="M379 655q24 47 76 62q50 15 98 1q47 -14 59 -50q33 -132 30 -324q-2 -200 -36 -405q-33 -204 -98 -355q-74 -152 -161 -192q-90 -39 -157 -5q-69 34 -84 106q-11 92 34 205q45 114 110 206q54 74 88 116q58 73 98 134q40 63 44 113q4 67 0 135q-3 67 -31 101
q-23 22 -46 -32q-21 -53 -46 -145q-26 -97 -58 -182q-33 -87 -76 -117q-72 -43 -144 -23q-71 20 -98 113q-20 80 -11 180q11 101 42 166q25 49 72 58q46 9 78 -10t19 -55q-16 -36 -36 -104q-19 -71 -22 -130q-1 -64 28 -95q41 -29 78 43q40 79 70 185q33 113 54 204
q17 73 26 96zM238 -492q46 19 92 94q45 72 81 163q34 92 43 155q9 65 -20 70q-29 -1 -74 -52q-45 -53 -91 -131q-45 -81 -64 -155q-18 -72 -9 -114t42 -30zM20 1003q7 37 31 66q2 1 5 4q2 2 4 3q1 0 3 2q2 1 4 3l5 1q1 1 2 1q17 5 30 5q22 0 49 -11q24 -10 38 -23
q18 -15 24 -38q2 -3 2 -9v-10q0 -24 -10 -53q-8 -33 -22 -59l-1 -2q0 -2 -2 -2q-3 -12 -10 -21q-11 -29 -34 -43q-15 -5 -29 -5q-12 0 -29 5q-52 15 -74 64q-2 14 -2 26q0 15 6 43q2 22 10 51v2zM349 1003q7 37 31 66q2 1 5 4q1 1 4 3l2 2q1 0 2.5 1t2.5 2l5 1l1 1
q18 5 32 5q22 0 47 -11q23 -11 39 -23q17 -14 25 -38q1 -3 1 -9v-10q0 -24 -10 -53q-10 -34 -22 -59l-1 -2l-2 -2q-3 -12 -10 -21q-11 -29 -34 -43q-15 -5 -29 -5t-29 5q-52 15 -73 64q-4 9 -4 22q0 18 7 45q6 35 10 53v2z" />
    <glyph glyph-name="idotless" unicode="&#x131;" horiz-adv-x="588" 
d="M603 458q12 18 31 17q18 -1 28 -16q10 -16 -5 -43q-33 -54 -100 -150q-59 -84 -133 -158q-75 -75 -155 -107q-83 -33 -169 3q-69 34 -98 112q-29 77 -27 167q0 87 14 163q12 50 63 68q51 17 94 2q44 -17 38 -66q-1 -6 -5 -25q-13 -56 -20 -119q-7 -67 6 -121
q13 -55 67 -71q53 -11 113 33q59 41 115 108q54 65 93 123q42 63 50 80z" />
    <glyph glyph-name="euro" unicode="&#x20ac;" horiz-adv-x="1452" 
d="M916 818q35 -4 37 -23q2 -18 -23 -37q-33 -22 -93 -48l-123 -48q-56 -19 -106 -41q-67 -33 -77 -75q-12 -43 1 -83v-2q8 -34 19 -53q12 -22 46 -22q25 0 69 14q43 14 89 33q103 43 189 57q42 3 59 -15q17 -20 -13 -45q-41 -31 -127 -67q-88 -37 -159 -82
q-74 -46 -83 -115q-11 -69 99 -168q112 -95 208 -89q97 4 173 59q72 49 124 103q3 3 9.5 9t8.5 8q23 17 52 -7q29 -25 47 -60q17 -36 4 -53q-75 -83 -168 -142q-92 -59 -209 -68q-159 -7 -263 56q-103 64 -170 141q-34 41 -37 46q-25 33 -49 54q-26 22 -64 23
q-50 -3 -101 -22q-15 -5 -52 -14q-44 -7 -52 14q-9 19 5 50q15 31 37 51q24 20 38 30q43 29 74 69t24 108q-14 69 -59 76q-47 8 -95 -4q-25 -5 -54 -5q-24 0 -31 17q-11 31 7 55q18 25 46 43q26 18 48 28q9 5 11 6q62 37 85 87q23 48 35 122q20 99 69 224q51 129 126 247
q79 122 180 199q100 79 225 82q136 -4 216 -104q81 -103 115 -241q35 -139 40 -267q3 -130 -11 -184q-12 -40 -48 -47q-35 -9 -69 8q-33 15 -36 49q-1 22 -1 75q0 62 -3 131q-1 62 -13 137q-10 67 -35 124q-23 53 -67 89q-45 34 -112 34q-59 0 -120 -49q-64 -49 -117 -121
q-55 -73 -94 -152q-38 -75 -52 -142q-14 -65 7 -94q26 -32 64 -29q37 1 94 20q77 28 206 40z" />
    <glyph glyph-name="r" unicode="&#xe005;" horiz-adv-x="836" 
d="M-274 -3q76 19 154 109q77 92 135 208q57 114 77 217q20 101 -19 139q-30 27 -37 70q-7 41 14 79q20 36 75 45q75 11 176 0q100 -9 182 -56q80 -46 97 -148q4 -43 -5 -103q-7 -48 -23 -121q-24 -99 -30 -182t43 -111q35 -16 77 18q43 34 82 91q38 54 70 111q32 58 41 78
q15 26 33 26q19 1 30 -16t-1 -43l-11 -21q-31 -63 -67 -128q-44 -79 -94 -145q-53 -70 -114 -111t-129 -27q-87 24 -114 96q-26 75 -16 168t30 189q15 70 20 117q8 53 0 86q-19 67 -62 84q-42 16 -76 0t-31 -48q23 -133 -58 -357q-80 -223 -263 -448q-35 -37 -80 -25
q-46 11 -83 45q-37 35 -48 69q-11 35 25 45z" />
    </font>
</defs>
</svg>
