<?xml version="1.0" encoding="iso-8859-1"?>
<!-- Generator: Adobe Illustrator 19.0.0, SVG Export Plug-In . SVG Version: 6.00 Build 0)  -->
<svg version="1.1" id="Capa_1" xmlns="http://www.w3.org/2000/svg" xmlns:xlink="http://www.w3.org/1999/xlink" x="0px" y="0px"
	 viewBox="0 0 512 512" style="enable-background:new 0 0 512 512;" xml:space="preserve">
<path style="fill:#2EBBF0;" d="M512,292.571c0,112.192-84.199,204.712-192.849,217.83c-6.334,0.768-12.747,1.263-19.239,1.475
	c-2.438,0.079-4.885,0.124-7.341,0.124c-121.184,0-219.429-98.244-219.429-219.429c0-63.132,26.668-120.045,69.35-160.077
	c20.387-19.124,44.431-34.397,70.967-44.652c24.539-9.496,51.216-14.699,79.111-14.699C413.756,73.143,512,171.387,512,292.571z"/>
<path style="fill:#00A9DA;" d="M292.571,73.143c-5.23,0-10.417,0.183-15.556,0.543c114.021,7.881,204.079,102.863,204.079,218.886
	c0,112.192-84.199,204.712-192.849,217.83c-3.682,0.447-7.394,0.789-11.13,1.049c5.107,0.355,10.259,0.549,15.456,0.549
	c2.456,0,4.903-0.044,7.341-0.124c6.492-0.212,12.905-0.707,19.239-1.475C427.801,497.284,512,404.763,512,292.571
	C512,171.387,413.756,73.143,292.571,73.143z"/>
<path style="fill:#44D875;" d="M448.5,138.189l-0.052,0.134c-0.01,0.062-0.051,0.124-0.072,0.196l-5.469,18.153
	c-0.409,1.359-1.508,2.399-2.887,2.733l-3.337,0.809l-18.278,4.419c-0.91,0.22-1.715,0.753-2.273,1.505l-19.649,26.488
	c-0.981,1.322-2.672,1.909-4.261,1.477l-6.682-1.814c-1.665-0.452-2.852-1.92-2.946-3.642l-1.307-23.974
	c-0.033-0.602,0.071-1.203,0.303-1.759l5.911-14.157c0.504-1.206,0.386-2.582-0.314-3.685l-5.474-8.623
	c-0.178-0.281-0.321-0.583-0.425-0.9l-5.641-17.234c-0.231-0.706-0.655-1.334-1.223-1.813l-12.347-10.414
	c-1.757-1.482-1.907-4.136-0.328-5.806l1.913-2.023l7.488-7.916c1.132-1.196,2.886-1.589,4.41-0.965
	C403.123,100.656,427.887,117.366,448.5,138.189z"/>
<path style="fill:#56BC7B;" d="M448.5,138.189l-0.052,0.134c-0.01,0.062-0.051,0.124-0.072,0.196l-6.13,20.346l-5.563,1.35
	c-19.419-25.631-44.339-46.873-73.019-61.955l9.364-9.9C401.606,99.639,427.257,116.73,448.5,138.189z"/>
<g>
	<path style="fill:#44D875;" d="M345.038,196.604l-33.877,7.373c-1.277,0.278-2.335,1.158-2.84,2.363
		c-0.305,0.729-0.633,1.576-0.939,2.395c-0.721,1.931,0.14,4.093,1.992,4.997l19.446,9.488c2.995,1.461,2.994,5.729-0.001,7.19
		L296.1,246.366c-0.959,0.468-1.691,1.299-2.034,2.309l-2.711,7.985c-0.321,0.945-0.983,1.736-1.857,2.217l-8.481,4.673
		c-0.691,0.381-1.253,0.954-1.617,1.655c-0.919,1.768-2.779,5.336-4.042,7.691c-0.746,1.392-2.24,2.209-3.816,2.092
		c-5.31-0.394-17.427-1.294-21.185-1.573c-0.744-0.055-1.483,0.099-2.144,0.444l-3.604,1.883c-1.576,0.824-2.42,2.584-2.07,4.327
		c1.167,5.817,3.727,18.285,4.336,18.843l12.597,16.831c0.83,1.108,1.026,2.564,0.523,3.854c-0.957,2.453-2.629,6.524-3.895,9.584
		c-0.903,2.183-3.49,3.108-5.575,1.997l-18.153-9.671c-0.328-0.175-0.68-0.303-1.044-0.381l-17.855-3.821
		c-1.202-0.257-2.216-1.046-2.755-2.151c-3.32-6.805-15.238-31.215-15.421-31.382l-29.204-25.477
		c-0.631-0.55-1.072-1.281-1.264-2.096c-0.942-4.015-3.872-16.526-4.608-19.958c-0.118-0.551-0.118-1.111,0-1.662
		c0.835-3.889,4.504-20.97,5.059-23.515c0.045-0.208,0.107-0.41,0.184-0.608l6.029-15.356c0.346-0.882,0.368-1.859,0.061-2.756
		l-5.162-15.095c-0.128-0.374-0.2-0.765-0.213-1.16l-0.735-21.941c-0.037-1.108-0.531-2.15-1.366-2.879
		c-4.796-4.187-21.144-18.452-21.341-18.512l-0.247-0.265c20.387-19.124,44.431-34.397,70.967-44.652l41.498,19.738
		c0.508,0.241,1.06,0.373,1.622,0.387l9.553,0.23c1.868,0.045,3.518-1.207,3.974-3.02c0.472-1.874,1.07-4.239,1.533-6.02
		c0.41-1.578,1.734-2.747,3.35-2.96l18.015-2.367c2.025-0.266,3.925,1.036,4.408,3.02l3.559,14.631
		c0.38,1.562-0.212,3.2-1.503,4.158l-33.605,24.931c-1.029,0.764-1.631,1.975-1.616,3.256l0.153,13.904
		c0.007,0.616,0.156,1.222,0.435,1.771l10.594,20.812c0.57,1.121,1.635,1.908,2.873,2.125l15.063,2.644
		c1.498,0.263,3.016-0.347,3.916-1.573l16.706-22.767c0.312-0.425,0.704-0.783,1.154-1.056l8.615-5.213
		c1.198-0.725,2.687-0.77,3.927-0.121l10.495,5.499c0.869,0.455,1.54,1.214,1.886,2.131l8.873,23.522
		c0.253,0.67,0.321,1.395,0.198,2.1l-1.01,5.779C347.848,194.985,346.627,196.258,345.038,196.604z"/>
	<path style="fill:#44D875;" d="M389.169,422.339l-10.945,16.803c-0.446,0.684-1.09,1.216-1.847,1.523l-13.07,5.307
		c-1.186,0.482-2.071,1.502-2.378,2.746l-2.149,8.687c-0.06,0.244-0.144,0.482-0.249,0.71l-9.488,20.638
		c-0.498,1.084-1.454,1.888-2.607,2.195l-7.95,2.114c-1.039,0.276-1.924,0.96-2.453,1.896l-8.314,14.693
		c-0.106,0.188-0.228,0.367-0.363,0.535l-8.206,10.215c-6.334,0.769-12.747,1.263-19.239,1.475l-4.157-19.531
		c-0.158-0.744-0.101-1.517,0.164-2.23l3.74-10.034c0.224-0.601,0.3-1.247,0.222-1.883l-5.456-44.535
		c-0.174-1.424-1.098-2.645-2.421-3.201l-12.225-5.137c-0.878-0.369-1.595-1.038-2.023-1.888l-8.593-17.063
		c-0.246-0.488-0.389-1.021-0.421-1.566l-1.118-19.159c-0.056-0.963,0.237-1.914,0.827-2.677l8.059-10.442
		c0.463-0.599,0.746-1.318,0.816-2.072l1.189-12.718c0.127-1.362,0.942-2.564,2.159-3.188l8.253-4.226
		c1.327-0.68,2.922-0.565,4.138,0.298l3.261,2.314c0.533,0.378,1.15,0.62,1.798,0.704l13.464,1.754
		c0.352,0.046,0.697,0.139,1.025,0.276l26.542,11.087c0.905,0.378,1.64,1.076,2.064,1.96l6.338,13.204
		c0.744,1.549,2.393,2.45,4.099,2.239l18.349-2.276c1.046-0.13,2.101,0.159,2.936,0.803l15.32,11.821
		c0.982,0.757,1.556,1.927,1.556,3.167v22.481C389.818,420.931,389.592,421.69,389.169,422.339z"/>
</g>
<path style="fill:#FF4D4D;" d="M195.734,91.769c0,91.769-97.867,157.579-97.867,157.579S0,183.538,0,91.769
	C0,41.08,43.81,0,97.867,0S195.734,41.08,195.734,91.769z"/>
<path style="fill:#F93A3B;" d="M97.867,0c-5.259,0-10.419,0.394-15.453,1.142c46.712,6.946,82.414,44.869,82.414,90.627
	c0,68.695-54.837,122.841-82.414,145.728c9.263,7.687,15.453,11.851,15.453,11.851s97.867-65.81,97.867-157.579
	C195.734,41.08,151.924,0,97.867,0z"/>
<path style="fill:#FF8B00;" d="M97.867,164.829c-36.923,0-66.962-30.039-66.962-66.962s30.039-66.962,66.962-66.962
	s66.962,30.039,66.962,66.962S134.79,164.829,97.867,164.829z"/>
<path style="fill:#FFD237;" d="M88.369,65.416l47.333,20.353c1.599,0.687,1.618,2.947,0.031,3.661l-47.364,21.314V65.416z"/>
<path style="fill:#FF4D4D;" d="M80.869,143.312c-4.142,0-7.5-3.358-7.5-7.5v-76.92c0-4.142,3.358-7.5,7.5-7.5s7.5,3.358,7.5,7.5
	v76.92C88.369,139.954,85.011,143.312,80.869,143.312z"/>
<g>
</g>
<g>
</g>
<g>
</g>
<g>
</g>
<g>
</g>
<g>
</g>
<g>
</g>
<g>
</g>
<g>
</g>
<g>
</g>
<g>
</g>
<g>
</g>
<g>
</g>
<g>
</g>
<g>
</g>
</svg>
