<svg height="512pt" viewBox="-58 0 512 512" width="512pt" xmlns="http://www.w3.org/2000/svg"><path d="m213.832031 328.910156 94.699219-57.128906c10.699219-6.453125 24.554688-3.691406 31.960938 6.371094 8.265624 11.226562 5.347656 27.097656-6.367188 34.652344l-84.871094 54.730468zm0 0" fill="#ffcfc2"/><path d="m46.195312 366.890625 36.976563-58.660156c13.132813-20.839844 35.042969-34.585938 59.53125-37.234375 15.339844-1.65625 33.648437-4.808594 51.339844-10.753906 13.894531-4.671876 26.828125 9.210937 21.40625 22.832031-4.035157 10.136719-11.519531 20.375-25.046875 27.214843-6.179688 3.125-4.664063 12.367188 2.179687 13.433594 14.035157 2.179688 29.765625 4.628906 42.273438 6.582032 15 2.335937 30.351562-.011719 43.964843-6.722657l72.261719-35.628906c11.234375-5.539063 24.816407-2.398437 32.476563 7.507813 9.902344 12.796874 6.027344 31.417968-8.160156 39.203124l-101.097657 55.480469-103.117187 25.777344zm0 0" fill="#ffe2d9"/><path d="m126.300781 357.113281c-24.511719-21.097656-25.871093-51.0625-23.566406-70.21875-7.660156 5.808594-14.3125 13.003907-19.5625 21.335938l-36.976563 58.660156 112.929688 44.300781c-5.980469-18.859375-16.015625-39.613281-32.824219-54.078125zm0 0" fill="#ffcfc2"/><path d="m52.355469 357.113281 118.40625 53.296875c14.820312 6.675782 19.9375 25.171875 10.644531 38.511719l-27.539062 39.546875c-10.898438 15.648438-31.839844 20.578125-48.578126 11.433594l-83.296874-45.511719c-14.566407-7.960937-18.980469-26.8125-9.460938-40.410156zm0 0" fill="#abebf4"/><path d="m288.066406 146.957031v-114.851562c0-13.589844-11.015625-24.605469-24.605468-24.605469h-80.96875c-13.589844 0-24.605469 11.015625-24.605469 24.605469v114.851562h-17.734375c-12.902344 0-18.769532 16.117188-8.886719 24.414063l67.566406 56.722656c13.960938 11.71875 34.324219 11.71875 48.285157 0l67.570312-56.722656c9.882812-8.296875 4.015625-24.414063-8.886719-24.414063zm0 0" fill="#b2e59c"/><path d="m212.628906 7.5h-30.136718c-13.589844 0-24.605469 11.015625-24.605469 24.605469v114.851562h-17.734375c-12.902344 0-18.769532 16.117188-8.886719 24.414063l67.566406 56.722656c11.242188 9.433594 26.636719 11.273438 39.492188 5.511719-14.769531-8.351563-25.191407-20.746094-32.351563-32.636719-9.53125-15.816406-11.941406-34.800781-7.617187-52.75 9.144531-37.945312-1.9375-84.976562-1.9375-107.125.003906-25.839844 16.210937-33.59375 16.210937-33.59375zm0 0" fill="#9ad880"/><path d="m120.839844 387.941406-68.484375-30.828125-39.820313 56.867188c-9.523437 13.597656-5.109375 32.449219 9.457032 40.410156l58.929687 32.195313c-2.898437-17.085938-6.222656-43.195313-3.941406-63.695313 3.707031-33.371094 43.855469-34.949219 43.859375-34.949219zm0 0" fill="#8ed7e8"/><path d="m254.925781 50.839844c-2.925781-2.929688-7.675781-2.929688-10.605469 0l-53.292968 53.292968c-2.929688 2.925782-2.929688 7.675782 0 10.605469 2.929687 2.929688 7.679687 2.929688 10.605468 0l53.292969-53.292969c2.929688-2.929687 2.929688-7.675781 0-10.605468zm0 0"/><path d="m203.921875 56.230469c0 4.140625-3.359375 7.5-7.5 7.5-4.144531 0-7.5-3.359375-7.5-7.5s3.355469-7.5 7.5-7.5c4.140625 0 7.5 3.359375 7.5 7.5zm0 0"/><path d="m257.035156 109.347656c0 4.140625-3.359375 7.496094-7.5 7.496094-4.144531 0-7.5-3.355469-7.5-7.496094 0-4.144531 3.355469-7.5 7.5-7.5 4.140625 0 7.5 3.355469 7.5 7.5zm0 0"/><path d="m389.492188 290.871094c-9.261719-11.96875-25.425782-16.246094-39.304688-10.714844-8.25-20.835938-31.421875-23.304688-45.527344-14.796875l-89.882812 54.222656c-6.675782-1.039062-13.5-2.101562-20-3.113281 12.96875-6.824219 22.265625-17.121094 27.640625-30.621094 3.621093-9.09375 1.683593-19.164062-5.054688-26.28125-6.675781-7.054687-16.527343-9.519531-25.710937-6.433594-14.644532 4.921876-31.386719 8.421876-49.757813 10.410157-26.882812 2.902343-50.601562 17.734375-65.066406 40.6875l-70.4375 105.449219c-5.761719 8.226562-7.75 18.550781-5.464844 28.328124 2.289063 9.777344 8.65625 18.148438 17.46875 22.964844l83.300781 45.511719c6.828126 3.730469 14.21875 5.515625 21.519532 5.515625 14.242187 0 28.140625-6.796875 36.808594-19.246094l27.539062-39.542968c10.71875-18.476563 3.378906-32.28125 2.386719-34.246094 0 0 87.398437-21.933594 87.960937-22.246094l101.097656-55.476562c25.683594-14.742188 16.550782-42.53125 10.484376-50.371094zm-77.085938-12.667969c7.425781-4.476563 18.800781-4.671875 24.261719 8.496094l-61.164063 30.15625c-11.722656 5.78125-24.683594 7.9375-37.605468 6.296875zm59.386719 49.886719-100.25 55.015625-92.789063 23.195312c-1.546875-1.035156-73.015625-33.382812-73.015625-33.382812-3.777343-1.699219-8.21875-.015625-9.917969 3.761719-1.699218 3.773437-.015624 8.214843 3.761719 9.914062l68.101563 30.65625c5.023437 2.261719 8.746094 6.605469 10.214844 11.917969 1.46875 5.308593.503906 10.949219-2.644532 15.46875l-27.539062 39.542969c-8.726563 12.535156-25.421875 16.464843-38.828125 9.140624l-83.300781-45.511718c-12.476563-8.222656-12.988282-20.476563-6.910157-29.523438l36.261719-51.785156 13.949219 6.28125c3.777343 1.699219 8.21875.015625 9.917969-3.761719 1.699218-3.777343.015624-8.21875-3.761719-9.917969l-11.742188-5.285156 26.214844-41.589844c12.011719-19.054687 31.6875-31.363281 53.992187-33.769531 19.445313-2.101562 37.25-5.839843 52.921876-11.105469 3.632812-1.222656 7.386718-.277343 10.039062 2.527344 2.71875 2.867188 3.46875 6.765625 2.011719 10.421875-4.117188 10.339844-11.335938 18.175781-21.460938 23.292969-5.765625 2.914062-8.835937 8.929688-7.824219 15.320312 1 6.324219 5.917969 11.234376 12.238282 12.21875 8.472656 1.316407 37.378906 5.816407 42.265625 6.578126 16.609375 2.59375 33.359375.03125 48.4375-7.402344l72.261719-35.628906c8-3.945313 17.769531-1.6875 23.230468 5.371093 3.375 4.363281 9.058594 19.234375-5.835937 28.039063zm0 0"/><path d="m126.445312 177.113281 67.566407 56.722657c8.390625 7.046874 18.679687 10.566406 28.964843 10.566406 10.289063 0 20.574219-3.519532 28.964844-10.566406l18.945313-15.902344c3.171875-2.664063 3.585937-7.394532.921875-10.566406-2.664063-3.171876-7.394532-3.582032-10.566406-.921876l-18.945313 15.90625c-11.195313 9.394532-27.445313 9.394532-38.640625 0l-67.566406-56.726562c-3.148438-2.640625-2.234375-6.03125-1.878906-7.007812.355468-.976563 1.835937-4.160157 5.945312-4.160157h17.730469c4.144531 0 7.5-3.355469 7.5-7.5v-114.851562c0-9.433594 7.675781-17.105469 17.105469-17.105469h80.96875c9.433593 0 17.105468 7.671875 17.105468 17.105469v114.851562c0 4.144531 3.359375 7.5 7.5 7.5h17.734375c4.105469 0 5.585938 3.183594 5.941407 4.160157.355468.976562 1.269531 4.367187-1.875 7.007812l-23.367188 19.617188c-3.171875 2.660156-3.585938 7.394531-.921875 10.566406s7.394531 3.582031 10.566406.921875l23.363281-19.617188c6.949219-5.832031 9.429688-15.105469 6.328126-23.628906-3.101563-8.519531-10.96875-14.027344-20.035157-14.027344h-10.234375v-107.351562c0-17.703125-14.402344-32.105469-32.105468-32.105469h-80.96875c-17.703126 0-32.105469 14.402344-32.105469 32.105469v107.351562h-10.234375c-9.070313 0-16.933594 5.507813-20.035156 14.027344-3.101563 8.523437-.621094 17.796875 6.328124 23.628906zm0 0"/></svg>