<svg height="496pt" viewBox="0 0 496 496" width="496pt" xmlns="http://www.w3.org/2000/svg"><path d="m488 8v480h-208v-104.398438c0-14-9.199219-26.402343-22.558594-30.5625l-64.5625-19.839843-16.878906-5.199219v-26.078125c10.480469-7.203125 18.238281-17.921875 21.839844-30.480469l2.160156.558594c17.679688 0 32-14.320312 32-32v-70.71875c0-7.519531-2.398438-14.722656-6.640625-20.480469-4.238281-5.839843-10.160156-10.402343-17.359375-12.800781l-7.121094-7.121094c-7.917968-7.917968-17.359375-14.160156-27.519531-18.398437-10.238281-4.242188-21.199219-6.480469-32.480469-6.480469-1.597656 0-3.277344.078125-4.878906.078125v-96.078125zm0 0" fill="#e6e9ed"/><path d="m400 352v56h-64v-64h64zm0 0" fill="#fcd770"/><path d="m232 169.28125v70.71875c0-17.679688-14.320312-32-32-32v-24c0 8.800781-7.199219 16-16 16h-64c-17.679688 0-32 14.320312-32 32v-24c-17.679688 0-32 14.320312-32 32v-51.121094c0-45.277344 35.441406-82.238281 80-84.800781 1.601562 0 3.28125-.078125 4.878906-.078125 11.28125 0 22.242188 2.238281 32.480469 6.480469 10.160156 4.238281 19.601563 10.480469 27.519531 18.398437l7.121094 7.121094c7.199219 2.398438 13.121094 6.960938 17.359375 12.800781 4.242187 5.757813 6.640625 12.960938 6.640625 20.480469zm0 0" fill="#fcd770"/><path d="m280 488h-136v-136l40 32 8-48 .878906-2.800781 64.5625 19.839843c13.359375 4.160157 22.558594 16.5625 22.558594 30.5625zm0 0" fill="#48cfad"/><path d="m144 488h-136v-104.398438c0-14 9.199219-26.402343 22.558594-30.5625l64.5625-19.839843.878906 2.800781 8 48 40-32zm0 0" fill="#48cfad"/><path d="m192 336-8 48-40-32 32-24 16.878906 5.199219zm0 0" fill="#e6e9ed"/><path d="m112 328 32 24-40 32-8-48-.878906-2.800781zm0 0" fill="#e6e9ed"/><g fill="#f0d0b4"><path d="m144 312c11.921875 0 22.960938-3.679688 32-10.078125v26.078125l-32 24-32-24v-26.078125c22.558594 9.519531 27.199219 10.078125 32 10.078125zm0 0"/><path d="m232 240c0 17.679688-14.320312 32-32 32l-2.160156-.558594c1.441406-4.882812 2.160156-10.082031 2.160156-15.441406v-48c17.679688 0 32 14.320312 32 32zm0 0"/><path d="m200 208v48c0 5.359375-.71875 10.558594-2.160156 15.441406-3.601563 12.558594-11.359375 23.277344-21.839844 30.480469-9.039062 6.398437-20.078125 10.078125-32 10.078125-4.800781 0-9.441406-.558594-32-10.078125-2.71875-1.84375-5.28125-4-7.601562-6.320313-6.636719-6.640624-11.597657-14.882812-14.238282-24.160156-1.441406-4.882812-2.160156-10.082031-2.160156-15.441406v-24c0-17.679688 14.320312-32 32-32h64c8.800781 0 16-7.199219 16-16zm0 0"/><path d="m88 208v48c0 5.359375.71875 10.558594 2.160156 15.441406l-2.160156.558594c-17.679688 0-32-14.320312-32-32s14.320312-32 32-32zm0 0"/></g><path d="m128 0v97c-45.121094 6.289062-80 45.023438-80 91.855469v51.144531c0 20.886719 16.152344 37.886719 36.585938 39.65625 4.125 10.34375 10.863281 19.351562 19.414062 26.222656v16.21875l-75.769531 23.300782c-16.886719 5.203124-28.230469 20.5625-28.230469 38.234374v112.367188h496v-496zm12.847656 112c20.519532 0 39.832032 7.992188 54.34375 22.503906l8.488282 8.488282 1.792968.601562c11.078125 3.6875 18.527344 14.023438 18.527344 25.703125v38.902344c-4.671875-3.535157-10.054688-6.183594-16-7.390625v-16.808594h-16c0 4.40625-3.585938 8-8 8h-64c-9.039062 0-17.296875 3.128906-24 8.207031v-16.207031h-16v16.808594c-5.945312 1.214844-11.328125 3.855468-16 7.390625v-19.351563c0-42.367187 34.480469-76.847656 76.847656-76.847656zm67.152344 144v-38.527344c9.289062 3.3125 16 12.113282 16 22.527344 0 10.542969-6.878906 19.414062-16.34375 22.632812.222656-2.175781.34375-4.394531.34375-6.632812zm-144-16c0-10.414062 6.710938-19.214844 16-22.527344v38.527344c0 2.238281.121094 4.457031.34375 6.632812-9.464844-3.21875-16.34375-12.089843-16.34375-22.632812zm32 16v-24c0-13.230469 10.769531-24 24-24h64c2.816406 0 5.488281-.574219 8-1.472656v49.472656c0 26.472656-21.527344 48-48 48s-48-21.527344-48-48zm176 224h-120v-111.351562l37.648438 30.121093 9.222656-55.363281 56.183594 17.289062c10.136718 3.121094 16.945312 12.335938 16.945312 22.9375zm-93.648438-110.769531-21.289062-17.03125 20.480469-15.359375 5.90625 1.816406zm-34.351562-49.230469c8.488281 0 16.585938-1.695312 24-4.710938v8.710938l-24 18-24-18v-8.710938c7.414062 3.015626 15.511719 4.710938 24 4.710938zm-33.542969 16.839844 20.480469 15.359375-21.289062 17.03125-5.097657-30.574219zm-94.457031 46.792968c0-10.601562 6.808594-19.824218 16.9375-22.9375l56.183594-17.289062 9.222656 55.363281 37.65625-30.121093v111.351562h-120zm464 96.367188h-192v-96.367188c0-17.671874-11.34375-33.03125-28.230469-38.234374l-75.769531-23.300782v-16.21875c8.550781-6.871094 15.28125-15.886718 19.414062-26.222656 20.433594-1.769531 36.585938-18.769531 36.585938-39.65625v-70.703125c0-17.921875-11.015625-33.839844-27.609375-40.21875l-5.878906-5.878906c-16.792969-16.792969-38.894531-26.253907-62.503907-27.039063v-80.160156h336v464zm0 0"/><path d="m168 416h16v16h-16zm0 0"/><path d="m104 416h16v16h-16zm0 0"/><path d="m168 448h16v16h-16zm0 0"/><path d="m104 448h16v16h-16zm0 0"/><path d="m416 160v16h16v-16c17.648438 0 32-14.351562 32-32s-14.351562-32-32-32h-16c-8.824219 0-16-7.175781-16-16s7.175781-16 16-16h16c8.824219 0 16 7.175781 16 16v8h16v-8c0-17.648438-14.351562-32-32-32v-16h-16v16c-17.648438 0-32 14.351562-32 32s14.351562 32 32 32h16c8.824219 0 16 7.175781 16 16s-7.175781 16-16 16h-16c-8.824219 0-16-7.175781-16-16v-8h-16v8c0 17.648438 14.351562 32 32 32zm0 0"/><path d="m160 32h208v16h-208zm0 0"/><path d="m352 64h16v16h-16zm0 0"/><path d="m160 64h176v16h-176zm0 0"/><path d="m432 192h16v16h-16zm0 0"/><path d="m288 192h128v16h-128zm0 0"/><path d="m288 224h160v16h-160zm0 0"/><path d="m360 256h16v16h-16zm0 0"/><path d="m392 256h16v16h-16zm0 0"/><path d="m424 256h16v16h-16zm0 0"/><path d="m296 256h16v16h-16zm0 0"/><path d="m328 256h16v16h-16zm0 0"/><path d="m248 96h16v16h-16zm0 0"/><path d="m280 96h88v16h-88zm0 0"/><path d="m248 128h120v16h-120zm0 0"/><path d="m248 160h120v16h-120zm0 0"/><path d="m404.6875 336h-76.6875v80h80v-60.6875l29.65625-29.65625-11.3125-11.3125zm-12.6875 64h-48v-48h44.6875l-20.6875 20.6875-10.34375-10.34375-11.3125 11.3125 21.65625 21.65625 24-24zm0 0"/><path d="m360 428.6875-16 16-16-16-21.65625 21.65625 11.3125 11.3125 10.34375-10.34375 16 16 16-16 12.6875 12.6875h59.3125v-16h-52.6875zm0 0"/><path d="m448 448h16v16h-16zm0 0"/></svg>