<svg height="511pt" viewBox="-3 1 511 511.999" width="511pt" xmlns="http://www.w3.org/2000/svg"><g fill="#d7d7e6"><path d="m319.105469 189.253906c-1.164063-1.871094-2.609375-3.550781-4.300781-4.949218 1.691406 1.398437 3.132812 3.078124 4.300781 4.949218zm0 0"/><path d="m157.25 501.894531c-2.71875-.273437-5.277344-1.089843-7.566406-2.332031 2.289062 1.242188 4.847656 2.058594 7.566406 2.332031zm0 0"/><path d="m304.011719 179.792969c2.257812.230469 4.398437.847656 6.375 1.761719-1.976563-.914063-4.117188-1.53125-6.375-1.761719zm0 0"/><path d="m311.578125 499.558594c-2.289063 1.246094-4.851563 2.058594-7.566406 2.335937 2.71875-.273437 5.277343-1.089843 7.566406-2.335937zm0 0"/><path d="m146.460938 184.304688c-1.695313 1.398437-3.136719 3.078124-4.300782 4.949218 1.164063-1.871094 2.605469-3.550781 4.300782-4.949218zm0 0"/><path d="m150.875 181.554688c1.976562-.914063 4.117188-1.53125 6.375-1.761719-2.257812.230469-4.398438.847656-6.375 1.761719zm0 0"/><path d="m314.800781 497.382812c2-1.648437 3.671875-3.671874 4.917969-5.960937-1.246094 2.289063-2.917969 4.3125-4.917969 5.960937zm0 0"/><path d="m141.542969 491.421875c1.246093 2.289063 2.921875 4.3125 4.917969 5.960937-1.996094-1.648437-3.671876-3.671874-4.917969-5.960937zm0 0"/><path d="m139.101562 463.441406h183.054688v-245.195312h-183.054688zm91.53125-180.855468c30.609376 0 55.425782 24.8125 55.425782 55.425781s-24.816406 55.429687-55.425782 55.429687c-30.613281 0-55.429687-24.816406-55.429687-55.429687s24.816406-55.425781 55.429687-55.425781zm0 0"/></g><path d="m67.496094 188.273438 46.957031-68.242188c15.578125-22.644531 12.78125-53.179688-6.652344-72.613281-22.257812-22.257813-58.347656-22.257813-80.609375 0-19.433594 19.433593-22.230468 49.96875-6.652344 72.613281zm0-120.058594c11.742187 0 21.257812 9.515625 21.257812 21.257812 0 11.738282-9.515625 21.253906-21.257812 21.253906-11.738282 0-21.257813-9.515624-21.257813-21.253906 0-11.742187 9.519531-21.257812 21.257813-21.257812zm0 0" fill="#ff5a5a"/><path d="m286.058594 338.011719c0 30.613281-24.816406 55.429687-55.425782 55.429687-30.613281 0-55.429687-24.816406-55.429687-55.429687s24.816406-55.425781 55.429687-55.425781c30.609376 0 55.425782 24.8125 55.425782 55.425781zm0 0" fill="#89e6ff"/><path d="m374.003906 250.753906v81.601563c0 5.097656 6.246094 7.566406 9.730469 3.839843l16.300781-17.421874c4.140625-4.425782 9.929688-6.9375 15.988282-6.9375h56.859374c12.375 0 22.410157-10.03125 22.410157-22.410157v-38.671875c0-12.378906-10.035157-22.414062-22.410157-22.414062h-76.464843c-12.378907.003906-22.414063 10.035156-22.414063 22.414062zm0 0" fill="#88dc60"/><path d="m334.015625 139.207031c6.960937 0 13.433594-3.554687 17.171875-9.425781l23.207031-36.46875h33.863281c7.984376 0 15.628907-3.253906 21.160157-9.011719h.003906c5.203125-5.414062 5.203125-13.976562 0-19.394531-5.535156-5.757812-13.179687-9.011719-21.164063-9.011719h-33.863281l-23.207031-36.46875c-3.738281-5.871093-10.210938-9.425781-17.171875-9.425781h-10.703125c-2.339844 0-3.953125 2.347656-3.113281 4.53125l15.875 41.363281-32.457031 2.988281c-6.023438.554688-12.0625-.832031-17.242188-3.949218l-16.046875-9.667969c-3.554687-2.140625-8.128906-1.4375-10.875 1.667969-2.03125 2.300781-2.683594 5.511718-1.710937 8.421875l6.453124 19.25-6.453124 19.246093c-.972657 2.910157-.320313 6.121094 1.710937 8.421876 2.746094 3.109374 7.320313 3.8125 10.875 1.667968l16.046875-9.667968c5.179688-3.117188 11.21875-4.5 17.242188-3.949219l32.457031 2.988281-15.875 41.363281c-.839844 2.1875.773437 4.53125 3.113281 4.53125zm0 0" fill="#13d2fb"/><path d="m319.105469 189.253906c-1.164063-1.871094-2.609375-3.550781-4.300781-4.949218-.5-.414063-1.019532-.800782-1.558594-1.164063-.898438-.609375-1.863282-1.128906-2.859375-1.585937-1.976563-.914063-4.113281-1.53125-6.375-1.761719-.679688-.070313-1.367188-.105469-2.066407-.105469h-142.628906c-.695312 0-1.386718.035156-2.066406.105469-2.257812.226562-4.398438.847656-6.375 1.761719-.996094.457031-1.957031.976562-2.859375 1.585937-.539063.363281-1.054687.75-1.554687 1.164063-1.695313 1.398437-3.136719 3.078124-4.300782 4.949218-.554687.886719-1.054687 1.808594-1.46875 2.78125-1.023437 2.417969-1.589844 5.078125-1.589844 7.867188v18.34375h183.054688v-18.34375c0-2.789063-.5625-5.449219-1.585938-7.867188-.410156-.972656-.914062-1.894531-1.464843-2.78125zm0 0" fill="#ffc868"/><path d="m139.101562 481.785156c0 3.488282.886719 6.769532 2.441407 9.636719 1.246093 2.289063 2.921875 4.3125 4.917969 5.960937.996093.824219 2.078124 1.554688 3.222656 2.175782 2.289062 1.246094 4.847656 2.058594 7.570312 2.335937.679688.070313 1.367188.101563 2.066406.101563h142.625c.699219 0 1.386719-.03125 2.066407-.101563 2.71875-.277343 5.277343-1.089843 7.570312-2.335937 1.144531-.621094 2.222657-1.351563 3.222657-2.175782 1.996093-1.648437 3.671874-3.671874 4.914062-5.960937 1.558594-2.867187 2.441406-6.148437 2.441406-9.636719v-18.34375h-183.058594zm0 0" fill="#ffc868"/><path d="m88.753906 89.472656c0 11.738282-9.515625 21.253906-21.257812 21.253906-11.738282 0-21.257813-9.515624-21.257813-21.253906 0-11.742187 9.519531-21.257812 21.257813-21.257812 11.742187 0 21.257812 9.515625 21.257812 21.257812zm0 0" fill="#d7d7e6"/><path d="m57.496094 191.382812v145.382813c0 24.378906 19.835937 44.210937 44.214844 44.210937h27.394531v100.808594c0 16.660156 13.550781 30.214844 30.210937 30.214844h142.628906c16.660157 0 30.214844-13.554688 30.214844-30.214844v-68.613281h78.15625c16.042969 0 29.09375-13.050781 29.09375-29.09375v-62.242187h33.472656c17.871094 0 32.410157-14.539063 32.410157-32.414063v-38.667969c0-17.875-14.539063-32.414062-32.410157-32.414062h-76.464843c-17.871094 0-32.410157 14.539062-32.410157 32.414062v81.601563c0 6.453125 3.878907 12.160156 9.882813 14.53125 1.886719.742187 3.839844 1.101562 5.773437 1.101562 4.226563 0 8.347657-1.726562 11.371094-4.960937l16.304688-17.421875c2.238281-2.394531 5.40625-3.769531 8.683594-3.769531h3.386718v62.242187c0 5.015625-4.078125 9.09375-9.09375 9.09375h-78.15625v-193.269531c0-16.660156-13.554687-30.214844-30.214844-30.214844h-22.753906v-59.40625l12.347656-7.4375c3.378907-2.035156 7.238282-2.921875 11.160157-2.558594l19.308593 1.777344-11.144531 29.035156c-1.570312 4.101563-1.023437 8.710938 1.464844 12.332032 2.488281 3.617187 6.597656 5.78125 10.988281 5.78125h10.699219c10.4375 0 20.007813-5.257813 25.609375-14.058594l20.257812-31.835938h28.375c10.648438 0 20.992188-4.40625 28.371094-12.085937 8.960938-9.324219 8.960938-23.925781 0-33.25-7.378906-7.679688-17.722656-12.085938-28.371094-12.085938h-28.375l-20.257812-31.835937c-5.601562-8.804688-15.175781-14.058594-25.609375-14.058594h-10.699219c-4.394531 0-8.503906 2.160156-10.992187 5.78125-2.488281 3.617188-3.035157 8.230469-1.460938 12.332031l11.144531 29.035157-19.308593 1.777343c-3.925781.359375-7.785157-.523437-11.160157-2.558593l-16.050781-9.667969c-7.6875-4.632813-17.582031-3.113281-23.527343 3.613281-4.386719 4.960938-5.800782 11.945312-3.695313 18.222656l5.382813 16.070313-5.382813 16.066406c-2.105469 6.277344-.691406 13.261719 3.695313 18.222656 2.03125 2.296875 4.523437 3.96875 7.230468 5.015625v55.777344h-99.871094c-16.660156 0-30.214843 13.554688-30.214843 30.214844v161.078125h-27.394531c-13.351563 0-24.214844-10.863281-24.214844-24.214844v-145.382813l45.195312-65.683593c18.3125-26.613281 15.023438-62.511719-7.820312-85.351563-26.121094-26.125-68.625-26.125-94.746094 0-22.84375 22.839844-26.132812 58.738282-7.820312 85.351563zm358.527344 110.453126c-8.792969 0-17.28125 3.683593-23.289063 10.105468l-8.726563 9.328125v-70.515625c0-6.84375 5.566407-12.414062 12.410157-12.414062h76.464843c6.84375 0 12.410157 5.570312 12.410157 12.414062v38.671875c0 6.84375-5.566407 12.410157-12.410157 12.410157zm-114.078126-112.148438c5.632813 0 10.214844 4.582031 10.214844 10.214844v8.34375h-32.972656v-18.558594zm-20.730468-126.1875c7.054687 4.246094 15.117187 6.09375 23.316406 5.339844l32.460938-2.988282c3.117187-.285156 5.921874-2.019531 7.574218-4.675781 1.65625-2.660156 1.96875-5.941406.847656-8.863281l-12.402343-32.3125h1.003906c3.558594 0 6.824219 1.792969 8.734375 4.792969l23.207031 36.46875c1.835938 2.886719 5.019531 4.632812 8.4375 4.632812h33.863281c5.234376 0 10.320313 2.164063 13.953126 5.941407 1.488281 1.550781 1.488281 3.984374-.003907 5.535156-3.628906 3.777344-8.714843 5.941406-13.949219 5.941406h-33.863281c-3.417969 0-6.601562 1.746094-8.4375 4.632812l-23.207031 36.464844c-1.910156 3.003906-5.175781 4.796875-8.734375 4.796875h-1.003906l12.402343-32.3125c1.121094-2.921875.808594-6.203125-.847656-8.863281-1.652344-2.660156-4.457031-4.390625-7.574218-4.675781l-32.460938-2.988281c-8.199219-.753907-16.261719 1.089843-23.316406 5.339843l-12.773438 7.695313 5.234375-15.625c.691407-2.058594.691407-4.292969 0-6.351563l-5.234375-15.625zm-132.109375 136.402344c0-5.632813 4.582031-10.214844 10.210937-10.214844h99.871094v18.558594h-110.082031zm0 28.34375h110.082031v16.578125c0 5.523437 4.480469 10 10 10 5.523438 0 10-4.476563 10-10v-16.578125h32.972656v164.925781h-23.878906c-5.523438 0-10 4.476563-10 10s4.476562 10 10 10h23.878906v40.269531h-75.597656c-5.519531 0-10 4.480469-10 10 0 5.523438 4.480469 10 10 10h75.597656v8.34375c0 5.632813-4.582031 10.214844-10.214844 10.214844h-142.628906c-5.628906 0-10.210937-4.582031-10.210937-10.214844v-8.34375h7.457031c5.523438 0 10-4.476562 10-10 0-5.519531-4.476562-10-10-10h-7.457031v-72.460937h4.785156c5.523437 0 10-4.476563 10-10 0-5.523438-4.476563-10-10-10h-4.785156zm-114.839844-173.757813c9.160156-9.160156 21.195313-13.742187 33.230469-13.742187s24.070312 4.582031 33.230468 13.742187c16.027344 16.023438 18.332032 41.203125 5.488282 59.875l-38.71875 56.269531-38.71875-56.269531c-12.84375-18.671875-10.539063-43.851562 5.488281-59.875zm0 0"/><path d="m165.214844 338.507812c.269531 35.839844 29.492187 64.917969 65.394531 64.933594h.03125c.015625 0 .027344-.003906.042969-.003906 35.898437-.027344 65.117187-29.121094 65.363281-64.96875.003906-.078125.003906-.15625.007813-.230469 0-.078125.003906-.148437.003906-.226562 0-36.078125-29.351563-65.425781-65.425782-65.425781-.078124 0-.148437.003906-.226562.003906-.066406.003906-.136719.003906-.207031.003906-35.695313.234375-64.6875 29.191406-64.980469 64.871094-.003906.042968 0 .082031-.003906.121094 0 .140624-.011719.28125-.011719.425781 0 .117187.007813.230469.011719.347656zm22.542968 14.5c5.683594 1.5625 12.648438 3.097657 20.679688 4.152344 1.300781 8.957032 3.382812 16.753906 5.535156 23.101563-12.21875-4.835938-21.847656-14.8125-26.214844-27.253907zm48.792969 30.035157c-2.28125-5.039063-5.53125-13.523438-7.542969-24.5.199219 0 .394532.007812.597657.007812 13.191406 0 28.066406-1.601562 44.046875-5.984375-5.46875 16.125-19.757813 28.207032-37.101563 30.476563zm.257813-90.027344c19.875 2.714844 35.703125 18.324219 38.726562 38.101563-17.78125 5.792968-34.257812 7.546874-48.359375 7.289062.003907-13.46875 2.476563-28.917969 9.632813-45.390625zm-22.46875 2.601563c-5.054688 14.695312-7.066406 28.535156-7.246094 41.015624-9.320312-1.488281-16.652344-3.613281-21.402344-5.246093 2.40625-16.398438 13.609375-29.972657 28.648438-35.769531zm0 0"/><path d="m67.496094 120.730469c17.234375 0 31.257812-14.023438 31.257812-31.257813s-14.023437-31.257812-31.257812-31.257812-31.257813 14.019531-31.257813 31.257812c0 17.234375 14.023438 31.257813 31.257813 31.257813zm0-42.515625c6.207031 0 11.257812 5.050781 11.257812 11.257812 0 6.207032-5.050781 11.253906-11.257812 11.253906-6.207032 0-11.257813-5.046874-11.257813-11.253906 0-6.207031 5.050781-11.257812 11.257813-11.257812zm0 0"/><path d="m202.113281 455.128906c-.539062-.359375-1.117187-.667968-1.726562-.917968-.601563-.25-1.230469-.441407-1.871094-.570313-1.289063-.261719-2.621094-.261719-3.910156 0-.640625.128906-1.269531.320313-1.871094.570313-.597656.25-1.179687.558593-1.726563.917968-.542968.359375-1.050781.78125-1.511718 1.242188-1.871094 1.859375-2.929688 4.4375-2.929688 7.070312 0 .648438.058594 1.308594.1875 1.957032.132813.632812.320313 1.261718.570313 1.871093.25.601563.5625 1.179688.921875 1.71875.367187.550781.777344 1.0625 1.25 1.523438.460937.46875.96875.878906 1.507812 1.25.550782.359375 1.132813.667969 1.730469.917969.601563.25 1.230469.441406 1.871094.570312.648437.128906 1.300781.191406 1.960937.191406.648438 0 1.308594-.0625 1.949219-.191406s1.269531-.320312 1.871094-.570312c.605469-.25 1.1875-.558594 1.726562-.917969.550781-.371094 1.0625-.78125 1.523438-1.25.457031-.460938.878906-.972657 1.238281-1.523438.359375-.539062.667969-1.117187.917969-1.71875.25-.609375.441406-1.238281.570312-1.871093.128907-.648438.199219-1.308594.199219-1.957032 0-2.632812-1.070312-5.210937-2.929688-7.070312-.457031-.460938-.96875-.882813-1.519531-1.242188zm0 0"/></svg>