<svg height="512" viewBox="0 0 54 58" width="512" xmlns="http://www.w3.org/2000/svg"><g id="Page-1" fill="none" fill-rule="evenodd"><g id="023---Rucksack" fill-rule="nonzero"><path id="Shape" d="m53 29h-.18c-.44-3.54-1.71-6.21-3.8-7.97-1.6679188-1.4328644-3.8242481-2.1671626-6.02-2.05-.0109938-1.6490384-1.3509249-2.9800366-3-2.98h-2.5c3.59 0 6.5-3.58 6.5-8s-2.91-8-6.5-8h-31c-3.59 0-6.5 3.58-6.5 8s2.91 8 6.5 8h-.5c-1.65685425 0-3 1.3431458-3 3v17s0 4.71-2.26 7.35c-.25372947.2966426-.31165519.7138095-.14834714 1.0683599s.51799412.5816658.90834714.5816401h1.5v10c0 1.6568542 1.34314575 3 3 3h34c1.6568542 0 3-1.3431458 3-3 6.58 0 9.69-6.37 9.97-13h.03c.5522847 0 1-.4477153 1-1v-11c0-.5522847-.4477153-1-1-1zm-10 22v-28s4.72-.79 5.79 6.02c-.4602138.1015555-.7884357.5087168-.79.98v11c-.0004298.5370335.4233961.9785188.96 1-.19 2.53-1.13 9-5.96 9z" fill="#e57e25"/><path id="Shape" d="m43 23v32c0 1.6568542-1.3431458 3-3 3h-6c-1.6568542 0-3-1.3431458-3-3v-32z" fill="#d25627"/><path id="Shape" d="m43 18.98v4.02h-12v-4c0-1.6568542 1.3431458-3 3-3h6c1.6490751-.0000366 2.9890062 1.3309616 3 2.98z" fill="#c03a2b"/><path id="Shape" d="m34 16c-1.6568542 0-3 1.3431458-3 3v17s0 7.86-4.87 8.97c-.0852471.0198359-.1724756.0299007-.26.03h-8.87v-1c0-.5522847-.4477153-1-1-1h-4c-.5522847 0-1 .4477153-1 1v1h-9.5c-.39035302.0000257-.74503909-.2270897-.90834714-.5816401s-.10538233-.7717173.14834714-1.0683599c2.26-2.64 2.26-7.35 2.26-7.35v-17c0-1.6568542 1.34314575-3 3-3z" fill="#f29c1f"/><ellipse id="Oval" cx="37.5" cy="8" fill="#3d324c" rx="6.5" ry="8"/><path id="Shape" d="m37.5 16h-8c-3.59 0-6.5-3.58-6.5-8s2.91-8 6.5-8h8c-3.59 0-6.5 3.58-6.5 8s2.91 8 6.5 8z" fill="#7d6599"/><path id="Shape" d="m29.5 16h-15c-3.59 0-6.5-3.58-6.5-8s2.91-8 6.5-8h15c-3.59 0-6.5 3.58-6.5 8s2.91 8 6.5 8z" fill="#b49aca"/><path id="Shape" d="m14.5 16h-8c-3.59 0-6.5-3.58-6.5-8s2.91-8 6.5-8h8c-3.59 0-6.5 3.58-6.5 8s2.91 8 6.5 8z" fill="#7d6599"/><ellipse id="Oval" cx="37.5" cy="8" fill="#7d6599" rx="2.5" ry="3"/><path id="Shape" d="m54 30v11c0 .5522847-.4477153 1-1 1h-4.04c-.5366039-.0214812-.9604298-.4629665-.96-1v-11c.0015643-.4712832.3297862-.8784445.79-.98.0694404-.0116131.1396158-.0182964.21-.02h4c.5522847 0 1 .4477153 1 1z" fill="#d25627"/><path id="Shape" d="m24.423 27.094-5.558-2.594 5.558-2.594c.4914115-.2386764.7003313-.8275519.4692161-1.3225645-.2311151-.4950126-.8167187-.7129351-1.3152161-.4894355l-7.077 3.306-7.077-3.3c-.49849739-.2234996-1.08410096-.0055771-1.31521612.4894355-.23111517.4950126-.02219541 1.0838881.46921612 1.3225645l5.558 2.588-5.558 2.594c-.34507876.1700217-.56361004.5213095-.56361004.906s.21853128.7359783.56361004.906l5.558 2.594-5.558 2.594c-.32933365.1476556-.55354848.4613177-.58667047.8207141-.033122.3593964.12998887.7087544.42678856.9141145.2967997.2053601.68122955.2348536 1.00588191.0771714l7.077-3.306 7.077 3.3c.3246524.1576822.7090822.1281887 1.0058819-.0771714s.4599106-.5547181.4267886-.9141145-.2573369-.6730585-.5866705-.8207141l-5.558-2.588 5.558-2.594c.3444244-.1705578.562352-.5216588.562352-.906s-.2179276-.7354422-.562352-.906zm-13.058.906 5.135-2.4 5.135 2.4-5.135 2.4z" fill="#d25627"/><path id="Shape" d="m12 53c-.5522847 0-1-.4477153-1-1v-7c0-.5522847.4477153-1 1-1s1 .4477153 1 1v7c0 .5522847-.4477153 1-1 1z" fill="#bdc3c7"/><path id="Shape" d="m16 53c-.5522847 0-1-.4477153-1-1v-7c0-.5522847.4477153-1 1-1s1 .4477153 1 1v7c0 .5522847-.4477153 1-1 1z" fill="#bdc3c7"/><rect id="Rectangle-path" fill="#f3d55b" height="4" rx="1" width="6" x="11" y="43"/></g></g></svg>