<?xml version="1.0"?>
<svg xmlns="http://www.w3.org/2000/svg" viewBox="0 0 512 512" width="512" height="512"><g id="Fill_out_line" data-name="Fill out line"><path d="M212.22,376.93994v.01026a248.41544,248.41544,0,0,1-120.43994,0A32.14678,32.14678,0,0,1,69.7,333.75977a32.24013,32.24013,0,0,0,2.3-11.96V288a79.83105,79.83105,0,0,1,22.87012-56c.17993-.18994.36987-.37988.55981-.57007A79.98827,79.98827,0,0,1,232,288v33.7998a32.24013,32.24013,0,0,0,2.3,11.96A32.179,32.179,0,0,1,212.22,376.93994Z" style="fill:#ad7d4d"/><path d="M448.00005,216H296l-40,40V216h0a40,40,0,0,1-40-40V64A40,40,0,0,1,256,24h192.0001a40,40,0,0,1,40,40V176A40,40,0,0,1,448.00005,216Z" style="fill:#eedc9a"/><path d="M88,288h32a0,0,0,0,1,0,0v32a0,0,0,0,1,0,0H88a16,16,0,0,1-16-16v0A16,16,0,0,1,88,288Z" style="fill:#f2c194"/><path d="M200,288h32a0,0,0,0,1,0,0v32a0,0,0,0,1,0,0H200a16,16,0,0,1-16-16v0A16,16,0,0,1,200,288Z" transform="translate(416 608) rotate(-180)" style="fill:#f2c194"/><path d="M280,496H24a83.70846,83.70846,0,0,1,12.72-44.3501l2.33008-3.73A99.0421,99.0421,0,0,1,110.72,402.16016a19.70947,19.70947,0,0,0,16.15015-13.01026A19.38732,19.38732,0,0,0,128,382.58008V368h48v14.58008a19.79092,19.79092,0,0,0,4.93994,13.06006,19.64787,19.64787,0,0,0,12.34009,6.52A99.00969,99.00969,0,0,1,264.95,447.91992l2.33008,3.73A83.70846,83.70846,0,0,1,280,496Z" style="fill:#8acce7"/><path d="M177.12988,389.1499,152,408l-25.12988-18.8501A19.38732,19.38732,0,0,0,128,382.58008V368h48v14.58008A19.38732,19.38732,0,0,0,177.12988,389.1499Z" style="fill:#f4ceaf"/><path d="M208,248v72a55.99994,55.99994,0,0,1-55.99994,55.99994h-.00012A55.99994,55.99994,0,0,1,96,320V248Z" style="fill:#f4ceaf"/><polygon points="200 400 176 432 152 408 184 384 200 400" style="fill:#379ec3"/><polygon points="152 408 128 432 104 400 120 384 152 408" style="fill:#379ec3"/><path d="M352.36807,184.56836,292.226,124.42624a39.79888,39.79888,0,0,1,0-56.28412l.00006-.00006a39.79888,39.79888,0,0,1,56.28412,0l3.57376,3.57376,3.77514-3.77514a39.916,39.916,0,0,1,56.44972,0l.00006.00006a39.91582,39.91582,0,0,1,.15318,56.29572C386.6877,150.29363,352.36807,184.9233,352.36807,184.56836Z" style="fill:#e44b4d"/><path d="M224,253.1001V288H208a44.82571,44.82571,0,0,1-37.31006-19.97021L168,264l-2.68994,4.02979A44.82571,44.82571,0,0,1,128,288H80V253.1001A80.113,80.113,0,0,1,94.87012,232H209.12988A80.113,80.113,0,0,1,224,253.1001Z" style="fill:#ad7d4d"/><path d="M173.65723,349.65723a8.00053,8.00053,0,0,0-11.31446-11.31446,14.64326,14.64326,0,0,1-20.68554,0,8.00053,8.00053,0,0,0-11.31446,11.31446,30.628,30.628,0,0,0,43.31446,0Z"/><circle cx="128" cy="304" r="8"/><circle cx="176" cy="304" r="8"/><path d="M271.73535,443.68066A107.59858,107.59858,0,0,0,238.585,410.2168a106.23132,106.23132,0,0,0-31.31445-13.53565l-.00049-.001a7.82864,7.82864,0,0,0-1.61011-2.34034L199.28,387.96q7.5-1.40991,14.87988-3.25A40.19412,40.19412,0,0,0,241.73,330.79,24.08282,24.08282,0,0,1,240,321.7998V288a88,88,0,0,0-176,0v33.7998A24.08282,24.08282,0,0,1,62.27,330.79,40.19412,40.19412,0,0,0,89.84009,384.71q7.36486,1.845,14.87988,3.25l-6.37988,6.37988A7.82864,7.82864,0,0,0,96.73,396.68018l-.00049.001A106.23132,106.23132,0,0,0,65.415,410.2168a107.59131,107.59131,0,0,0-33.15039,33.46484l-2.3291,3.72949A91.60336,91.60336,0,0,0,16,496H32a75.62717,75.62717,0,0,1,11.50488-40.11133l2.33008-3.72949a91.46649,91.46649,0,0,1,28.18945-28.45606,90.262,90.262,0,0,1,28.74024-12.00976l.00537.00684,18.83008,25.0996a8.00563,8.00563,0,0,0,12.05981.86036L144,427.31006V496h16V427.31006l10.34009,10.3501A8.04289,8.04289,0,0,0,176,440c.18994,0,.37988-.00977.57007-.02a7.96689,7.96689,0,0,0,5.82983-3.18018L201.23,411.7002l.00537-.00684a90.262,90.262,0,0,1,28.74024,12.00976A91.47376,91.47376,0,0,1,258.165,452.1582l2.33105,3.73145A75.629,75.629,0,0,1,272,496h16a91.60529,91.60529,0,0,0-13.93457-48.58789ZM226.87988,336.73A24.196,24.196,0,0,1,210.28,369.18018a240.06529,240.06529,0,0,1-23.71,4.66992A64.435,64.435,0,0,0,215.49,328H216a23.90166,23.90166,0,0,0,8.27-1.47021A40.37985,40.37985,0,0,0,226.87988,336.73ZM216,312V296a8,8,0,0,1,0,16Zm-64-96a72.08873,72.08873,0,0,1,71.67993,65.27A23.51785,23.51785,0,0,0,216,280h-8a36.76033,36.76033,0,0,1-30.65991-16.41016l-2.68018-4.02978a8.00948,8.00948,0,0,0-13.31982,0l-2.68018,4.02978A36.76033,36.76033,0,0,1,128,280H88a23.51785,23.51785,0,0,0-7.67993,1.27A72.08873,72.08873,0,0,1,152,216ZM88,296v16a8,8,0,0,1,0-16Zm5.72,73.18018A24.196,24.196,0,0,1,77.12012,336.73,40.37985,40.37985,0,0,0,79.73,326.52979,23.90166,23.90166,0,0,0,88,328h.49a63.98367,63.98367,0,0,0,28.95,45.85986C109.46,372.68994,101.52,371.12988,93.72,369.18018Zm35.15015,50.63964L114.56006,400.75l6.18994-6.18994,19.07007,14.31006Zm6.92993-33.96972a25.42661,25.42661,0,0,0,.2-3.27V370.60986a7.99313,7.99313,0,0,0-4.56006-7.21972,48.44011,48.44011,0,0,1-13.37988-9.43994A47.71763,47.71763,0,0,1,104,320V296h24a52.71538,52.71538,0,0,0,40-18.31006,52.72626,52.72626,0,0,0,32,17.71V320a48.24807,48.24807,0,0,1-27.42993,43.37988,8.01124,8.01124,0,0,0-4.57007,7.23v11.97022a25.42661,25.42661,0,0,0,.2,3.27L152,398Zm39.32983,33.96972-10.95-10.9497L183.25,394.56006l6.18994,6.18994Z"/><rect x="224" y="480" width="16" height="16"/><rect x="64" y="480" width="16" height="16"/><path d="M448,16H256a48.05375,48.05375,0,0,0-48,48V176a48.07781,48.07781,0,0,0,40,47.333V256a8.00053,8.00053,0,0,0,13.65723,5.65723L299.31348,224H448a48.05375,48.05375,0,0,0,48-48V64A48.05375,48.05375,0,0,0,448,16Zm32,160a32.03667,32.03667,0,0,1-32,32H296a8.00235,8.00235,0,0,0-5.65723,2.34277L264,236.68652V216a8.00039,8.00039,0,0,0-8-8,32.03667,32.03667,0,0,1-32-32V64a32.03667,32.03667,0,0,1,32-32H448a32.03667,32.03667,0,0,1,32,32Z"/><path d="M352.07227,60.51074A47.8,47.8,0,0,0,286.56836,130.083l60.06445,60.06347a7.97125,7.97125,0,0,0,2.69531,1.82325,8.068,8.068,0,0,0,3.0918.65234c3.21778,0,5.5-2.22754,7.13672-3.82422,1.02148-.99707,2.49609-2.45508,4.33984-4.291,3.64551-3.63086,8.752-8.752,14.6543-14.68848,9.9834-10.041,23.30664-23.48438,39.59863-39.95606a47.91627,47.91627,0,0,0-66.07714-69.35156Zm54.70214,58.09961c-32.77832,33.13867-47.6455,48.06543-54.33007,54.7207l-54.56153-54.5625a31.7984,31.7984,0,0,1,44.96973-44.96972l3.57422,3.57422a8.003,8.003,0,0,0,11.31445,0l3.77539-3.77539a31.91568,31.91568,0,0,1,45.25781,45.01269Z"/><path d="M307.752,76.09863l8.4961,13.55664a7.85086,7.85086,0,0,1,7.87793-.21386l7.748-13.99805a23.8436,23.8436,0,0,0-24.12207.65527Z"/><path d="M312.57812,96.14355l-15.998-.2871a23.60178,23.60178,0,0,0,6.959,17.25585L314.34277,123.916l11.31446-11.31446-10.80469-10.80468A7.72328,7.72328,0,0,1,312.57812,96.14355Z"/><rect x="248" y="80" width="16" height="16"/><rect x="254.17571" y="52.57126" width="15.99917" height="16.00005" transform="translate(95.07857 271.48229) rotate(-64.62055)"/><rect x="440" y="80" width="16" height="16"/><rect x="433.82468" y="52.5717" width="16.00005" height="15.99917" transform="translate(16.67585 195.20561) rotate(-25.37795)"/></g></svg>
