<?xml version="1.0" encoding="utf-8"?>
<!-- Generator: Adobe Illustrator 23.0.1, SVG Export Plug-In . SVG Version: 6.00 Build 0)  -->
<svg version="1.1" id="Layer_1" xmlns="http://www.w3.org/2000/svg" xmlns:xlink="http://www.w3.org/1999/xlink" x="0px" y="0px"
	 viewBox="0 0 288 288" style="enable-background:new 0 0 288 288;" xml:space="preserve">
<g>
	<g>
		<g>
			<path d="M-9.99-13.13c0.71,0,1.28-0.57,1.28-1.28c0-0.71-0.57-1.28-1.28-1.28c-0.71,0-1.28,0.57-1.28,1.28
				C-11.27-13.71-10.7-13.13-9.99-13.13z"/>
			<path d="M4.41-13.13c0.71,0,1.28-0.57,1.28-1.28c0-0.71-0.57-1.28-1.28-1.28c-0.71,0-1.28,0.57-1.28,1.28
				C3.13-13.71,3.7-13.13,4.41-13.13z"/>
			<path d="M18.81-13.13c0.71,0,1.28-0.57,1.28-1.28c0-0.71-0.57-1.28-1.28-1.28c-0.71,0-1.28,0.57-1.28,1.28
				C17.53-13.71,18.1-13.13,18.81-13.13z"/>
			<circle cx="33.21" cy="-14.41" r="1.28"/>
			<path d="M47.61-13.13c0.71,0,1.28-0.57,1.28-1.28c0-0.71-0.57-1.28-1.28-1.28c-0.71,0-1.28,0.57-1.28,1.28
				C46.33-13.71,46.9-13.13,47.61-13.13z"/>
			<path d="M62.01-13.13c0.71,0,1.28-0.57,1.28-1.28c0-0.71-0.57-1.28-1.28-1.28c-0.71,0-1.28,0.57-1.28,1.28
				C60.73-13.71,61.3-13.13,62.01-13.13z"/>
			<path d="M76.41-13.13c0.71,0,1.28-0.57,1.28-1.28c0-0.71-0.57-1.28-1.28-1.28c-0.71,0-1.28,0.57-1.28,1.28
				C75.13-13.71,75.7-13.13,76.41-13.13z"/>
			<path d="M90.81-13.13c0.71,0,1.28-0.57,1.28-1.28c0-0.71-0.57-1.28-1.28-1.28c-0.71,0-1.28,0.57-1.28,1.28
				C89.53-13.71,90.1-13.13,90.81-13.13z"/>
			<circle cx="105.21" cy="-14.41" r="1.28"/>
			<path d="M119.61-13.13c0.71,0,1.28-0.57,1.28-1.28c0-0.71-0.57-1.28-1.28-1.28c-0.71,0-1.28,0.57-1.28,1.28
				C118.33-13.71,118.9-13.13,119.61-13.13z"/>
			<path d="M134.01-13.13c0.71,0,1.28-0.57,1.28-1.28c0-0.71-0.57-1.28-1.28-1.28c-0.71,0-1.28,0.57-1.28,1.28
				C132.73-13.71,133.3-13.13,134.01-13.13z"/>
			<path d="M148.41-13.13c0.71,0,1.28-0.57,1.28-1.28c0-0.71-0.57-1.28-1.28-1.28c-0.71,0-1.28,0.57-1.28,1.28
				C147.13-13.71,147.7-13.13,148.41-13.13z"/>
			<path d="M162.81-13.13c0.71,0,1.28-0.57,1.28-1.28c0-0.71-0.57-1.28-1.28-1.28c-0.71,0-1.28,0.57-1.28,1.28
				C161.53-13.71,162.1-13.13,162.81-13.13z"/>
			<circle cx="177.21" cy="-14.41" r="1.28"/>
			<path d="M191.61-13.13c0.71,0,1.28-0.57,1.28-1.28c0-0.71-0.57-1.28-1.28-1.28c-0.71,0-1.28,0.57-1.28,1.28
				C190.33-13.71,190.9-13.13,191.61-13.13z"/>
			<path d="M206.01-13.13c0.71,0,1.28-0.57,1.28-1.28c0-0.71-0.57-1.28-1.28-1.28c-0.71,0-1.28,0.57-1.28,1.28
				C204.73-13.71,205.3-13.13,206.01-13.13z"/>
			<path d="M220.41-13.13c0.71,0,1.28-0.57,1.28-1.28c0-0.71-0.57-1.28-1.28-1.28c-0.71,0-1.28,0.57-1.28,1.28
				C219.13-13.71,219.7-13.13,220.41-13.13z"/>
			<path d="M234.81-13.13c0.71,0,1.28-0.57,1.28-1.28c0-0.71-0.57-1.28-1.28-1.28c-0.71,0-1.28,0.57-1.28,1.28
				C233.53-13.71,234.1-13.13,234.81-13.13z"/>
			<circle cx="249.21" cy="-14.41" r="1.28"/>
			<path d="M263.61-13.13c0.71,0,1.28-0.57,1.28-1.28c0-0.71-0.57-1.28-1.28-1.28c-0.71,0-1.28,0.57-1.28,1.28
				C262.33-13.71,262.9-13.13,263.61-13.13z"/>
			<path d="M278.01-13.13c0.71,0,1.28-0.57,1.28-1.28c0-0.71-0.57-1.28-1.28-1.28c-0.71,0-1.28,0.57-1.28,1.28
				C276.73-13.71,277.3-13.13,278.01-13.13z"/>
			<path d="M292.41-13.13c0.71,0,1.28-0.57,1.28-1.28c0-0.71-0.57-1.28-1.28-1.28c-0.71,0-1.28,0.57-1.28,1.28
				C291.13-13.71,291.7-13.13,292.41-13.13z"/>
			<path d="M-17.19,1.27c0.71,0,1.28-0.57,1.28-1.28s-0.57-1.28-1.28-1.28c-0.71,0-1.28,0.57-1.28,1.28S-17.9,1.27-17.19,1.27z"/>
			<circle cx="-2.79" cy="-0.01" r="1.28"/>
			<path d="M11.61,1.27c0.71,0,1.28-0.57,1.28-1.28s-0.57-1.28-1.28-1.28c-0.71,0-1.28,0.57-1.28,1.28S10.9,1.27,11.61,1.27z"/>
			<path d="M26.01,1.27c0.71,0,1.28-0.57,1.28-1.28s-0.57-1.28-1.28-1.28c-0.71,0-1.28,0.57-1.28,1.28S25.3,1.27,26.01,1.27z"/>
			<path d="M40.41,1.27c0.71,0,1.28-0.57,1.28-1.28s-0.57-1.28-1.28-1.28c-0.71,0-1.28,0.57-1.28,1.28S39.7,1.27,40.41,1.27z"/>
			<path d="M54.81,1.27c0.71,0,1.28-0.57,1.28-1.28s-0.57-1.28-1.28-1.28c-0.71,0-1.28,0.57-1.28,1.28S54.1,1.27,54.81,1.27z"/>
			<circle cx="69.21" cy="-0.01" r="1.28"/>
			<path d="M83.61,1.27c0.71,0,1.28-0.57,1.28-1.28s-0.57-1.28-1.28-1.28c-0.71,0-1.28,0.57-1.28,1.28S82.9,1.27,83.61,1.27z"/>
			<path d="M98.01,1.27c0.71,0,1.28-0.57,1.28-1.28s-0.57-1.28-1.28-1.28c-0.71,0-1.28,0.57-1.28,1.28S97.3,1.27,98.01,1.27z"/>
			<path d="M112.41,1.27c0.71,0,1.28-0.57,1.28-1.28s-0.57-1.28-1.28-1.28c-0.71,0-1.28,0.57-1.28,1.28S111.7,1.27,112.41,1.27z"/>
			<path d="M126.81,1.27c0.71,0,1.28-0.57,1.28-1.28s-0.57-1.28-1.28-1.28c-0.71,0-1.28,0.57-1.28,1.28S126.1,1.27,126.81,1.27z"/>
			<circle cx="141.21" cy="-0.01" r="1.28"/>
			<path d="M155.61,1.27c0.71,0,1.28-0.57,1.28-1.28s-0.57-1.28-1.28-1.28c-0.71,0-1.28,0.57-1.28,1.28S154.9,1.27,155.61,1.27z"/>
			<path d="M170.01,1.27c0.71,0,1.28-0.57,1.28-1.28s-0.57-1.28-1.28-1.28c-0.71,0-1.28,0.57-1.28,1.28S169.3,1.27,170.01,1.27z"/>
			<path d="M184.41,1.27c0.71,0,1.28-0.57,1.28-1.28s-0.57-1.28-1.28-1.28c-0.71,0-1.28,0.57-1.28,1.28S183.7,1.27,184.41,1.27z"/>
			<path d="M198.81,1.27c0.71,0,1.28-0.57,1.28-1.28s-0.57-1.28-1.28-1.28c-0.71,0-1.28,0.57-1.28,1.28S198.1,1.27,198.81,1.27z"/>
			<circle cx="213.21" cy="-0.01" r="1.28"/>
			<path d="M227.61,1.27c0.71,0,1.28-0.57,1.28-1.28s-0.57-1.28-1.28-1.28c-0.71,0-1.28,0.57-1.28,1.28S226.9,1.27,227.61,1.27z"/>
			<path d="M242.01,1.27c0.71,0,1.28-0.57,1.28-1.28s-0.57-1.28-1.28-1.28c-0.71,0-1.28,0.57-1.28,1.28S241.3,1.27,242.01,1.27z"/>
			<path d="M256.41,1.27c0.71,0,1.28-0.57,1.28-1.28s-0.57-1.28-1.28-1.28c-0.71,0-1.28,0.57-1.28,1.28S255.7,1.27,256.41,1.27z"/>
			<path d="M270.81,1.27c0.71,0,1.28-0.57,1.28-1.28s-0.57-1.28-1.28-1.28c-0.71,0-1.28,0.57-1.28,1.28S270.1,1.27,270.81,1.27z"/>
			<circle cx="285.21" cy="-0.01" r="1.28"/>
			<path d="M-9.99,15.67c0.71,0,1.28-0.57,1.28-1.28c0-0.71-0.57-1.28-1.28-1.28c-0.71,0-1.28,0.57-1.28,1.28
				C-11.27,15.09-10.7,15.67-9.99,15.67z"/>
			<path d="M4.41,15.67c0.71,0,1.28-0.57,1.28-1.28c0-0.71-0.57-1.28-1.28-1.28c-0.71,0-1.28,0.57-1.28,1.28
				C3.13,15.09,3.7,15.67,4.41,15.67z"/>
			<path d="M18.81,15.67c0.71,0,1.28-0.57,1.28-1.28c0-0.71-0.57-1.28-1.28-1.28c-0.71,0-1.28,0.57-1.28,1.28
				C17.53,15.09,18.1,15.67,18.81,15.67z"/>
			<path d="M33.21,15.67c0.71,0,1.28-0.57,1.28-1.28c0-0.71-0.57-1.28-1.28-1.28s-1.28,0.57-1.28,1.28
				C31.93,15.09,32.5,15.67,33.21,15.67z"/>
			<path d="M47.61,15.67c0.71,0,1.28-0.57,1.28-1.28c0-0.71-0.57-1.28-1.28-1.28c-0.71,0-1.28,0.57-1.28,1.28
				C46.33,15.09,46.9,15.67,47.61,15.67z"/>
			<path d="M62.01,15.67c0.71,0,1.28-0.57,1.28-1.28c0-0.71-0.57-1.28-1.28-1.28c-0.71,0-1.28,0.57-1.28,1.28
				C60.73,15.09,61.3,15.67,62.01,15.67z"/>
			<path d="M76.41,15.67c0.71,0,1.28-0.57,1.28-1.28c0-0.71-0.57-1.28-1.28-1.28c-0.71,0-1.28,0.57-1.28,1.28
				C75.13,15.09,75.7,15.67,76.41,15.67z"/>
			<path d="M90.81,15.67c0.71,0,1.28-0.57,1.28-1.28c0-0.71-0.57-1.28-1.28-1.28c-0.71,0-1.28,0.57-1.28,1.28
				C89.53,15.09,90.1,15.67,90.81,15.67z"/>
			<path d="M105.21,15.67c0.71,0,1.28-0.57,1.28-1.28c0-0.71-0.57-1.28-1.28-1.28s-1.28,0.57-1.28,1.28
				C103.93,15.09,104.5,15.67,105.21,15.67z"/>
			<path d="M119.61,15.67c0.71,0,1.28-0.57,1.28-1.28c0-0.71-0.57-1.28-1.28-1.28c-0.71,0-1.28,0.57-1.28,1.28
				C118.33,15.09,118.9,15.67,119.61,15.67z"/>
			<path d="M134.01,15.67c0.71,0,1.28-0.57,1.28-1.28c0-0.71-0.57-1.28-1.28-1.28c-0.71,0-1.28,0.57-1.28,1.28
				C132.73,15.09,133.3,15.67,134.01,15.67z"/>
			<path d="M148.41,15.67c0.71,0,1.28-0.57,1.28-1.28c0-0.71-0.57-1.28-1.28-1.28c-0.71,0-1.28,0.57-1.28,1.28
				C147.13,15.09,147.7,15.67,148.41,15.67z"/>
			<path d="M162.81,15.67c0.71,0,1.28-0.57,1.28-1.28c0-0.71-0.57-1.28-1.28-1.28c-0.71,0-1.28,0.57-1.28,1.28
				C161.53,15.09,162.1,15.67,162.81,15.67z"/>
			<path d="M177.21,15.67c0.71,0,1.28-0.57,1.28-1.28c0-0.71-0.57-1.28-1.28-1.28s-1.28,0.57-1.28,1.28
				C175.93,15.09,176.5,15.67,177.21,15.67z"/>
			<path d="M191.61,15.67c0.71,0,1.28-0.57,1.28-1.28c0-0.71-0.57-1.28-1.28-1.28c-0.71,0-1.28,0.57-1.28,1.28
				C190.33,15.09,190.9,15.67,191.61,15.67z"/>
			<path d="M206.01,15.67c0.71,0,1.28-0.57,1.28-1.28c0-0.71-0.57-1.28-1.28-1.28c-0.71,0-1.28,0.57-1.28,1.28
				C204.73,15.09,205.3,15.67,206.01,15.67z"/>
			<path d="M220.41,15.67c0.71,0,1.28-0.57,1.28-1.28c0-0.71-0.57-1.28-1.28-1.28c-0.71,0-1.28,0.57-1.28,1.28
				C219.13,15.09,219.7,15.67,220.41,15.67z"/>
			<path d="M234.81,15.67c0.71,0,1.28-0.57,1.28-1.28c0-0.71-0.57-1.28-1.28-1.28c-0.71,0-1.28,0.57-1.28,1.28
				C233.53,15.09,234.1,15.67,234.81,15.67z"/>
			<path d="M249.21,15.67c0.71,0,1.28-0.57,1.28-1.28c0-0.71-0.57-1.28-1.28-1.28s-1.28,0.57-1.28,1.28
				C247.93,15.09,248.5,15.67,249.21,15.67z"/>
			<path d="M263.61,15.67c0.71,0,1.28-0.57,1.28-1.28c0-0.71-0.57-1.28-1.28-1.28c-0.71,0-1.28,0.57-1.28,1.28
				C262.33,15.09,262.9,15.67,263.61,15.67z"/>
			<path d="M278.01,15.67c0.71,0,1.28-0.57,1.28-1.28c0-0.71-0.57-1.28-1.28-1.28c-0.71,0-1.28,0.57-1.28,1.28
				C276.73,15.09,277.3,15.67,278.01,15.67z"/>
			<path d="M292.41,15.67c0.71,0,1.28-0.57,1.28-1.28c0-0.71-0.57-1.28-1.28-1.28c-0.71,0-1.28,0.57-1.28,1.28
				C291.13,15.09,291.7,15.67,292.41,15.67z"/>
			<path d="M-17.19,30.07c0.71,0,1.28-0.57,1.28-1.28c0-0.71-0.57-1.28-1.28-1.28c-0.71,0-1.28,0.57-1.28,1.28
				C-18.47,29.49-17.9,30.07-17.19,30.07z"/>
			<path d="M-2.79,30.07c0.71,0,1.28-0.57,1.28-1.28c0-0.71-0.57-1.28-1.28-1.28s-1.28,0.57-1.28,1.28
				C-4.07,29.49-3.5,30.07-2.79,30.07z"/>
			<path d="M11.61,30.07c0.71,0,1.28-0.57,1.28-1.28c0-0.71-0.57-1.28-1.28-1.28c-0.71,0-1.28,0.57-1.28,1.28
				C10.33,29.49,10.9,30.07,11.61,30.07z"/>
			<path d="M26.01,30.07c0.71,0,1.28-0.57,1.28-1.28c0-0.71-0.57-1.28-1.28-1.28c-0.71,0-1.28,0.57-1.28,1.28
				C24.73,29.49,25.3,30.07,26.01,30.07z"/>
			<path d="M40.41,30.07c0.71,0,1.28-0.57,1.28-1.28c0-0.71-0.57-1.28-1.28-1.28c-0.71,0-1.28,0.57-1.28,1.28
				C39.13,29.49,39.7,30.07,40.41,30.07z"/>
			<path d="M54.81,30.07c0.71,0,1.28-0.57,1.28-1.28c0-0.71-0.57-1.28-1.28-1.28c-0.71,0-1.28,0.57-1.28,1.28
				C53.53,29.49,54.1,30.07,54.81,30.07z"/>
			<path d="M69.21,30.07c0.71,0,1.28-0.57,1.28-1.28c0-0.71-0.57-1.28-1.28-1.28s-1.28,0.57-1.28,1.28
				C67.93,29.49,68.5,30.07,69.21,30.07z"/>
			<path d="M83.61,30.07c0.71,0,1.28-0.57,1.28-1.28c0-0.71-0.57-1.28-1.28-1.28c-0.71,0-1.28,0.57-1.28,1.28
				C82.33,29.49,82.9,30.07,83.61,30.07z"/>
			<path d="M98.01,30.07c0.71,0,1.28-0.57,1.28-1.28c0-0.71-0.57-1.28-1.28-1.28c-0.71,0-1.28,0.57-1.28,1.28
				C96.73,29.49,97.3,30.07,98.01,30.07z"/>
			<path d="M112.41,30.07c0.71,0,1.28-0.57,1.28-1.28c0-0.71-0.57-1.28-1.28-1.28c-0.71,0-1.28,0.57-1.28,1.28
				C111.13,29.49,111.7,30.07,112.41,30.07z"/>
			<path d="M126.81,30.07c0.71,0,1.28-0.57,1.28-1.28c0-0.71-0.57-1.28-1.28-1.28c-0.71,0-1.28,0.57-1.28,1.28
				C125.53,29.49,126.1,30.07,126.81,30.07z"/>
			<path d="M141.21,30.07c0.71,0,1.28-0.57,1.28-1.28c0-0.71-0.57-1.28-1.28-1.28s-1.28,0.57-1.28,1.28
				C139.93,29.49,140.5,30.07,141.21,30.07z"/>
			<path d="M155.61,30.07c0.71,0,1.28-0.57,1.28-1.28c0-0.71-0.57-1.28-1.28-1.28c-0.71,0-1.28,0.57-1.28,1.28
				C154.33,29.49,154.9,30.07,155.61,30.07z"/>
			<path d="M170.01,30.07c0.71,0,1.28-0.57,1.28-1.28c0-0.71-0.57-1.28-1.28-1.28c-0.71,0-1.28,0.57-1.28,1.28
				C168.73,29.49,169.3,30.07,170.01,30.07z"/>
			<path d="M184.41,30.07c0.71,0,1.28-0.57,1.28-1.28c0-0.71-0.57-1.28-1.28-1.28c-0.71,0-1.28,0.57-1.28,1.28
				C183.13,29.49,183.7,30.07,184.41,30.07z"/>
			<path d="M198.81,30.07c0.71,0,1.28-0.57,1.28-1.28c0-0.71-0.57-1.28-1.28-1.28c-0.71,0-1.28,0.57-1.28,1.28
				C197.53,29.49,198.1,30.07,198.81,30.07z"/>
			<path d="M213.21,30.07c0.71,0,1.28-0.57,1.28-1.28c0-0.71-0.57-1.28-1.28-1.28s-1.28,0.57-1.28,1.28
				C211.93,29.49,212.5,30.07,213.21,30.07z"/>
			<path d="M227.61,30.07c0.71,0,1.28-0.57,1.28-1.28c0-0.71-0.57-1.28-1.28-1.28c-0.71,0-1.28,0.57-1.28,1.28
				C226.33,29.49,226.9,30.07,227.61,30.07z"/>
			<path d="M242.01,30.07c0.71,0,1.28-0.57,1.28-1.28c0-0.71-0.57-1.28-1.28-1.28c-0.71,0-1.28,0.57-1.28,1.28
				C240.73,29.49,241.3,30.07,242.01,30.07z"/>
			<path d="M256.41,30.07c0.71,0,1.28-0.57,1.28-1.28c0-0.71-0.57-1.28-1.28-1.28c-0.71,0-1.28,0.57-1.28,1.28
				C255.13,29.49,255.7,30.07,256.41,30.07z"/>
			<path d="M270.81,30.07c0.71,0,1.28-0.57,1.28-1.28c0-0.71-0.57-1.28-1.28-1.28c-0.71,0-1.28,0.57-1.28,1.28
				C269.53,29.49,270.1,30.07,270.81,30.07z"/>
			<path d="M285.21,30.07c0.71,0,1.28-0.57,1.28-1.28c0-0.71-0.57-1.28-1.28-1.28c-0.71,0-1.28,0.57-1.28,1.28
				C283.93,29.49,284.5,30.07,285.21,30.07z"/>
			<path d="M-9.99,44.47c0.71,0,1.28-0.57,1.28-1.28c0-0.71-0.57-1.28-1.28-1.28c-0.71,0-1.28,0.57-1.28,1.28
				C-11.27,43.89-10.7,44.47-9.99,44.47z"/>
			<path d="M4.41,44.47c0.71,0,1.28-0.57,1.28-1.28c0-0.71-0.57-1.28-1.28-1.28c-0.71,0-1.28,0.57-1.28,1.28
				C3.13,43.89,3.7,44.47,4.41,44.47z"/>
			<path d="M18.81,44.47c0.71,0,1.28-0.57,1.28-1.28c0-0.71-0.57-1.28-1.28-1.28c-0.71,0-1.28,0.57-1.28,1.28
				C17.53,43.89,18.1,44.47,18.81,44.47z"/>
			<path d="M33.21,44.47c0.71,0,1.28-0.57,1.28-1.28c0-0.71-0.57-1.28-1.28-1.28s-1.28,0.57-1.28,1.28
				C31.93,43.89,32.5,44.47,33.21,44.47z"/>
			<path d="M47.61,44.47c0.71,0,1.28-0.57,1.28-1.28c0-0.71-0.57-1.28-1.28-1.28c-0.71,0-1.28,0.57-1.28,1.28
				C46.33,43.89,46.9,44.47,47.61,44.47z"/>
			<path d="M62.01,44.47c0.71,0,1.28-0.57,1.28-1.28c0-0.71-0.57-1.28-1.28-1.28c-0.71,0-1.28,0.57-1.28,1.28
				C60.73,43.89,61.3,44.47,62.01,44.47z"/>
			<path d="M76.41,44.47c0.71,0,1.28-0.57,1.28-1.28c0-0.71-0.57-1.28-1.28-1.28c-0.71,0-1.28,0.57-1.28,1.28
				C75.13,43.89,75.7,44.47,76.41,44.47z"/>
			<path d="M90.81,44.47c0.71,0,1.28-0.57,1.28-1.28c0-0.71-0.57-1.28-1.28-1.28c-0.71,0-1.28,0.57-1.28,1.28
				C89.53,43.89,90.1,44.47,90.81,44.47z"/>
			<path d="M105.21,44.47c0.71,0,1.28-0.57,1.28-1.28c0-0.71-0.57-1.28-1.28-1.28s-1.28,0.57-1.28,1.28
				C103.93,43.89,104.5,44.47,105.21,44.47z"/>
			<path d="M119.61,44.47c0.71,0,1.28-0.57,1.28-1.28c0-0.71-0.57-1.28-1.28-1.28c-0.71,0-1.28,0.57-1.28,1.28
				C118.33,43.89,118.9,44.47,119.61,44.47z"/>
			<path d="M134.01,44.47c0.71,0,1.28-0.57,1.28-1.28c0-0.71-0.57-1.28-1.28-1.28c-0.71,0-1.28,0.57-1.28,1.28
				C132.73,43.89,133.3,44.47,134.01,44.47z"/>
			<path d="M148.41,44.47c0.71,0,1.28-0.57,1.28-1.28c0-0.71-0.57-1.28-1.28-1.28c-0.71,0-1.28,0.57-1.28,1.28
				C147.13,43.89,147.7,44.47,148.41,44.47z"/>
			<path d="M162.81,44.47c0.71,0,1.28-0.57,1.28-1.28c0-0.71-0.57-1.28-1.28-1.28c-0.71,0-1.28,0.57-1.28,1.28
				C161.53,43.89,162.1,44.47,162.81,44.47z"/>
			<path d="M177.21,44.47c0.71,0,1.28-0.57,1.28-1.28c0-0.71-0.57-1.28-1.28-1.28s-1.28,0.57-1.28,1.28
				C175.93,43.89,176.5,44.47,177.21,44.47z"/>
			<path d="M191.61,44.47c0.71,0,1.28-0.57,1.28-1.28c0-0.71-0.57-1.28-1.28-1.28c-0.71,0-1.28,0.57-1.28,1.28
				C190.33,43.89,190.9,44.47,191.61,44.47z"/>
			<path d="M206.01,44.47c0.71,0,1.28-0.57,1.28-1.28c0-0.71-0.57-1.28-1.28-1.28c-0.71,0-1.28,0.57-1.28,1.28
				C204.73,43.89,205.3,44.47,206.01,44.47z"/>
			<path d="M220.41,44.47c0.71,0,1.28-0.57,1.28-1.28c0-0.71-0.57-1.28-1.28-1.28c-0.71,0-1.28,0.57-1.28,1.28
				C219.13,43.89,219.7,44.47,220.41,44.47z"/>
			<path d="M234.81,44.47c0.71,0,1.28-0.57,1.28-1.28c0-0.71-0.57-1.28-1.28-1.28c-0.71,0-1.28,0.57-1.28,1.28
				C233.53,43.89,234.1,44.47,234.81,44.47z"/>
			<path d="M249.21,44.47c0.71,0,1.28-0.57,1.28-1.28c0-0.71-0.57-1.28-1.28-1.28s-1.28,0.57-1.28,1.28
				C247.93,43.89,248.5,44.47,249.21,44.47z"/>
			<path d="M263.61,44.47c0.71,0,1.28-0.57,1.28-1.28c0-0.71-0.57-1.28-1.28-1.28c-0.71,0-1.28,0.57-1.28,1.28
				C262.33,43.89,262.9,44.47,263.61,44.47z"/>
			<path d="M278.01,44.47c0.71,0,1.28-0.57,1.28-1.28c0-0.71-0.57-1.28-1.28-1.28c-0.71,0-1.28,0.57-1.28,1.28
				C276.73,43.89,277.3,44.47,278.01,44.47z"/>
			<path d="M292.41,44.47c0.71,0,1.28-0.57,1.28-1.28c0-0.71-0.57-1.28-1.28-1.28c-0.71,0-1.28,0.57-1.28,1.28
				C291.13,43.89,291.7,44.47,292.41,44.47z"/>
			<path d="M-17.19,58.87c0.71,0,1.28-0.57,1.28-1.28c0-0.71-0.57-1.28-1.28-1.28c-0.71,0-1.28,0.57-1.28,1.28
				C-18.47,58.29-17.9,58.87-17.19,58.87z"/>
			<circle cx="-2.79" cy="57.59" r="1.28"/>
			<path d="M11.61,58.87c0.71,0,1.28-0.57,1.28-1.28c0-0.71-0.57-1.28-1.28-1.28c-0.71,0-1.28,0.57-1.28,1.28
				C10.33,58.29,10.9,58.87,11.61,58.87z"/>
			<path d="M26.01,58.87c0.71,0,1.28-0.57,1.28-1.28c0-0.71-0.57-1.28-1.28-1.28c-0.71,0-1.28,0.57-1.28,1.28
				C24.73,58.29,25.3,58.87,26.01,58.87z"/>
			<path d="M40.41,58.87c0.71,0,1.28-0.57,1.28-1.28c0-0.71-0.57-1.28-1.28-1.28c-0.71,0-1.28,0.57-1.28,1.28
				C39.13,58.29,39.7,58.87,40.41,58.87z"/>
			<path d="M54.81,58.87c0.71,0,1.28-0.57,1.28-1.28c0-0.71-0.57-1.28-1.28-1.28c-0.71,0-1.28,0.57-1.28,1.28
				C53.53,58.29,54.1,58.87,54.81,58.87z"/>
			<circle cx="69.21" cy="57.59" r="1.28"/>
			<path d="M83.61,58.87c0.71,0,1.28-0.57,1.28-1.28c0-0.71-0.57-1.28-1.28-1.28c-0.71,0-1.28,0.57-1.28,1.28
				C82.33,58.29,82.9,58.87,83.61,58.87z"/>
			<path d="M98.01,58.87c0.71,0,1.28-0.57,1.28-1.28c0-0.71-0.57-1.28-1.28-1.28c-0.71,0-1.28,0.57-1.28,1.28
				C96.73,58.29,97.3,58.87,98.01,58.87z"/>
			<path d="M112.41,58.87c0.71,0,1.28-0.57,1.28-1.28c0-0.71-0.57-1.28-1.28-1.28c-0.71,0-1.28,0.57-1.28,1.28
				C111.13,58.29,111.7,58.87,112.41,58.87z"/>
			<path d="M126.81,58.87c0.71,0,1.28-0.57,1.28-1.28c0-0.71-0.57-1.28-1.28-1.28c-0.71,0-1.28,0.57-1.28,1.28
				C125.53,58.29,126.1,58.87,126.81,58.87z"/>
			<circle cx="141.21" cy="57.59" r="1.28"/>
			<path d="M155.61,58.87c0.71,0,1.28-0.57,1.28-1.28c0-0.71-0.57-1.28-1.28-1.28c-0.71,0-1.28,0.57-1.28,1.28
				C154.33,58.29,154.9,58.87,155.61,58.87z"/>
			<path d="M170.01,58.87c0.71,0,1.28-0.57,1.28-1.28c0-0.71-0.57-1.28-1.28-1.28c-0.71,0-1.28,0.57-1.28,1.28
				C168.73,58.29,169.3,58.87,170.01,58.87z"/>
			<path d="M184.41,58.87c0.71,0,1.28-0.57,1.28-1.28c0-0.71-0.57-1.28-1.28-1.28c-0.71,0-1.28,0.57-1.28,1.28
				C183.13,58.29,183.7,58.87,184.41,58.87z"/>
			<path d="M198.81,58.87c0.71,0,1.28-0.57,1.28-1.28c0-0.71-0.57-1.28-1.28-1.28c-0.71,0-1.28,0.57-1.28,1.28
				C197.53,58.29,198.1,58.87,198.81,58.87z"/>
			<circle cx="213.21" cy="57.59" r="1.28"/>
			<path d="M227.61,58.87c0.71,0,1.28-0.57,1.28-1.28c0-0.71-0.57-1.28-1.28-1.28c-0.71,0-1.28,0.57-1.28,1.28
				C226.33,58.29,226.9,58.87,227.61,58.87z"/>
			<path d="M242.01,58.87c0.71,0,1.28-0.57,1.28-1.28c0-0.71-0.57-1.28-1.28-1.28c-0.71,0-1.28,0.57-1.28,1.28
				C240.73,58.29,241.3,58.87,242.01,58.87z"/>
			<path d="M256.41,58.87c0.71,0,1.28-0.57,1.28-1.28c0-0.71-0.57-1.28-1.28-1.28c-0.71,0-1.28,0.57-1.28,1.28
				C255.13,58.29,255.7,58.87,256.41,58.87z"/>
			<path d="M270.81,58.87c0.71,0,1.28-0.57,1.28-1.28c0-0.71-0.57-1.28-1.28-1.28c-0.71,0-1.28,0.57-1.28,1.28
				C269.53,58.29,270.1,58.87,270.81,58.87z"/>
			<circle cx="285.21" cy="57.59" r="1.28"/>
			<path d="M-9.99,73.27c0.71,0,1.28-0.57,1.28-1.28s-0.57-1.28-1.28-1.28c-0.71,0-1.28,0.57-1.28,1.28S-10.7,73.27-9.99,73.27z"/>
			<path d="M4.41,73.27c0.71,0,1.28-0.57,1.28-1.28s-0.57-1.28-1.28-1.28c-0.71,0-1.28,0.57-1.28,1.28S3.7,73.27,4.41,73.27z"/>
			<path d="M18.81,73.27c0.71,0,1.28-0.57,1.28-1.28s-0.57-1.28-1.28-1.28c-0.71,0-1.28,0.57-1.28,1.28S18.1,73.27,18.81,73.27z"/>
			<circle cx="33.21" cy="71.99" r="1.28"/>
			<path d="M47.61,73.27c0.71,0,1.28-0.57,1.28-1.28s-0.57-1.28-1.28-1.28c-0.71,0-1.28,0.57-1.28,1.28S46.9,73.27,47.61,73.27z"/>
			<path d="M62.01,73.27c0.71,0,1.28-0.57,1.28-1.28s-0.57-1.28-1.28-1.28c-0.71,0-1.28,0.57-1.28,1.28S61.3,73.27,62.01,73.27z"/>
			<path d="M76.41,73.27c0.71,0,1.28-0.57,1.28-1.28s-0.57-1.28-1.28-1.28c-0.71,0-1.28,0.57-1.28,1.28S75.7,73.27,76.41,73.27z"/>
			<path d="M90.81,73.27c0.71,0,1.28-0.57,1.28-1.28s-0.57-1.28-1.28-1.28c-0.71,0-1.28,0.57-1.28,1.28S90.1,73.27,90.81,73.27z"/>
			<circle cx="105.21" cy="71.99" r="1.28"/>
			<path d="M119.61,73.27c0.71,0,1.28-0.57,1.28-1.28s-0.57-1.28-1.28-1.28c-0.71,0-1.28,0.57-1.28,1.28S118.9,73.27,119.61,73.27z"
				/>
			<path d="M134.01,73.27c0.71,0,1.28-0.57,1.28-1.28s-0.57-1.28-1.28-1.28c-0.71,0-1.28,0.57-1.28,1.28S133.3,73.27,134.01,73.27z"
				/>
			<path d="M148.41,73.27c0.71,0,1.28-0.57,1.28-1.28s-0.57-1.28-1.28-1.28c-0.71,0-1.28,0.57-1.28,1.28S147.7,73.27,148.41,73.27z"
				/>
			<path d="M162.81,73.27c0.71,0,1.28-0.57,1.28-1.28s-0.57-1.28-1.28-1.28c-0.71,0-1.28,0.57-1.28,1.28S162.1,73.27,162.81,73.27z"
				/>
			<circle cx="177.21" cy="71.99" r="1.28"/>
			<path d="M191.61,73.27c0.71,0,1.28-0.57,1.28-1.28s-0.57-1.28-1.28-1.28c-0.71,0-1.28,0.57-1.28,1.28S190.9,73.27,191.61,73.27z"
				/>
			<path d="M206.01,73.27c0.71,0,1.28-0.57,1.28-1.28s-0.57-1.28-1.28-1.28c-0.71,0-1.28,0.57-1.28,1.28S205.3,73.27,206.01,73.27z"
				/>
			<path d="M220.41,73.27c0.71,0,1.28-0.57,1.28-1.28s-0.57-1.28-1.28-1.28c-0.71,0-1.28,0.57-1.28,1.28S219.7,73.27,220.41,73.27z"
				/>
			<path d="M234.81,73.27c0.71,0,1.28-0.57,1.28-1.28s-0.57-1.28-1.28-1.28c-0.71,0-1.28,0.57-1.28,1.28S234.1,73.27,234.81,73.27z"
				/>
			<circle cx="249.21" cy="71.99" r="1.28"/>
			<path d="M263.61,73.27c0.71,0,1.28-0.57,1.28-1.28s-0.57-1.28-1.28-1.28c-0.71,0-1.28,0.57-1.28,1.28S262.9,73.27,263.61,73.27z"
				/>
			<path d="M278.01,73.27c0.71,0,1.28-0.57,1.28-1.28s-0.57-1.28-1.28-1.28c-0.71,0-1.28,0.57-1.28,1.28S277.3,73.27,278.01,73.27z"
				/>
			<path d="M292.41,73.27c0.71,0,1.28-0.57,1.28-1.28s-0.57-1.28-1.28-1.28c-0.71,0-1.28,0.57-1.28,1.28S291.7,73.27,292.41,73.27z"
				/>
			<path d="M-17.19,87.67c0.71,0,1.28-0.57,1.28-1.28c0-0.71-0.57-1.28-1.28-1.28c-0.71,0-1.28,0.57-1.28,1.28
				C-18.47,87.09-17.9,87.67-17.19,87.67z"/>
			<path d="M-2.79,87.67c0.71,0,1.28-0.57,1.28-1.28c0-0.71-0.57-1.28-1.28-1.28s-1.28,0.57-1.28,1.28
				C-4.07,87.09-3.5,87.67-2.79,87.67z"/>
			<path d="M11.61,87.67c0.71,0,1.28-0.57,1.28-1.28c0-0.71-0.57-1.28-1.28-1.28c-0.71,0-1.28,0.57-1.28,1.28
				C10.33,87.09,10.9,87.67,11.61,87.67z"/>
			<path d="M26.01,87.67c0.71,0,1.28-0.57,1.28-1.28c0-0.71-0.57-1.28-1.28-1.28c-0.71,0-1.28,0.57-1.28,1.28
				C24.73,87.09,25.3,87.67,26.01,87.67z"/>
			<path d="M40.41,87.67c0.71,0,1.28-0.57,1.28-1.28c0-0.71-0.57-1.28-1.28-1.28c-0.71,0-1.28,0.57-1.28,1.28
				C39.13,87.09,39.7,87.67,40.41,87.67z"/>
			<path d="M54.81,87.67c0.71,0,1.28-0.57,1.28-1.28c0-0.71-0.57-1.28-1.28-1.28c-0.71,0-1.28,0.57-1.28,1.28
				C53.53,87.09,54.1,87.67,54.81,87.67z"/>
			<path d="M69.21,87.67c0.71,0,1.28-0.57,1.28-1.28c0-0.71-0.57-1.28-1.28-1.28s-1.28,0.57-1.28,1.28
				C67.93,87.09,68.5,87.67,69.21,87.67z"/>
			<path d="M83.61,87.67c0.71,0,1.28-0.57,1.28-1.28c0-0.71-0.57-1.28-1.28-1.28c-0.71,0-1.28,0.57-1.28,1.28
				C82.33,87.09,82.9,87.67,83.61,87.67z"/>
			<path d="M98.01,87.67c0.71,0,1.28-0.57,1.28-1.28c0-0.71-0.57-1.28-1.28-1.28c-0.71,0-1.28,0.57-1.28,1.28
				C96.73,87.09,97.3,87.67,98.01,87.67z"/>
			<path d="M112.41,87.67c0.71,0,1.28-0.57,1.28-1.28c0-0.71-0.57-1.28-1.28-1.28c-0.71,0-1.28,0.57-1.28,1.28
				C111.13,87.09,111.7,87.67,112.41,87.67z"/>
			<path d="M126.81,87.67c0.71,0,1.28-0.57,1.28-1.28c0-0.71-0.57-1.28-1.28-1.28c-0.71,0-1.28,0.57-1.28,1.28
				C125.53,87.09,126.1,87.67,126.81,87.67z"/>
			<path d="M141.21,87.67c0.71,0,1.28-0.57,1.28-1.28c0-0.71-0.57-1.28-1.28-1.28s-1.28,0.57-1.28,1.28
				C139.93,87.09,140.5,87.67,141.21,87.67z"/>
			<path d="M155.61,87.67c0.71,0,1.28-0.57,1.28-1.28c0-0.71-0.57-1.28-1.28-1.28c-0.71,0-1.28,0.57-1.28,1.28
				C154.33,87.09,154.9,87.67,155.61,87.67z"/>
			<path d="M170.01,87.67c0.71,0,1.28-0.57,1.28-1.28c0-0.71-0.57-1.28-1.28-1.28c-0.71,0-1.28,0.57-1.28,1.28
				C168.73,87.09,169.3,87.67,170.01,87.67z"/>
			<path d="M184.41,87.67c0.71,0,1.28-0.57,1.28-1.28c0-0.71-0.57-1.28-1.28-1.28c-0.71,0-1.28,0.57-1.28,1.28
				C183.13,87.09,183.7,87.67,184.41,87.67z"/>
			<path d="M198.81,87.67c0.71,0,1.28-0.57,1.28-1.28c0-0.71-0.57-1.28-1.28-1.28c-0.71,0-1.28,0.57-1.28,1.28
				C197.53,87.09,198.1,87.67,198.81,87.67z"/>
			<path d="M213.21,87.67c0.71,0,1.28-0.57,1.28-1.28c0-0.71-0.57-1.28-1.28-1.28s-1.28,0.57-1.28,1.28
				C211.93,87.09,212.5,87.67,213.21,87.67z"/>
			<path d="M227.61,87.67c0.71,0,1.28-0.57,1.28-1.28c0-0.71-0.57-1.28-1.28-1.28c-0.71,0-1.28,0.57-1.28,1.28
				C226.33,87.09,226.9,87.67,227.61,87.67z"/>
			<path d="M242.01,87.67c0.71,0,1.28-0.57,1.28-1.28c0-0.71-0.57-1.28-1.28-1.28c-0.71,0-1.28,0.57-1.28,1.28
				C240.73,87.09,241.3,87.67,242.01,87.67z"/>
			<path d="M256.41,87.67c0.71,0,1.28-0.57,1.28-1.28c0-0.71-0.57-1.28-1.28-1.28c-0.71,0-1.28,0.57-1.28,1.28
				C255.13,87.09,255.7,87.67,256.41,87.67z"/>
			<path d="M270.81,87.67c0.71,0,1.28-0.57,1.28-1.28c0-0.71-0.57-1.28-1.28-1.28c-0.71,0-1.28,0.57-1.28,1.28
				C269.53,87.09,270.1,87.67,270.81,87.67z"/>
			<path d="M285.21,87.67c0.71,0,1.28-0.57,1.28-1.28c0-0.71-0.57-1.28-1.28-1.28c-0.71,0-1.28,0.57-1.28,1.28
				C283.93,87.09,284.5,87.67,285.21,87.67z"/>
			<path d="M-9.99,102.07c0.71,0,1.28-0.57,1.28-1.28c0-0.71-0.57-1.28-1.28-1.28c-0.71,0-1.28,0.57-1.28,1.28
				C-11.27,101.49-10.7,102.07-9.99,102.07z"/>
			<path d="M4.41,102.07c0.71,0,1.28-0.57,1.28-1.28c0-0.71-0.57-1.28-1.28-1.28c-0.71,0-1.28,0.57-1.28,1.28
				C3.13,101.49,3.7,102.07,4.41,102.07z"/>
			<path d="M18.81,102.07c0.71,0,1.28-0.57,1.28-1.28c0-0.71-0.57-1.28-1.28-1.28c-0.71,0-1.28,0.57-1.28,1.28
				C17.53,101.49,18.1,102.07,18.81,102.07z"/>
			<path d="M33.21,102.07c0.71,0,1.28-0.57,1.28-1.28c0-0.71-0.57-1.28-1.28-1.28s-1.28,0.57-1.28,1.28
				C31.93,101.49,32.5,102.07,33.21,102.07z"/>
			<path d="M47.61,102.07c0.71,0,1.28-0.57,1.28-1.28c0-0.71-0.57-1.28-1.28-1.28c-0.71,0-1.28,0.57-1.28,1.28
				C46.33,101.49,46.9,102.07,47.61,102.07z"/>
			<path d="M62.01,102.07c0.71,0,1.28-0.57,1.28-1.28c0-0.71-0.57-1.28-1.28-1.28c-0.71,0-1.28,0.57-1.28,1.28
				C60.73,101.49,61.3,102.07,62.01,102.07z"/>
			<path d="M76.41,102.07c0.71,0,1.28-0.57,1.28-1.28c0-0.71-0.57-1.28-1.28-1.28c-0.71,0-1.28,0.57-1.28,1.28
				C75.13,101.49,75.7,102.07,76.41,102.07z"/>
			<path d="M90.81,102.07c0.71,0,1.28-0.57,1.28-1.28c0-0.71-0.57-1.28-1.28-1.28c-0.71,0-1.28,0.57-1.28,1.28
				C89.53,101.49,90.1,102.07,90.81,102.07z"/>
			<path d="M105.21,102.07c0.71,0,1.28-0.57,1.28-1.28c0-0.71-0.57-1.28-1.28-1.28s-1.28,0.57-1.28,1.28
				C103.93,101.49,104.5,102.07,105.21,102.07z"/>
			<path d="M119.61,102.07c0.71,0,1.28-0.57,1.28-1.28c0-0.71-0.57-1.28-1.28-1.28c-0.71,0-1.28,0.57-1.28,1.28
				C118.33,101.49,118.9,102.07,119.61,102.07z"/>
			<path d="M134.01,102.07c0.71,0,1.28-0.57,1.28-1.28c0-0.71-0.57-1.28-1.28-1.28c-0.71,0-1.28,0.57-1.28,1.28
				C132.73,101.49,133.3,102.07,134.01,102.07z"/>
			<path d="M148.41,102.07c0.71,0,1.28-0.57,1.28-1.28c0-0.71-0.57-1.28-1.28-1.28c-0.71,0-1.28,0.57-1.28,1.28
				C147.13,101.49,147.7,102.07,148.41,102.07z"/>
			<path d="M162.81,102.07c0.71,0,1.28-0.57,1.28-1.28c0-0.71-0.57-1.28-1.28-1.28c-0.71,0-1.28,0.57-1.28,1.28
				C161.53,101.49,162.1,102.07,162.81,102.07z"/>
			<path d="M177.21,102.07c0.71,0,1.28-0.57,1.28-1.28c0-0.71-0.57-1.28-1.28-1.28s-1.28,0.57-1.28,1.28
				C175.93,101.49,176.5,102.07,177.21,102.07z"/>
			<path d="M191.61,102.07c0.71,0,1.28-0.57,1.28-1.28c0-0.71-0.57-1.28-1.28-1.28c-0.71,0-1.28,0.57-1.28,1.28
				C190.33,101.49,190.9,102.07,191.61,102.07z"/>
			<path d="M206.01,102.07c0.71,0,1.28-0.57,1.28-1.28c0-0.71-0.57-1.28-1.28-1.28c-0.71,0-1.28,0.57-1.28,1.28
				C204.73,101.49,205.3,102.07,206.01,102.07z"/>
			<path d="M220.41,102.07c0.71,0,1.28-0.57,1.28-1.28c0-0.71-0.57-1.28-1.28-1.28c-0.71,0-1.28,0.57-1.28,1.28
				C219.13,101.49,219.7,102.07,220.41,102.07z"/>
			<path d="M234.81,102.07c0.71,0,1.28-0.57,1.28-1.28c0-0.71-0.57-1.28-1.28-1.28c-0.71,0-1.28,0.57-1.28,1.28
				C233.53,101.49,234.1,102.07,234.81,102.07z"/>
			<path d="M249.21,102.07c0.71,0,1.28-0.57,1.28-1.28c0-0.71-0.57-1.28-1.28-1.28s-1.28,0.57-1.28,1.28
				C247.93,101.49,248.5,102.07,249.21,102.07z"/>
			<path d="M263.61,102.07c0.71,0,1.28-0.57,1.28-1.28c0-0.71-0.57-1.28-1.28-1.28c-0.71,0-1.28,0.57-1.28,1.28
				C262.33,101.49,262.9,102.07,263.61,102.07z"/>
			<path d="M278.01,102.07c0.71,0,1.28-0.57,1.28-1.28c0-0.71-0.57-1.28-1.28-1.28c-0.71,0-1.28,0.57-1.28,1.28
				C276.73,101.49,277.3,102.07,278.01,102.07z"/>
			<path d="M292.41,102.07c0.71,0,1.28-0.57,1.28-1.28c0-0.71-0.57-1.28-1.28-1.28c-0.71,0-1.28,0.57-1.28,1.28
				C291.13,101.49,291.7,102.07,292.41,102.07z"/>
			<path d="M-17.19,116.47c0.71,0,1.28-0.57,1.28-1.28c0-0.71-0.57-1.28-1.28-1.28c-0.71,0-1.28,0.57-1.28,1.28
				C-18.47,115.89-17.9,116.47-17.19,116.47z"/>
			<path d="M-2.79,116.47c0.71,0,1.28-0.57,1.28-1.28c0-0.71-0.57-1.28-1.28-1.28s-1.28,0.57-1.28,1.28
				C-4.07,115.89-3.5,116.47-2.79,116.47z"/>
			<path d="M11.61,116.47c0.71,0,1.28-0.57,1.28-1.28c0-0.71-0.57-1.28-1.28-1.28c-0.71,0-1.28,0.57-1.28,1.28
				C10.33,115.89,10.9,116.47,11.61,116.47z"/>
			<path d="M26.01,116.47c0.71,0,1.28-0.57,1.28-1.28c0-0.71-0.57-1.28-1.28-1.28c-0.71,0-1.28,0.57-1.28,1.28
				C24.73,115.89,25.3,116.47,26.01,116.47z"/>
			<path d="M40.41,116.47c0.71,0,1.28-0.57,1.28-1.28c0-0.71-0.57-1.28-1.28-1.28c-0.71,0-1.28,0.57-1.28,1.28
				C39.13,115.89,39.7,116.47,40.41,116.47z"/>
			<path d="M54.81,116.47c0.71,0,1.28-0.57,1.28-1.28c0-0.71-0.57-1.28-1.28-1.28c-0.71,0-1.28,0.57-1.28,1.28
				C53.53,115.89,54.1,116.47,54.81,116.47z"/>
			<path d="M69.21,116.47c0.71,0,1.28-0.57,1.28-1.28c0-0.71-0.57-1.28-1.28-1.28s-1.28,0.57-1.28,1.28
				C67.93,115.89,68.5,116.47,69.21,116.47z"/>
			<path d="M83.61,116.47c0.71,0,1.28-0.57,1.28-1.28c0-0.71-0.57-1.28-1.28-1.28c-0.71,0-1.28,0.57-1.28,1.28
				C82.33,115.89,82.9,116.47,83.61,116.47z"/>
			<path d="M98.01,116.47c0.71,0,1.28-0.57,1.28-1.28c0-0.71-0.57-1.28-1.28-1.28c-0.71,0-1.28,0.57-1.28,1.28
				C96.73,115.89,97.3,116.47,98.01,116.47z"/>
			<path d="M112.41,116.47c0.71,0,1.28-0.57,1.28-1.28c0-0.71-0.57-1.28-1.28-1.28c-0.71,0-1.28,0.57-1.28,1.28
				C111.13,115.89,111.7,116.47,112.41,116.47z"/>
			<path d="M126.81,116.47c0.71,0,1.28-0.57,1.28-1.28c0-0.71-0.57-1.28-1.28-1.28c-0.71,0-1.28,0.57-1.28,1.28
				C125.53,115.89,126.1,116.47,126.81,116.47z"/>
			<path d="M141.21,116.47c0.71,0,1.28-0.57,1.28-1.28c0-0.71-0.57-1.28-1.28-1.28s-1.28,0.57-1.28,1.28
				C139.93,115.89,140.5,116.47,141.21,116.47z"/>
			<path d="M155.61,116.47c0.71,0,1.28-0.57,1.28-1.28c0-0.71-0.57-1.28-1.28-1.28c-0.71,0-1.28,0.57-1.28,1.28
				C154.33,115.89,154.9,116.47,155.61,116.47z"/>
			<path d="M170.01,116.47c0.71,0,1.28-0.57,1.28-1.28c0-0.71-0.57-1.28-1.28-1.28c-0.71,0-1.28,0.57-1.28,1.28
				C168.73,115.89,169.3,116.47,170.01,116.47z"/>
			<path d="M184.41,116.47c0.71,0,1.28-0.57,1.28-1.28c0-0.71-0.57-1.28-1.28-1.28c-0.71,0-1.28,0.57-1.28,1.28
				C183.13,115.89,183.7,116.47,184.41,116.47z"/>
			<path d="M198.81,116.47c0.71,0,1.28-0.57,1.28-1.28c0-0.71-0.57-1.28-1.28-1.28c-0.71,0-1.28,0.57-1.28,1.28
				C197.53,115.89,198.1,116.47,198.81,116.47z"/>
			<path d="M213.21,116.47c0.71,0,1.28-0.57,1.28-1.28c0-0.71-0.57-1.28-1.28-1.28s-1.28,0.57-1.28,1.28
				C211.93,115.89,212.5,116.47,213.21,116.47z"/>
			<path d="M227.61,116.47c0.71,0,1.28-0.57,1.28-1.28c0-0.71-0.57-1.28-1.28-1.28c-0.71,0-1.28,0.57-1.28,1.28
				C226.33,115.89,226.9,116.47,227.61,116.47z"/>
			<path d="M242.01,116.47c0.71,0,1.28-0.57,1.28-1.28c0-0.71-0.57-1.28-1.28-1.28c-0.71,0-1.28,0.57-1.28,1.28
				C240.73,115.89,241.3,116.47,242.01,116.47z"/>
			<path d="M256.41,116.47c0.71,0,1.28-0.57,1.28-1.28c0-0.71-0.57-1.28-1.28-1.28c-0.71,0-1.28,0.57-1.28,1.28
				C255.13,115.89,255.7,116.47,256.41,116.47z"/>
			<path d="M270.81,116.47c0.71,0,1.28-0.57,1.28-1.28c0-0.71-0.57-1.28-1.28-1.28c-0.71,0-1.28,0.57-1.28,1.28
				C269.53,115.89,270.1,116.47,270.81,116.47z"/>
			<path d="M285.21,116.47c0.71,0,1.28-0.57,1.28-1.28c0-0.71-0.57-1.28-1.28-1.28c-0.71,0-1.28,0.57-1.28,1.28
				C283.93,115.89,284.5,116.47,285.21,116.47z"/>
			<path d="M-9.99,130.87c0.71,0,1.28-0.57,1.28-1.28s-0.57-1.28-1.28-1.28c-0.71,0-1.28,0.57-1.28,1.28S-10.7,130.87-9.99,130.87z"
				/>
			<path d="M4.41,130.87c0.71,0,1.28-0.57,1.28-1.28s-0.57-1.28-1.28-1.28c-0.71,0-1.28,0.57-1.28,1.28S3.7,130.87,4.41,130.87z"/>
			<path d="M18.81,130.87c0.71,0,1.28-0.57,1.28-1.28s-0.57-1.28-1.28-1.28c-0.71,0-1.28,0.57-1.28,1.28S18.1,130.87,18.81,130.87z"
				/>
			<circle cx="33.21" cy="129.59" r="1.28"/>
			<path d="M47.61,130.87c0.71,0,1.28-0.57,1.28-1.28s-0.57-1.28-1.28-1.28c-0.71,0-1.28,0.57-1.28,1.28S46.9,130.87,47.61,130.87z"
				/>
			<path d="M62.01,130.87c0.71,0,1.28-0.57,1.28-1.28s-0.57-1.28-1.28-1.28c-0.71,0-1.28,0.57-1.28,1.28S61.3,130.87,62.01,130.87z"
				/>
			<path d="M76.41,130.87c0.71,0,1.28-0.57,1.28-1.28s-0.57-1.28-1.28-1.28c-0.71,0-1.28,0.57-1.28,1.28S75.7,130.87,76.41,130.87z"
				/>
			<path d="M90.81,130.87c0.71,0,1.28-0.57,1.28-1.28s-0.57-1.28-1.28-1.28c-0.71,0-1.28,0.57-1.28,1.28S90.1,130.87,90.81,130.87z"
				/>
			<circle cx="105.21" cy="129.59" r="1.28"/>
			<path d="M119.61,130.87c0.71,0,1.28-0.57,1.28-1.28s-0.57-1.28-1.28-1.28c-0.71,0-1.28,0.57-1.28,1.28
				S118.9,130.87,119.61,130.87z"/>
			<path d="M134.01,130.87c0.71,0,1.28-0.57,1.28-1.28s-0.57-1.28-1.28-1.28c-0.71,0-1.28,0.57-1.28,1.28
				S133.3,130.87,134.01,130.87z"/>
			<path d="M148.41,130.87c0.71,0,1.28-0.57,1.28-1.28s-0.57-1.28-1.28-1.28c-0.71,0-1.28,0.57-1.28,1.28
				S147.7,130.87,148.41,130.87z"/>
			<path d="M162.81,130.87c0.71,0,1.28-0.57,1.28-1.28s-0.57-1.28-1.28-1.28c-0.71,0-1.28,0.57-1.28,1.28
				S162.1,130.87,162.81,130.87z"/>
			<circle cx="177.21" cy="129.59" r="1.28"/>
			<path d="M191.61,130.87c0.71,0,1.28-0.57,1.28-1.28s-0.57-1.28-1.28-1.28c-0.71,0-1.28,0.57-1.28,1.28
				S190.9,130.87,191.61,130.87z"/>
			<path d="M206.01,130.87c0.71,0,1.28-0.57,1.28-1.28s-0.57-1.28-1.28-1.28c-0.71,0-1.28,0.57-1.28,1.28
				S205.3,130.87,206.01,130.87z"/>
			<path d="M220.41,130.87c0.71,0,1.28-0.57,1.28-1.28s-0.57-1.28-1.28-1.28c-0.71,0-1.28,0.57-1.28,1.28
				S219.7,130.87,220.41,130.87z"/>
			<path d="M234.81,130.87c0.71,0,1.28-0.57,1.28-1.28s-0.57-1.28-1.28-1.28c-0.71,0-1.28,0.57-1.28,1.28
				S234.1,130.87,234.81,130.87z"/>
			<circle cx="249.21" cy="129.59" r="1.28"/>
			<path d="M263.61,130.87c0.71,0,1.28-0.57,1.28-1.28s-0.57-1.28-1.28-1.28c-0.71,0-1.28,0.57-1.28,1.28
				S262.9,130.87,263.61,130.87z"/>
			<path d="M278.01,130.87c0.71,0,1.28-0.57,1.28-1.28s-0.57-1.28-1.28-1.28c-0.71,0-1.28,0.57-1.28,1.28
				S277.3,130.87,278.01,130.87z"/>
			<path d="M292.41,130.87c0.71,0,1.28-0.57,1.28-1.28s-0.57-1.28-1.28-1.28c-0.71,0-1.28,0.57-1.28,1.28
				S291.7,130.87,292.41,130.87z"/>
			<path d="M-17.19,145.27c0.71,0,1.28-0.57,1.28-1.28s-0.57-1.28-1.28-1.28c-0.71,0-1.28,0.57-1.28,1.28S-17.9,145.27-17.19,145.27
				z"/>
			<circle cx="-2.79" cy="143.99" r="1.28"/>
			<path d="M11.61,145.27c0.71,0,1.28-0.57,1.28-1.28s-0.57-1.28-1.28-1.28c-0.71,0-1.28,0.57-1.28,1.28S10.9,145.27,11.61,145.27z"
				/>
			<path d="M26.01,145.27c0.71,0,1.28-0.57,1.28-1.28s-0.57-1.28-1.28-1.28c-0.71,0-1.28,0.57-1.28,1.28S25.3,145.27,26.01,145.27z"
				/>
			<path d="M40.41,145.27c0.71,0,1.28-0.57,1.28-1.28s-0.57-1.28-1.28-1.28c-0.71,0-1.28,0.57-1.28,1.28S39.7,145.27,40.41,145.27z"
				/>
			<path d="M54.81,145.27c0.71,0,1.28-0.57,1.28-1.28s-0.57-1.28-1.28-1.28c-0.71,0-1.28,0.57-1.28,1.28S54.1,145.27,54.81,145.27z"
				/>
			<circle cx="69.21" cy="143.99" r="1.28"/>
			<path d="M83.61,145.27c0.71,0,1.28-0.57,1.28-1.28s-0.57-1.28-1.28-1.28c-0.71,0-1.28,0.57-1.28,1.28S82.9,145.27,83.61,145.27z"
				/>
			<path d="M98.01,145.27c0.71,0,1.28-0.57,1.28-1.28s-0.57-1.28-1.28-1.28c-0.71,0-1.28,0.57-1.28,1.28S97.3,145.27,98.01,145.27z"
				/>
			<path d="M112.41,145.27c0.71,0,1.28-0.57,1.28-1.28s-0.57-1.28-1.28-1.28c-0.71,0-1.28,0.57-1.28,1.28
				S111.7,145.27,112.41,145.27z"/>
			<path d="M126.81,145.27c0.71,0,1.28-0.57,1.28-1.28s-0.57-1.28-1.28-1.28c-0.71,0-1.28,0.57-1.28,1.28
				S126.1,145.27,126.81,145.27z"/>
			<circle cx="141.21" cy="143.99" r="1.28"/>
			<path d="M155.61,145.27c0.71,0,1.28-0.57,1.28-1.28s-0.57-1.28-1.28-1.28c-0.71,0-1.28,0.57-1.28,1.28
				S154.9,145.27,155.61,145.27z"/>
			<path d="M170.01,145.27c0.71,0,1.28-0.57,1.28-1.28s-0.57-1.28-1.28-1.28c-0.71,0-1.28,0.57-1.28,1.28
				S169.3,145.27,170.01,145.27z"/>
			<path d="M184.41,145.27c0.71,0,1.28-0.57,1.28-1.28s-0.57-1.28-1.28-1.28c-0.71,0-1.28,0.57-1.28,1.28
				S183.7,145.27,184.41,145.27z"/>
			<path d="M198.81,145.27c0.71,0,1.28-0.57,1.28-1.28s-0.57-1.28-1.28-1.28c-0.71,0-1.28,0.57-1.28,1.28
				S198.1,145.27,198.81,145.27z"/>
			<circle cx="213.21" cy="143.99" r="1.28"/>
			<path d="M227.61,145.27c0.71,0,1.28-0.57,1.28-1.28s-0.57-1.28-1.28-1.28c-0.71,0-1.28,0.57-1.28,1.28
				S226.9,145.27,227.61,145.27z"/>
			<path d="M242.01,145.27c0.71,0,1.28-0.57,1.28-1.28s-0.57-1.28-1.28-1.28c-0.71,0-1.28,0.57-1.28,1.28
				S241.3,145.27,242.01,145.27z"/>
			<path d="M256.41,145.27c0.71,0,1.28-0.57,1.28-1.28s-0.57-1.28-1.28-1.28c-0.71,0-1.28,0.57-1.28,1.28
				S255.7,145.27,256.41,145.27z"/>
			<path d="M270.81,145.27c0.71,0,1.28-0.57,1.28-1.28s-0.57-1.28-1.28-1.28c-0.71,0-1.28,0.57-1.28,1.28
				S270.1,145.27,270.81,145.27z"/>
			<circle cx="285.21" cy="143.99" r="1.28"/>
			<path d="M-9.99,159.67c0.71,0,1.28-0.57,1.28-1.28c0-0.71-0.57-1.28-1.28-1.28c-0.71,0-1.28,0.57-1.28,1.28
				C-11.27,159.09-10.7,159.67-9.99,159.67z"/>
			<path d="M4.41,159.67c0.71,0,1.28-0.57,1.28-1.28c0-0.71-0.57-1.28-1.28-1.28c-0.71,0-1.28,0.57-1.28,1.28
				C3.13,159.09,3.7,159.67,4.41,159.67z"/>
			<path d="M18.81,159.67c0.71,0,1.28-0.57,1.28-1.28c0-0.71-0.57-1.28-1.28-1.28c-0.71,0-1.28,0.57-1.28,1.28
				C17.53,159.09,18.1,159.67,18.81,159.67z"/>
			<path d="M33.21,159.67c0.71,0,1.28-0.57,1.28-1.28c0-0.71-0.57-1.28-1.28-1.28s-1.28,0.57-1.28,1.28
				C31.93,159.09,32.5,159.67,33.21,159.67z"/>
			<path d="M47.61,159.67c0.71,0,1.28-0.57,1.28-1.28c0-0.71-0.57-1.28-1.28-1.28c-0.71,0-1.28,0.57-1.28,1.28
				C46.33,159.09,46.9,159.67,47.61,159.67z"/>
			<path d="M62.01,159.67c0.71,0,1.28-0.57,1.28-1.28c0-0.71-0.57-1.28-1.28-1.28c-0.71,0-1.28,0.57-1.28,1.28
				C60.73,159.09,61.3,159.67,62.01,159.67z"/>
			<path d="M76.41,159.67c0.71,0,1.28-0.57,1.28-1.28c0-0.71-0.57-1.28-1.28-1.28c-0.71,0-1.28,0.57-1.28,1.28
				C75.13,159.09,75.7,159.67,76.41,159.67z"/>
			<path d="M90.81,159.67c0.71,0,1.28-0.57,1.28-1.28c0-0.71-0.57-1.28-1.28-1.28c-0.71,0-1.28,0.57-1.28,1.28
				C89.53,159.09,90.1,159.67,90.81,159.67z"/>
			<path d="M105.21,159.67c0.71,0,1.28-0.57,1.28-1.28c0-0.71-0.57-1.28-1.28-1.28s-1.28,0.57-1.28,1.28
				C103.93,159.09,104.5,159.67,105.21,159.67z"/>
			<path d="M119.61,159.67c0.71,0,1.28-0.57,1.28-1.28c0-0.71-0.57-1.28-1.28-1.28c-0.71,0-1.28,0.57-1.28,1.28
				C118.33,159.09,118.9,159.67,119.61,159.67z"/>
			<path d="M134.01,159.67c0.71,0,1.28-0.57,1.28-1.28c0-0.71-0.57-1.28-1.28-1.28c-0.71,0-1.28,0.57-1.28,1.28
				C132.73,159.09,133.3,159.67,134.01,159.67z"/>
			<path d="M148.41,159.67c0.71,0,1.28-0.57,1.28-1.28c0-0.71-0.57-1.28-1.28-1.28c-0.71,0-1.28,0.57-1.28,1.28
				C147.13,159.09,147.7,159.67,148.41,159.67z"/>
			<path d="M162.81,159.67c0.71,0,1.28-0.57,1.28-1.28c0-0.71-0.57-1.28-1.28-1.28c-0.71,0-1.28,0.57-1.28,1.28
				C161.53,159.09,162.1,159.67,162.81,159.67z"/>
			<path d="M177.21,159.67c0.71,0,1.28-0.57,1.28-1.28c0-0.71-0.57-1.28-1.28-1.28s-1.28,0.57-1.28,1.28
				C175.93,159.09,176.5,159.67,177.21,159.67z"/>
			<path d="M191.61,159.67c0.71,0,1.28-0.57,1.28-1.28c0-0.71-0.57-1.28-1.28-1.28c-0.71,0-1.28,0.57-1.28,1.28
				C190.33,159.09,190.9,159.67,191.61,159.67z"/>
			<path d="M206.01,159.67c0.71,0,1.28-0.57,1.28-1.28c0-0.71-0.57-1.28-1.28-1.28c-0.71,0-1.28,0.57-1.28,1.28
				C204.73,159.09,205.3,159.67,206.01,159.67z"/>
			<path d="M220.41,159.67c0.71,0,1.28-0.57,1.28-1.28c0-0.71-0.57-1.28-1.28-1.28c-0.71,0-1.28,0.57-1.28,1.28
				C219.13,159.09,219.7,159.67,220.41,159.67z"/>
			<path d="M234.81,159.67c0.71,0,1.28-0.57,1.28-1.28c0-0.71-0.57-1.28-1.28-1.28c-0.71,0-1.28,0.57-1.28,1.28
				C233.53,159.09,234.1,159.67,234.81,159.67z"/>
			<path d="M249.21,159.67c0.71,0,1.28-0.57,1.28-1.28c0-0.71-0.57-1.28-1.28-1.28s-1.28,0.57-1.28,1.28
				C247.93,159.09,248.5,159.67,249.21,159.67z"/>
			<path d="M263.61,159.67c0.71,0,1.28-0.57,1.28-1.28c0-0.71-0.57-1.28-1.28-1.28c-0.71,0-1.28,0.57-1.28,1.28
				C262.33,159.09,262.9,159.67,263.61,159.67z"/>
			<path d="M278.01,159.67c0.71,0,1.28-0.57,1.28-1.28c0-0.71-0.57-1.28-1.28-1.28c-0.71,0-1.28,0.57-1.28,1.28
				C276.73,159.09,277.3,159.67,278.01,159.67z"/>
			<path d="M292.41,159.67c0.71,0,1.28-0.57,1.28-1.28c0-0.71-0.57-1.28-1.28-1.28c-0.71,0-1.28,0.57-1.28,1.28
				C291.13,159.09,291.7,159.67,292.41,159.67z"/>
			<path d="M-17.19,174.07c0.71,0,1.28-0.57,1.28-1.28c0-0.71-0.57-1.28-1.28-1.28c-0.71,0-1.28,0.57-1.28,1.28
				C-18.47,173.49-17.9,174.07-17.19,174.07z"/>
			<path d="M-2.79,174.07c0.71,0,1.28-0.57,1.28-1.28c0-0.71-0.57-1.28-1.28-1.28s-1.28,0.57-1.28,1.28
				C-4.07,173.49-3.5,174.07-2.79,174.07z"/>
			<path d="M11.61,174.07c0.71,0,1.28-0.57,1.28-1.28c0-0.71-0.57-1.28-1.28-1.28c-0.71,0-1.28,0.57-1.28,1.28
				C10.33,173.49,10.9,174.07,11.61,174.07z"/>
			<path d="M26.01,174.07c0.71,0,1.28-0.57,1.28-1.28c0-0.71-0.57-1.28-1.28-1.28c-0.71,0-1.28,0.57-1.28,1.28
				C24.73,173.49,25.3,174.07,26.01,174.07z"/>
			<path d="M40.41,174.07c0.71,0,1.28-0.57,1.28-1.28c0-0.71-0.57-1.28-1.28-1.28c-0.71,0-1.28,0.57-1.28,1.28
				C39.13,173.49,39.7,174.07,40.41,174.07z"/>
			<path d="M54.81,174.07c0.71,0,1.28-0.57,1.28-1.28c0-0.71-0.57-1.28-1.28-1.28c-0.71,0-1.28,0.57-1.28,1.28
				C53.53,173.49,54.1,174.07,54.81,174.07z"/>
			<path d="M69.21,174.07c0.71,0,1.28-0.57,1.28-1.28c0-0.71-0.57-1.28-1.28-1.28s-1.28,0.57-1.28,1.28
				C67.93,173.49,68.5,174.07,69.21,174.07z"/>
			<path d="M83.61,174.07c0.71,0,1.28-0.57,1.28-1.28c0-0.71-0.57-1.28-1.28-1.28c-0.71,0-1.28,0.57-1.28,1.28
				C82.33,173.49,82.9,174.07,83.61,174.07z"/>
			<path d="M98.01,174.07c0.71,0,1.28-0.57,1.28-1.28c0-0.71-0.57-1.28-1.28-1.28c-0.71,0-1.28,0.57-1.28,1.28
				C96.73,173.49,97.3,174.07,98.01,174.07z"/>
			<path d="M112.41,174.07c0.71,0,1.28-0.57,1.28-1.28c0-0.71-0.57-1.28-1.28-1.28c-0.71,0-1.28,0.57-1.28,1.28
				C111.13,173.49,111.7,174.07,112.41,174.07z"/>
			<path d="M126.81,174.07c0.71,0,1.28-0.57,1.28-1.28c0-0.71-0.57-1.28-1.28-1.28c-0.71,0-1.28,0.57-1.28,1.28
				C125.53,173.49,126.1,174.07,126.81,174.07z"/>
			<path d="M141.21,174.07c0.71,0,1.28-0.57,1.28-1.28c0-0.71-0.57-1.28-1.28-1.28s-1.28,0.57-1.28,1.28
				C139.93,173.49,140.5,174.07,141.21,174.07z"/>
			<path d="M155.61,174.07c0.71,0,1.28-0.57,1.28-1.28c0-0.71-0.57-1.28-1.28-1.28c-0.71,0-1.28,0.57-1.28,1.28
				C154.33,173.49,154.9,174.07,155.61,174.07z"/>
			<path d="M170.01,174.07c0.71,0,1.28-0.57,1.28-1.28c0-0.71-0.57-1.28-1.28-1.28c-0.71,0-1.28,0.57-1.28,1.28
				C168.73,173.49,169.3,174.07,170.01,174.07z"/>
			<path d="M184.41,174.07c0.71,0,1.28-0.57,1.28-1.28c0-0.71-0.57-1.28-1.28-1.28c-0.71,0-1.28,0.57-1.28,1.28
				C183.13,173.49,183.7,174.07,184.41,174.07z"/>
			<path d="M198.81,174.07c0.71,0,1.28-0.57,1.28-1.28c0-0.71-0.57-1.28-1.28-1.28c-0.71,0-1.28,0.57-1.28,1.28
				C197.53,173.49,198.1,174.07,198.81,174.07z"/>
			<path d="M213.21,174.07c0.71,0,1.28-0.57,1.28-1.28c0-0.71-0.57-1.28-1.28-1.28s-1.28,0.57-1.28,1.28
				C211.93,173.49,212.5,174.07,213.21,174.07z"/>
			<path d="M227.61,174.07c0.71,0,1.28-0.57,1.28-1.28c0-0.71-0.57-1.28-1.28-1.28c-0.71,0-1.28,0.57-1.28,1.28
				C226.33,173.49,226.9,174.07,227.61,174.07z"/>
			<path d="M242.01,174.07c0.71,0,1.28-0.57,1.28-1.28c0-0.71-0.57-1.28-1.28-1.28c-0.71,0-1.28,0.57-1.28,1.28
				C240.73,173.49,241.3,174.07,242.01,174.07z"/>
			<path d="M256.41,174.07c0.71,0,1.28-0.57,1.28-1.28c0-0.71-0.57-1.28-1.28-1.28c-0.71,0-1.28,0.57-1.28,1.28
				C255.13,173.49,255.7,174.07,256.41,174.07z"/>
			<path d="M270.81,174.07c0.71,0,1.28-0.57,1.28-1.28c0-0.71-0.57-1.28-1.28-1.28c-0.71,0-1.28,0.57-1.28,1.28
				C269.53,173.49,270.1,174.07,270.81,174.07z"/>
			<path d="M285.21,174.07c0.71,0,1.28-0.57,1.28-1.28c0-0.71-0.57-1.28-1.28-1.28c-0.71,0-1.28,0.57-1.28,1.28
				C283.93,173.49,284.5,174.07,285.21,174.07z"/>
			<path d="M-9.99,188.47c0.71,0,1.28-0.57,1.28-1.28c0-0.71-0.57-1.28-1.28-1.28c-0.71,0-1.28,0.57-1.28,1.28
				C-11.27,187.89-10.7,188.47-9.99,188.47z"/>
			<path d="M4.41,188.47c0.71,0,1.28-0.57,1.28-1.28c0-0.71-0.57-1.28-1.28-1.28c-0.71,0-1.28,0.57-1.28,1.28
				C3.13,187.89,3.7,188.47,4.41,188.47z"/>
			<path d="M18.81,188.47c0.71,0,1.28-0.57,1.28-1.28c0-0.71-0.57-1.28-1.28-1.28c-0.71,0-1.28,0.57-1.28,1.28
				C17.53,187.89,18.1,188.47,18.81,188.47z"/>
			<path d="M33.21,188.47c0.71,0,1.28-0.57,1.28-1.28c0-0.71-0.57-1.28-1.28-1.28s-1.28,0.57-1.28,1.28
				C31.93,187.89,32.5,188.47,33.21,188.47z"/>
			<path d="M47.61,188.47c0.71,0,1.28-0.57,1.28-1.28c0-0.71-0.57-1.28-1.28-1.28c-0.71,0-1.28,0.57-1.28,1.28
				C46.33,187.89,46.9,188.47,47.61,188.47z"/>
			<path d="M62.01,188.47c0.71,0,1.28-0.57,1.28-1.28c0-0.71-0.57-1.28-1.28-1.28c-0.71,0-1.28,0.57-1.28,1.28
				C60.73,187.89,61.3,188.47,62.01,188.47z"/>
			<path d="M76.41,188.47c0.71,0,1.28-0.57,1.28-1.28c0-0.71-0.57-1.28-1.28-1.28c-0.71,0-1.28,0.57-1.28,1.28
				C75.13,187.89,75.7,188.47,76.41,188.47z"/>
			<path d="M90.81,188.47c0.71,0,1.28-0.57,1.28-1.28c0-0.71-0.57-1.28-1.28-1.28c-0.71,0-1.28,0.57-1.28,1.28
				C89.53,187.89,90.1,188.47,90.81,188.47z"/>
			<path d="M105.21,188.47c0.71,0,1.28-0.57,1.28-1.28c0-0.71-0.57-1.28-1.28-1.28s-1.28,0.57-1.28,1.28
				C103.93,187.89,104.5,188.47,105.21,188.47z"/>
			<path d="M119.61,188.47c0.71,0,1.28-0.57,1.28-1.28c0-0.71-0.57-1.28-1.28-1.28c-0.71,0-1.28,0.57-1.28,1.28
				C118.33,187.89,118.9,188.47,119.61,188.47z"/>
			<path d="M134.01,188.47c0.71,0,1.28-0.57,1.28-1.28c0-0.71-0.57-1.28-1.28-1.28c-0.71,0-1.28,0.57-1.28,1.28
				C132.73,187.89,133.3,188.47,134.01,188.47z"/>
			<path d="M148.41,188.47c0.71,0,1.28-0.57,1.28-1.28c0-0.71-0.57-1.28-1.28-1.28c-0.71,0-1.28,0.57-1.28,1.28
				C147.13,187.89,147.7,188.47,148.41,188.47z"/>
			<path d="M162.81,188.47c0.71,0,1.28-0.57,1.28-1.28c0-0.71-0.57-1.28-1.28-1.28c-0.71,0-1.28,0.57-1.28,1.28
				C161.53,187.89,162.1,188.47,162.81,188.47z"/>
			<path d="M177.21,188.47c0.71,0,1.28-0.57,1.28-1.28c0-0.71-0.57-1.28-1.28-1.28s-1.28,0.57-1.28,1.28
				C175.93,187.89,176.5,188.47,177.21,188.47z"/>
			<path d="M191.61,188.47c0.71,0,1.28-0.57,1.28-1.28c0-0.71-0.57-1.28-1.28-1.28c-0.71,0-1.28,0.57-1.28,1.28
				C190.33,187.89,190.9,188.47,191.61,188.47z"/>
			<path d="M206.01,188.47c0.71,0,1.28-0.57,1.28-1.28c0-0.71-0.57-1.28-1.28-1.28c-0.71,0-1.28,0.57-1.28,1.28
				C204.73,187.89,205.3,188.47,206.01,188.47z"/>
			<path d="M220.41,188.47c0.71,0,1.28-0.57,1.28-1.28c0-0.71-0.57-1.28-1.28-1.28c-0.71,0-1.28,0.57-1.28,1.28
				C219.13,187.89,219.7,188.47,220.41,188.47z"/>
			<path d="M234.81,188.47c0.71,0,1.28-0.57,1.28-1.28c0-0.71-0.57-1.28-1.28-1.28c-0.71,0-1.28,0.57-1.28,1.28
				C233.53,187.89,234.1,188.47,234.81,188.47z"/>
			<path d="M249.21,188.47c0.71,0,1.28-0.57,1.28-1.28c0-0.71-0.57-1.28-1.28-1.28s-1.28,0.57-1.28,1.28
				C247.93,187.89,248.5,188.47,249.21,188.47z"/>
			<path d="M263.61,188.47c0.71,0,1.28-0.57,1.28-1.28c0-0.71-0.57-1.28-1.28-1.28c-0.71,0-1.28,0.57-1.28,1.28
				C262.33,187.89,262.9,188.47,263.61,188.47z"/>
			<path d="M278.01,188.47c0.71,0,1.28-0.57,1.28-1.28c0-0.71-0.57-1.28-1.28-1.28c-0.71,0-1.28,0.57-1.28,1.28
				C276.73,187.89,277.3,188.47,278.01,188.47z"/>
			<path d="M292.41,188.47c0.71,0,1.28-0.57,1.28-1.28c0-0.71-0.57-1.28-1.28-1.28c-0.71,0-1.28,0.57-1.28,1.28
				C291.13,187.89,291.7,188.47,292.41,188.47z"/>
			<path d="M-17.19,202.87c0.71,0,1.28-0.57,1.28-1.28s-0.57-1.28-1.28-1.28c-0.71,0-1.28,0.57-1.28,1.28S-17.9,202.87-17.19,202.87
				z"/>
			<circle cx="-2.79" cy="201.59" r="1.28"/>
			<path d="M11.61,202.87c0.71,0,1.28-0.57,1.28-1.28s-0.57-1.28-1.28-1.28c-0.71,0-1.28,0.57-1.28,1.28S10.9,202.87,11.61,202.87z"
				/>
			<path d="M26.01,202.87c0.71,0,1.28-0.57,1.28-1.28s-0.57-1.28-1.28-1.28c-0.71,0-1.28,0.57-1.28,1.28S25.3,202.87,26.01,202.87z"
				/>
			<path d="M40.41,202.87c0.71,0,1.28-0.57,1.28-1.28s-0.57-1.28-1.28-1.28c-0.71,0-1.28,0.57-1.28,1.28S39.7,202.87,40.41,202.87z"
				/>
			<path d="M54.81,202.87c0.71,0,1.28-0.57,1.28-1.28s-0.57-1.28-1.28-1.28c-0.71,0-1.28,0.57-1.28,1.28S54.1,202.87,54.81,202.87z"
				/>
			<circle cx="69.21" cy="201.59" r="1.28"/>
			<path d="M83.61,202.87c0.71,0,1.28-0.57,1.28-1.28s-0.57-1.28-1.28-1.28c-0.71,0-1.28,0.57-1.28,1.28S82.9,202.87,83.61,202.87z"
				/>
			<path d="M98.01,202.87c0.71,0,1.28-0.57,1.28-1.28s-0.57-1.28-1.28-1.28c-0.71,0-1.28,0.57-1.28,1.28S97.3,202.87,98.01,202.87z"
				/>
			<path d="M112.41,202.87c0.71,0,1.28-0.57,1.28-1.28s-0.57-1.28-1.28-1.28c-0.71,0-1.28,0.57-1.28,1.28
				S111.7,202.87,112.41,202.87z"/>
			<path d="M126.81,202.87c0.71,0,1.28-0.57,1.28-1.28s-0.57-1.28-1.28-1.28c-0.71,0-1.28,0.57-1.28,1.28
				S126.1,202.87,126.81,202.87z"/>
			<circle cx="141.21" cy="201.59" r="1.28"/>
			<path d="M155.61,202.87c0.71,0,1.28-0.57,1.28-1.28s-0.57-1.28-1.28-1.28c-0.71,0-1.28,0.57-1.28,1.28
				S154.9,202.87,155.61,202.87z"/>
			<path d="M170.01,202.87c0.71,0,1.28-0.57,1.28-1.28s-0.57-1.28-1.28-1.28c-0.71,0-1.28,0.57-1.28,1.28
				S169.3,202.87,170.01,202.87z"/>
			<path d="M184.41,202.87c0.71,0,1.28-0.57,1.28-1.28s-0.57-1.28-1.28-1.28c-0.71,0-1.28,0.57-1.28,1.28
				S183.7,202.87,184.41,202.87z"/>
			<path d="M198.81,202.87c0.71,0,1.28-0.57,1.28-1.28s-0.57-1.28-1.28-1.28c-0.71,0-1.28,0.57-1.28,1.28
				S198.1,202.87,198.81,202.87z"/>
			<circle cx="213.21" cy="201.59" r="1.28"/>
			<path d="M227.61,202.87c0.71,0,1.28-0.57,1.28-1.28s-0.57-1.28-1.28-1.28c-0.71,0-1.28,0.57-1.28,1.28
				S226.9,202.87,227.61,202.87z"/>
			<path d="M242.01,202.87c0.71,0,1.28-0.57,1.28-1.28s-0.57-1.28-1.28-1.28c-0.71,0-1.28,0.57-1.28,1.28
				S241.3,202.87,242.01,202.87z"/>
			<path d="M256.41,202.87c0.71,0,1.28-0.57,1.28-1.28s-0.57-1.28-1.28-1.28c-0.71,0-1.28,0.57-1.28,1.28
				S255.7,202.87,256.41,202.87z"/>
			<path d="M270.81,202.87c0.71,0,1.28-0.57,1.28-1.28s-0.57-1.28-1.28-1.28c-0.71,0-1.28,0.57-1.28,1.28
				S270.1,202.87,270.81,202.87z"/>
			<circle cx="285.21" cy="201.59" r="1.28"/>
			<path d="M-9.99,217.27c0.71,0,1.28-0.57,1.28-1.28s-0.57-1.28-1.28-1.28c-0.71,0-1.28,0.57-1.28,1.28S-10.7,217.27-9.99,217.27z"
				/>
			<path d="M4.41,217.27c0.71,0,1.28-0.57,1.28-1.28s-0.57-1.28-1.28-1.28c-0.71,0-1.28,0.57-1.28,1.28S3.7,217.27,4.41,217.27z"/>
			<path d="M18.81,217.27c0.71,0,1.28-0.57,1.28-1.28s-0.57-1.28-1.28-1.28c-0.71,0-1.28,0.57-1.28,1.28S18.1,217.27,18.81,217.27z"
				/>
			<circle cx="33.21" cy="215.99" r="1.28"/>
			<path d="M47.61,217.27c0.71,0,1.28-0.57,1.28-1.28s-0.57-1.28-1.28-1.28c-0.71,0-1.28,0.57-1.28,1.28S46.9,217.27,47.61,217.27z"
				/>
			<path d="M62.01,217.27c0.71,0,1.28-0.57,1.28-1.28s-0.57-1.28-1.28-1.28c-0.71,0-1.28,0.57-1.28,1.28S61.3,217.27,62.01,217.27z"
				/>
			<path d="M76.41,217.27c0.71,0,1.28-0.57,1.28-1.28s-0.57-1.28-1.28-1.28c-0.71,0-1.28,0.57-1.28,1.28S75.7,217.27,76.41,217.27z"
				/>
			<path d="M90.81,217.27c0.71,0,1.28-0.57,1.28-1.28s-0.57-1.28-1.28-1.28c-0.71,0-1.28,0.57-1.28,1.28S90.1,217.27,90.81,217.27z"
				/>
			<circle cx="105.21" cy="215.99" r="1.28"/>
			<path d="M119.61,217.27c0.71,0,1.28-0.57,1.28-1.28s-0.57-1.28-1.28-1.28c-0.71,0-1.28,0.57-1.28,1.28
				S118.9,217.27,119.61,217.27z"/>
			<path d="M134.01,217.27c0.71,0,1.28-0.57,1.28-1.28s-0.57-1.28-1.28-1.28c-0.71,0-1.28,0.57-1.28,1.28
				S133.3,217.27,134.01,217.27z"/>
			<path d="M148.41,217.27c0.71,0,1.28-0.57,1.28-1.28s-0.57-1.28-1.28-1.28c-0.71,0-1.28,0.57-1.28,1.28
				S147.7,217.27,148.41,217.27z"/>
			<path d="M162.81,217.27c0.71,0,1.28-0.57,1.28-1.28s-0.57-1.28-1.28-1.28c-0.71,0-1.28,0.57-1.28,1.28
				S162.1,217.27,162.81,217.27z"/>
			<circle cx="177.21" cy="215.99" r="1.28"/>
			<path d="M191.61,217.27c0.71,0,1.28-0.57,1.28-1.28s-0.57-1.28-1.28-1.28c-0.71,0-1.28,0.57-1.28,1.28
				S190.9,217.27,191.61,217.27z"/>
			<path d="M206.01,217.27c0.71,0,1.28-0.57,1.28-1.28s-0.57-1.28-1.28-1.28c-0.71,0-1.28,0.57-1.28,1.28
				S205.3,217.27,206.01,217.27z"/>
			<path d="M220.41,217.27c0.71,0,1.28-0.57,1.28-1.28s-0.57-1.28-1.28-1.28c-0.71,0-1.28,0.57-1.28,1.28
				S219.7,217.27,220.41,217.27z"/>
			<path d="M234.81,217.27c0.71,0,1.28-0.57,1.28-1.28s-0.57-1.28-1.28-1.28c-0.71,0-1.28,0.57-1.28,1.28
				S234.1,217.27,234.81,217.27z"/>
			<circle cx="249.21" cy="215.99" r="1.28"/>
			<path d="M263.61,217.27c0.71,0,1.28-0.57,1.28-1.28s-0.57-1.28-1.28-1.28c-0.71,0-1.28,0.57-1.28,1.28
				S262.9,217.27,263.61,217.27z"/>
			<path d="M278.01,217.27c0.71,0,1.28-0.57,1.28-1.28s-0.57-1.28-1.28-1.28c-0.71,0-1.28,0.57-1.28,1.28
				S277.3,217.27,278.01,217.27z"/>
			<path d="M292.41,217.27c0.71,0,1.28-0.57,1.28-1.28s-0.57-1.28-1.28-1.28c-0.71,0-1.28,0.57-1.28,1.28
				S291.7,217.27,292.41,217.27z"/>
			<path d="M-17.19,231.67c0.71,0,1.28-0.57,1.28-1.28c0-0.71-0.57-1.28-1.28-1.28c-0.71,0-1.28,0.57-1.28,1.28
				C-18.47,231.09-17.9,231.67-17.19,231.67z"/>
			<path d="M-2.79,231.67c0.71,0,1.28-0.57,1.28-1.28c0-0.71-0.57-1.28-1.28-1.28s-1.28,0.57-1.28,1.28
				C-4.07,231.09-3.5,231.67-2.79,231.67z"/>
			<path d="M11.61,231.67c0.71,0,1.28-0.57,1.28-1.28c0-0.71-0.57-1.28-1.28-1.28c-0.71,0-1.28,0.57-1.28,1.28
				C10.33,231.09,10.9,231.67,11.61,231.67z"/>
			<path d="M26.01,231.67c0.71,0,1.28-0.57,1.28-1.28c0-0.71-0.57-1.28-1.28-1.28c-0.71,0-1.28,0.57-1.28,1.28
				C24.73,231.09,25.3,231.67,26.01,231.67z"/>
			<path d="M40.41,231.67c0.71,0,1.28-0.57,1.28-1.28c0-0.71-0.57-1.28-1.28-1.28c-0.71,0-1.28,0.57-1.28,1.28
				C39.13,231.09,39.7,231.67,40.41,231.67z"/>
			<path d="M54.81,231.67c0.71,0,1.28-0.57,1.28-1.28c0-0.71-0.57-1.28-1.28-1.28c-0.71,0-1.28,0.57-1.28,1.28
				C53.53,231.09,54.1,231.67,54.81,231.67z"/>
			<path d="M69.21,231.67c0.71,0,1.28-0.57,1.28-1.28c0-0.71-0.57-1.28-1.28-1.28s-1.28,0.57-1.28,1.28
				C67.93,231.09,68.5,231.67,69.21,231.67z"/>
			<path d="M83.61,231.67c0.71,0,1.28-0.57,1.28-1.28c0-0.71-0.57-1.28-1.28-1.28c-0.71,0-1.28,0.57-1.28,1.28
				C82.33,231.09,82.9,231.67,83.61,231.67z"/>
			<path d="M98.01,231.67c0.71,0,1.28-0.57,1.28-1.28c0-0.71-0.57-1.28-1.28-1.28c-0.71,0-1.28,0.57-1.28,1.28
				C96.73,231.09,97.3,231.67,98.01,231.67z"/>
			<path d="M112.41,231.67c0.71,0,1.28-0.57,1.28-1.28c0-0.71-0.57-1.28-1.28-1.28c-0.71,0-1.28,0.57-1.28,1.28
				C111.13,231.09,111.7,231.67,112.41,231.67z"/>
			<path d="M126.81,231.67c0.71,0,1.28-0.57,1.28-1.28c0-0.71-0.57-1.28-1.28-1.28c-0.71,0-1.28,0.57-1.28,1.28
				C125.53,231.09,126.1,231.67,126.81,231.67z"/>
			<path d="M141.21,231.67c0.71,0,1.28-0.57,1.28-1.28c0-0.71-0.57-1.28-1.28-1.28s-1.28,0.57-1.28,1.28
				C139.93,231.09,140.5,231.67,141.21,231.67z"/>
			<path d="M155.61,231.67c0.71,0,1.28-0.57,1.28-1.28c0-0.71-0.57-1.28-1.28-1.28c-0.71,0-1.28,0.57-1.28,1.28
				C154.33,231.09,154.9,231.67,155.61,231.67z"/>
			<path d="M170.01,231.67c0.71,0,1.28-0.57,1.28-1.28c0-0.71-0.57-1.28-1.28-1.28c-0.71,0-1.28,0.57-1.28,1.28
				C168.73,231.09,169.3,231.67,170.01,231.67z"/>
			<path d="M184.41,231.67c0.71,0,1.28-0.57,1.28-1.28c0-0.71-0.57-1.28-1.28-1.28c-0.71,0-1.28,0.57-1.28,1.28
				C183.13,231.09,183.7,231.67,184.41,231.67z"/>
			<path d="M198.81,231.67c0.71,0,1.28-0.57,1.28-1.28c0-0.71-0.57-1.28-1.28-1.28c-0.71,0-1.28,0.57-1.28,1.28
				C197.53,231.09,198.1,231.67,198.81,231.67z"/>
			<path d="M213.21,231.67c0.71,0,1.28-0.57,1.28-1.28c0-0.71-0.57-1.28-1.28-1.28s-1.28,0.57-1.28,1.28
				C211.93,231.09,212.5,231.67,213.21,231.67z"/>
			<path d="M227.61,231.67c0.71,0,1.28-0.57,1.28-1.28c0-0.71-0.57-1.28-1.28-1.28c-0.71,0-1.28,0.57-1.28,1.28
				C226.33,231.09,226.9,231.67,227.61,231.67z"/>
			<path d="M242.01,231.67c0.71,0,1.28-0.57,1.28-1.28c0-0.71-0.57-1.28-1.28-1.28c-0.71,0-1.28,0.57-1.28,1.28
				C240.73,231.09,241.3,231.67,242.01,231.67z"/>
			<path d="M256.41,231.67c0.71,0,1.28-0.57,1.28-1.28c0-0.71-0.57-1.28-1.28-1.28c-0.71,0-1.28,0.57-1.28,1.28
				C255.13,231.09,255.7,231.67,256.41,231.67z"/>
			<path d="M270.81,231.67c0.71,0,1.28-0.57,1.28-1.28c0-0.71-0.57-1.28-1.28-1.28c-0.71,0-1.28,0.57-1.28,1.28
				C269.53,231.09,270.1,231.67,270.81,231.67z"/>
			<path d="M285.21,231.67c0.71,0,1.28-0.57,1.28-1.28c0-0.71-0.57-1.28-1.28-1.28c-0.71,0-1.28,0.57-1.28,1.28
				C283.93,231.09,284.5,231.67,285.21,231.67z"/>
			<path d="M-9.99,246.07c0.71,0,1.28-0.57,1.28-1.28c0-0.71-0.57-1.28-1.28-1.28c-0.71,0-1.28,0.57-1.28,1.28
				C-11.27,245.49-10.7,246.07-9.99,246.07z"/>
			<path d="M4.41,246.07c0.71,0,1.28-0.57,1.28-1.28c0-0.71-0.57-1.28-1.28-1.28c-0.71,0-1.28,0.57-1.28,1.28
				C3.13,245.49,3.7,246.07,4.41,246.07z"/>
			<path d="M18.81,246.07c0.71,0,1.28-0.57,1.28-1.28c0-0.71-0.57-1.28-1.28-1.28c-0.71,0-1.28,0.57-1.28,1.28
				C17.53,245.49,18.1,246.07,18.81,246.07z"/>
			<path d="M33.21,246.07c0.71,0,1.28-0.57,1.28-1.28c0-0.71-0.57-1.28-1.28-1.28s-1.28,0.57-1.28,1.28
				C31.93,245.49,32.5,246.07,33.21,246.07z"/>
			<path d="M47.61,246.07c0.71,0,1.28-0.57,1.28-1.28c0-0.71-0.57-1.28-1.28-1.28c-0.71,0-1.28,0.57-1.28,1.28
				C46.33,245.49,46.9,246.07,47.61,246.07z"/>
			<path d="M62.01,246.07c0.71,0,1.28-0.57,1.28-1.28c0-0.71-0.57-1.28-1.28-1.28c-0.71,0-1.28,0.57-1.28,1.28
				C60.73,245.49,61.3,246.07,62.01,246.07z"/>
			<path d="M76.41,246.07c0.71,0,1.28-0.57,1.28-1.28c0-0.71-0.57-1.28-1.28-1.28c-0.71,0-1.28,0.57-1.28,1.28
				C75.13,245.49,75.7,246.07,76.41,246.07z"/>
			<path d="M90.81,246.07c0.71,0,1.28-0.57,1.28-1.28c0-0.71-0.57-1.28-1.28-1.28c-0.71,0-1.28,0.57-1.28,1.28
				C89.53,245.49,90.1,246.07,90.81,246.07z"/>
			<path d="M105.21,246.07c0.71,0,1.28-0.57,1.28-1.28c0-0.71-0.57-1.28-1.28-1.28s-1.28,0.57-1.28,1.28
				C103.93,245.49,104.5,246.07,105.21,246.07z"/>
			<path d="M119.61,246.07c0.71,0,1.28-0.57,1.28-1.28c0-0.71-0.57-1.28-1.28-1.28c-0.71,0-1.28,0.57-1.28,1.28
				C118.33,245.49,118.9,246.07,119.61,246.07z"/>
			<path d="M134.01,246.07c0.71,0,1.28-0.57,1.28-1.28c0-0.71-0.57-1.28-1.28-1.28c-0.71,0-1.28,0.57-1.28,1.28
				C132.73,245.49,133.3,246.07,134.01,246.07z"/>
			<path d="M148.41,246.07c0.71,0,1.28-0.57,1.28-1.28c0-0.71-0.57-1.28-1.28-1.28c-0.71,0-1.28,0.57-1.28,1.28
				C147.13,245.49,147.7,246.07,148.41,246.07z"/>
			<path d="M162.81,246.07c0.71,0,1.28-0.57,1.28-1.28c0-0.71-0.57-1.28-1.28-1.28c-0.71,0-1.28,0.57-1.28,1.28
				C161.53,245.49,162.1,246.07,162.81,246.07z"/>
			<path d="M177.21,246.07c0.71,0,1.28-0.57,1.28-1.28c0-0.71-0.57-1.28-1.28-1.28s-1.28,0.57-1.28,1.28
				C175.93,245.49,176.5,246.07,177.21,246.07z"/>
			<path d="M191.61,246.07c0.71,0,1.28-0.57,1.28-1.28c0-0.71-0.57-1.28-1.28-1.28c-0.71,0-1.28,0.57-1.28,1.28
				C190.33,245.49,190.9,246.07,191.61,246.07z"/>
			<path d="M206.01,246.07c0.71,0,1.28-0.57,1.28-1.28c0-0.71-0.57-1.28-1.28-1.28c-0.71,0-1.28,0.57-1.28,1.28
				C204.73,245.49,205.3,246.07,206.01,246.07z"/>
			<path d="M220.41,246.07c0.71,0,1.28-0.57,1.28-1.28c0-0.71-0.57-1.28-1.28-1.28c-0.71,0-1.28,0.57-1.28,1.28
				C219.13,245.49,219.7,246.07,220.41,246.07z"/>
			<path d="M234.81,246.07c0.71,0,1.28-0.57,1.28-1.28c0-0.71-0.57-1.28-1.28-1.28c-0.71,0-1.28,0.57-1.28,1.28
				C233.53,245.49,234.1,246.07,234.81,246.07z"/>
			<path d="M249.21,246.07c0.71,0,1.28-0.57,1.28-1.28c0-0.71-0.57-1.28-1.28-1.28s-1.28,0.57-1.28,1.28
				C247.93,245.49,248.5,246.07,249.21,246.07z"/>
			<path d="M263.61,246.07c0.71,0,1.28-0.57,1.28-1.28c0-0.71-0.57-1.28-1.28-1.28c-0.71,0-1.28,0.57-1.28,1.28
				C262.33,245.49,262.9,246.07,263.61,246.07z"/>
			<path d="M278.01,246.07c0.71,0,1.28-0.57,1.28-1.28c0-0.71-0.57-1.28-1.28-1.28c-0.71,0-1.28,0.57-1.28,1.28
				C276.73,245.49,277.3,246.07,278.01,246.07z"/>
			<path d="M292.41,246.07c0.71,0,1.28-0.57,1.28-1.28c0-0.71-0.57-1.28-1.28-1.28c-0.71,0-1.28,0.57-1.28,1.28
				C291.13,245.49,291.7,246.07,292.41,246.07z"/>
			<path d="M-17.19,260.47c0.71,0,1.28-0.57,1.28-1.28c0-0.71-0.57-1.28-1.28-1.28c-0.71,0-1.28,0.57-1.28,1.28
				C-18.47,259.89-17.9,260.47-17.19,260.47z"/>
			<path d="M-2.79,260.47c0.71,0,1.28-0.57,1.28-1.28c0-0.71-0.57-1.28-1.28-1.28s-1.28,0.57-1.28,1.28
				C-4.07,259.89-3.5,260.47-2.79,260.47z"/>
			<path d="M11.61,260.47c0.71,0,1.28-0.57,1.28-1.28c0-0.71-0.57-1.28-1.28-1.28c-0.71,0-1.28,0.57-1.28,1.28
				C10.33,259.89,10.9,260.47,11.61,260.47z"/>
			<path d="M26.01,260.47c0.71,0,1.28-0.57,1.28-1.28c0-0.71-0.57-1.28-1.28-1.28c-0.71,0-1.28,0.57-1.28,1.28
				C24.73,259.89,25.3,260.47,26.01,260.47z"/>
			<path d="M40.41,260.47c0.71,0,1.28-0.57,1.28-1.28c0-0.71-0.57-1.28-1.28-1.28c-0.71,0-1.28,0.57-1.28,1.28
				C39.13,259.89,39.7,260.47,40.41,260.47z"/>
			<path d="M54.81,260.47c0.71,0,1.28-0.57,1.28-1.28c0-0.71-0.57-1.28-1.28-1.28c-0.71,0-1.28,0.57-1.28,1.28
				C53.53,259.89,54.1,260.47,54.81,260.47z"/>
			<path d="M69.21,260.47c0.71,0,1.28-0.57,1.28-1.28c0-0.71-0.57-1.28-1.28-1.28s-1.28,0.57-1.28,1.28
				C67.93,259.89,68.5,260.47,69.21,260.47z"/>
			<path d="M83.61,260.47c0.71,0,1.28-0.57,1.28-1.28c0-0.71-0.57-1.28-1.28-1.28c-0.71,0-1.28,0.57-1.28,1.28
				C82.33,259.89,82.9,260.47,83.61,260.47z"/>
			<path d="M98.01,260.47c0.71,0,1.28-0.57,1.28-1.28c0-0.71-0.57-1.28-1.28-1.28c-0.71,0-1.28,0.57-1.28,1.28
				C96.73,259.89,97.3,260.47,98.01,260.47z"/>
			<path d="M112.41,260.47c0.71,0,1.28-0.57,1.28-1.28c0-0.71-0.57-1.28-1.28-1.28c-0.71,0-1.28,0.57-1.28,1.28
				C111.13,259.89,111.7,260.47,112.41,260.47z"/>
			<path d="M126.81,260.47c0.71,0,1.28-0.57,1.28-1.28c0-0.71-0.57-1.28-1.28-1.28c-0.71,0-1.28,0.57-1.28,1.28
				C125.53,259.89,126.1,260.47,126.81,260.47z"/>
			<path d="M141.21,260.47c0.71,0,1.28-0.57,1.28-1.28c0-0.71-0.57-1.28-1.28-1.28s-1.28,0.57-1.28,1.28
				C139.93,259.89,140.5,260.47,141.21,260.47z"/>
			<path d="M155.61,260.47c0.71,0,1.28-0.57,1.28-1.28c0-0.71-0.57-1.28-1.28-1.28c-0.71,0-1.28,0.57-1.28,1.28
				C154.33,259.89,154.9,260.47,155.61,260.47z"/>
			<path d="M170.01,260.47c0.71,0,1.28-0.57,1.28-1.28c0-0.71-0.57-1.28-1.28-1.28c-0.71,0-1.28,0.57-1.28,1.28
				C168.73,259.89,169.3,260.47,170.01,260.47z"/>
			<path d="M184.41,260.47c0.71,0,1.28-0.57,1.28-1.28c0-0.71-0.57-1.28-1.28-1.28c-0.71,0-1.28,0.57-1.28,1.28
				C183.13,259.89,183.7,260.47,184.41,260.47z"/>
			<path d="M198.81,260.47c0.71,0,1.28-0.57,1.28-1.28c0-0.71-0.57-1.28-1.28-1.28c-0.71,0-1.28,0.57-1.28,1.28
				C197.53,259.89,198.1,260.47,198.81,260.47z"/>
			<path d="M213.21,260.47c0.71,0,1.28-0.57,1.28-1.28c0-0.71-0.57-1.28-1.28-1.28s-1.28,0.57-1.28,1.28
				C211.93,259.89,212.5,260.47,213.21,260.47z"/>
			<path d="M227.61,260.47c0.71,0,1.28-0.57,1.28-1.28c0-0.71-0.57-1.28-1.28-1.28c-0.71,0-1.28,0.57-1.28,1.28
				C226.33,259.89,226.9,260.47,227.61,260.47z"/>
			<path d="M242.01,260.47c0.71,0,1.28-0.57,1.28-1.28c0-0.71-0.57-1.28-1.28-1.28c-0.71,0-1.28,0.57-1.28,1.28
				C240.73,259.89,241.3,260.47,242.01,260.47z"/>
			<path d="M256.41,260.47c0.71,0,1.28-0.57,1.28-1.28c0-0.71-0.57-1.28-1.28-1.28c-0.71,0-1.28,0.57-1.28,1.28
				C255.13,259.89,255.7,260.47,256.41,260.47z"/>
			<path d="M270.81,260.47c0.71,0,1.28-0.57,1.28-1.28c0-0.71-0.57-1.28-1.28-1.28c-0.71,0-1.28,0.57-1.28,1.28
				C269.53,259.89,270.1,260.47,270.81,260.47z"/>
			<path d="M285.21,260.47c0.71,0,1.28-0.57,1.28-1.28c0-0.71-0.57-1.28-1.28-1.28c-0.71,0-1.28,0.57-1.28,1.28
				C283.93,259.89,284.5,260.47,285.21,260.47z"/>
			<path d="M-9.99,274.87c0.71,0,1.28-0.57,1.28-1.28s-0.57-1.28-1.28-1.28c-0.71,0-1.28,0.57-1.28,1.28S-10.7,274.87-9.99,274.87z"
				/>
			<path d="M4.41,274.87c0.71,0,1.28-0.57,1.28-1.28s-0.57-1.28-1.28-1.28c-0.71,0-1.28,0.57-1.28,1.28S3.7,274.87,4.41,274.87z"/>
			<path d="M18.81,274.87c0.71,0,1.28-0.57,1.28-1.28s-0.57-1.28-1.28-1.28c-0.71,0-1.28,0.57-1.28,1.28S18.1,274.87,18.81,274.87z"
				/>
			<circle cx="33.21" cy="273.59" r="1.28"/>
			<path d="M47.61,274.87c0.71,0,1.28-0.57,1.28-1.28s-0.57-1.28-1.28-1.28c-0.71,0-1.28,0.57-1.28,1.28S46.9,274.87,47.61,274.87z"
				/>
			<path d="M62.01,274.87c0.71,0,1.28-0.57,1.28-1.28s-0.57-1.28-1.28-1.28c-0.71,0-1.28,0.57-1.28,1.28S61.3,274.87,62.01,274.87z"
				/>
			<path d="M76.41,274.87c0.71,0,1.28-0.57,1.28-1.28s-0.57-1.28-1.28-1.28c-0.71,0-1.28,0.57-1.28,1.28S75.7,274.87,76.41,274.87z"
				/>
			<path d="M90.81,274.87c0.71,0,1.28-0.57,1.28-1.28s-0.57-1.28-1.28-1.28c-0.71,0-1.28,0.57-1.28,1.28S90.1,274.87,90.81,274.87z"
				/>
			<circle cx="105.21" cy="273.59" r="1.28"/>
			<path d="M119.61,274.87c0.71,0,1.28-0.57,1.28-1.28s-0.57-1.28-1.28-1.28c-0.71,0-1.28,0.57-1.28,1.28
				S118.9,274.87,119.61,274.87z"/>
			<path d="M134.01,274.87c0.71,0,1.28-0.57,1.28-1.28s-0.57-1.28-1.28-1.28c-0.71,0-1.28,0.57-1.28,1.28
				S133.3,274.87,134.01,274.87z"/>
			<path d="M148.41,274.87c0.71,0,1.28-0.57,1.28-1.28s-0.57-1.28-1.28-1.28c-0.71,0-1.28,0.57-1.28,1.28
				S147.7,274.87,148.41,274.87z"/>
			<path d="M162.81,274.87c0.71,0,1.28-0.57,1.28-1.28s-0.57-1.28-1.28-1.28c-0.71,0-1.28,0.57-1.28,1.28
				S162.1,274.87,162.81,274.87z"/>
			<circle cx="177.21" cy="273.59" r="1.28"/>
			<path d="M191.61,274.87c0.71,0,1.28-0.57,1.28-1.28s-0.57-1.28-1.28-1.28c-0.71,0-1.28,0.57-1.28,1.28
				S190.9,274.87,191.61,274.87z"/>
			<path d="M206.01,274.87c0.71,0,1.28-0.57,1.28-1.28s-0.57-1.28-1.28-1.28c-0.71,0-1.28,0.57-1.28,1.28
				S205.3,274.87,206.01,274.87z"/>
			<path d="M220.41,274.87c0.71,0,1.28-0.57,1.28-1.28s-0.57-1.28-1.28-1.28c-0.71,0-1.28,0.57-1.28,1.28
				S219.7,274.87,220.41,274.87z"/>
			<path d="M234.81,274.87c0.71,0,1.28-0.57,1.28-1.28s-0.57-1.28-1.28-1.28c-0.71,0-1.28,0.57-1.28,1.28
				S234.1,274.87,234.81,274.87z"/>
			<circle cx="249.21" cy="273.59" r="1.28"/>
			<path d="M263.61,274.87c0.71,0,1.28-0.57,1.28-1.28s-0.57-1.28-1.28-1.28c-0.71,0-1.28,0.57-1.28,1.28
				S262.9,274.87,263.61,274.87z"/>
			<path d="M278.01,274.87c0.71,0,1.28-0.57,1.28-1.28s-0.57-1.28-1.28-1.28c-0.71,0-1.28,0.57-1.28,1.28
				S277.3,274.87,278.01,274.87z"/>
			<path d="M292.41,274.87c0.71,0,1.28-0.57,1.28-1.28s-0.57-1.28-1.28-1.28c-0.71,0-1.28,0.57-1.28,1.28
				S291.7,274.87,292.41,274.87z"/>
			<path d="M-17.19,289.27c0.71,0,1.28-0.57,1.28-1.28s-0.57-1.28-1.28-1.28c-0.71,0-1.28,0.57-1.28,1.28S-17.9,289.27-17.19,289.27
				z"/>
			<circle cx="-2.79" cy="287.99" r="1.28"/>
			<path d="M11.61,289.27c0.71,0,1.28-0.57,1.28-1.28s-0.57-1.28-1.28-1.28c-0.71,0-1.28,0.57-1.28,1.28S10.9,289.27,11.61,289.27z"
				/>
			<path d="M26.01,289.27c0.71,0,1.28-0.57,1.28-1.28s-0.57-1.28-1.28-1.28c-0.71,0-1.28,0.57-1.28,1.28S25.3,289.27,26.01,289.27z"
				/>
			<path d="M40.41,289.27c0.71,0,1.28-0.57,1.28-1.28s-0.57-1.28-1.28-1.28c-0.71,0-1.28,0.57-1.28,1.28S39.7,289.27,40.41,289.27z"
				/>
			<path d="M54.81,289.27c0.71,0,1.28-0.57,1.28-1.28s-0.57-1.28-1.28-1.28c-0.71,0-1.28,0.57-1.28,1.28S54.1,289.27,54.81,289.27z"
				/>
			<circle cx="69.21" cy="287.99" r="1.28"/>
			<path d="M83.61,289.27c0.71,0,1.28-0.57,1.28-1.28s-0.57-1.28-1.28-1.28c-0.71,0-1.28,0.57-1.28,1.28S82.9,289.27,83.61,289.27z"
				/>
			<path d="M98.01,289.27c0.71,0,1.28-0.57,1.28-1.28s-0.57-1.28-1.28-1.28c-0.71,0-1.28,0.57-1.28,1.28S97.3,289.27,98.01,289.27z"
				/>
			<path d="M112.41,289.27c0.71,0,1.28-0.57,1.28-1.28s-0.57-1.28-1.28-1.28c-0.71,0-1.28,0.57-1.28,1.28
				S111.7,289.27,112.41,289.27z"/>
			<path d="M126.81,289.27c0.71,0,1.28-0.57,1.28-1.28s-0.57-1.28-1.28-1.28c-0.71,0-1.28,0.57-1.28,1.28
				S126.1,289.27,126.81,289.27z"/>
			<circle cx="141.21" cy="287.99" r="1.28"/>
			<path d="M155.61,289.27c0.71,0,1.28-0.57,1.28-1.28s-0.57-1.28-1.28-1.28c-0.71,0-1.28,0.57-1.28,1.28
				S154.9,289.27,155.61,289.27z"/>
			<path d="M170.01,289.27c0.71,0,1.28-0.57,1.28-1.28s-0.57-1.28-1.28-1.28c-0.71,0-1.28,0.57-1.28,1.28
				S169.3,289.27,170.01,289.27z"/>
			<path d="M184.41,289.27c0.71,0,1.28-0.57,1.28-1.28s-0.57-1.28-1.28-1.28c-0.71,0-1.28,0.57-1.28,1.28
				S183.7,289.27,184.41,289.27z"/>
			<path d="M198.81,289.27c0.71,0,1.28-0.57,1.28-1.28s-0.57-1.28-1.28-1.28c-0.71,0-1.28,0.57-1.28,1.28
				S198.1,289.27,198.81,289.27z"/>
			<circle cx="213.21" cy="287.99" r="1.28"/>
			<path d="M227.61,289.27c0.71,0,1.28-0.57,1.28-1.28s-0.57-1.28-1.28-1.28c-0.71,0-1.28,0.57-1.28,1.28
				S226.9,289.27,227.61,289.27z"/>
			<path d="M242.01,289.27c0.71,0,1.28-0.57,1.28-1.28s-0.57-1.28-1.28-1.28c-0.71,0-1.28,0.57-1.28,1.28
				S241.3,289.27,242.01,289.27z"/>
			<path d="M256.41,289.27c0.71,0,1.28-0.57,1.28-1.28s-0.57-1.28-1.28-1.28c-0.71,0-1.28,0.57-1.28,1.28
				S255.7,289.27,256.41,289.27z"/>
			<path d="M270.81,289.27c0.71,0,1.28-0.57,1.28-1.28s-0.57-1.28-1.28-1.28c-0.71,0-1.28,0.57-1.28,1.28
				S270.1,289.27,270.81,289.27z"/>
			<circle cx="285.21" cy="287.99" r="1.28"/>
		</g>
	</g>
</g>
</svg>
