<?xml version="1.0" encoding="utf-8"?>
<!-- Generator: Adobe Illustrator 23.0.1, SVG Export Plug-In . SVG Version: 6.00 Build 0)  -->
<svg version="1.1" id="Layer_1" xmlns="http://www.w3.org/2000/svg" xmlns:xlink="http://www.w3.org/1999/xlink" x="0px" y="0px"
	 viewBox="0 0 284.6 269.3" style="enable-background:new 0 0 284.6 269.3;" xml:space="preserve">
<style type="text/css">
	.st0{fill:rgba(15, 67, 114, 0.5);}
</style>
<g>
	<g>
		<g>
			<path class="st0" d="M280.4,6.7c0.7,0,1.3-0.6,1.3-1.3s-0.6-1.3-1.3-1.3s-1.3,0.6-1.3,1.3C279.1,6.1,279.7,6.7,280.4,6.7z"/>
			<path class="st0" d="M280.2,21.1c0.7,0,1.3-0.6,1.3-1.3c0-0.7-0.6-1.3-1.3-1.3s-1.3,0.6-1.3,1.3
				C278.9,20.5,279.5,21.1,280.2,21.1z"/>
			<path class="st0" d="M280.4,35.5c0.7,0,1.3-0.6,1.3-1.3s-0.6-1.3-1.3-1.3s-1.3,0.6-1.3,1.3C279.1,34.9,279.7,35.5,280.4,35.5z"/>
			<circle class="st0" cx="280.2" cy="48.6" r="1.3"/>
			<path class="st0" d="M280.4,64.3c0.7,0,1.3-0.6,1.3-1.3s-0.6-1.3-1.3-1.3s-1.3,0.6-1.3,1.3S279.7,64.3,280.4,64.3z"/>
			<path class="st0" d="M280.2,78.7c0.7,0,1.3-0.6,1.3-1.3s-0.6-1.3-1.3-1.3s-1.3,0.6-1.3,1.3C278.9,78.1,279.5,78.7,280.2,78.7z"/>
			<path class="st0" d="M280.4,93.1c0.7,0,1.3-0.6,1.3-1.3s-0.6-1.3-1.3-1.3s-1.3,0.6-1.3,1.3C279.1,92.5,279.7,93.1,280.4,93.1z"/>
			<path class="st0" d="M280.2,107.5c0.7,0,1.3-0.6,1.3-1.3s-0.6-1.3-1.3-1.3s-1.3,0.6-1.3,1.3C278.9,106.9,279.5,107.5,280.2,107.5
				z"/>
			<path class="st0" d="M280.4,121.9c0.7,0,1.3-0.6,1.3-1.3s-0.6-1.3-1.3-1.3s-1.3,0.6-1.3,1.3S279.7,121.9,280.4,121.9z"/>
			<circle class="st0" cx="280.2" cy="135" r="1.3"/>
			<path class="st0" d="M280.4,150.7c0.7,0,1.3-0.6,1.3-1.3c0-0.7-0.6-1.3-1.3-1.3s-1.3,0.6-1.3,1.3
				C279.1,150.1,279.7,150.7,280.4,150.7z"/>
			<path class="st0" d="M280.2,165.1c0.7,0,1.3-0.6,1.3-1.3c0-0.7-0.6-1.3-1.3-1.3s-1.3,0.6-1.3,1.3
				C278.9,164.5,279.5,165.1,280.2,165.1z"/>
			<path class="st0" d="M280.4,179.5c0.7,0,1.3-0.6,1.3-1.3c0-0.7-0.6-1.3-1.3-1.3s-1.3,0.6-1.3,1.3
				C279.1,178.9,279.7,179.5,280.4,179.5z"/>
			<circle class="st0" cx="280.2" cy="192.6" r="1.3"/>
			<path class="st0" d="M280.4,208.3c0.7,0,1.3-0.6,1.3-1.3s-0.6-1.3-1.3-1.3s-1.3,0.6-1.3,1.3S279.7,208.3,280.4,208.3z"/>
			<path class="st0" d="M280.2,222.7c0.7,0,1.3-0.6,1.3-1.3c0-0.7-0.6-1.3-1.3-1.3s-1.3,0.6-1.3,1.3
				C278.9,222.1,279.5,222.7,280.2,222.7z"/>
			<path class="st0" d="M280.4,237.1c0.7,0,1.3-0.6,1.3-1.3c0-0.7-0.6-1.3-1.3-1.3s-1.3,0.6-1.3,1.3
				C279.1,236.5,279.7,237.1,280.4,237.1z"/>
			<path class="st0" d="M280.2,251.5c0.7,0,1.3-0.6,1.3-1.3s-0.6-1.3-1.3-1.3s-1.3,0.6-1.3,1.3C278.9,250.9,279.5,251.5,280.2,251.5
				z"/>
			<path class="st0" d="M280.4,265.9c0.7,0,1.3-0.6,1.3-1.3s-0.6-1.3-1.3-1.3s-1.3,0.6-1.3,1.3S279.7,265.9,280.4,265.9z"/>
		</g>
		<g>
			<path class="st0" d="M269.4,6.7c0.7,0,1.3-0.6,1.3-1.3s-0.6-1.3-1.3-1.3s-1.3,0.6-1.3,1.3C268.1,6.1,268.7,6.7,269.4,6.7z"/>
			<path class="st0" d="M269.2,21.1c0.7,0,1.3-0.6,1.3-1.3c0-0.7-0.6-1.3-1.3-1.3s-1.3,0.6-1.3,1.3
				C267.9,20.5,268.5,21.1,269.2,21.1z"/>
			<path class="st0" d="M269.4,35.5c0.7,0,1.3-0.6,1.3-1.3s-0.6-1.3-1.3-1.3s-1.3,0.6-1.3,1.3C268.1,34.9,268.7,35.5,269.4,35.5z"/>
			<circle class="st0" cx="269.2" cy="48.6" r="1.3"/>
			<path class="st0" d="M269.4,64.3c0.7,0,1.3-0.6,1.3-1.3s-0.6-1.3-1.3-1.3s-1.3,0.6-1.3,1.3S268.7,64.3,269.4,64.3z"/>
			<path class="st0" d="M269.2,78.7c0.7,0,1.3-0.6,1.3-1.3s-0.6-1.3-1.3-1.3s-1.3,0.6-1.3,1.3C267.9,78.1,268.5,78.7,269.2,78.7z"/>
			<path class="st0" d="M269.4,93.1c0.7,0,1.3-0.6,1.3-1.3s-0.6-1.3-1.3-1.3s-1.3,0.6-1.3,1.3C268.1,92.5,268.7,93.1,269.4,93.1z"/>
			<path class="st0" d="M269.2,107.5c0.7,0,1.3-0.6,1.3-1.3s-0.6-1.3-1.3-1.3s-1.3,0.6-1.3,1.3C267.9,106.9,268.5,107.5,269.2,107.5
				z"/>
			<path class="st0" d="M269.4,121.9c0.7,0,1.3-0.6,1.3-1.3s-0.6-1.3-1.3-1.3s-1.3,0.6-1.3,1.3S268.7,121.9,269.4,121.9z"/>
			<circle class="st0" cx="269.2" cy="135" r="1.3"/>
			<path class="st0" d="M269.4,150.7c0.7,0,1.3-0.6,1.3-1.3c0-0.7-0.6-1.3-1.3-1.3s-1.3,0.6-1.3,1.3
				C268.1,150.1,268.7,150.7,269.4,150.7z"/>
			<path class="st0" d="M269.2,165.1c0.7,0,1.3-0.6,1.3-1.3c0-0.7-0.6-1.3-1.3-1.3s-1.3,0.6-1.3,1.3
				C267.9,164.5,268.5,165.1,269.2,165.1z"/>
			<path class="st0" d="M269.4,179.5c0.7,0,1.3-0.6,1.3-1.3c0-0.7-0.6-1.3-1.3-1.3s-1.3,0.6-1.3,1.3
				C268.1,178.9,268.7,179.5,269.4,179.5z"/>
			<circle class="st0" cx="269.2" cy="192.6" r="1.3"/>
			<path class="st0" d="M269.4,208.3c0.7,0,1.3-0.6,1.3-1.3s-0.6-1.3-1.3-1.3s-1.3,0.6-1.3,1.3S268.7,208.3,269.4,208.3z"/>
			<path class="st0" d="M269.2,222.7c0.7,0,1.3-0.6,1.3-1.3c0-0.7-0.6-1.3-1.3-1.3s-1.3,0.6-1.3,1.3
				C267.9,222.1,268.5,222.7,269.2,222.7z"/>
			<path class="st0" d="M269.4,237.1c0.7,0,1.3-0.6,1.3-1.3c0-0.7-0.6-1.3-1.3-1.3s-1.3,0.6-1.3,1.3
				C268.1,236.5,268.7,237.1,269.4,237.1z"/>
			<path class="st0" d="M269.2,251.5c0.7,0,1.3-0.6,1.3-1.3s-0.6-1.3-1.3-1.3s-1.3,0.6-1.3,1.3C267.9,250.9,268.5,251.5,269.2,251.5
				z"/>
			<path class="st0" d="M269.4,265.9c0.7,0,1.3-0.6,1.3-1.3s-0.6-1.3-1.3-1.3s-1.3,0.6-1.3,1.3S268.7,265.9,269.4,265.9z"/>
		</g>
		<g>
			<path class="st0" d="M258.4,6.7c0.7,0,1.3-0.6,1.3-1.3s-0.6-1.3-1.3-1.3s-1.3,0.6-1.3,1.3C257.1,6.1,257.7,6.7,258.4,6.7z"/>
			<path class="st0" d="M258.2,21.1c0.7,0,1.3-0.6,1.3-1.3c0-0.7-0.6-1.3-1.3-1.3s-1.3,0.6-1.3,1.3
				C256.9,20.5,257.5,21.1,258.2,21.1z"/>
			<path class="st0" d="M258.4,35.5c0.7,0,1.3-0.6,1.3-1.3s-0.6-1.3-1.3-1.3s-1.3,0.6-1.3,1.3C257.1,34.9,257.7,35.5,258.4,35.5z"/>
			<circle class="st0" cx="258.2" cy="48.6" r="1.3"/>
			<path class="st0" d="M258.4,64.3c0.7,0,1.3-0.6,1.3-1.3s-0.6-1.3-1.3-1.3s-1.3,0.6-1.3,1.3S257.7,64.3,258.4,64.3z"/>
			<path class="st0" d="M258.2,78.7c0.7,0,1.3-0.6,1.3-1.3s-0.6-1.3-1.3-1.3s-1.3,0.6-1.3,1.3C256.9,78.1,257.5,78.7,258.2,78.7z"/>
			<path class="st0" d="M258.4,93.1c0.7,0,1.3-0.6,1.3-1.3s-0.6-1.3-1.3-1.3s-1.3,0.6-1.3,1.3C257.1,92.5,257.7,93.1,258.4,93.1z"/>
			<path class="st0" d="M258.2,107.5c0.7,0,1.3-0.6,1.3-1.3s-0.6-1.3-1.3-1.3s-1.3,0.6-1.3,1.3C256.9,106.9,257.5,107.5,258.2,107.5
				z"/>
			<path class="st0" d="M258.4,121.9c0.7,0,1.3-0.6,1.3-1.3s-0.6-1.3-1.3-1.3s-1.3,0.6-1.3,1.3S257.7,121.9,258.4,121.9z"/>
			<circle class="st0" cx="258.2" cy="135" r="1.3"/>
			<path class="st0" d="M258.4,150.7c0.7,0,1.3-0.6,1.3-1.3c0-0.7-0.6-1.3-1.3-1.3s-1.3,0.6-1.3,1.3
				C257.1,150.1,257.7,150.7,258.4,150.7z"/>
			<path class="st0" d="M258.2,165.1c0.7,0,1.3-0.6,1.3-1.3c0-0.7-0.6-1.3-1.3-1.3s-1.3,0.6-1.3,1.3
				C256.9,164.5,257.5,165.1,258.2,165.1z"/>
			<path class="st0" d="M258.4,179.5c0.7,0,1.3-0.6,1.3-1.3c0-0.7-0.6-1.3-1.3-1.3s-1.3,0.6-1.3,1.3
				C257.1,178.9,257.7,179.5,258.4,179.5z"/>
			<circle class="st0" cx="258.2" cy="192.6" r="1.3"/>
			<path class="st0" d="M258.4,208.3c0.7,0,1.3-0.6,1.3-1.3s-0.6-1.3-1.3-1.3s-1.3,0.6-1.3,1.3S257.7,208.3,258.4,208.3z"/>
			<path class="st0" d="M258.2,222.7c0.7,0,1.3-0.6,1.3-1.3c0-0.7-0.6-1.3-1.3-1.3s-1.3,0.6-1.3,1.3
				C256.9,222.1,257.5,222.7,258.2,222.7z"/>
			<path class="st0" d="M258.4,237.1c0.7,0,1.3-0.6,1.3-1.3c0-0.7-0.6-1.3-1.3-1.3s-1.3,0.6-1.3,1.3
				C257.1,236.5,257.7,237.1,258.4,237.1z"/>
			<path class="st0" d="M258.2,251.5c0.7,0,1.3-0.6,1.3-1.3s-0.6-1.3-1.3-1.3s-1.3,0.6-1.3,1.3C256.9,250.9,257.5,251.5,258.2,251.5
				z"/>
			<path class="st0" d="M258.4,265.9c0.7,0,1.3-0.6,1.3-1.3s-0.6-1.3-1.3-1.3s-1.3,0.6-1.3,1.3S257.7,265.9,258.4,265.9z"/>
		</g>
		<g>
			<path class="st0" d="M247.4,6.7c0.7,0,1.3-0.6,1.3-1.3s-0.6-1.3-1.3-1.3s-1.3,0.6-1.3,1.3C246.1,6.1,246.7,6.7,247.4,6.7z"/>
			<path class="st0" d="M247.2,21.1c0.7,0,1.3-0.6,1.3-1.3c0-0.7-0.6-1.3-1.3-1.3s-1.3,0.6-1.3,1.3
				C245.9,20.5,246.5,21.1,247.2,21.1z"/>
			<path class="st0" d="M247.4,35.5c0.7,0,1.3-0.6,1.3-1.3s-0.6-1.3-1.3-1.3s-1.3,0.6-1.3,1.3C246.1,34.9,246.7,35.5,247.4,35.5z"/>
			<circle class="st0" cx="247.2" cy="48.6" r="1.3"/>
			<path class="st0" d="M247.4,64.3c0.7,0,1.3-0.6,1.3-1.3s-0.6-1.3-1.3-1.3s-1.3,0.6-1.3,1.3S246.7,64.3,247.4,64.3z"/>
			<path class="st0" d="M247.2,78.7c0.7,0,1.3-0.6,1.3-1.3s-0.6-1.3-1.3-1.3s-1.3,0.6-1.3,1.3C245.9,78.1,246.5,78.7,247.2,78.7z"/>
			<path class="st0" d="M247.4,93.1c0.7,0,1.3-0.6,1.3-1.3s-0.6-1.3-1.3-1.3s-1.3,0.6-1.3,1.3C246.1,92.5,246.7,93.1,247.4,93.1z"/>
			<path class="st0" d="M247.2,107.5c0.7,0,1.3-0.6,1.3-1.3s-0.6-1.3-1.3-1.3s-1.3,0.6-1.3,1.3C245.9,106.9,246.5,107.5,247.2,107.5
				z"/>
			<path class="st0" d="M247.4,121.9c0.7,0,1.3-0.6,1.3-1.3s-0.6-1.3-1.3-1.3s-1.3,0.6-1.3,1.3S246.7,121.9,247.4,121.9z"/>
			<circle class="st0" cx="247.2" cy="135" r="1.3"/>
			<path class="st0" d="M247.4,150.7c0.7,0,1.3-0.6,1.3-1.3c0-0.7-0.6-1.3-1.3-1.3s-1.3,0.6-1.3,1.3
				C246.1,150.1,246.7,150.7,247.4,150.7z"/>
			<path class="st0" d="M247.2,165.1c0.7,0,1.3-0.6,1.3-1.3c0-0.7-0.6-1.3-1.3-1.3s-1.3,0.6-1.3,1.3
				C245.9,164.5,246.5,165.1,247.2,165.1z"/>
			<path class="st0" d="M247.4,179.5c0.7,0,1.3-0.6,1.3-1.3c0-0.7-0.6-1.3-1.3-1.3s-1.3,0.6-1.3,1.3
				C246.1,178.9,246.7,179.5,247.4,179.5z"/>
			<circle class="st0" cx="247.2" cy="192.6" r="1.3"/>
			<path class="st0" d="M247.4,208.3c0.7,0,1.3-0.6,1.3-1.3s-0.6-1.3-1.3-1.3s-1.3,0.6-1.3,1.3S246.7,208.3,247.4,208.3z"/>
			<path class="st0" d="M247.2,222.7c0.7,0,1.3-0.6,1.3-1.3c0-0.7-0.6-1.3-1.3-1.3s-1.3,0.6-1.3,1.3
				C245.9,222.1,246.5,222.7,247.2,222.7z"/>
			<path class="st0" d="M247.4,237.1c0.7,0,1.3-0.6,1.3-1.3c0-0.7-0.6-1.3-1.3-1.3s-1.3,0.6-1.3,1.3
				C246.1,236.5,246.7,237.1,247.4,237.1z"/>
			<path class="st0" d="M247.2,251.5c0.7,0,1.3-0.6,1.3-1.3s-0.6-1.3-1.3-1.3s-1.3,0.6-1.3,1.3C245.9,250.9,246.5,251.5,247.2,251.5
				z"/>
			<path class="st0" d="M247.4,265.9c0.7,0,1.3-0.6,1.3-1.3s-0.6-1.3-1.3-1.3s-1.3,0.6-1.3,1.3S246.7,265.9,247.4,265.9z"/>
		</g>
		<g>
			<path class="st0" d="M236.4,6.7c0.7,0,1.3-0.6,1.3-1.3s-0.6-1.3-1.3-1.3s-1.3,0.6-1.3,1.3C235.1,6.1,235.7,6.7,236.4,6.7z"/>
			<path class="st0" d="M236.2,21.1c0.7,0,1.3-0.6,1.3-1.3c0-0.7-0.6-1.3-1.3-1.3s-1.3,0.6-1.3,1.3
				C234.9,20.5,235.5,21.1,236.2,21.1z"/>
			<path class="st0" d="M236.4,35.5c0.7,0,1.3-0.6,1.3-1.3s-0.6-1.3-1.3-1.3s-1.3,0.6-1.3,1.3C235.1,34.9,235.7,35.5,236.4,35.5z"/>
			<circle class="st0" cx="236.2" cy="48.6" r="1.3"/>
			<path class="st0" d="M236.4,64.3c0.7,0,1.3-0.6,1.3-1.3s-0.6-1.3-1.3-1.3s-1.3,0.6-1.3,1.3S235.7,64.3,236.4,64.3z"/>
			<path class="st0" d="M236.2,78.7c0.7,0,1.3-0.6,1.3-1.3s-0.6-1.3-1.3-1.3s-1.3,0.6-1.3,1.3C234.9,78.1,235.5,78.7,236.2,78.7z"/>
			<path class="st0" d="M236.4,93.1c0.7,0,1.3-0.6,1.3-1.3s-0.6-1.3-1.3-1.3s-1.3,0.6-1.3,1.3C235.1,92.5,235.7,93.1,236.4,93.1z"/>
			<path class="st0" d="M236.2,107.5c0.7,0,1.3-0.6,1.3-1.3s-0.6-1.3-1.3-1.3s-1.3,0.6-1.3,1.3C234.9,106.9,235.5,107.5,236.2,107.5
				z"/>
			<path class="st0" d="M236.4,121.9c0.7,0,1.3-0.6,1.3-1.3s-0.6-1.3-1.3-1.3s-1.3,0.6-1.3,1.3S235.7,121.9,236.4,121.9z"/>
			<circle class="st0" cx="236.2" cy="135" r="1.3"/>
			<path class="st0" d="M236.4,150.7c0.7,0,1.3-0.6,1.3-1.3c0-0.7-0.6-1.3-1.3-1.3s-1.3,0.6-1.3,1.3
				C235.1,150.1,235.7,150.7,236.4,150.7z"/>
			<path class="st0" d="M236.2,165.1c0.7,0,1.3-0.6,1.3-1.3c0-0.7-0.6-1.3-1.3-1.3s-1.3,0.6-1.3,1.3
				C234.9,164.5,235.5,165.1,236.2,165.1z"/>
			<path class="st0" d="M236.4,179.5c0.7,0,1.3-0.6,1.3-1.3c0-0.7-0.6-1.3-1.3-1.3s-1.3,0.6-1.3,1.3
				C235.1,178.9,235.7,179.5,236.4,179.5z"/>
			<circle class="st0" cx="236.2" cy="192.6" r="1.3"/>
			<path class="st0" d="M236.4,208.3c0.7,0,1.3-0.6,1.3-1.3s-0.6-1.3-1.3-1.3s-1.3,0.6-1.3,1.3S235.7,208.3,236.4,208.3z"/>
			<path class="st0" d="M236.2,222.7c0.7,0,1.3-0.6,1.3-1.3c0-0.7-0.6-1.3-1.3-1.3s-1.3,0.6-1.3,1.3
				C234.9,222.1,235.5,222.7,236.2,222.7z"/>
			<path class="st0" d="M236.4,237.1c0.7,0,1.3-0.6,1.3-1.3c0-0.7-0.6-1.3-1.3-1.3s-1.3,0.6-1.3,1.3
				C235.1,236.5,235.7,237.1,236.4,237.1z"/>
			<path class="st0" d="M236.2,251.5c0.7,0,1.3-0.6,1.3-1.3s-0.6-1.3-1.3-1.3s-1.3,0.6-1.3,1.3C234.9,250.9,235.5,251.5,236.2,251.5
				z"/>
			<path class="st0" d="M236.4,265.9c0.7,0,1.3-0.6,1.3-1.3s-0.6-1.3-1.3-1.3s-1.3,0.6-1.3,1.3S235.7,265.9,236.4,265.9z"/>
		</g>
		<g>
			<path class="st0" d="M225.4,6.7c0.7,0,1.3-0.6,1.3-1.3s-0.6-1.3-1.3-1.3s-1.3,0.6-1.3,1.3C224.1,6.1,224.7,6.7,225.4,6.7z"/>
			<path class="st0" d="M225.2,21.1c0.7,0,1.3-0.6,1.3-1.3c0-0.7-0.6-1.3-1.3-1.3s-1.3,0.6-1.3,1.3
				C223.9,20.5,224.5,21.1,225.2,21.1z"/>
			<path class="st0" d="M225.4,35.5c0.7,0,1.3-0.6,1.3-1.3s-0.6-1.3-1.3-1.3s-1.3,0.6-1.3,1.3C224.1,34.9,224.7,35.5,225.4,35.5z"/>
			<circle class="st0" cx="225.2" cy="48.6" r="1.3"/>
			<path class="st0" d="M225.4,64.3c0.7,0,1.3-0.6,1.3-1.3s-0.6-1.3-1.3-1.3s-1.3,0.6-1.3,1.3S224.7,64.3,225.4,64.3z"/>
			<path class="st0" d="M225.2,78.7c0.7,0,1.3-0.6,1.3-1.3s-0.6-1.3-1.3-1.3s-1.3,0.6-1.3,1.3C223.9,78.1,224.5,78.7,225.2,78.7z"/>
			<path class="st0" d="M225.4,93.1c0.7,0,1.3-0.6,1.3-1.3s-0.6-1.3-1.3-1.3s-1.3,0.6-1.3,1.3C224.1,92.5,224.7,93.1,225.4,93.1z"/>
			<path class="st0" d="M225.2,107.5c0.7,0,1.3-0.6,1.3-1.3s-0.6-1.3-1.3-1.3s-1.3,0.6-1.3,1.3C223.9,106.9,224.5,107.5,225.2,107.5
				z"/>
			<path class="st0" d="M225.4,121.9c0.7,0,1.3-0.6,1.3-1.3s-0.6-1.3-1.3-1.3s-1.3,0.6-1.3,1.3S224.7,121.9,225.4,121.9z"/>
			<circle class="st0" cx="225.2" cy="135" r="1.3"/>
			<path class="st0" d="M225.4,150.7c0.7,0,1.3-0.6,1.3-1.3c0-0.7-0.6-1.3-1.3-1.3s-1.3,0.6-1.3,1.3
				C224.1,150.1,224.7,150.7,225.4,150.7z"/>
			<path class="st0" d="M225.2,165.1c0.7,0,1.3-0.6,1.3-1.3c0-0.7-0.6-1.3-1.3-1.3s-1.3,0.6-1.3,1.3
				C223.9,164.5,224.5,165.1,225.2,165.1z"/>
			<path class="st0" d="M225.4,179.5c0.7,0,1.3-0.6,1.3-1.3c0-0.7-0.6-1.3-1.3-1.3s-1.3,0.6-1.3,1.3
				C224.1,178.9,224.7,179.5,225.4,179.5z"/>
			<circle class="st0" cx="225.2" cy="192.6" r="1.3"/>
			<path class="st0" d="M225.4,208.3c0.7,0,1.3-0.6,1.3-1.3s-0.6-1.3-1.3-1.3s-1.3,0.6-1.3,1.3S224.7,208.3,225.4,208.3z"/>
			<path class="st0" d="M225.2,222.7c0.7,0,1.3-0.6,1.3-1.3c0-0.7-0.6-1.3-1.3-1.3s-1.3,0.6-1.3,1.3
				C223.9,222.1,224.5,222.7,225.2,222.7z"/>
			<path class="st0" d="M225.4,237.1c0.7,0,1.3-0.6,1.3-1.3c0-0.7-0.6-1.3-1.3-1.3s-1.3,0.6-1.3,1.3
				C224.1,236.5,224.7,237.1,225.4,237.1z"/>
			<path class="st0" d="M225.2,251.5c0.7,0,1.3-0.6,1.3-1.3s-0.6-1.3-1.3-1.3s-1.3,0.6-1.3,1.3C223.9,250.9,224.5,251.5,225.2,251.5
				z"/>
			<path class="st0" d="M225.4,265.9c0.7,0,1.3-0.6,1.3-1.3s-0.6-1.3-1.3-1.3s-1.3,0.6-1.3,1.3S224.7,265.9,225.4,265.9z"/>
		</g>
		<g>
			<path class="st0" d="M214.4,6.7c0.7,0,1.3-0.6,1.3-1.3s-0.6-1.3-1.3-1.3s-1.3,0.6-1.3,1.3C213.1,6.1,213.7,6.7,214.4,6.7z"/>
			<path class="st0" d="M214.2,21.1c0.7,0,1.3-0.6,1.3-1.3c0-0.7-0.6-1.3-1.3-1.3s-1.3,0.6-1.3,1.3
				C212.9,20.5,213.5,21.1,214.2,21.1z"/>
			<path class="st0" d="M214.4,35.5c0.7,0,1.3-0.6,1.3-1.3s-0.6-1.3-1.3-1.3s-1.3,0.6-1.3,1.3C213.1,34.9,213.7,35.5,214.4,35.5z"/>
			<circle class="st0" cx="214.2" cy="48.6" r="1.3"/>
			<path class="st0" d="M214.4,64.3c0.7,0,1.3-0.6,1.3-1.3s-0.6-1.3-1.3-1.3s-1.3,0.6-1.3,1.3S213.7,64.3,214.4,64.3z"/>
			<path class="st0" d="M214.2,78.7c0.7,0,1.3-0.6,1.3-1.3s-0.6-1.3-1.3-1.3s-1.3,0.6-1.3,1.3C212.9,78.1,213.5,78.7,214.2,78.7z"/>
			<path class="st0" d="M214.4,93.1c0.7,0,1.3-0.6,1.3-1.3s-0.6-1.3-1.3-1.3s-1.3,0.6-1.3,1.3C213.1,92.5,213.7,93.1,214.4,93.1z"/>
			<path class="st0" d="M214.2,107.5c0.7,0,1.3-0.6,1.3-1.3s-0.6-1.3-1.3-1.3s-1.3,0.6-1.3,1.3C212.9,106.9,213.5,107.5,214.2,107.5
				z"/>
			<path class="st0" d="M214.4,121.9c0.7,0,1.3-0.6,1.3-1.3s-0.6-1.3-1.3-1.3s-1.3,0.6-1.3,1.3S213.7,121.9,214.4,121.9z"/>
			<circle class="st0" cx="214.2" cy="135" r="1.3"/>
			<path class="st0" d="M214.4,150.7c0.7,0,1.3-0.6,1.3-1.3c0-0.7-0.6-1.3-1.3-1.3s-1.3,0.6-1.3,1.3
				C213.1,150.1,213.7,150.7,214.4,150.7z"/>
			<path class="st0" d="M214.2,165.1c0.7,0,1.3-0.6,1.3-1.3c0-0.7-0.6-1.3-1.3-1.3s-1.3,0.6-1.3,1.3
				C212.9,164.5,213.5,165.1,214.2,165.1z"/>
			<path class="st0" d="M214.4,179.5c0.7,0,1.3-0.6,1.3-1.3c0-0.7-0.6-1.3-1.3-1.3s-1.3,0.6-1.3,1.3
				C213.1,178.9,213.7,179.5,214.4,179.5z"/>
			<circle class="st0" cx="214.2" cy="192.6" r="1.3"/>
			<path class="st0" d="M214.4,208.3c0.7,0,1.3-0.6,1.3-1.3s-0.6-1.3-1.3-1.3s-1.3,0.6-1.3,1.3S213.7,208.3,214.4,208.3z"/>
			<path class="st0" d="M214.2,222.7c0.7,0,1.3-0.6,1.3-1.3c0-0.7-0.6-1.3-1.3-1.3s-1.3,0.6-1.3,1.3
				C212.9,222.1,213.5,222.7,214.2,222.7z"/>
			<path class="st0" d="M214.4,237.1c0.7,0,1.3-0.6,1.3-1.3c0-0.7-0.6-1.3-1.3-1.3s-1.3,0.6-1.3,1.3
				C213.1,236.5,213.7,237.1,214.4,237.1z"/>
			<path class="st0" d="M214.2,251.5c0.7,0,1.3-0.6,1.3-1.3s-0.6-1.3-1.3-1.3s-1.3,0.6-1.3,1.3C212.9,250.9,213.5,251.5,214.2,251.5
				z"/>
			<path class="st0" d="M214.4,265.9c0.7,0,1.3-0.6,1.3-1.3s-0.6-1.3-1.3-1.3s-1.3,0.6-1.3,1.3S213.7,265.9,214.4,265.9z"/>
		</g>
		<g>
			<path class="st0" d="M203.4,6.7c0.7,0,1.3-0.6,1.3-1.3s-0.6-1.3-1.3-1.3s-1.3,0.6-1.3,1.3C202.1,6.1,202.7,6.7,203.4,6.7z"/>
			<path class="st0" d="M203.2,21.1c0.7,0,1.3-0.6,1.3-1.3c0-0.7-0.6-1.3-1.3-1.3s-1.3,0.6-1.3,1.3
				C201.9,20.5,202.5,21.1,203.2,21.1z"/>
			<path class="st0" d="M203.4,35.5c0.7,0,1.3-0.6,1.3-1.3s-0.6-1.3-1.3-1.3s-1.3,0.6-1.3,1.3C202.1,34.9,202.7,35.5,203.4,35.5z"/>
			<circle class="st0" cx="203.2" cy="48.6" r="1.3"/>
			<path class="st0" d="M203.4,64.3c0.7,0,1.3-0.6,1.3-1.3s-0.6-1.3-1.3-1.3s-1.3,0.6-1.3,1.3S202.7,64.3,203.4,64.3z"/>
			<path class="st0" d="M203.2,78.7c0.7,0,1.3-0.6,1.3-1.3s-0.6-1.3-1.3-1.3s-1.3,0.6-1.3,1.3C201.9,78.1,202.5,78.7,203.2,78.7z"/>
			<path class="st0" d="M203.4,93.1c0.7,0,1.3-0.6,1.3-1.3s-0.6-1.3-1.3-1.3s-1.3,0.6-1.3,1.3C202.1,92.5,202.7,93.1,203.4,93.1z"/>
			<path class="st0" d="M203.2,107.5c0.7,0,1.3-0.6,1.3-1.3s-0.6-1.3-1.3-1.3s-1.3,0.6-1.3,1.3C201.9,106.9,202.5,107.5,203.2,107.5
				z"/>
			<path class="st0" d="M203.4,121.9c0.7,0,1.3-0.6,1.3-1.3s-0.6-1.3-1.3-1.3s-1.3,0.6-1.3,1.3S202.7,121.9,203.4,121.9z"/>
			<circle class="st0" cx="203.2" cy="135" r="1.3"/>
			<path class="st0" d="M203.4,150.7c0.7,0,1.3-0.6,1.3-1.3c0-0.7-0.6-1.3-1.3-1.3s-1.3,0.6-1.3,1.3
				C202.1,150.1,202.7,150.7,203.4,150.7z"/>
			<path class="st0" d="M203.2,165.1c0.7,0,1.3-0.6,1.3-1.3c0-0.7-0.6-1.3-1.3-1.3s-1.3,0.6-1.3,1.3
				C201.9,164.5,202.5,165.1,203.2,165.1z"/>
			<path class="st0" d="M203.4,179.5c0.7,0,1.3-0.6,1.3-1.3c0-0.7-0.6-1.3-1.3-1.3s-1.3,0.6-1.3,1.3
				C202.1,178.9,202.7,179.5,203.4,179.5z"/>
			<circle class="st0" cx="203.2" cy="192.6" r="1.3"/>
			<path class="st0" d="M203.4,208.3c0.7,0,1.3-0.6,1.3-1.3s-0.6-1.3-1.3-1.3s-1.3,0.6-1.3,1.3S202.7,208.3,203.4,208.3z"/>
			<path class="st0" d="M203.2,222.7c0.7,0,1.3-0.6,1.3-1.3c0-0.7-0.6-1.3-1.3-1.3s-1.3,0.6-1.3,1.3
				C201.9,222.1,202.5,222.7,203.2,222.7z"/>
			<path class="st0" d="M203.4,237.1c0.7,0,1.3-0.6,1.3-1.3c0-0.7-0.6-1.3-1.3-1.3s-1.3,0.6-1.3,1.3
				C202.1,236.5,202.7,237.1,203.4,237.1z"/>
			<path class="st0" d="M203.2,251.5c0.7,0,1.3-0.6,1.3-1.3s-0.6-1.3-1.3-1.3s-1.3,0.6-1.3,1.3C201.9,250.9,202.5,251.5,203.2,251.5
				z"/>
			<path class="st0" d="M203.4,265.9c0.7,0,1.3-0.6,1.3-1.3s-0.6-1.3-1.3-1.3s-1.3,0.6-1.3,1.3S202.7,265.9,203.4,265.9z"/>
		</g>
		<g>
			<path class="st0" d="M192.4,6.7c0.7,0,1.3-0.6,1.3-1.3s-0.6-1.3-1.3-1.3s-1.3,0.6-1.3,1.3C191.1,6.1,191.7,6.7,192.4,6.7z"/>
			<path class="st0" d="M192.2,21.1c0.7,0,1.3-0.6,1.3-1.3c0-0.7-0.6-1.3-1.3-1.3s-1.3,0.6-1.3,1.3
				C190.9,20.5,191.5,21.1,192.2,21.1z"/>
			<path class="st0" d="M192.4,35.5c0.7,0,1.3-0.6,1.3-1.3s-0.6-1.3-1.3-1.3s-1.3,0.6-1.3,1.3C191.1,34.9,191.7,35.5,192.4,35.5z"/>
			<circle class="st0" cx="192.2" cy="48.6" r="1.3"/>
			<path class="st0" d="M192.4,64.3c0.7,0,1.3-0.6,1.3-1.3s-0.6-1.3-1.3-1.3s-1.3,0.6-1.3,1.3S191.7,64.3,192.4,64.3z"/>
			<path class="st0" d="M192.2,78.7c0.7,0,1.3-0.6,1.3-1.3s-0.6-1.3-1.3-1.3s-1.3,0.6-1.3,1.3C190.9,78.1,191.5,78.7,192.2,78.7z"/>
			<path class="st0" d="M192.4,93.1c0.7,0,1.3-0.6,1.3-1.3s-0.6-1.3-1.3-1.3s-1.3,0.6-1.3,1.3C191.1,92.5,191.7,93.1,192.4,93.1z"/>
			<path class="st0" d="M192.2,107.5c0.7,0,1.3-0.6,1.3-1.3s-0.6-1.3-1.3-1.3s-1.3,0.6-1.3,1.3C190.9,106.9,191.5,107.5,192.2,107.5
				z"/>
			<path class="st0" d="M192.4,121.9c0.7,0,1.3-0.6,1.3-1.3s-0.6-1.3-1.3-1.3s-1.3,0.6-1.3,1.3S191.7,121.9,192.4,121.9z"/>
			<circle class="st0" cx="192.2" cy="135" r="1.3"/>
			<path class="st0" d="M192.4,150.7c0.7,0,1.3-0.6,1.3-1.3c0-0.7-0.6-1.3-1.3-1.3s-1.3,0.6-1.3,1.3
				C191.1,150.1,191.7,150.7,192.4,150.7z"/>
			<path class="st0" d="M192.2,165.1c0.7,0,1.3-0.6,1.3-1.3c0-0.7-0.6-1.3-1.3-1.3s-1.3,0.6-1.3,1.3
				C190.9,164.5,191.5,165.1,192.2,165.1z"/>
			<path class="st0" d="M192.4,179.5c0.7,0,1.3-0.6,1.3-1.3c0-0.7-0.6-1.3-1.3-1.3s-1.3,0.6-1.3,1.3
				C191.1,178.9,191.7,179.5,192.4,179.5z"/>
			<circle class="st0" cx="192.2" cy="192.6" r="1.3"/>
			<path class="st0" d="M192.4,208.3c0.7,0,1.3-0.6,1.3-1.3s-0.6-1.3-1.3-1.3s-1.3,0.6-1.3,1.3S191.7,208.3,192.4,208.3z"/>
			<path class="st0" d="M192.2,222.7c0.7,0,1.3-0.6,1.3-1.3c0-0.7-0.6-1.3-1.3-1.3s-1.3,0.6-1.3,1.3
				C190.9,222.1,191.5,222.7,192.2,222.7z"/>
			<path class="st0" d="M192.4,237.1c0.7,0,1.3-0.6,1.3-1.3c0-0.7-0.6-1.3-1.3-1.3s-1.3,0.6-1.3,1.3
				C191.1,236.5,191.7,237.1,192.4,237.1z"/>
			<path class="st0" d="M192.2,251.5c0.7,0,1.3-0.6,1.3-1.3s-0.6-1.3-1.3-1.3s-1.3,0.6-1.3,1.3C190.9,250.9,191.5,251.5,192.2,251.5
				z"/>
			<path class="st0" d="M192.4,265.9c0.7,0,1.3-0.6,1.3-1.3s-0.6-1.3-1.3-1.3s-1.3,0.6-1.3,1.3S191.7,265.9,192.4,265.9z"/>
		</g>
		<g>
			<path class="st0" d="M181.4,6.7c0.7,0,1.3-0.6,1.3-1.3s-0.6-1.3-1.3-1.3s-1.3,0.6-1.3,1.3C180.1,6.1,180.7,6.7,181.4,6.7z"/>
			<path class="st0" d="M181.2,21.1c0.7,0,1.3-0.6,1.3-1.3c0-0.7-0.6-1.3-1.3-1.3s-1.3,0.6-1.3,1.3
				C179.9,20.5,180.5,21.1,181.2,21.1z"/>
			<path class="st0" d="M181.4,35.5c0.7,0,1.3-0.6,1.3-1.3s-0.6-1.3-1.3-1.3s-1.3,0.6-1.3,1.3C180.1,34.9,180.7,35.5,181.4,35.5z"/>
			<circle class="st0" cx="181.2" cy="48.6" r="1.3"/>
			<path class="st0" d="M181.4,64.3c0.7,0,1.3-0.6,1.3-1.3s-0.6-1.3-1.3-1.3s-1.3,0.6-1.3,1.3S180.7,64.3,181.4,64.3z"/>
			<path class="st0" d="M181.2,78.7c0.7,0,1.3-0.6,1.3-1.3s-0.6-1.3-1.3-1.3s-1.3,0.6-1.3,1.3C179.9,78.1,180.5,78.7,181.2,78.7z"/>
			<path class="st0" d="M181.4,93.1c0.7,0,1.3-0.6,1.3-1.3s-0.6-1.3-1.3-1.3s-1.3,0.6-1.3,1.3C180.1,92.5,180.7,93.1,181.4,93.1z"/>
			<path class="st0" d="M181.2,107.5c0.7,0,1.3-0.6,1.3-1.3s-0.6-1.3-1.3-1.3s-1.3,0.6-1.3,1.3C179.9,106.9,180.5,107.5,181.2,107.5
				z"/>
			<path class="st0" d="M181.4,121.9c0.7,0,1.3-0.6,1.3-1.3s-0.6-1.3-1.3-1.3s-1.3,0.6-1.3,1.3S180.7,121.9,181.4,121.9z"/>
			<circle class="st0" cx="181.2" cy="135" r="1.3"/>
			<path class="st0" d="M181.4,150.7c0.7,0,1.3-0.6,1.3-1.3c0-0.7-0.6-1.3-1.3-1.3s-1.3,0.6-1.3,1.3
				C180.1,150.1,180.7,150.7,181.4,150.7z"/>
			<path class="st0" d="M181.2,165.1c0.7,0,1.3-0.6,1.3-1.3c0-0.7-0.6-1.3-1.3-1.3s-1.3,0.6-1.3,1.3
				C179.9,164.5,180.5,165.1,181.2,165.1z"/>
			<path class="st0" d="M181.4,179.5c0.7,0,1.3-0.6,1.3-1.3c0-0.7-0.6-1.3-1.3-1.3s-1.3,0.6-1.3,1.3
				C180.1,178.9,180.7,179.5,181.4,179.5z"/>
			<circle class="st0" cx="181.2" cy="192.6" r="1.3"/>
			<path class="st0" d="M181.4,208.3c0.7,0,1.3-0.6,1.3-1.3s-0.6-1.3-1.3-1.3s-1.3,0.6-1.3,1.3S180.7,208.3,181.4,208.3z"/>
			<path class="st0" d="M181.2,222.7c0.7,0,1.3-0.6,1.3-1.3c0-0.7-0.6-1.3-1.3-1.3s-1.3,0.6-1.3,1.3
				C179.9,222.1,180.5,222.7,181.2,222.7z"/>
			<path class="st0" d="M181.4,237.1c0.7,0,1.3-0.6,1.3-1.3c0-0.7-0.6-1.3-1.3-1.3s-1.3,0.6-1.3,1.3
				C180.1,236.5,180.7,237.1,181.4,237.1z"/>
			<path class="st0" d="M181.2,251.5c0.7,0,1.3-0.6,1.3-1.3s-0.6-1.3-1.3-1.3s-1.3,0.6-1.3,1.3C179.9,250.9,180.5,251.5,181.2,251.5
				z"/>
			<path class="st0" d="M181.4,265.9c0.7,0,1.3-0.6,1.3-1.3s-0.6-1.3-1.3-1.3s-1.3,0.6-1.3,1.3S180.7,265.9,181.4,265.9z"/>
		</g>
		<g>
			<path class="st0" d="M170.4,6.7c0.7,0,1.3-0.6,1.3-1.3s-0.6-1.3-1.3-1.3s-1.3,0.6-1.3,1.3C169.1,6.1,169.7,6.7,170.4,6.7z"/>
			<path class="st0" d="M170.2,21.1c0.7,0,1.3-0.6,1.3-1.3c0-0.7-0.6-1.3-1.3-1.3s-1.3,0.6-1.3,1.3
				C168.9,20.5,169.5,21.1,170.2,21.1z"/>
			<path class="st0" d="M170.4,35.5c0.7,0,1.3-0.6,1.3-1.3s-0.6-1.3-1.3-1.3s-1.3,0.6-1.3,1.3C169.1,34.9,169.7,35.5,170.4,35.5z"/>
			<circle class="st0" cx="170.2" cy="48.6" r="1.3"/>
			<path class="st0" d="M170.4,64.3c0.7,0,1.3-0.6,1.3-1.3s-0.6-1.3-1.3-1.3s-1.3,0.6-1.3,1.3S169.7,64.3,170.4,64.3z"/>
			<path class="st0" d="M170.2,78.7c0.7,0,1.3-0.6,1.3-1.3s-0.6-1.3-1.3-1.3s-1.3,0.6-1.3,1.3C168.9,78.1,169.5,78.7,170.2,78.7z"/>
			<path class="st0" d="M170.4,93.1c0.7,0,1.3-0.6,1.3-1.3s-0.6-1.3-1.3-1.3s-1.3,0.6-1.3,1.3C169.1,92.5,169.7,93.1,170.4,93.1z"/>
			<path class="st0" d="M170.2,107.5c0.7,0,1.3-0.6,1.3-1.3s-0.6-1.3-1.3-1.3s-1.3,0.6-1.3,1.3C168.9,106.9,169.5,107.5,170.2,107.5
				z"/>
			<path class="st0" d="M170.4,121.9c0.7,0,1.3-0.6,1.3-1.3s-0.6-1.3-1.3-1.3s-1.3,0.6-1.3,1.3S169.7,121.9,170.4,121.9z"/>
			<circle class="st0" cx="170.2" cy="135" r="1.3"/>
			<path class="st0" d="M170.4,150.7c0.7,0,1.3-0.6,1.3-1.3c0-0.7-0.6-1.3-1.3-1.3s-1.3,0.6-1.3,1.3
				C169.1,150.1,169.7,150.7,170.4,150.7z"/>
			<path class="st0" d="M170.2,165.1c0.7,0,1.3-0.6,1.3-1.3c0-0.7-0.6-1.3-1.3-1.3s-1.3,0.6-1.3,1.3
				C168.9,164.5,169.5,165.1,170.2,165.1z"/>
			<path class="st0" d="M170.4,179.5c0.7,0,1.3-0.6,1.3-1.3c0-0.7-0.6-1.3-1.3-1.3s-1.3,0.6-1.3,1.3
				C169.1,178.9,169.7,179.5,170.4,179.5z"/>
			<circle class="st0" cx="170.2" cy="192.6" r="1.3"/>
			<path class="st0" d="M170.4,208.3c0.7,0,1.3-0.6,1.3-1.3s-0.6-1.3-1.3-1.3s-1.3,0.6-1.3,1.3S169.7,208.3,170.4,208.3z"/>
			<path class="st0" d="M170.2,222.7c0.7,0,1.3-0.6,1.3-1.3c0-0.7-0.6-1.3-1.3-1.3s-1.3,0.6-1.3,1.3
				C168.9,222.1,169.5,222.7,170.2,222.7z"/>
			<path class="st0" d="M170.4,237.1c0.7,0,1.3-0.6,1.3-1.3c0-0.7-0.6-1.3-1.3-1.3s-1.3,0.6-1.3,1.3
				C169.1,236.5,169.7,237.1,170.4,237.1z"/>
			<path class="st0" d="M170.2,251.5c0.7,0,1.3-0.6,1.3-1.3s-0.6-1.3-1.3-1.3s-1.3,0.6-1.3,1.3C168.9,250.9,169.5,251.5,170.2,251.5
				z"/>
			<path class="st0" d="M170.4,265.9c0.7,0,1.3-0.6,1.3-1.3s-0.6-1.3-1.3-1.3s-1.3,0.6-1.3,1.3S169.7,265.9,170.4,265.9z"/>
		</g>
		<g>
			<path class="st0" d="M159.4,6.7c0.7,0,1.3-0.6,1.3-1.3s-0.6-1.3-1.3-1.3s-1.3,0.6-1.3,1.3C158.1,6.1,158.7,6.7,159.4,6.7z"/>
			<path class="st0" d="M159.2,21.1c0.7,0,1.3-0.6,1.3-1.3c0-0.7-0.6-1.3-1.3-1.3s-1.3,0.6-1.3,1.3
				C157.9,20.5,158.5,21.1,159.2,21.1z"/>
			<path class="st0" d="M159.4,35.5c0.7,0,1.3-0.6,1.3-1.3s-0.6-1.3-1.3-1.3s-1.3,0.6-1.3,1.3C158.1,34.9,158.7,35.5,159.4,35.5z"/>
			<circle class="st0" cx="159.2" cy="48.6" r="1.3"/>
			<path class="st0" d="M159.4,64.3c0.7,0,1.3-0.6,1.3-1.3s-0.6-1.3-1.3-1.3s-1.3,0.6-1.3,1.3S158.7,64.3,159.4,64.3z"/>
			<path class="st0" d="M159.2,78.7c0.7,0,1.3-0.6,1.3-1.3s-0.6-1.3-1.3-1.3s-1.3,0.6-1.3,1.3C157.9,78.1,158.5,78.7,159.2,78.7z"/>
			<path class="st0" d="M159.4,93.1c0.7,0,1.3-0.6,1.3-1.3s-0.6-1.3-1.3-1.3s-1.3,0.6-1.3,1.3C158.1,92.5,158.7,93.1,159.4,93.1z"/>
			<path class="st0" d="M159.2,107.5c0.7,0,1.3-0.6,1.3-1.3s-0.6-1.3-1.3-1.3s-1.3,0.6-1.3,1.3C157.9,106.9,158.5,107.5,159.2,107.5
				z"/>
			<path class="st0" d="M159.4,121.9c0.7,0,1.3-0.6,1.3-1.3s-0.6-1.3-1.3-1.3s-1.3,0.6-1.3,1.3S158.7,121.9,159.4,121.9z"/>
			<circle class="st0" cx="159.2" cy="135" r="1.3"/>
			<path class="st0" d="M159.4,150.7c0.7,0,1.3-0.6,1.3-1.3c0-0.7-0.6-1.3-1.3-1.3s-1.3,0.6-1.3,1.3
				C158.1,150.1,158.7,150.7,159.4,150.7z"/>
			<path class="st0" d="M159.2,165.1c0.7,0,1.3-0.6,1.3-1.3c0-0.7-0.6-1.3-1.3-1.3s-1.3,0.6-1.3,1.3
				C157.9,164.5,158.5,165.1,159.2,165.1z"/>
			<path class="st0" d="M159.4,179.5c0.7,0,1.3-0.6,1.3-1.3c0-0.7-0.6-1.3-1.3-1.3s-1.3,0.6-1.3,1.3
				C158.1,178.9,158.7,179.5,159.4,179.5z"/>
			<circle class="st0" cx="159.2" cy="192.6" r="1.3"/>
			<path class="st0" d="M159.4,208.3c0.7,0,1.3-0.6,1.3-1.3s-0.6-1.3-1.3-1.3s-1.3,0.6-1.3,1.3S158.7,208.3,159.4,208.3z"/>
			<path class="st0" d="M159.2,222.7c0.7,0,1.3-0.6,1.3-1.3c0-0.7-0.6-1.3-1.3-1.3s-1.3,0.6-1.3,1.3
				C157.9,222.1,158.5,222.7,159.2,222.7z"/>
			<path class="st0" d="M159.4,237.1c0.7,0,1.3-0.6,1.3-1.3c0-0.7-0.6-1.3-1.3-1.3s-1.3,0.6-1.3,1.3
				C158.1,236.5,158.7,237.1,159.4,237.1z"/>
			<path class="st0" d="M159.2,251.5c0.7,0,1.3-0.6,1.3-1.3s-0.6-1.3-1.3-1.3s-1.3,0.6-1.3,1.3C157.9,250.9,158.5,251.5,159.2,251.5
				z"/>
			<path class="st0" d="M159.4,265.9c0.7,0,1.3-0.6,1.3-1.3s-0.6-1.3-1.3-1.3s-1.3,0.6-1.3,1.3S158.7,265.9,159.4,265.9z"/>
		</g>
		<g>
			<path class="st0" d="M148.4,6.7c0.7,0,1.3-0.6,1.3-1.3s-0.6-1.3-1.3-1.3s-1.3,0.6-1.3,1.3C147.1,6.1,147.7,6.7,148.4,6.7z"/>
			<path class="st0" d="M148.2,21.1c0.7,0,1.3-0.6,1.3-1.3c0-0.7-0.6-1.3-1.3-1.3s-1.3,0.6-1.3,1.3
				C146.9,20.5,147.5,21.1,148.2,21.1z"/>
			<path class="st0" d="M148.4,35.5c0.7,0,1.3-0.6,1.3-1.3s-0.6-1.3-1.3-1.3s-1.3,0.6-1.3,1.3C147.1,34.9,147.7,35.5,148.4,35.5z"/>
			<circle class="st0" cx="148.2" cy="48.6" r="1.3"/>
			<path class="st0" d="M148.4,64.3c0.7,0,1.3-0.6,1.3-1.3s-0.6-1.3-1.3-1.3s-1.3,0.6-1.3,1.3S147.7,64.3,148.4,64.3z"/>
			<path class="st0" d="M148.2,78.7c0.7,0,1.3-0.6,1.3-1.3s-0.6-1.3-1.3-1.3s-1.3,0.6-1.3,1.3C146.9,78.1,147.5,78.7,148.2,78.7z"/>
			<path class="st0" d="M148.4,93.1c0.7,0,1.3-0.6,1.3-1.3s-0.6-1.3-1.3-1.3s-1.3,0.6-1.3,1.3C147.1,92.5,147.7,93.1,148.4,93.1z"/>
			<path class="st0" d="M148.2,107.5c0.7,0,1.3-0.6,1.3-1.3s-0.6-1.3-1.3-1.3s-1.3,0.6-1.3,1.3C146.9,106.9,147.5,107.5,148.2,107.5
				z"/>
			<path class="st0" d="M148.4,121.9c0.7,0,1.3-0.6,1.3-1.3s-0.6-1.3-1.3-1.3s-1.3,0.6-1.3,1.3S147.7,121.9,148.4,121.9z"/>
			<circle class="st0" cx="148.2" cy="135" r="1.3"/>
			<path class="st0" d="M148.4,150.7c0.7,0,1.3-0.6,1.3-1.3c0-0.7-0.6-1.3-1.3-1.3s-1.3,0.6-1.3,1.3
				C147.1,150.1,147.7,150.7,148.4,150.7z"/>
			<path class="st0" d="M148.2,165.1c0.7,0,1.3-0.6,1.3-1.3c0-0.7-0.6-1.3-1.3-1.3s-1.3,0.6-1.3,1.3
				C146.9,164.5,147.5,165.1,148.2,165.1z"/>
			<path class="st0" d="M148.4,179.5c0.7,0,1.3-0.6,1.3-1.3c0-0.7-0.6-1.3-1.3-1.3s-1.3,0.6-1.3,1.3
				C147.1,178.9,147.7,179.5,148.4,179.5z"/>
			<circle class="st0" cx="148.2" cy="192.6" r="1.3"/>
			<path class="st0" d="M148.4,208.3c0.7,0,1.3-0.6,1.3-1.3s-0.6-1.3-1.3-1.3s-1.3,0.6-1.3,1.3S147.7,208.3,148.4,208.3z"/>
			<path class="st0" d="M148.2,222.7c0.7,0,1.3-0.6,1.3-1.3c0-0.7-0.6-1.3-1.3-1.3s-1.3,0.6-1.3,1.3
				C146.9,222.1,147.5,222.7,148.2,222.7z"/>
			<path class="st0" d="M148.4,237.1c0.7,0,1.3-0.6,1.3-1.3c0-0.7-0.6-1.3-1.3-1.3s-1.3,0.6-1.3,1.3
				C147.1,236.5,147.7,237.1,148.4,237.1z"/>
			<path class="st0" d="M148.2,251.5c0.7,0,1.3-0.6,1.3-1.3s-0.6-1.3-1.3-1.3s-1.3,0.6-1.3,1.3C146.9,250.9,147.5,251.5,148.2,251.5
				z"/>
			<path class="st0" d="M148.4,265.9c0.7,0,1.3-0.6,1.3-1.3s-0.6-1.3-1.3-1.3s-1.3,0.6-1.3,1.3S147.7,265.9,148.4,265.9z"/>
		</g>
		<g>
			<path class="st0" d="M137.4,6.7c0.7,0,1.3-0.6,1.3-1.3s-0.6-1.3-1.3-1.3s-1.3,0.6-1.3,1.3C136.1,6.1,136.7,6.7,137.4,6.7z"/>
			<path class="st0" d="M137.2,21.1c0.7,0,1.3-0.6,1.3-1.3c0-0.7-0.6-1.3-1.3-1.3s-1.3,0.6-1.3,1.3
				C135.9,20.5,136.5,21.1,137.2,21.1z"/>
			<path class="st0" d="M137.4,35.5c0.7,0,1.3-0.6,1.3-1.3s-0.6-1.3-1.3-1.3s-1.3,0.6-1.3,1.3C136.1,34.9,136.7,35.5,137.4,35.5z"/>
			<circle class="st0" cx="137.2" cy="48.6" r="1.3"/>
			<path class="st0" d="M137.4,64.3c0.7,0,1.3-0.6,1.3-1.3s-0.6-1.3-1.3-1.3s-1.3,0.6-1.3,1.3S136.7,64.3,137.4,64.3z"/>
			<path class="st0" d="M137.2,78.7c0.7,0,1.3-0.6,1.3-1.3s-0.6-1.3-1.3-1.3s-1.3,0.6-1.3,1.3C135.9,78.1,136.5,78.7,137.2,78.7z"/>
			<path class="st0" d="M137.4,93.1c0.7,0,1.3-0.6,1.3-1.3s-0.6-1.3-1.3-1.3s-1.3,0.6-1.3,1.3C136.1,92.5,136.7,93.1,137.4,93.1z"/>
			<path class="st0" d="M137.2,107.5c0.7,0,1.3-0.6,1.3-1.3s-0.6-1.3-1.3-1.3s-1.3,0.6-1.3,1.3C135.9,106.9,136.5,107.5,137.2,107.5
				z"/>
			<path class="st0" d="M137.4,121.9c0.7,0,1.3-0.6,1.3-1.3s-0.6-1.3-1.3-1.3s-1.3,0.6-1.3,1.3S136.7,121.9,137.4,121.9z"/>
			<circle class="st0" cx="137.2" cy="135" r="1.3"/>
			<path class="st0" d="M137.4,150.7c0.7,0,1.3-0.6,1.3-1.3c0-0.7-0.6-1.3-1.3-1.3s-1.3,0.6-1.3,1.3
				C136.1,150.1,136.7,150.7,137.4,150.7z"/>
			<path class="st0" d="M137.2,165.1c0.7,0,1.3-0.6,1.3-1.3c0-0.7-0.6-1.3-1.3-1.3s-1.3,0.6-1.3,1.3
				C135.9,164.5,136.5,165.1,137.2,165.1z"/>
			<path class="st0" d="M137.4,179.5c0.7,0,1.3-0.6,1.3-1.3c0-0.7-0.6-1.3-1.3-1.3s-1.3,0.6-1.3,1.3
				C136.1,178.9,136.7,179.5,137.4,179.5z"/>
			<circle class="st0" cx="137.2" cy="192.6" r="1.3"/>
			<path class="st0" d="M137.4,208.3c0.7,0,1.3-0.6,1.3-1.3s-0.6-1.3-1.3-1.3s-1.3,0.6-1.3,1.3S136.7,208.3,137.4,208.3z"/>
			<path class="st0" d="M137.2,222.7c0.7,0,1.3-0.6,1.3-1.3c0-0.7-0.6-1.3-1.3-1.3s-1.3,0.6-1.3,1.3
				C135.9,222.1,136.5,222.7,137.2,222.7z"/>
			<path class="st0" d="M137.4,237.1c0.7,0,1.3-0.6,1.3-1.3c0-0.7-0.6-1.3-1.3-1.3s-1.3,0.6-1.3,1.3
				C136.1,236.5,136.7,237.1,137.4,237.1z"/>
			<path class="st0" d="M137.2,251.5c0.7,0,1.3-0.6,1.3-1.3s-0.6-1.3-1.3-1.3s-1.3,0.6-1.3,1.3C135.9,250.9,136.5,251.5,137.2,251.5
				z"/>
			<path class="st0" d="M137.4,265.9c0.7,0,1.3-0.6,1.3-1.3s-0.6-1.3-1.3-1.3s-1.3,0.6-1.3,1.3S136.7,265.9,137.4,265.9z"/>
		</g>
		<g>
			<path class="st0" d="M126.4,6.7c0.7,0,1.3-0.6,1.3-1.3s-0.6-1.3-1.3-1.3s-1.3,0.6-1.3,1.3C125.1,6.1,125.7,6.7,126.4,6.7z"/>
			<path class="st0" d="M126.2,21.1c0.7,0,1.3-0.6,1.3-1.3c0-0.7-0.6-1.3-1.3-1.3s-1.3,0.6-1.3,1.3
				C124.9,20.5,125.5,21.1,126.2,21.1z"/>
			<path class="st0" d="M126.4,35.5c0.7,0,1.3-0.6,1.3-1.3s-0.6-1.3-1.3-1.3s-1.3,0.6-1.3,1.3C125.1,34.9,125.7,35.5,126.4,35.5z"/>
			<circle class="st0" cx="126.2" cy="48.6" r="1.3"/>
			<path class="st0" d="M126.4,64.3c0.7,0,1.3-0.6,1.3-1.3s-0.6-1.3-1.3-1.3s-1.3,0.6-1.3,1.3S125.7,64.3,126.4,64.3z"/>
			<path class="st0" d="M126.2,78.7c0.7,0,1.3-0.6,1.3-1.3s-0.6-1.3-1.3-1.3s-1.3,0.6-1.3,1.3C124.9,78.1,125.5,78.7,126.2,78.7z"/>
			<path class="st0" d="M126.4,93.1c0.7,0,1.3-0.6,1.3-1.3s-0.6-1.3-1.3-1.3s-1.3,0.6-1.3,1.3C125.1,92.5,125.7,93.1,126.4,93.1z"/>
			<path class="st0" d="M126.2,107.5c0.7,0,1.3-0.6,1.3-1.3s-0.6-1.3-1.3-1.3s-1.3,0.6-1.3,1.3C124.9,106.9,125.5,107.5,126.2,107.5
				z"/>
			<path class="st0" d="M126.4,121.9c0.7,0,1.3-0.6,1.3-1.3s-0.6-1.3-1.3-1.3s-1.3,0.6-1.3,1.3S125.7,121.9,126.4,121.9z"/>
			<circle class="st0" cx="126.2" cy="135" r="1.3"/>
			<path class="st0" d="M126.4,150.7c0.7,0,1.3-0.6,1.3-1.3c0-0.7-0.6-1.3-1.3-1.3s-1.3,0.6-1.3,1.3
				C125.1,150.1,125.7,150.7,126.4,150.7z"/>
			<path class="st0" d="M126.2,165.1c0.7,0,1.3-0.6,1.3-1.3c0-0.7-0.6-1.3-1.3-1.3s-1.3,0.6-1.3,1.3
				C124.9,164.5,125.5,165.1,126.2,165.1z"/>
			<path class="st0" d="M126.4,179.5c0.7,0,1.3-0.6,1.3-1.3c0-0.7-0.6-1.3-1.3-1.3s-1.3,0.6-1.3,1.3
				C125.1,178.9,125.7,179.5,126.4,179.5z"/>
			<circle class="st0" cx="126.2" cy="192.6" r="1.3"/>
			<path class="st0" d="M126.4,208.3c0.7,0,1.3-0.6,1.3-1.3s-0.6-1.3-1.3-1.3s-1.3,0.6-1.3,1.3S125.7,208.3,126.4,208.3z"/>
			<path class="st0" d="M126.2,222.7c0.7,0,1.3-0.6,1.3-1.3c0-0.7-0.6-1.3-1.3-1.3s-1.3,0.6-1.3,1.3
				C124.9,222.1,125.5,222.7,126.2,222.7z"/>
			<path class="st0" d="M126.4,237.1c0.7,0,1.3-0.6,1.3-1.3c0-0.7-0.6-1.3-1.3-1.3s-1.3,0.6-1.3,1.3
				C125.1,236.5,125.7,237.1,126.4,237.1z"/>
			<path class="st0" d="M126.2,251.5c0.7,0,1.3-0.6,1.3-1.3s-0.6-1.3-1.3-1.3s-1.3,0.6-1.3,1.3C124.9,250.9,125.5,251.5,126.2,251.5
				z"/>
			<path class="st0" d="M126.4,265.9c0.7,0,1.3-0.6,1.3-1.3s-0.6-1.3-1.3-1.3s-1.3,0.6-1.3,1.3S125.7,265.9,126.4,265.9z"/>
		</g>
		<g>
			<path class="st0" d="M115.4,6.7c0.7,0,1.3-0.6,1.3-1.3s-0.6-1.3-1.3-1.3s-1.3,0.6-1.3,1.3C114.1,6.1,114.7,6.7,115.4,6.7z"/>
			<path class="st0" d="M115.2,21.1c0.7,0,1.3-0.6,1.3-1.3c0-0.7-0.6-1.3-1.3-1.3s-1.3,0.6-1.3,1.3
				C113.9,20.5,114.5,21.1,115.2,21.1z"/>
			<path class="st0" d="M115.4,35.5c0.7,0,1.3-0.6,1.3-1.3s-0.6-1.3-1.3-1.3s-1.3,0.6-1.3,1.3C114.1,34.9,114.7,35.5,115.4,35.5z"/>
			<circle class="st0" cx="115.2" cy="48.6" r="1.3"/>
			<path class="st0" d="M115.4,64.3c0.7,0,1.3-0.6,1.3-1.3s-0.6-1.3-1.3-1.3s-1.3,0.6-1.3,1.3S114.7,64.3,115.4,64.3z"/>
			<path class="st0" d="M115.2,78.7c0.7,0,1.3-0.6,1.3-1.3s-0.6-1.3-1.3-1.3s-1.3,0.6-1.3,1.3C113.9,78.1,114.5,78.7,115.2,78.7z"/>
			<path class="st0" d="M115.4,93.1c0.7,0,1.3-0.6,1.3-1.3s-0.6-1.3-1.3-1.3s-1.3,0.6-1.3,1.3C114.1,92.5,114.7,93.1,115.4,93.1z"/>
			<path class="st0" d="M115.2,107.5c0.7,0,1.3-0.6,1.3-1.3s-0.6-1.3-1.3-1.3s-1.3,0.6-1.3,1.3C113.9,106.9,114.5,107.5,115.2,107.5
				z"/>
			<path class="st0" d="M115.4,121.9c0.7,0,1.3-0.6,1.3-1.3s-0.6-1.3-1.3-1.3s-1.3,0.6-1.3,1.3S114.7,121.9,115.4,121.9z"/>
			<circle class="st0" cx="115.2" cy="135" r="1.3"/>
			<path class="st0" d="M115.4,150.7c0.7,0,1.3-0.6,1.3-1.3c0-0.7-0.6-1.3-1.3-1.3s-1.3,0.6-1.3,1.3
				C114.1,150.1,114.7,150.7,115.4,150.7z"/>
			<path class="st0" d="M115.2,165.1c0.7,0,1.3-0.6,1.3-1.3c0-0.7-0.6-1.3-1.3-1.3s-1.3,0.6-1.3,1.3
				C113.9,164.5,114.5,165.1,115.2,165.1z"/>
			<path class="st0" d="M115.4,179.5c0.7,0,1.3-0.6,1.3-1.3c0-0.7-0.6-1.3-1.3-1.3s-1.3,0.6-1.3,1.3
				C114.1,178.9,114.7,179.5,115.4,179.5z"/>
			<circle class="st0" cx="115.2" cy="192.6" r="1.3"/>
			<path class="st0" d="M115.4,208.3c0.7,0,1.3-0.6,1.3-1.3s-0.6-1.3-1.3-1.3s-1.3,0.6-1.3,1.3S114.7,208.3,115.4,208.3z"/>
			<path class="st0" d="M115.2,222.7c0.7,0,1.3-0.6,1.3-1.3c0-0.7-0.6-1.3-1.3-1.3s-1.3,0.6-1.3,1.3
				C113.9,222.1,114.5,222.7,115.2,222.7z"/>
			<path class="st0" d="M115.4,237.1c0.7,0,1.3-0.6,1.3-1.3c0-0.7-0.6-1.3-1.3-1.3s-1.3,0.6-1.3,1.3
				C114.1,236.5,114.7,237.1,115.4,237.1z"/>
			<path class="st0" d="M115.2,251.5c0.7,0,1.3-0.6,1.3-1.3s-0.6-1.3-1.3-1.3s-1.3,0.6-1.3,1.3C113.9,250.9,114.5,251.5,115.2,251.5
				z"/>
			<path class="st0" d="M115.4,265.9c0.7,0,1.3-0.6,1.3-1.3s-0.6-1.3-1.3-1.3s-1.3,0.6-1.3,1.3S114.7,265.9,115.4,265.9z"/>
		</g>
		<g>
			<path class="st0" d="M104.4,6.7c0.7,0,1.3-0.6,1.3-1.3s-0.6-1.3-1.3-1.3s-1.3,0.6-1.3,1.3C103.1,6.1,103.7,6.7,104.4,6.7z"/>
			<path class="st0" d="M104.2,21.1c0.7,0,1.3-0.6,1.3-1.3c0-0.7-0.6-1.3-1.3-1.3s-1.3,0.6-1.3,1.3
				C102.9,20.5,103.5,21.1,104.2,21.1z"/>
			<path class="st0" d="M104.4,35.5c0.7,0,1.3-0.6,1.3-1.3s-0.6-1.3-1.3-1.3s-1.3,0.6-1.3,1.3C103.1,34.9,103.7,35.5,104.4,35.5z"/>
			<circle class="st0" cx="104.2" cy="48.6" r="1.3"/>
			<path class="st0" d="M104.4,64.3c0.7,0,1.3-0.6,1.3-1.3s-0.6-1.3-1.3-1.3s-1.3,0.6-1.3,1.3S103.7,64.3,104.4,64.3z"/>
			<path class="st0" d="M104.2,78.7c0.7,0,1.3-0.6,1.3-1.3s-0.6-1.3-1.3-1.3s-1.3,0.6-1.3,1.3C102.9,78.1,103.5,78.7,104.2,78.7z"/>
			<path class="st0" d="M104.4,93.1c0.7,0,1.3-0.6,1.3-1.3s-0.6-1.3-1.3-1.3s-1.3,0.6-1.3,1.3C103.1,92.5,103.7,93.1,104.4,93.1z"/>
			<path class="st0" d="M104.2,107.5c0.7,0,1.3-0.6,1.3-1.3s-0.6-1.3-1.3-1.3s-1.3,0.6-1.3,1.3C102.9,106.9,103.5,107.5,104.2,107.5
				z"/>
			<path class="st0" d="M104.4,121.9c0.7,0,1.3-0.6,1.3-1.3s-0.6-1.3-1.3-1.3s-1.3,0.6-1.3,1.3S103.7,121.9,104.4,121.9z"/>
			<circle class="st0" cx="104.2" cy="135" r="1.3"/>
			<path class="st0" d="M104.4,150.7c0.7,0,1.3-0.6,1.3-1.3c0-0.7-0.6-1.3-1.3-1.3s-1.3,0.6-1.3,1.3
				C103.1,150.1,103.7,150.7,104.4,150.7z"/>
			<path class="st0" d="M104.2,165.1c0.7,0,1.3-0.6,1.3-1.3c0-0.7-0.6-1.3-1.3-1.3s-1.3,0.6-1.3,1.3
				C102.9,164.5,103.5,165.1,104.2,165.1z"/>
			<path class="st0" d="M104.4,179.5c0.7,0,1.3-0.6,1.3-1.3c0-0.7-0.6-1.3-1.3-1.3s-1.3,0.6-1.3,1.3
				C103.1,178.9,103.7,179.5,104.4,179.5z"/>
			<circle class="st0" cx="104.2" cy="192.6" r="1.3"/>
			<path class="st0" d="M104.4,208.3c0.7,0,1.3-0.6,1.3-1.3s-0.6-1.3-1.3-1.3s-1.3,0.6-1.3,1.3S103.7,208.3,104.4,208.3z"/>
			<path class="st0" d="M104.2,222.7c0.7,0,1.3-0.6,1.3-1.3c0-0.7-0.6-1.3-1.3-1.3s-1.3,0.6-1.3,1.3
				C102.9,222.1,103.5,222.7,104.2,222.7z"/>
			<path class="st0" d="M104.4,237.1c0.7,0,1.3-0.6,1.3-1.3c0-0.7-0.6-1.3-1.3-1.3s-1.3,0.6-1.3,1.3
				C103.1,236.5,103.7,237.1,104.4,237.1z"/>
			<path class="st0" d="M104.2,251.5c0.7,0,1.3-0.6,1.3-1.3s-0.6-1.3-1.3-1.3s-1.3,0.6-1.3,1.3C102.9,250.9,103.5,251.5,104.2,251.5
				z"/>
			<path class="st0" d="M104.4,265.9c0.7,0,1.3-0.6,1.3-1.3s-0.6-1.3-1.3-1.3s-1.3,0.6-1.3,1.3S103.7,265.9,104.4,265.9z"/>
		</g>
		<g>
			<path class="st0" d="M93.4,6.7c0.7,0,1.3-0.6,1.3-1.3s-0.6-1.3-1.3-1.3s-1.3,0.6-1.3,1.3C92.1,6.1,92.7,6.7,93.4,6.7z"/>
			<path class="st0" d="M93.2,21.1c0.7,0,1.3-0.6,1.3-1.3c0-0.7-0.6-1.3-1.3-1.3s-1.3,0.6-1.3,1.3C91.9,20.5,92.5,21.1,93.2,21.1z"
				/>
			<path class="st0" d="M93.4,35.5c0.7,0,1.3-0.6,1.3-1.3s-0.6-1.3-1.3-1.3s-1.3,0.6-1.3,1.3C92.1,34.9,92.7,35.5,93.4,35.5z"/>
			<circle class="st0" cx="93.2" cy="48.6" r="1.3"/>
			<path class="st0" d="M93.4,64.3c0.7,0,1.3-0.6,1.3-1.3s-0.6-1.3-1.3-1.3s-1.3,0.6-1.3,1.3S92.7,64.3,93.4,64.3z"/>
			<path class="st0" d="M93.2,78.7c0.7,0,1.3-0.6,1.3-1.3s-0.6-1.3-1.3-1.3s-1.3,0.6-1.3,1.3C91.9,78.1,92.5,78.7,93.2,78.7z"/>
			<path class="st0" d="M93.4,93.1c0.7,0,1.3-0.6,1.3-1.3s-0.6-1.3-1.3-1.3s-1.3,0.6-1.3,1.3C92.1,92.5,92.7,93.1,93.4,93.1z"/>
			<path class="st0" d="M93.2,107.5c0.7,0,1.3-0.6,1.3-1.3s-0.6-1.3-1.3-1.3s-1.3,0.6-1.3,1.3C91.9,106.9,92.5,107.5,93.2,107.5z"/>
			<path class="st0" d="M93.4,121.9c0.7,0,1.3-0.6,1.3-1.3s-0.6-1.3-1.3-1.3s-1.3,0.6-1.3,1.3S92.7,121.9,93.4,121.9z"/>
			<circle class="st0" cx="93.2" cy="135" r="1.3"/>
			<path class="st0" d="M93.4,150.7c0.7,0,1.3-0.6,1.3-1.3c0-0.7-0.6-1.3-1.3-1.3s-1.3,0.6-1.3,1.3
				C92.1,150.1,92.7,150.7,93.4,150.7z"/>
			<path class="st0" d="M93.2,165.1c0.7,0,1.3-0.6,1.3-1.3c0-0.7-0.6-1.3-1.3-1.3s-1.3,0.6-1.3,1.3
				C91.9,164.5,92.5,165.1,93.2,165.1z"/>
			<path class="st0" d="M93.4,179.5c0.7,0,1.3-0.6,1.3-1.3c0-0.7-0.6-1.3-1.3-1.3s-1.3,0.6-1.3,1.3
				C92.1,178.9,92.7,179.5,93.4,179.5z"/>
			<circle class="st0" cx="93.2" cy="192.6" r="1.3"/>
			<path class="st0" d="M93.4,208.3c0.7,0,1.3-0.6,1.3-1.3s-0.6-1.3-1.3-1.3s-1.3,0.6-1.3,1.3S92.7,208.3,93.4,208.3z"/>
			<path class="st0" d="M93.2,222.7c0.7,0,1.3-0.6,1.3-1.3c0-0.7-0.6-1.3-1.3-1.3s-1.3,0.6-1.3,1.3
				C91.9,222.1,92.5,222.7,93.2,222.7z"/>
			<path class="st0" d="M93.4,237.1c0.7,0,1.3-0.6,1.3-1.3c0-0.7-0.6-1.3-1.3-1.3s-1.3,0.6-1.3,1.3
				C92.1,236.5,92.7,237.1,93.4,237.1z"/>
			<path class="st0" d="M93.2,251.5c0.7,0,1.3-0.6,1.3-1.3s-0.6-1.3-1.3-1.3s-1.3,0.6-1.3,1.3C91.9,250.9,92.5,251.5,93.2,251.5z"/>
			<path class="st0" d="M93.4,265.9c0.7,0,1.3-0.6,1.3-1.3s-0.6-1.3-1.3-1.3s-1.3,0.6-1.3,1.3S92.7,265.9,93.4,265.9z"/>
		</g>
		<g>
			<path class="st0" d="M82.4,6.7c0.7,0,1.3-0.6,1.3-1.3s-0.6-1.3-1.3-1.3s-1.3,0.6-1.3,1.3C81.1,6.1,81.7,6.7,82.4,6.7z"/>
			<path class="st0" d="M82.2,21.1c0.7,0,1.3-0.6,1.3-1.3c0-0.7-0.6-1.3-1.3-1.3s-1.3,0.6-1.3,1.3C80.9,20.5,81.5,21.1,82.2,21.1z"
				/>
			<path class="st0" d="M82.4,35.5c0.7,0,1.3-0.6,1.3-1.3s-0.6-1.3-1.3-1.3s-1.3,0.6-1.3,1.3C81.1,34.9,81.7,35.5,82.4,35.5z"/>
			<circle class="st0" cx="82.2" cy="48.6" r="1.3"/>
			<path class="st0" d="M82.4,64.3c0.7,0,1.3-0.6,1.3-1.3s-0.6-1.3-1.3-1.3s-1.3,0.6-1.3,1.3S81.7,64.3,82.4,64.3z"/>
			<path class="st0" d="M82.2,78.7c0.7,0,1.3-0.6,1.3-1.3s-0.6-1.3-1.3-1.3s-1.3,0.6-1.3,1.3C80.9,78.1,81.5,78.7,82.2,78.7z"/>
			<path class="st0" d="M82.4,93.1c0.7,0,1.3-0.6,1.3-1.3s-0.6-1.3-1.3-1.3s-1.3,0.6-1.3,1.3C81.1,92.5,81.7,93.1,82.4,93.1z"/>
			<path class="st0" d="M82.2,107.5c0.7,0,1.3-0.6,1.3-1.3s-0.6-1.3-1.3-1.3s-1.3,0.6-1.3,1.3C80.9,106.9,81.5,107.5,82.2,107.5z"/>
			<path class="st0" d="M82.4,121.9c0.7,0,1.3-0.6,1.3-1.3s-0.6-1.3-1.3-1.3s-1.3,0.6-1.3,1.3S81.7,121.9,82.4,121.9z"/>
			<circle class="st0" cx="82.2" cy="135" r="1.3"/>
			<path class="st0" d="M82.4,150.7c0.7,0,1.3-0.6,1.3-1.3c0-0.7-0.6-1.3-1.3-1.3s-1.3,0.6-1.3,1.3
				C81.1,150.1,81.7,150.7,82.4,150.7z"/>
			<path class="st0" d="M82.2,165.1c0.7,0,1.3-0.6,1.3-1.3c0-0.7-0.6-1.3-1.3-1.3s-1.3,0.6-1.3,1.3
				C80.9,164.5,81.5,165.1,82.2,165.1z"/>
			<path class="st0" d="M82.4,179.5c0.7,0,1.3-0.6,1.3-1.3c0-0.7-0.6-1.3-1.3-1.3s-1.3,0.6-1.3,1.3
				C81.1,178.9,81.7,179.5,82.4,179.5z"/>
			<circle class="st0" cx="82.2" cy="192.6" r="1.3"/>
			<path class="st0" d="M82.4,208.3c0.7,0,1.3-0.6,1.3-1.3s-0.6-1.3-1.3-1.3s-1.3,0.6-1.3,1.3S81.7,208.3,82.4,208.3z"/>
			<path class="st0" d="M82.2,222.7c0.7,0,1.3-0.6,1.3-1.3c0-0.7-0.6-1.3-1.3-1.3s-1.3,0.6-1.3,1.3
				C80.9,222.1,81.5,222.7,82.2,222.7z"/>
			<path class="st0" d="M82.4,237.1c0.7,0,1.3-0.6,1.3-1.3c0-0.7-0.6-1.3-1.3-1.3s-1.3,0.6-1.3,1.3
				C81.1,236.5,81.7,237.1,82.4,237.1z"/>
			<path class="st0" d="M82.2,251.5c0.7,0,1.3-0.6,1.3-1.3s-0.6-1.3-1.3-1.3s-1.3,0.6-1.3,1.3C80.9,250.9,81.5,251.5,82.2,251.5z"/>
			<path class="st0" d="M82.4,265.9c0.7,0,1.3-0.6,1.3-1.3s-0.6-1.3-1.3-1.3s-1.3,0.6-1.3,1.3S81.7,265.9,82.4,265.9z"/>
		</g>
		<g>
			<path class="st0" d="M71.4,6.7c0.7,0,1.3-0.6,1.3-1.3s-0.6-1.3-1.3-1.3s-1.3,0.6-1.3,1.3C70.1,6.1,70.7,6.7,71.4,6.7z"/>
			<path class="st0" d="M71.2,21.1c0.7,0,1.3-0.6,1.3-1.3c0-0.7-0.6-1.3-1.3-1.3s-1.3,0.6-1.3,1.3C69.9,20.5,70.5,21.1,71.2,21.1z"
				/>
			<path class="st0" d="M71.4,35.5c0.7,0,1.3-0.6,1.3-1.3s-0.6-1.3-1.3-1.3s-1.3,0.6-1.3,1.3C70.1,34.9,70.7,35.5,71.4,35.5z"/>
			<circle class="st0" cx="71.2" cy="48.6" r="1.3"/>
			<path class="st0" d="M71.4,64.3c0.7,0,1.3-0.6,1.3-1.3s-0.6-1.3-1.3-1.3s-1.3,0.6-1.3,1.3S70.7,64.3,71.4,64.3z"/>
			<path class="st0" d="M71.2,78.7c0.7,0,1.3-0.6,1.3-1.3s-0.6-1.3-1.3-1.3s-1.3,0.6-1.3,1.3C69.9,78.1,70.5,78.7,71.2,78.7z"/>
			<path class="st0" d="M71.4,93.1c0.7,0,1.3-0.6,1.3-1.3s-0.6-1.3-1.3-1.3s-1.3,0.6-1.3,1.3C70.1,92.5,70.7,93.1,71.4,93.1z"/>
			<path class="st0" d="M71.2,107.5c0.7,0,1.3-0.6,1.3-1.3s-0.6-1.3-1.3-1.3s-1.3,0.6-1.3,1.3C69.9,106.9,70.5,107.5,71.2,107.5z"/>
			<path class="st0" d="M71.4,121.9c0.7,0,1.3-0.6,1.3-1.3s-0.6-1.3-1.3-1.3s-1.3,0.6-1.3,1.3S70.7,121.9,71.4,121.9z"/>
			<circle class="st0" cx="71.2" cy="135" r="1.3"/>
			<path class="st0" d="M71.4,150.7c0.7,0,1.3-0.6,1.3-1.3c0-0.7-0.6-1.3-1.3-1.3s-1.3,0.6-1.3,1.3
				C70.1,150.1,70.7,150.7,71.4,150.7z"/>
			<path class="st0" d="M71.2,165.1c0.7,0,1.3-0.6,1.3-1.3c0-0.7-0.6-1.3-1.3-1.3s-1.3,0.6-1.3,1.3
				C69.9,164.5,70.5,165.1,71.2,165.1z"/>
			<path class="st0" d="M71.4,179.5c0.7,0,1.3-0.6,1.3-1.3c0-0.7-0.6-1.3-1.3-1.3s-1.3,0.6-1.3,1.3
				C70.1,178.9,70.7,179.5,71.4,179.5z"/>
			<circle class="st0" cx="71.2" cy="192.6" r="1.3"/>
			<path class="st0" d="M71.4,208.3c0.7,0,1.3-0.6,1.3-1.3s-0.6-1.3-1.3-1.3s-1.3,0.6-1.3,1.3S70.7,208.3,71.4,208.3z"/>
			<path class="st0" d="M71.2,222.7c0.7,0,1.3-0.6,1.3-1.3c0-0.7-0.6-1.3-1.3-1.3s-1.3,0.6-1.3,1.3
				C69.9,222.1,70.5,222.7,71.2,222.7z"/>
			<path class="st0" d="M71.4,237.1c0.7,0,1.3-0.6,1.3-1.3c0-0.7-0.6-1.3-1.3-1.3s-1.3,0.6-1.3,1.3
				C70.1,236.5,70.7,237.1,71.4,237.1z"/>
			<path class="st0" d="M71.2,251.5c0.7,0,1.3-0.6,1.3-1.3s-0.6-1.3-1.3-1.3s-1.3,0.6-1.3,1.3C69.9,250.9,70.5,251.5,71.2,251.5z"/>
			<path class="st0" d="M71.4,265.9c0.7,0,1.3-0.6,1.3-1.3s-0.6-1.3-1.3-1.3s-1.3,0.6-1.3,1.3S70.7,265.9,71.4,265.9z"/>
		</g>
		<g>
			<path class="st0" d="M60.4,6.7c0.7,0,1.3-0.6,1.3-1.3s-0.6-1.3-1.3-1.3s-1.3,0.6-1.3,1.3C59.1,6.1,59.7,6.7,60.4,6.7z"/>
			<path class="st0" d="M60.2,21.1c0.7,0,1.3-0.6,1.3-1.3c0-0.7-0.6-1.3-1.3-1.3s-1.3,0.6-1.3,1.3C58.9,20.5,59.5,21.1,60.2,21.1z"
				/>
			<path class="st0" d="M60.4,35.5c0.7,0,1.3-0.6,1.3-1.3s-0.6-1.3-1.3-1.3s-1.3,0.6-1.3,1.3C59.1,34.9,59.7,35.5,60.4,35.5z"/>
			<circle class="st0" cx="60.2" cy="48.6" r="1.3"/>
			<path class="st0" d="M60.4,64.3c0.7,0,1.3-0.6,1.3-1.3s-0.6-1.3-1.3-1.3s-1.3,0.6-1.3,1.3S59.7,64.3,60.4,64.3z"/>
			<path class="st0" d="M60.2,78.7c0.7,0,1.3-0.6,1.3-1.3s-0.6-1.3-1.3-1.3s-1.3,0.6-1.3,1.3C58.9,78.1,59.5,78.7,60.2,78.7z"/>
			<path class="st0" d="M60.4,93.1c0.7,0,1.3-0.6,1.3-1.3s-0.6-1.3-1.3-1.3s-1.3,0.6-1.3,1.3C59.1,92.5,59.7,93.1,60.4,93.1z"/>
			<path class="st0" d="M60.2,107.5c0.7,0,1.3-0.6,1.3-1.3s-0.6-1.3-1.3-1.3s-1.3,0.6-1.3,1.3C58.9,106.9,59.5,107.5,60.2,107.5z"/>
			<path class="st0" d="M60.4,121.9c0.7,0,1.3-0.6,1.3-1.3s-0.6-1.3-1.3-1.3s-1.3,0.6-1.3,1.3S59.7,121.9,60.4,121.9z"/>
			<circle class="st0" cx="60.2" cy="135" r="1.3"/>
			<path class="st0" d="M60.4,150.7c0.7,0,1.3-0.6,1.3-1.3c0-0.7-0.6-1.3-1.3-1.3s-1.3,0.6-1.3,1.3
				C59.1,150.1,59.7,150.7,60.4,150.7z"/>
			<path class="st0" d="M60.2,165.1c0.7,0,1.3-0.6,1.3-1.3c0-0.7-0.6-1.3-1.3-1.3s-1.3,0.6-1.3,1.3
				C58.9,164.5,59.5,165.1,60.2,165.1z"/>
			<path class="st0" d="M60.4,179.5c0.7,0,1.3-0.6,1.3-1.3c0-0.7-0.6-1.3-1.3-1.3s-1.3,0.6-1.3,1.3
				C59.1,178.9,59.7,179.5,60.4,179.5z"/>
			<circle class="st0" cx="60.2" cy="192.6" r="1.3"/>
			<path class="st0" d="M60.4,208.3c0.7,0,1.3-0.6,1.3-1.3s-0.6-1.3-1.3-1.3s-1.3,0.6-1.3,1.3S59.7,208.3,60.4,208.3z"/>
			<path class="st0" d="M60.2,222.7c0.7,0,1.3-0.6,1.3-1.3c0-0.7-0.6-1.3-1.3-1.3s-1.3,0.6-1.3,1.3
				C58.9,222.1,59.5,222.7,60.2,222.7z"/>
			<path class="st0" d="M60.4,237.1c0.7,0,1.3-0.6,1.3-1.3c0-0.7-0.6-1.3-1.3-1.3s-1.3,0.6-1.3,1.3
				C59.1,236.5,59.7,237.1,60.4,237.1z"/>
			<path class="st0" d="M60.2,251.5c0.7,0,1.3-0.6,1.3-1.3s-0.6-1.3-1.3-1.3s-1.3,0.6-1.3,1.3C58.9,250.9,59.5,251.5,60.2,251.5z"/>
			<path class="st0" d="M60.4,265.9c0.7,0,1.3-0.6,1.3-1.3s-0.6-1.3-1.3-1.3s-1.3,0.6-1.3,1.3S59.7,265.9,60.4,265.9z"/>
		</g>
		<g>
			<path class="st0" d="M49.4,6.7c0.7,0,1.3-0.6,1.3-1.3s-0.6-1.3-1.3-1.3s-1.3,0.6-1.3,1.3C48.1,6.1,48.7,6.7,49.4,6.7z"/>
			<path class="st0" d="M49.2,21.1c0.7,0,1.3-0.6,1.3-1.3c0-0.7-0.6-1.3-1.3-1.3s-1.3,0.6-1.3,1.3C47.9,20.5,48.5,21.1,49.2,21.1z"
				/>
			<path class="st0" d="M49.4,35.5c0.7,0,1.3-0.6,1.3-1.3s-0.6-1.3-1.3-1.3s-1.3,0.6-1.3,1.3C48.1,34.9,48.7,35.5,49.4,35.5z"/>
			<circle class="st0" cx="49.2" cy="48.6" r="1.3"/>
			<path class="st0" d="M49.4,64.3c0.7,0,1.3-0.6,1.3-1.3s-0.6-1.3-1.3-1.3s-1.3,0.6-1.3,1.3S48.7,64.3,49.4,64.3z"/>
			<path class="st0" d="M49.2,78.7c0.7,0,1.3-0.6,1.3-1.3s-0.6-1.3-1.3-1.3s-1.3,0.6-1.3,1.3C47.9,78.1,48.5,78.7,49.2,78.7z"/>
			<path class="st0" d="M49.4,93.1c0.7,0,1.3-0.6,1.3-1.3s-0.6-1.3-1.3-1.3s-1.3,0.6-1.3,1.3C48.1,92.5,48.7,93.1,49.4,93.1z"/>
			<path class="st0" d="M49.2,107.5c0.7,0,1.3-0.6,1.3-1.3s-0.6-1.3-1.3-1.3s-1.3,0.6-1.3,1.3C47.9,106.9,48.5,107.5,49.2,107.5z"/>
			<path class="st0" d="M49.4,121.9c0.7,0,1.3-0.6,1.3-1.3s-0.6-1.3-1.3-1.3s-1.3,0.6-1.3,1.3S48.7,121.9,49.4,121.9z"/>
			<circle class="st0" cx="49.2" cy="135" r="1.3"/>
			<path class="st0" d="M49.4,150.7c0.7,0,1.3-0.6,1.3-1.3c0-0.7-0.6-1.3-1.3-1.3s-1.3,0.6-1.3,1.3
				C48.1,150.1,48.7,150.7,49.4,150.7z"/>
			<path class="st0" d="M49.2,165.1c0.7,0,1.3-0.6,1.3-1.3c0-0.7-0.6-1.3-1.3-1.3s-1.3,0.6-1.3,1.3
				C47.9,164.5,48.5,165.1,49.2,165.1z"/>
			<path class="st0" d="M49.4,179.5c0.7,0,1.3-0.6,1.3-1.3c0-0.7-0.6-1.3-1.3-1.3s-1.3,0.6-1.3,1.3
				C48.1,178.9,48.7,179.5,49.4,179.5z"/>
			<circle class="st0" cx="49.2" cy="192.6" r="1.3"/>
			<path class="st0" d="M49.4,208.3c0.7,0,1.3-0.6,1.3-1.3s-0.6-1.3-1.3-1.3s-1.3,0.6-1.3,1.3S48.7,208.3,49.4,208.3z"/>
			<path class="st0" d="M49.2,222.7c0.7,0,1.3-0.6,1.3-1.3c0-0.7-0.6-1.3-1.3-1.3s-1.3,0.6-1.3,1.3
				C47.9,222.1,48.5,222.7,49.2,222.7z"/>
			<path class="st0" d="M49.4,237.1c0.7,0,1.3-0.6,1.3-1.3c0-0.7-0.6-1.3-1.3-1.3s-1.3,0.6-1.3,1.3
				C48.1,236.5,48.7,237.1,49.4,237.1z"/>
			<path class="st0" d="M49.2,251.5c0.7,0,1.3-0.6,1.3-1.3s-0.6-1.3-1.3-1.3s-1.3,0.6-1.3,1.3C47.9,250.9,48.5,251.5,49.2,251.5z"/>
			<path class="st0" d="M49.4,265.9c0.7,0,1.3-0.6,1.3-1.3s-0.6-1.3-1.3-1.3s-1.3,0.6-1.3,1.3S48.7,265.9,49.4,265.9z"/>
		</g>
		<g>
			<path class="st0" d="M38.4,6.7c0.7,0,1.3-0.6,1.3-1.3s-0.6-1.3-1.3-1.3s-1.3,0.6-1.3,1.3C37.1,6.1,37.7,6.7,38.4,6.7z"/>
			<path class="st0" d="M38.2,21.1c0.7,0,1.3-0.6,1.3-1.3c0-0.7-0.6-1.3-1.3-1.3s-1.3,0.6-1.3,1.3C36.9,20.5,37.5,21.1,38.2,21.1z"
				/>
			<path class="st0" d="M38.4,35.5c0.7,0,1.3-0.6,1.3-1.3s-0.6-1.3-1.3-1.3s-1.3,0.6-1.3,1.3C37.1,34.9,37.7,35.5,38.4,35.5z"/>
			<circle class="st0" cx="38.2" cy="48.6" r="1.3"/>
			<path class="st0" d="M38.4,64.3c0.7,0,1.3-0.6,1.3-1.3s-0.6-1.3-1.3-1.3s-1.3,0.6-1.3,1.3S37.7,64.3,38.4,64.3z"/>
			<path class="st0" d="M38.2,78.7c0.7,0,1.3-0.6,1.3-1.3s-0.6-1.3-1.3-1.3s-1.3,0.6-1.3,1.3C36.9,78.1,37.5,78.7,38.2,78.7z"/>
			<path class="st0" d="M38.4,93.1c0.7,0,1.3-0.6,1.3-1.3s-0.6-1.3-1.3-1.3s-1.3,0.6-1.3,1.3C37.1,92.5,37.7,93.1,38.4,93.1z"/>
			<path class="st0" d="M38.2,107.5c0.7,0,1.3-0.6,1.3-1.3s-0.6-1.3-1.3-1.3s-1.3,0.6-1.3,1.3C36.9,106.9,37.5,107.5,38.2,107.5z"/>
			<path class="st0" d="M38.4,121.9c0.7,0,1.3-0.6,1.3-1.3s-0.6-1.3-1.3-1.3s-1.3,0.6-1.3,1.3S37.7,121.9,38.4,121.9z"/>
			<circle class="st0" cx="38.2" cy="135" r="1.3"/>
			<path class="st0" d="M38.4,150.7c0.7,0,1.3-0.6,1.3-1.3c0-0.7-0.6-1.3-1.3-1.3s-1.3,0.6-1.3,1.3
				C37.1,150.1,37.7,150.7,38.4,150.7z"/>
			<path class="st0" d="M38.2,165.1c0.7,0,1.3-0.6,1.3-1.3c0-0.7-0.6-1.3-1.3-1.3s-1.3,0.6-1.3,1.3
				C36.9,164.5,37.5,165.1,38.2,165.1z"/>
			<path class="st0" d="M38.4,179.5c0.7,0,1.3-0.6,1.3-1.3c0-0.7-0.6-1.3-1.3-1.3s-1.3,0.6-1.3,1.3
				C37.1,178.9,37.7,179.5,38.4,179.5z"/>
			<circle class="st0" cx="38.2" cy="192.6" r="1.3"/>
			<path class="st0" d="M38.4,208.3c0.7,0,1.3-0.6,1.3-1.3s-0.6-1.3-1.3-1.3s-1.3,0.6-1.3,1.3S37.7,208.3,38.4,208.3z"/>
			<path class="st0" d="M38.2,222.7c0.7,0,1.3-0.6,1.3-1.3c0-0.7-0.6-1.3-1.3-1.3s-1.3,0.6-1.3,1.3
				C36.9,222.1,37.5,222.7,38.2,222.7z"/>
			<path class="st0" d="M38.4,237.1c0.7,0,1.3-0.6,1.3-1.3c0-0.7-0.6-1.3-1.3-1.3s-1.3,0.6-1.3,1.3
				C37.1,236.5,37.7,237.1,38.4,237.1z"/>
			<path class="st0" d="M38.2,251.5c0.7,0,1.3-0.6,1.3-1.3s-0.6-1.3-1.3-1.3s-1.3,0.6-1.3,1.3C36.9,250.9,37.5,251.5,38.2,251.5z"/>
			<path class="st0" d="M38.4,265.9c0.7,0,1.3-0.6,1.3-1.3s-0.6-1.3-1.3-1.3s-1.3,0.6-1.3,1.3S37.7,265.9,38.4,265.9z"/>
		</g>
		<g>
			<path class="st0" d="M27.4,6.7c0.7,0,1.3-0.6,1.3-1.3s-0.6-1.3-1.3-1.3s-1.3,0.6-1.3,1.3C26.1,6.1,26.7,6.7,27.4,6.7z"/>
			<path class="st0" d="M27.2,21.1c0.7,0,1.3-0.6,1.3-1.3c0-0.7-0.6-1.3-1.3-1.3s-1.3,0.6-1.3,1.3C25.9,20.5,26.5,21.1,27.2,21.1z"
				/>
			<path class="st0" d="M27.4,35.5c0.7,0,1.3-0.6,1.3-1.3s-0.6-1.3-1.3-1.3s-1.3,0.6-1.3,1.3C26.1,34.9,26.7,35.5,27.4,35.5z"/>
			<circle class="st0" cx="27.2" cy="48.6" r="1.3"/>
			<path class="st0" d="M27.4,64.3c0.7,0,1.3-0.6,1.3-1.3s-0.6-1.3-1.3-1.3s-1.3,0.6-1.3,1.3S26.7,64.3,27.4,64.3z"/>
			<path class="st0" d="M27.2,78.7c0.7,0,1.3-0.6,1.3-1.3s-0.6-1.3-1.3-1.3s-1.3,0.6-1.3,1.3C25.9,78.1,26.5,78.7,27.2,78.7z"/>
			<path class="st0" d="M27.4,93.1c0.7,0,1.3-0.6,1.3-1.3s-0.6-1.3-1.3-1.3s-1.3,0.6-1.3,1.3C26.1,92.5,26.7,93.1,27.4,93.1z"/>
			<path class="st0" d="M27.2,107.5c0.7,0,1.3-0.6,1.3-1.3s-0.6-1.3-1.3-1.3s-1.3,0.6-1.3,1.3C25.9,106.9,26.5,107.5,27.2,107.5z"/>
			<path class="st0" d="M27.4,121.9c0.7,0,1.3-0.6,1.3-1.3s-0.6-1.3-1.3-1.3s-1.3,0.6-1.3,1.3S26.7,121.9,27.4,121.9z"/>
			<circle class="st0" cx="27.2" cy="135" r="1.3"/>
			<path class="st0" d="M27.4,150.7c0.7,0,1.3-0.6,1.3-1.3c0-0.7-0.6-1.3-1.3-1.3s-1.3,0.6-1.3,1.3
				C26.1,150.1,26.7,150.7,27.4,150.7z"/>
			<path class="st0" d="M27.2,165.1c0.7,0,1.3-0.6,1.3-1.3c0-0.7-0.6-1.3-1.3-1.3s-1.3,0.6-1.3,1.3
				C25.9,164.5,26.5,165.1,27.2,165.1z"/>
			<path class="st0" d="M27.4,179.5c0.7,0,1.3-0.6,1.3-1.3c0-0.7-0.6-1.3-1.3-1.3s-1.3,0.6-1.3,1.3
				C26.1,178.9,26.7,179.5,27.4,179.5z"/>
			<circle class="st0" cx="27.2" cy="192.6" r="1.3"/>
			<path class="st0" d="M27.4,208.3c0.7,0,1.3-0.6,1.3-1.3s-0.6-1.3-1.3-1.3s-1.3,0.6-1.3,1.3S26.7,208.3,27.4,208.3z"/>
			<path class="st0" d="M27.2,222.7c0.7,0,1.3-0.6,1.3-1.3c0-0.7-0.6-1.3-1.3-1.3s-1.3,0.6-1.3,1.3
				C25.9,222.1,26.5,222.7,27.2,222.7z"/>
			<path class="st0" d="M27.4,237.1c0.7,0,1.3-0.6,1.3-1.3c0-0.7-0.6-1.3-1.3-1.3s-1.3,0.6-1.3,1.3
				C26.1,236.5,26.7,237.1,27.4,237.1z"/>
			<path class="st0" d="M27.2,251.5c0.7,0,1.3-0.6,1.3-1.3s-0.6-1.3-1.3-1.3s-1.3,0.6-1.3,1.3C25.9,250.9,26.5,251.5,27.2,251.5z"/>
			<path class="st0" d="M27.4,265.9c0.7,0,1.3-0.6,1.3-1.3s-0.6-1.3-1.3-1.3s-1.3,0.6-1.3,1.3S26.7,265.9,27.4,265.9z"/>
		</g>
		<g>
			<path class="st0" d="M16.4,6.7c0.7,0,1.3-0.6,1.3-1.3s-0.6-1.3-1.3-1.3s-1.3,0.6-1.3,1.3C15.1,6.1,15.7,6.7,16.4,6.7z"/>
			<path class="st0" d="M16.2,21.1c0.7,0,1.3-0.6,1.3-1.3c0-0.7-0.6-1.3-1.3-1.3s-1.3,0.6-1.3,1.3C14.9,20.5,15.5,21.1,16.2,21.1z"
				/>
			<path class="st0" d="M16.4,35.5c0.7,0,1.3-0.6,1.3-1.3s-0.6-1.3-1.3-1.3s-1.3,0.6-1.3,1.3C15.1,34.9,15.7,35.5,16.4,35.5z"/>
			<circle class="st0" cx="16.2" cy="48.6" r="1.3"/>
			<path class="st0" d="M16.4,64.3c0.7,0,1.3-0.6,1.3-1.3s-0.6-1.3-1.3-1.3s-1.3,0.6-1.3,1.3S15.7,64.3,16.4,64.3z"/>
			<path class="st0" d="M16.2,78.7c0.7,0,1.3-0.6,1.3-1.3s-0.6-1.3-1.3-1.3s-1.3,0.6-1.3,1.3C14.9,78.1,15.5,78.7,16.2,78.7z"/>
			<path class="st0" d="M16.4,93.1c0.7,0,1.3-0.6,1.3-1.3s-0.6-1.3-1.3-1.3s-1.3,0.6-1.3,1.3C15.1,92.5,15.7,93.1,16.4,93.1z"/>
			<path class="st0" d="M16.2,107.5c0.7,0,1.3-0.6,1.3-1.3s-0.6-1.3-1.3-1.3s-1.3,0.6-1.3,1.3C14.9,106.9,15.5,107.5,16.2,107.5z"/>
			<path class="st0" d="M16.4,121.9c0.7,0,1.3-0.6,1.3-1.3s-0.6-1.3-1.3-1.3s-1.3,0.6-1.3,1.3S15.7,121.9,16.4,121.9z"/>
			<circle class="st0" cx="16.2" cy="135" r="1.3"/>
			<path class="st0" d="M16.4,150.7c0.7,0,1.3-0.6,1.3-1.3c0-0.7-0.6-1.3-1.3-1.3s-1.3,0.6-1.3,1.3
				C15.1,150.1,15.7,150.7,16.4,150.7z"/>
			<path class="st0" d="M16.2,165.1c0.7,0,1.3-0.6,1.3-1.3c0-0.7-0.6-1.3-1.3-1.3s-1.3,0.6-1.3,1.3
				C14.9,164.5,15.5,165.1,16.2,165.1z"/>
			<path class="st0" d="M16.4,179.5c0.7,0,1.3-0.6,1.3-1.3c0-0.7-0.6-1.3-1.3-1.3s-1.3,0.6-1.3,1.3
				C15.1,178.9,15.7,179.5,16.4,179.5z"/>
			<circle class="st0" cx="16.2" cy="192.6" r="1.3"/>
			<path class="st0" d="M16.4,208.3c0.7,0,1.3-0.6,1.3-1.3s-0.6-1.3-1.3-1.3s-1.3,0.6-1.3,1.3S15.7,208.3,16.4,208.3z"/>
			<path class="st0" d="M16.2,222.7c0.7,0,1.3-0.6,1.3-1.3c0-0.7-0.6-1.3-1.3-1.3s-1.3,0.6-1.3,1.3
				C14.9,222.1,15.5,222.7,16.2,222.7z"/>
			<path class="st0" d="M16.4,237.1c0.7,0,1.3-0.6,1.3-1.3c0-0.7-0.6-1.3-1.3-1.3s-1.3,0.6-1.3,1.3
				C15.1,236.5,15.7,237.1,16.4,237.1z"/>
			<path class="st0" d="M16.2,251.5c0.7,0,1.3-0.6,1.3-1.3s-0.6-1.3-1.3-1.3s-1.3,0.6-1.3,1.3C14.9,250.9,15.5,251.5,16.2,251.5z"/>
			<path class="st0" d="M16.4,265.9c0.7,0,1.3-0.6,1.3-1.3s-0.6-1.3-1.3-1.3s-1.3,0.6-1.3,1.3S15.7,265.9,16.4,265.9z"/>
		</g>
		<g>
			<path class="st0" d="M5.4,6.7c0.7,0,1.3-0.6,1.3-1.3S6.1,4.1,5.4,4.1S4.1,4.7,4.1,5.4C4.1,6.1,4.7,6.7,5.4,6.7z"/>
			<path class="st0" d="M5.2,21.1c0.7,0,1.3-0.6,1.3-1.3c0-0.7-0.6-1.3-1.3-1.3s-1.3,0.6-1.3,1.3C3.9,20.5,4.5,21.1,5.2,21.1z"/>
			<path class="st0" d="M5.4,35.5c0.7,0,1.3-0.6,1.3-1.3s-0.6-1.3-1.3-1.3s-1.3,0.6-1.3,1.3C4.1,34.9,4.7,35.5,5.4,35.5z"/>
			<circle class="st0" cx="5.2" cy="48.6" r="1.3"/>
			<path class="st0" d="M5.4,64.3c0.7,0,1.3-0.6,1.3-1.3s-0.6-1.3-1.3-1.3S4.1,62.3,4.1,63S4.7,64.3,5.4,64.3z"/>
			<path class="st0" d="M5.2,78.7c0.7,0,1.3-0.6,1.3-1.3s-0.6-1.3-1.3-1.3s-1.3,0.6-1.3,1.3C3.9,78.1,4.5,78.7,5.2,78.7z"/>
			<path class="st0" d="M5.4,93.1c0.7,0,1.3-0.6,1.3-1.3s-0.6-1.3-1.3-1.3s-1.3,0.6-1.3,1.3C4.1,92.5,4.7,93.1,5.4,93.1z"/>
			<path class="st0" d="M5.2,107.5c0.7,0,1.3-0.6,1.3-1.3s-0.6-1.3-1.3-1.3s-1.3,0.6-1.3,1.3C3.9,106.9,4.5,107.5,5.2,107.5z"/>
			<path class="st0" d="M5.4,121.9c0.7,0,1.3-0.6,1.3-1.3s-0.6-1.3-1.3-1.3s-1.3,0.6-1.3,1.3S4.7,121.9,5.4,121.9z"/>
			<circle class="st0" cx="5.2" cy="135" r="1.3"/>
			<path class="st0" d="M5.4,150.7c0.7,0,1.3-0.6,1.3-1.3c0-0.7-0.6-1.3-1.3-1.3s-1.3,0.6-1.3,1.3C4.1,150.1,4.7,150.7,5.4,150.7z"
				/>
			<path class="st0" d="M5.2,165.1c0.7,0,1.3-0.6,1.3-1.3c0-0.7-0.6-1.3-1.3-1.3s-1.3,0.6-1.3,1.3C3.9,164.5,4.5,165.1,5.2,165.1z"
				/>
			<path class="st0" d="M5.4,179.5c0.7,0,1.3-0.6,1.3-1.3c0-0.7-0.6-1.3-1.3-1.3s-1.3,0.6-1.3,1.3C4.1,178.9,4.7,179.5,5.4,179.5z"
				/>
			<circle class="st0" cx="5.2" cy="192.6" r="1.3"/>
			<path class="st0" d="M5.4,208.3c0.7,0,1.3-0.6,1.3-1.3s-0.6-1.3-1.3-1.3s-1.3,0.6-1.3,1.3S4.7,208.3,5.4,208.3z"/>
			<path class="st0" d="M5.2,222.7c0.7,0,1.3-0.6,1.3-1.3c0-0.7-0.6-1.3-1.3-1.3s-1.3,0.6-1.3,1.3C3.9,222.1,4.5,222.7,5.2,222.7z"
				/>
			<path class="st0" d="M5.4,237.1c0.7,0,1.3-0.6,1.3-1.3c0-0.7-0.6-1.3-1.3-1.3s-1.3,0.6-1.3,1.3C4.1,236.5,4.7,237.1,5.4,237.1z"
				/>
			<path class="st0" d="M5.2,251.5c0.7,0,1.3-0.6,1.3-1.3s-0.6-1.3-1.3-1.3s-1.3,0.6-1.3,1.3C3.9,250.9,4.5,251.5,5.2,251.5z"/>
			<path class="st0" d="M5.4,265.9c0.7,0,1.3-0.6,1.3-1.3s-0.6-1.3-1.3-1.3s-1.3,0.6-1.3,1.3S4.7,265.9,5.4,265.9z"/>
		</g>
	</g>
</g>
</svg>
