<?xml version="1.0" encoding="iso-8859-1"?>
<!-- Generator: Adobe Illustrator 18.1.1, SVG Export Plug-In . SVG Version: 6.00 Build 0)  -->
<svg version="1.1" id="Capa_1" xmlns="http://www.w3.org/2000/svg" xmlns:xlink="http://www.w3.org/1999/xlink" x="0px" y="0px"
	 viewBox="0 0 46.195 46.195" style="enable-background:new 0 0 46.195 46.195;" xml:space="preserve">
<style>
.st0{fill:rgba(247, 247, 247, 0.2);}
</style>
<g xmlns="http://www.w3.org/2000/svg">
	<path class="st0" d="M0,18.9C0,18.9,0,18.9,0,18.9c0,10.5,8.3,19,18.7,19c1.5,0,2.4-1.2,2.4-2.7s-1.2-2.7-2.7-2.7   c-3.2,0-6.1-1.1-8.5-3c0.1,0,0.1,0,0.2,0c5.9,0,10.7-4.8,10.7-10.7S16.3,8.3,10.4,8.3C4.5,8.3,0,13,0,18.9z"/>
	<path class="st0" d="M25,18.9C25,18.9,25,18.9,25,18.9c0,10.5,8.3,19,18.8,19c1.5,0,2.4-1.2,2.4-2.7s-1.2-2.7-2.7-2.7   c-3.2,0-6.1-1.1-8.5-3c0.1,0,0.1,0,0.2,0c5.9,0,10.7-4.8,10.7-10.7S41.3,8.3,35.4,8.3C29.5,8.3,25,13,25,18.9z"/>
</g>
</svg>
